<?xml version="1.0" encoding="utf-8"?>
<!-- Generator: Adobe Illustrator 27.8.1, SVG Export Plug-In . SVG Version: 6.00 Build 0)  -->
<svg version="1.1" id="Layer_1" xmlns="http://www.w3.org/2000/svg" xmlns:xlink="http://www.w3.org/1999/xlink" x="0px" y="0px"
	 viewBox="0 0 256 256" style="enable-background:new 0 0 256 256;" xml:space="preserve">
<style type="text/css">
	.st0{clip-path:url(#SVGID_00000000207032224228999740000018001946690814675586_);}
	.st1{fill:#B6B6B6;}
</style>
<g>
	<g>
		<defs>
			<rect id="SVGID_1_" width="256" height="256"/>
		</defs>
		<clipPath id="SVGID_00000083066080782254102400000007005957424852761784_">
			<use xlink:href="#SVGID_1_"  style="overflow:visible;"/>
		</clipPath>
		<g style="clip-path:url(#SVGID_00000083066080782254102400000007005957424852761784_);">
			<path class="st1" d="M251.2,116.6L139.4,4.8c-6.4-6.4-16.9-6.4-23.3,0L92.9,28l29.4,29.4c6.8-2.3,14.7-0.8,20.1,4.7
				c5.5,5.5,7,13.4,4.7,20.3l28.4,28.4c6.9-2.4,14.8-0.8,20.3,4.7c7.7,7.7,7.7,20.1,0,27.7c-7.7,7.7-20.1,7.7-27.7,0
				c-5.8-5.8-7.2-14.2-4.3-21.3l-26.5-26.5V165c1.9,0.9,3.6,2.2,5.2,3.7c7.7,7.7,7.7,20.1,0,27.7c-7.7,7.7-20.1,7.7-27.7,0
				c-7.7-7.7-7.7-20.1,0-27.7c1.9-1.9,4.1-3.3,6.4-4.3V94.2c-2.3-1-4.5-2.4-6.4-4.3c-5.8-5.8-7.2-14.3-4.2-21.4l-29-29L4.8,116.1
				c-6.4,6.4-6.4,16.9,0,23.3l111.8,111.8c6.4,6.4,16.9,6.4,23.3,0L251.2,140C257.6,133.5,257.6,123,251.2,116.6z"/>
		</g>
	</g>
</g>
</svg>
