<?xml version="1.0" encoding="utf-8"?>
<!-- Generator: Adobe Illustrator 27.8.1, SVG Export Plug-In . SVG Version: 6.00 Build 0)  -->
<svg version="1.1" id="Layer_1" xmlns="http://www.w3.org/2000/svg" xmlns:xlink="http://www.w3.org/1999/xlink" x="0px" y="0px"
	 viewBox="0 0 800 800" style="enable-background:new 0 0 800 800;" xml:space="preserve">
<style type="text/css">
	.st0{fill:#B6B6B6;}
</style>
<path class="st0" d="M400,0C179.1,0,0,179.1,0,400s179.1,400,400,400s400-179.1,400-400S620.9,0,400,0z M400,61.5
	c186.5,0.2,337.6,151.5,337.6,338c0,186.7-151.3,338-338,338s-338-151.3-338-338c0-93.3,37.8-177.8,99-239
	c61.2-61.2,145.8-99,239.2-99L400,61.5L400,61.5z M400,153.9c-146.4,25.8-276.9,160.8-276.9,307.7C194.7,335.1,242.5,326,255.8,326
	c13.2,0,20.2,6.9,20.2,22.1v188.5c0,23.4-45.5,19.6-60.6,17.3C271,636.7,400,646.2,400,646.2l61.5-61.5l61.5,30.8
	c97.1-44.5,153.8-139.7,153.8-153.8c-23.4,28.9-54.9,50.5-91,61.2l-1.3,0.3c-8.2,0-30.8-4.2-30.8-15.4V284.6
	c0-19.4,44.7-78.5,61.5-100c-111.1,29.1-143.3,79.8-143.3,79.8s-8.4-18.3-41.3-18.3c16.7,15.8,27.9,37.1,30.7,61.1l0,0.5v188.5
	c-17.5,12.4-38.1,21.8-60.4,26.7l-1.1,0.2c-21.3,0-31.7-8.7-31.7-25c0-16.3,1-221.1,1-221.1s-30.8,11.3-30.8-51.9
	C338.4,193.3,399.9,153.8,400,153.9L400,153.9z"/>
</svg>
