<?xml version="1.0" encoding="utf-8"?>
<!-- Generator: Adobe Illustrator 26.0.1, SVG Export Plug-In . SVG Version: 6.00 Build 0)  -->
<svg version="1.1" id="Layer_1" xmlns="http://www.w3.org/2000/svg" xmlns:xlink="http://www.w3.org/1999/xlink" x="0px" y="0px"
	 viewBox="0 0 640 360" enable-background="new 0 0 640 360" xml:space="preserve">
<g>
	<path fill="#3F3D56" d="M116.0534,312.68c4.8286,17.8493,21.3675,28.9038,21.3675,28.9038s8.7103-17.8849,3.8817-35.7342
		c-4.8286-17.8493-21.3675-28.9038-21.3675-28.9038S111.2249,294.8307,116.0534,312.68z"/>
	<path fill="#F56539" d="M123.1487,308.844c13.2496,12.898,14.868,32.7253,14.868,32.7253s-19.8636-1.0846-33.1132-13.9826
		c-13.2497-12.898-14.868-32.7252-14.868-32.7252S109.899,295.946,123.1487,308.844z"/>
	<rect x="89.1305" y="358.56" fill="#2F2E41" width="466.56" height="1.44"/>
	<path fill="#3F3D56" d="M143.96,359.28h-18.72v-18.72h18.72V359.28z M126.68,357.84h15.84V342h-15.84V357.84z"/>
	<rect x="25.16" y="14.2751" fill="#3F3D56" width="158.6497" height="158.6497"/>
	<path fill="#F56539" d="M183.8097,53.7464v3.6413c-2.4179-1.602-4.3697-3.8142-5.6579-6.4129
		c-2.1122-4.3198-2.0453-9.2991-1.9783-14.116c0.0765-5.7248,0.1529-11.1246-3.4788-14.6417
		c-3.9949-3.8612-10.3887-3.3164-16.5722-2.7907c-0.7264,0.0573-1.4527,0.1242-2.1695,0.1815
		c-6.2026,0.4683-13.1125-1.099-16.4671-5.3329h4.186c3.0679,2.0643,7.7605,2.7907,12.0708,2.4657
		c0.6977-0.0478,1.4145-0.1147,2.1313-0.172c6.5085-0.5543,13.8866-1.1851,18.8086,3.584
		c4.5301,4.3772,4.4441,10.6659,4.3581,16.7443c-0.0669,4.4824-0.1243,9.1081,1.6917,12.8162
		C181.4857,51.2452,182.5311,52.6153,183.8097,53.7464z"/>
	<path fill="#F56539" d="M183.8097,78.9296v4.2625c-0.6962-0.9097-1.477-1.7513-2.332-2.5136
		c-4.9315-4.3485-12.0134-5.3042-18.8564-6.2408c-0.8888-0.1147-1.7585-0.2389-2.6282-0.3632
		c-11.096-1.5961-17.9771-5.4094-21.0259-11.6312c-2.1122-4.3198-2.0453-9.2991-1.9783-14.116
		c0.0765-5.7248,0.1529-11.1246-3.4789-14.6417c-3.9949-3.8612-10.3887-3.3164-16.5722-2.7907
		c-0.7264,0.0573-1.4527,0.1242-2.1695,0.1815c-7.9707,0.6021-17.117-2.1599-18.369-9.6241
		c-0.43-2.5614,0.2103-4.9124,1.1564-7.1775h3.1348c-1.0513,2.2746-1.835,4.4728-1.4623,6.6996
		c0.9462,5.6961,8.6111,7.7413,15.3298,7.2348c0.6977-0.0478,1.4145-0.1147,2.1313-0.172
		c6.5085-0.5543,13.8866-1.1851,18.8086,3.584c4.5301,4.3772,4.4441,10.6659,4.3581,16.7443
		c-0.0669,4.4824-0.1243,9.108,1.6916,12.8162c2.5995,5.3139,8.7639,8.6015,18.8564,10.0542
		c0.8601,0.1242,1.7298,0.2485,2.5995,0.3632c7.2635,0.9844,14.785,2.007,20.376,6.929
		C183.523,78.6525,183.6664,78.7863,183.8097,78.9296z"/>
	<path fill="#F56539" d="M183.8097,150.7808v5.8873c-3.4501-3.67-6.3364-8.7066-8.5442-15.0048
		c-0.4683-1.338-0.9175-2.7047-1.3667-4.0714c-2.4753-7.4832-5.0367-15.2151-11.1342-20.1561
		c-6.5181-5.2756-15.8554-6.4416-24.8869-7.5694c-1.1564-0.1433-2.3128-0.2867-3.4597-0.4396
		c-14.6417-1.9401-23.7114-6.5562-27.7351-14.1065c-2.7907-5.2469-2.7047-11.2871-2.6187-17.1265
		c0.1051-6.9385,0.2103-13.4948-4.5874-17.7573c-5.266-4.6831-13.7051-4.0236-21.8573-3.3832
		c-0.9653,0.0764-1.921,0.1529-2.8576,0.2198c-10.5225,0.7264-22.5933-2.6187-24.2371-11.6694
		c-0.8124-4.4345,1.2616-8.3626,3.259-12.1663c1.1469-2.1791,2.2364-4.253,2.7907-6.3842c1.166-4.3868-0.2771-9.3278-3.4788-12.778
		h4.683c2.7336,3.9701,3.6348,8.9213,2.4753,13.5999c-0.6594,2.4944-1.8827,4.8264-3.0678,7.0819
		c-1.8255,3.4597-3.5362,6.7283-2.9341,10.0733c1.2616,6.9003,11.3635,9.3852,20.223,8.7735
		c0.9271-0.0669,1.8732-0.1434,2.8194-0.2102c8.5824-0.6786,18.3117-1.4336,24.8105,4.3485
		c5.9733,5.3042,5.8586,12.9309,5.7439,20.2995c-0.0765,5.4381-0.1625,11.0481,2.2268,15.5496
		c3.4311,6.432,11.5738,10.4269,24.887,12.1949c1.1277,0.1529,2.2746,0.2963,3.4214,0.4397
		c9.5955,1.1947,19.5063,2.4275,26.8749,8.4008c6.9099,5.6006,9.6336,13.8102,12.2523,21.7522
		c0.4492,1.3572,0.8984,2.6951,1.3572,4.0236C180.0838,144.1883,181.7438,147.6078,183.8097,150.7808z"/>
	<path fill="#F56539" d="M25.16,78.3371c4.3581,5.2756,13.5999,7.2253,21.886,6.6518c0.9366-0.0669,1.8923-0.1434,2.8576-0.2198
		c8.1523-0.6403,16.5913-1.2998,21.8573,3.3833c4.7977,4.2625,4.6926,10.8188,4.5875,17.7573
		c-0.086,5.8395-0.172,11.8796,2.6187,17.1265c4.0236,7.5502,13.0934,12.1663,27.735,14.1065
		c1.1469,0.1529,2.3033,0.2963,3.4597,0.4396c9.0316,1.1277,18.369,2.2937,24.887,7.5693
		c6.0975,4.9411,8.6588,12.6729,11.1342,20.1562c0.4492,1.3667,0.8984,2.7334,1.3667,4.0714
		c0.4301,1.2329,0.8888,2.4084,1.3667,3.5457h4.0905c-0.7168-1.5578-1.3285-3.1156-1.8541-4.6066
		c-0.4588-1.3285-0.9079-2.6665-1.3571-4.0236c-2.6187-7.942-5.3425-16.1517-12.2523-21.7522
		c-7.3686-5.9733-17.2794-7.2061-26.8749-8.4008c-1.1469-0.1434-2.2937-0.2867-3.4215-0.4396
		c-13.3132-1.7681-21.4559-5.763-24.887-12.195c-2.3893-4.5014-2.3033-10.1115-2.2268-15.5496
		c0.1147-7.3686,0.2294-14.9953-5.7439-20.2995c-6.4989-5.7821-16.2281-5.0271-24.8105-4.3485
		c-0.9462,0.0669-1.8923,0.1434-2.8194,0.2103c-8.8595,0.6117-18.9615-1.8732-20.2231-8.7735
		c-0.6021-3.345,1.1086-6.6136,2.9341-10.0733c1.1851-2.2555,2.4084-4.5875,3.0679-7.0819
		c1.7968-6.8239-1.2329-14.3836-7.3782-18.5123v4.6831c3.3546,3.4597,4.8837,8.5155,3.6986,13.0073
		c-0.5543,2.1313-1.6438,4.2052-2.7907,6.3842c-0.3058,0.583-0.6117,1.1564-0.9079,1.749L25.16,78.3371z"/>
	<path fill="#F56539" d="M95.3386,172.9249h-3.9662c-0.2103-0.6212-0.411-1.252-0.6213-1.8828
		c-2.4753-7.4832-5.0367-15.2151-11.1342-20.1561c-6.5181-5.2756-15.8554-6.4415-24.887-7.5694
		c-1.1564-0.1433-2.3128-0.2867-3.4597-0.4396c-12.9213-1.7108-21.5133-5.5145-26.1103-11.5738v-9.5094
		c0.2954,1.8985,0.8923,3.7375,1.7681,5.4476c3.4311,6.432,11.5738,10.4269,24.887,12.195
		c1.1277,0.1529,2.2746,0.2963,3.4214,0.4397c9.5955,1.1946,19.5063,2.4275,26.8749,8.4008
		c6.9099,5.6006,9.6336,13.8102,12.2523,21.7522C94.6887,171.0039,95.0041,171.9691,95.3386,172.9249z"/>
	<rect x="240.1973" y="14.2751" fill="#3F3D56" width="158.6497" height="158.6497"/>
	<path fill="#F56539" d="M316.655,25.7438c-0.0021,27.9771-22.6837,50.6553-50.6608,50.6532
		c-9.0764-0.0007-17.986-2.44-25.797-7.0628V14.2751h75.1484C316.2203,18.0352,316.6597,21.8834,316.655,25.7438z"/>
	<circle fill="#F56539" cx="357.751" cy="57.2826" r="30.5831"/>
	<circle fill="#F56539" cx="288.9391" cy="122.2716" r="21.9816"/>
	<path fill="#F56539" d="M398.847,146.9292v25.9956h-31.4528c-3.6939-11.5655,2.6873-23.9356,14.2528-27.6295
		C387.3631,143.4698,393.577,144.06,398.847,146.9292L398.847,146.9292z"/>
	<circle fill="#F56539" cx="344.3709" cy="121.3159" r="5.7343"/>
	<rect x="456.1903" y="14.2751" fill="#3F3D56" width="158.6497" height="158.6497"/>
	<path fill="#F56539" d="M533.6037,14.2751v64.9891h-77.4134v3.8229h81.2363v-68.812H533.6037z"/>
	<path fill="#F56539" d="M608.2742,172.9249l6.5659-9.3374v-6.6423l-11.2393,15.9797H608.2742z M581.6095,104.5143l-35.1801,50.032
		l26.139,18.3786h6.6422l-27.4578-19.3056l30.7838-43.7816l32.3035,22.7175v-4.6735L581.6095,104.5143z"/>
	<path fill="#F56539" d="M523.0908,98.1779l-20.2708,20.2709l20.2708,20.2708l20.2709-20.2708L523.0908,98.1779z M508.2198,118.4488
		l14.871-14.871l14.871,14.871l-14.871,14.871L508.2198,118.4488z"/>
	<circle fill="#F2F2F2" cx="102.92" cy="14.4" r="14.4"/>
	<circle fill="#F2F2F2" cx="325.4" cy="14.4" r="14.4"/>
	<circle fill="#F2F2F2" cx="537.8" cy="14.4" r="14.4"/>
	
		<ellipse transform="matrix(0.1735 -0.9848 0.9848 0.1735 173.4261 375.8503)" fill="#FFB8B8" cx="310.64" cy="84.6" rx="13.68" ry="13.68"/>
	<path fill="#FFB8B8" d="M303.44,91.08c0,0,3.6,18.72,2.16,22.32s20.16-1.44,20.16-1.44s-4.32-18.72-3.6-23.04
		C322.8799,84.6,303.44,91.08,303.44,91.08z"/>
	<polygon fill="#FFB8B8" points="279.6802,155.8802 281.12,175.3199 288.2666,205.8502 290.4799,214.1999 294.08,201.2399 
		290.4799,171.7198 289.2572,158.4294 	"/>
	<path fill="#FFB8B8" d="M355.28,153v20.16c0,0-2.16,25.92-6.48,32.4c-4.32,6.48-5.76-25.92-5.76-25.92l3.3851-23.76L355.28,153z"/>
	<path fill="#2F2E41" d="M291.2,215.64c0,0-3.6,4.32-0.72,48.24c2.88,43.92-1.44,75.6,7.92,75.6c0,0-2.88,9.36,5.04,10.08
		c7.92,0.72,11.52,1.44,12.24-0.72c0.72-2.16,2.16-12.24,0-12.24c0,0,0,2.88,1.44-8.64c1.44-11.52,1.44-66.24,5.04-73.44
		l11.52,26.64c0,0,0,12.24,2.16,18c2.16,5.76,5.76,38.88,5.76,38.88l-0.72,5.04c0,0,17.28,2.88,18,0c0.72-2.88,0.72-7.2,0-8.64
		c-0.72-1.44-0.72-1.44,0.72-4.32c1.44-2.88,1.44-5.04,0.72-7.2c-0.72-2.16-0.72-48.96-0.72-48.96s-1.44-56.88-10.08-59.76
		C340.88,211.32,291.2,215.64,291.2,215.64z"/>
	<path fill="#2F2E41" d="M300.56,343.8l-5.76,10.08c0,0-9-3.24-7.2,5.04c15.48,1.08,26.28-0.36,26.28-0.36s3.6,1.44,4.32-0.72
		c0.72-2.16-1.8-9.72-3.96-9.72C312.08,348.12,300.56,343.8,300.56,343.8z"/>
	<path fill="#2F2E41" d="M342.32,340.92c0,0-5.76,12.96-3.6,13.68c2.16,0.72,21.6,3.6,23.04,4.32c1.44,0.72,8.64,1.44,9.36-2.88
		s-3.6-5.76-3.6-5.76s-7.92-1.44-10.08-8.64C355.2799,334.4401,342.32,340.92,342.32,340.92z"/>
	<path fill="#8985A8" d="M327.2,109.8c0,0-19.44-3.6-23.76,0S281.12,120.6,281.12,124.2s9.36,38.88,9.36,38.88s-5.04,53.28,0,54.72
		s13.68-2.88,23.76,2.16c10.08,5.04,38.88-4.32,38.88-4.32s-10.8-46.08-7.92-54.72c2.88-8.64,5.04-38.16,5.04-38.16
		S338,109.8,327.2,109.8z"/>
	<path fill="#8985A8" d="M286.16,122.04l-5.04,1.44c0,0-10.8,33.84-6.48,35.28c4.32,1.44,16.56,4.32,18,4.32
		C294.08,163.08,286.16,122.04,286.16,122.04z"/>
	<path fill="#8985A8" d="M338.72,118.44l11.52,4.32c0,0,15.12,28.08,11.52,31.68c-3.6,3.6-19.44,7.2-19.44,7.2L338.72,118.44z"/>
	<path fill="#2F2E41" d="M310.2245,67.7032c-1.1376-0.2061-2.307-0.1545-3.4221,0.1511c-0.8924,0.3952-1.714,0.9341-2.4319,1.5953
		c-1.3028,1.0382-2.6942,1.96-4.1581,2.7549c-1.1667,0.6334-2.4208,1.2196-3.2354,2.2679
		c-0.3851,0.5298-0.6925,1.1118-0.9131,1.7285c-1.4032,3.5834-1.7803,7.4869-1.089,11.2727
		c0.0777,0.5379,0.2396,1.0603,0.4796,1.5479c0.7483,1.3787,2.4011,1.9221,3.7934,2.6448c2.6434,1.3722,4.6472,3.6828,6.8153,5.7248
		c0.8053,0.8039,1.7102,1.5013,2.6928,2.0752c3.0931,1.6864,6.8738,1.1363,10.3459,0.5399c1.0298-0.002,1.8629-0.8383,1.8609-1.8681
		c0-0.0047,0-0.0095-0.0001-0.0142l2.7407-12.3268c0.4968-1.8264,0.7332-3.7137,0.7024-5.6062
		c-0.1912-2.9923-1.8112-7.1374-4.0073-9.2629C317.8397,68.4514,313.5692,68.0573,310.2245,67.7032z"/>
	<circle fill="#F56539" cx="217.5727" cy="342.7411" r="5.6818"/>
	<path fill="#2F2E41" d="M217.5727,359.1551c-9.0652,0-16.4141-7.3488-16.4141-16.4141s7.3488-16.4141,16.4141-16.4141
		c9.0652,0,16.4141,7.3488,16.4141,16.4141C233.9767,351.8021,226.6338,359.145,217.5727,359.1551z M217.5727,327.5896
		c-8.3679,0-15.1514,6.7835-15.1514,15.1515s6.7835,15.1514,15.1514,15.1514c8.3679,0,15.1514-6.7835,15.1514-15.1514l0,0
		C232.7146,334.3771,225.9367,327.5992,217.5727,327.5896z"/>
	<circle fill="#F56539" cx="494.0527" cy="343.461" r="5.6818"/>
	<path fill="#2F2E41" d="M494.0527,359.8751c-9.0652,0-16.414-7.3488-16.414-16.4141c0-9.0652,7.3488-16.4141,16.4141-16.4141
		c9.0652,0,16.4141,7.3488,16.4141,16.4141C510.4567,352.5221,503.1138,359.865,494.0527,359.8751z M494.0527,328.3096
		c-8.3679,0-15.1514,6.7835-15.1514,15.1515s6.7835,15.1514,15.1514,15.1514s15.1515-6.7835,15.1515-15.1514l0,0
		C509.1946,335.0971,502.4167,328.3192,494.0527,328.3096z"/>
	<circle fill="#F56539" cx="494.0527" cy="311.781" r="5.6818"/>
	<path fill="#2F2E41" d="M494.0527,328.1951c-9.0652,0-16.414-7.3488-16.414-16.4141s7.3488-16.4141,16.4141-16.4141
		c9.0652,0,16.4141,7.3488,16.4141,16.4141C510.4567,320.842,503.1138,328.185,494.0527,328.1951z M494.0527,296.6296
		c-8.3679,0-15.1514,6.7835-15.1514,15.1514s6.7835,15.1515,15.1514,15.1515s15.1515-6.7835,15.1515-15.1515l0,0
		C509.1946,303.4171,502.4167,296.6392,494.0527,296.6296z"/>
</g>
</svg>
