<?xml version="1.0" encoding="utf-8"?>
<!-- Generator: Adobe Illustrator 26.0.1, SVG Export Plug-In . SVG Version: 6.00 Build 0)  -->
<svg version="1.1" id="Layer_1" xmlns="http://www.w3.org/2000/svg" xmlns:xlink="http://www.w3.org/1999/xlink" x="0px" y="0px"
	 viewBox="0 0 340 543" enable-background="new 0 0 340 543" xml:space="preserve">
<path fill="#009FE3" d="M215.143,503.109c57.463,0,104.046-46.538,104.046-103.945s-46.583-103.945-104.046-103.945
	c-57.462,0-104.045,46.538-104.045,103.945S157.681,503.109,215.143,503.109z"/>
<path fill="#009FE3" d="M285.78,382.363l-31.541,46.823c-2.666,3.958-6.726,6.755-11.363,7.83l-0.649,0.151l52.628-148.007
	c2.722,3.905,3.876,8.698,3.229,13.419l-10.158,74.155C287.651,378.752,286.916,380.677,285.78,382.363z"/>
<path fill="#212121" d="M242.224,438.201c-0.29,0-0.571-0.123-0.769-0.346c-0.25-0.283-0.326-0.679-0.199-1.035l52.629-148.007
	c0.129-0.364,0.451-0.624,0.832-0.677c0.389-0.051,0.761,0.116,0.981,0.432c2.88,4.131,4.09,9.158,3.404,14.153l-10.156,74.155
	c-0.296,2.162-1.096,4.26-2.313,6.066l-31.543,46.823c-2.82,4.189-7.077,7.122-11.985,8.259l-0.649,0.151
	C242.38,438.193,242.302,438.201,242.224,438.201z M295.104,291.532l-51.26,144.155c3.889-1.191,7.245-3.671,9.542-7.08
	l31.542-46.823c1.041-1.545,1.725-3.34,1.979-5.189l10.157-74.155C297.581,298.657,296.888,294.854,295.104,291.532z"/>
<path fill="#009FE3" d="M147.116,445.131h84.96c4.839,0,9.141-1.35,9.791-7.289c-5.758,0-104.855,0-104.855,0
	S138.513,445.131,147.116,445.131z"/>
<path fill="#212121" d="M232.076,446.164h-84.961c-9.332,0-11.096-8.032-11.113-8.114c-0.063-0.304,0.014-0.621,0.21-0.862
	c0.194-0.241,0.489-0.381,0.798-0.381h104.856c0.292,0,0.571,0.125,0.767,0.344c0.195,0.219,0.288,0.51,0.256,0.803
	C241.992,446.164,234.529,446.164,232.076,446.164z M138.444,438.875c0.825,1.881,3.076,5.222,8.671,5.222h84.961
	c5.146,0,7.781-1.577,8.583-5.222H138.444z"/>
<path fill="#EAEAEA" d="M137.008,437.842h104.855l16.805-92.867h-87.65L137.008,437.842z"/>
<path fill="#212121" d="M241.866,438.876H137.01c-0.337,0-0.652-0.166-0.845-0.443c-0.192-0.277-0.237-0.631-0.121-0.948
	l34.012-92.867c0.149-0.407,0.535-0.677,0.965-0.677h87.648c0.306,0,0.595,0.136,0.791,0.371c0.196,0.236,0.278,0.546,0.222,0.847
	l-16.802,92.867C242.789,438.518,242.363,438.876,241.866,438.876z M138.485,436.808h102.521l16.43-90.799h-85.697L138.485,436.808z
	"/>
<path fill="#212121" d="M282.869,377.37l-41.002,60.471l16.805-92.867l36.431-56.152L282.869,377.37z"/>
<path fill="#212121" d="M241.869,438.875c-0.13,0-0.263-0.025-0.39-0.077c-0.451-0.185-0.709-0.661-0.623-1.141l16.804-92.867
	c0.025-0.136,0.076-0.265,0.15-0.38l36.431-56.152c0.262-0.406,0.774-0.572,1.223-0.404c0.452,0.17,0.726,0.631,0.66,1.11
	l-12.233,88.547c-0.022,0.158-0.08,0.308-0.169,0.44l-41.001,60.471C242.524,438.713,242.202,438.875,241.869,438.875z
	 M259.649,345.364l-15.899,87.868l38.134-56.244l11.566-83.724L259.649,345.364z M282.87,377.37h0.011H282.87z"/>
<path fill="#009FE3" d="M218.705,415.683l6.905-0.008c1.111-0.001,1.849,0.753,1.648,1.687l-1.263,5.872
	c-0.205,0.953-1.285,1.728-2.411,1.728h-7.001c-1.125,0-1.856-0.774-1.635-1.726l1.36-5.864
	C216.524,416.438,217.596,415.684,218.705,415.683z M198.117,417.387l-1.522,5.853c-0.247,0.95,0.459,1.723,1.579,1.723h6.974
	c1.121,0,2.218-0.773,2.45-1.725l1.425-5.86c0.226-0.932-0.487-1.684-1.593-1.683l-6.877,0.007
	C199.449,415.702,198.358,416.456,198.117,417.387z M179.998,417.403l-1.682,5.84c-0.272,0.948,0.409,1.719,1.524,1.719h6.945
	c1.117,0,2.232-0.772,2.489-1.721l1.585-5.848c0.253-0.93-0.437-1.68-1.539-1.679l-6.849,0.007
	C181.374,415.722,180.266,416.473,179.998,417.403z M161.956,417.417l-1.841,5.829c-0.299,0.947,0.358,1.716,1.468,1.716h6.916
	c1.112,0,2.244-0.77,2.528-1.718l1.745-5.836c0.278-0.928-0.387-1.678-1.484-1.677l-6.821,0.007
	C163.372,415.741,162.248,416.491,161.956,417.417z M219.333,404.324l-1.305,5.629c-0.212,0.914,0.508,1.656,1.61,1.654l6.862-0.01
	c1.103-0.002,2.158-0.746,2.355-1.662l1.211-5.637c0.193-0.896-0.534-1.619-1.622-1.617l-6.769,0.017
	C220.59,402.702,219.541,403.427,219.333,404.324z M201.501,404.365l-1.461,5.619c-0.236,0.912,0.46,1.652,1.557,1.651l6.834-0.01
	c1.099-0.002,2.171-0.745,2.392-1.658l1.368-5.626c0.217-0.895-0.486-1.615-1.57-1.613l-6.741,0.016
	C202.798,402.746,201.734,403.471,201.501,404.365z M183.74,404.406l-1.614,5.608c-0.262,0.911,0.411,1.649,1.503,1.648l6.807-0.01
	c1.095-0.002,2.184-0.745,2.431-1.655l1.522-5.615c0.242-0.893-0.437-1.612-1.517-1.61l-6.715,0.017
	C185.078,402.791,183.997,403.514,183.74,404.406z M166.05,404.447l-1.767,5.597c-0.287,0.909,0.362,1.646,1.45,1.645l6.78-0.01
	c1.09-0.003,2.195-0.743,2.467-1.652l1.676-5.604c0.267-0.891-0.39-1.61-1.466-1.607l-6.688,0.016
	C167.429,402.835,166.331,403.557,166.05,404.447z M222.24,391.79l-1.255,5.41c-0.204,0.878,0.507,1.589,1.586,1.586l6.728-0.02
	c1.082-0.003,2.113-0.721,2.302-1.599l1.164-5.416c0.186-0.861-0.53-1.555-1.597-1.55l-6.638,0.025
	C223.464,390.231,222.44,390.929,222.24,391.79z M204.753,391.855l-1.403,5.4c-0.228,0.876,0.459,1.585,1.535,1.582l6.701-0.019
	c1.078-0.004,2.125-0.719,2.338-1.596l1.314-5.406c0.209-0.86-0.484-1.551-1.547-1.547l-6.612,0.026
	C206.017,390.299,204.976,390.996,204.753,391.855z M187.335,391.92l-1.551,5.39c-0.253,0.874,0.411,1.582,1.483,1.579l6.674-0.02
	c1.074-0.003,2.136-0.717,2.374-1.593l1.463-5.395c0.232-0.858-0.438-1.548-1.497-1.544l-6.586,0.026
	C188.638,390.367,187.581,391.063,187.335,391.92z M169.985,391.985l-1.699,5.378c-0.276,0.874,0.366,1.58,1.433,1.577l6.648-0.02
	c1.068-0.003,2.148-0.716,2.41-1.59l1.61-5.385c0.256-0.857-0.393-1.546-1.448-1.542l-6.56,0.026
	C171.327,390.434,170.254,391.13,169.985,391.985z M225.034,379.742l-1.207,5.201c-0.195,0.844,0.504,1.525,1.563,1.521l6.598-0.029
	c1.061-0.004,2.069-0.694,2.25-1.54l1.12-5.207c0.178-0.828-0.527-1.494-1.574-1.488l-6.51,0.034
	C226.228,378.241,225.225,378.915,225.034,379.742z M207.879,379.83l-1.349,5.191c-0.22,0.843,0.458,1.524,1.513,1.519l6.572-0.029
	c1.058-0.005,2.081-0.694,2.286-1.537l1.264-5.198c0.2-0.827-0.482-1.492-1.526-1.486l-6.486,0.035
	C209.111,378.331,208.093,379.003,207.879,379.83z M190.79,379.916l-1.491,5.183c-0.242,0.841,0.413,1.52,1.464,1.516l6.546-0.028
	c1.054-0.004,2.092-0.692,2.321-1.534l1.407-5.188c0.223-0.826-0.438-1.489-1.477-1.484l-6.462,0.035
	C192.061,378.42,191.028,379.092,190.79,379.916z M173.768,380.002l-1.634,5.173c-0.265,0.84,0.369,1.518,1.415,1.513l6.521-0.028
	c1.049-0.004,2.104-0.691,2.355-1.531l1.548-5.18c0.246-0.823-0.393-1.486-1.429-1.48l-6.437,0.034
	C175.075,378.51,174.027,379.179,173.768,380.002z M227.721,368.151l-1.161,5.005c-0.188,0.812,0.502,1.466,1.54,1.461l6.473-0.036
	c1.041-0.006,2.027-0.671,2.202-1.484l1.078-5.01c0.171-0.797-0.523-1.437-1.551-1.43l-6.389,0.042
	C228.887,366.705,227.907,367.354,227.721,368.151z M210.887,368.258l-1.299,4.997c-0.211,0.81,0.457,1.464,1.492,1.458l6.449-0.036
	c1.036-0.006,2.038-0.67,2.234-1.481l1.216-5.002c0.194-0.795-0.48-1.433-1.504-1.427l-6.366,0.041
	C212.089,366.815,211.094,367.464,210.887,368.258z M194.115,368.365l-1.436,4.988c-0.232,0.809,0.414,1.462,1.446,1.456
	l6.424-0.036c1.032-0.006,2.048-0.669,2.269-1.479l1.353-4.993c0.215-0.795-0.437-1.432-1.456-1.425l-6.342,0.041
	C195.354,366.924,194.344,367.572,194.115,368.365z M177.407,368.472l-1.571,4.979c-0.256,0.807,0.37,1.46,1.398,1.453l6.399-0.036
	c1.03-0.006,2.06-0.667,2.302-1.476l1.49-4.984c0.237-0.792-0.394-1.429-1.41-1.422l-6.318,0.041
	C178.682,367.034,177.658,367.68,177.407,368.472z M230.309,356.991l-1.118,4.82c-0.181,0.781,0.499,1.411,1.519,1.404l6.353-0.045
	c1.021-0.007,1.987-0.649,2.154-1.431l1.038-4.825c0.165-0.768-0.519-1.382-1.527-1.375l-6.274,0.049
	C231.447,355.598,230.487,356.224,230.309,356.991z M213.783,357.117l-1.251,4.812c-0.203,0.78,0.456,1.409,1.472,1.401l6.33-0.043
	c1.018-0.007,1.997-0.648,2.187-1.429l1.171-4.816c0.187-0.767-0.477-1.38-1.482-1.373l-6.249,0.049
	C214.956,355.726,213.981,356.353,213.783,357.117z M197.318,357.244l-1.383,4.803c-0.224,0.779,0.414,1.406,1.426,1.399
	l6.306-0.043c1.014-0.008,2.008-0.646,2.219-1.427l1.304-4.808c0.208-0.765-0.436-1.378-1.438-1.37l-6.226,0.048
	C198.525,355.854,197.537,356.479,197.318,357.244z M180.913,357.369l-1.515,4.795c-0.246,0.779,0.373,1.405,1.381,1.398
	l6.282-0.044c1.01-0.007,2.019-0.645,2.251-1.424l1.435-4.8c0.229-0.764-0.395-1.376-1.393-1.367l-6.203,0.048
	C182.156,355.982,181.153,356.606,180.913,357.369z"/>
<path fill="#009FE3" d="M98.432,160.6c29.231,0,52.927-23.673,52.927-52.876c0-29.203-23.696-52.876-52.927-52.876
	c-29.231,0-52.928,23.674-52.928,52.876C45.504,136.927,69.2,160.6,98.432,160.6z"/>
<path fill="#212121" d="M213.961,317.607c-0.265,0.166-0.605,0.203-0.918,0.066c-0.195-0.084-19.73-8.345-40.991,0.059
	c-0.51,0.202-1.091-0.054-1.3-0.571c-0.208-0.517,0.033-1.105,0.544-1.302c22.042-8.715,42.304-0.118,42.506-0.031
	c0.508,0.221,0.75,0.813,0.541,1.323C214.262,317.347,214.127,317.503,213.961,317.607z"/>
<path fill="#212121" d="M202.621,325.034c-0.174,0.109-0.384,0.164-0.605,0.144c-0.128-0.01-12.831-1.002-23.355,7.939
	c-0.413,0.353-1.046,0.294-1.406-0.133c-0.359-0.427-0.311-1.061,0.107-1.416c11.164-9.487,24.242-8.442,24.793-8.393
	c0.548,0.049,0.962,0.536,0.923,1.089C203.056,324.596,202.877,324.874,202.621,325.034z"/>
<path fill="#EAEAEA" d="M132.615,85.521L60.055,98.376c-3.867,0.686-6.449,4.377-5.764,8.245l2.404,13.588
	c0.685,3.868,4.376,6.448,8.243,5.763l3.923-0.694l2.48,14.008l6.997-15.687l59.162-10.481c3.868-0.686,6.449-4.376,5.765-8.245
	l-2.405-13.588C140.174,87.416,136.483,84.835,132.615,85.521z"/>
<path fill="#212121" d="M71.519,140.309c-0.1,0.018-0.205,0.021-0.31,0.009c-0.454-0.056-0.818-0.401-0.898-0.851l-2.298-12.984
	l-2.897,0.514c-4.427,0.784-8.665-2.18-9.449-6.607l-2.405-13.587c-0.781-4.421,2.174-8.655,6.59-9.448
	c0.006-0.001,0.011-0.002,0.018-0.003l72.561-12.855c4.426-0.784,8.665,2.179,9.449,6.606l2.404,13.589
	c0.38,2.143-0.098,4.308-1.347,6.093c-1.243,1.779-3.105,2.971-5.242,3.354c-0.006,0.001-0.012,0.002-0.018,0.003l-58.619,10.385
	l-6.771,15.184C72.143,140.03,71.852,140.249,71.519,140.309z M60.219,99.403c-3.289,0.59-5.491,3.743-4.909,7.037l2.405,13.587
	c0.584,3.297,3.741,5.505,7.039,4.921l3.921-0.695c0.272-0.049,0.552,0.013,0.778,0.171c0.227,0.158,0.38,0.399,0.429,0.671
	l1.888,10.666l5.614-12.587c0.141-0.315,0.427-0.54,0.766-0.6c0.001-0.001,0.001-0.001,0.002-0.001l59.163-10.481
	c1.584-0.25,2.988-1.171,3.919-2.501c0.93-1.33,1.286-2.941,1.002-4.539l-2.404-13.588c-0.584-3.297-3.74-5.504-7.037-4.921
	L60.232,99.4C60.228,99.401,60.224,99.402,60.219,99.403z"/>
<path fill="#212121" d="M86.729,110.885c1.497-0.268,2.492-1.699,2.224-3.196c-0.268-1.497-1.699-2.493-3.196-2.224
	c-1.497,0.268-2.492,1.7-2.224,3.196C83.801,110.158,85.232,111.154,86.729,110.885z"/>
<path fill="#212121" d="M99.299,108.66c1.497-0.268,2.493-1.699,2.224-3.196c-0.268-1.497-1.699-2.492-3.196-2.224
	c-1.497,0.269-2.493,1.7-2.224,3.197C96.371,107.933,97.802,108.929,99.299,108.66z"/>
<path fill="#212121" d="M111.865,106.434c1.497-0.269,2.493-1.7,2.225-3.197c-0.269-1.496-1.7-2.492-3.196-2.223
	c-1.497,0.268-2.493,1.699-2.225,3.196C108.938,105.707,110.369,106.702,111.865,106.434z"/>
<path fill="#009FE3" d="M212.205,165.589c21.361,0,38.678-17.299,38.678-38.64c0-21.34-17.317-38.64-38.678-38.64
	s-38.678,17.3-38.678,38.64C173.527,148.29,190.844,165.589,212.205,165.589z"/>
<path fill="#EAEAEA" d="M239.19,143.244l-45.311,8.403c-1.758,0.326-3.448-0.839-3.775-2.601l-5.666-30.583
	c-0.326-1.762,0.834-3.456,2.592-3.781l45.312-8.404c1.757-0.326,3.448,0.839,3.774,2.601l5.666,30.583
	C242.109,141.224,240.948,142.918,239.19,143.244z"/>
<path fill="#212121" d="M239.395,144.283c-0.005,0.001-0.008,0.001-0.011,0.002l-45.312,8.402c-2.328,0.432-4.574-1.117-5.006-3.45
	l-5.667-30.584c-0.431-2.33,1.106-4.577,3.428-5.013c0.003,0,0.006-0.001,0.009-0.001l45.312-8.403
	c1.127-0.209,2.268,0.035,3.215,0.686c0.946,0.652,1.582,1.633,1.791,2.763l5.668,30.583c0.208,1.13-0.034,2.275-0.682,3.222
	C241.492,143.436,240.518,144.072,239.395,144.283z M187.217,115.723c-1.179,0.221-1.959,1.362-1.74,2.545l5.667,30.585
	c0.106,0.573,0.429,1.072,0.909,1.402c0.481,0.331,1.06,0.455,1.633,0.349l45.312-8.402c0.002-0.001,0.004-0.001,0.005-0.001
	c0.571-0.107,1.065-0.43,1.395-0.91c0.33-0.481,0.452-1.062,0.345-1.636l-5.666-30.584c-0.107-0.574-0.43-1.073-0.911-1.403
	c-0.48-0.331-1.059-0.454-1.631-0.348l-45.312,8.402C187.22,115.722,187.218,115.722,187.217,115.723z"/>
<path fill="#212121" d="M213.391,130.406c-1.104,0.207-2.275,0.062-3.348-0.467l-24.665-12.14c-0.524-0.259-0.741-0.894-0.483-1.418
	c0.257-0.525,0.888-0.741,1.413-0.484l24.665,12.14c1.297,0.638,2.823,0.354,3.804-0.705l18.676-20.176
	c0.396-0.428,1.065-0.453,1.493-0.056c0.428,0.398,0.453,1.068,0.056,1.497l-18.675,20.177
	C215.521,129.646,214.488,130.2,213.391,130.406z"/>
<path fill="#212121" d="M192.104,150.615c-0.319,0.059-0.659-0.028-0.915-0.265c-0.429-0.398-0.453-1.068-0.057-1.497l14.397-15.555
	c0.396-0.429,1.064-0.452,1.492-0.056c0.429,0.398,0.453,1.068,0.057,1.497l-14.396,15.556
	C192.522,150.467,192.319,150.574,192.104,150.615z"/>
<path fill="#212121" d="M240.485,141.644c-0.216,0.041-0.446,0.014-0.659-0.09l-19.015-9.361c-0.523-0.258-0.74-0.893-0.483-1.418
	c0.258-0.525,0.889-0.74,1.413-0.484l19.016,9.36c0.523,0.259,0.74,0.894,0.483,1.418
	C241.088,141.381,240.802,141.585,240.485,141.644z"/>
<path fill="#009FE3" d="M234.372,272.371c26.858,0,48.63-21.751,48.63-48.583s-21.772-48.583-48.63-48.583
	c-26.857,0-48.63,21.751-48.63,48.583S207.515,272.371,234.372,272.371z"/>
<path fill="#009FE3" d="M145.254,226.228c18.113,0,32.797-14.67,32.797-32.765c0-18.096-14.684-32.766-32.797-32.766
	s-32.797,14.67-32.797,32.766C112.457,211.558,127.141,226.228,145.254,226.228z"/>
<path fill="#009FE3" d="M176.919,82.336c15.365,0,27.821-12.444,27.821-27.794s-12.456-27.794-27.821-27.794
	s-27.821,12.444-27.821,27.794S161.554,82.336,176.919,82.336z"/>
<path fill="#EAEAEA" d="M166.275,205.649l-36.383,6.807c-1.764,0.331-3.461-0.823-3.788-2.576l-4.478-23.967
	c-0.329-1.752,0.837-3.442,2.602-3.772l36.382-6.807c1.765-0.329,3.462,0.824,3.789,2.577l4.478,23.967
	C169.205,203.63,168.04,205.319,166.275,205.649z"/>
<path fill="#212121" d="M166.477,206.685c-0.003,0.001-0.006,0.001-0.009,0.002l-36.382,6.807c-1.132,0.212-2.277-0.027-3.228-0.672
	c-0.949-0.646-1.588-1.62-1.798-2.745l-4.477-23.966c-0.21-1.125,0.034-2.264,0.684-3.209c0.65-0.943,1.628-1.579,2.756-1.793
	c0.005,0,0.008-0.001,0.011-0.001l36.383-6.808c2.336-0.437,4.591,1.096,5.026,3.417l4.478,23.967
	C170.354,204.002,168.81,206.243,166.477,206.685z M124.416,183.18c-1.183,0.225-1.967,1.363-1.747,2.54l4.477,23.967
	c0.107,0.571,0.431,1.066,0.914,1.393c0.482,0.328,1.063,0.449,1.638,0.341l36.383-6.807c0.002-0.001,0.004-0.001,0.005-0.001
	c1.185-0.225,1.969-1.364,1.748-2.54l-4.477-23.967c-0.221-1.179-1.366-1.958-2.553-1.735l-36.382,6.809
	C124.419,183.18,124.417,183.18,124.416,183.18z"/>
<path fill="#212121" d="M165.445,183.488c-0.001,0.001-0.001,0.001-0.002,0.001l-23.719,4.437c-1.771,0.331-3.578-0.48-4.496-2.018
	l-1.957-3.283c-0.476-0.796-1.41-1.215-2.327-1.044c-0.577,0.108-1.13-0.269-1.237-0.841c-0.107-0.57,0.273-1.122,0.847-1.23
	c0.001-0.001,0.002-0.001,0.002-0.001c1.79-0.334,3.614,0.484,4.541,2.039l1.956,3.282c0.467,0.781,1.383,1.192,2.283,1.024
	l23.72-4.437c0.576-0.108,1.129,0.269,1.236,0.84C166.4,182.829,166.02,183.38,165.445,183.488z"/>
<path fill="#EAEAEA" d="M238.115,186.886l-30.703,5.559c-2.379,0.431-3.957,2.719-3.524,5.11l11.092,61.319
	c0.433,2.391,2.712,3.98,5.091,3.549l43.079-7.8c2.379-0.431,3.957-2.719,3.524-5.11l-8.842-48.88L238.115,186.886z"/>
<path fill="#212121" d="M263.35,255.647c-0.004,0.001-0.008,0.002-0.013,0.002l-43.079,7.8c-1.424,0.258-2.862-0.057-4.053-0.887
	c-1.19-0.83-1.987-2.074-2.246-3.505l-11.094-61.319c-0.259-1.431,0.052-2.877,0.876-4.071c0.821-1.19,2.053-1.989,3.472-2.249
	c0.004-0.001,0.008-0.001,0.013-0.002l30.703-5.559c0.271-0.049,0.55,0.012,0.777,0.17l19.718,13.748
	c0.227,0.158,0.381,0.399,0.431,0.673l8.844,48.879c0.259,1.431-0.052,2.877-0.875,4.071
	C266.001,254.589,264.769,255.387,263.35,255.647z M207.59,193.473c-0.874,0.16-1.634,0.652-2.14,1.386
	c-0.508,0.735-0.699,1.627-0.54,2.509l11.094,61.319c0.16,0.882,0.652,1.65,1.385,2.16c0.733,0.511,1.621,0.705,2.499,0.546
	l43.078-7.799c0.002,0,0.005-0.001,0.007-0.001c0.874-0.161,1.635-0.653,2.141-1.387c0.508-0.735,0.7-1.627,0.54-2.509
	l-8.767-48.453l-19.011-13.255l-30.278,5.482C207.595,193.472,207.593,193.472,207.59,193.473z"/>
<path fill="#212121" d="M250,214.31c0,0-0.002,0-0.003,0.001l-31.12,5.632c-0.564,0.103-1.106-0.275-1.209-0.842
	c-0.102-0.566,0.271-1.109,0.835-1.212c0,0,0.001,0,0.002-0.001l31.12-5.632c0.564-0.103,1.106,0.275,1.209,0.842
	C250.936,213.664,250.564,214.207,250,214.31z"/>
<path fill="#212121" d="M251.632,223.324c0,0-0.001,0-0.002,0l-31.12,5.633c-0.565,0.102-1.106-0.275-1.209-0.842
	c-0.103-0.566,0.271-1.109,0.834-1.213c0,0,0.001,0,0.002,0l31.121-5.633c0.564-0.102,1.106,0.275,1.208,0.843
	C252.568,222.678,252.195,223.221,251.632,223.324z"/>
<path fill="#212121" d="M253.261,232.338c0,0-0.001,0-0.002,0l-31.12,5.633c-0.565,0.102-1.106-0.275-1.209-0.843
	c-0.103-0.566,0.271-1.109,0.834-1.212c0,0,0.001,0,0.002,0l31.121-5.633c0.564-0.102,1.105,0.275,1.208,0.842
	C254.198,231.691,253.825,232.234,253.261,232.338z"/>
<path fill="#212121" d="M245.575,243.033c0,0-0.001,0.001-0.002,0.001l-21.802,3.946c-0.564,0.103-1.105-0.275-1.208-0.842
	c-0.103-0.566,0.271-1.109,0.834-1.212c0,0,0.001,0,0.002,0l21.802-3.947c0.564-0.103,1.106,0.275,1.208,0.842
	C246.512,242.388,246.138,242.93,245.575,243.033z"/>
<path fill="#EAEAEA" d="M238.086,186.868l2.257,12.477c0.433,2.392,2.712,3.98,5.092,3.549l12.415-2.248L238.086,186.868z"/>
<path fill="#212121" d="M258.038,201.674c-0.001,0-0.001,0-0.002,0l-12.416,2.248c-1.423,0.258-2.862-0.057-4.053-0.886
	c-1.19-0.83-1.988-2.075-2.247-3.506l-2.257-12.477c-0.075-0.416,0.106-0.836,0.459-1.064c0.354-0.228,0.809-0.219,1.154,0.021
	l19.763,13.78c0.347,0.241,0.514,0.667,0.424,1.079C258.777,201.281,258.451,201.598,258.038,201.674z M239.557,189.163l1.809,9.997
	c0.16,0.882,0.652,1.649,1.385,2.161c0.733,0.511,1.62,0.705,2.498,0.546l9.947-1.801L239.557,189.163z"/>
<path fill="#212121" d="M199.48,64.545c-0.001,0-0.003,0-0.004,0.001l-36.822,6.132c-0.265,0.044-0.538-0.018-0.755-0.172
	c-0.218-0.155-0.365-0.389-0.409-0.653l-4.255-25.554c-0.091-0.545,0.28-1.063,0.831-1.157c0.001,0,0.003,0,0.004-0.001
	c0.551-0.092,1.073,0.278,1.164,0.825l4.09,24.563l35.822-5.966c0.552-0.092,1.074,0.278,1.165,0.825
	C200.403,63.934,200.031,64.451,199.48,64.545z"/>
<path fill="#EAEAEA" d="M174.401,51.465l-8.19,1.365l2.593,15.583l8.19-1.365L174.401,51.465z"/>
<path fill="#212121" d="M177.164,68.038c-0.001,0-0.003,0-0.004,0.001l-8.19,1.365c-0.552,0.092-1.074-0.278-1.165-0.825
	l-2.593-15.583c-0.091-0.546,0.281-1.063,0.831-1.157c0.001,0,0.003,0,0.004-0.001l8.19-1.365c0.265-0.044,0.537,0.017,0.756,0.172
	c0.218,0.154,0.365,0.389,0.409,0.652l2.593,15.584c0.043,0.263-0.02,0.532-0.177,0.75
	C177.663,67.847,177.427,67.993,177.164,68.038z M169.64,67.255l6.19-1.032l-2.263-13.602l-6.191,1.032L169.64,67.255z"/>
<path fill="#EAEAEA" d="M182.042,44.926l-8.19,1.365l3.445,20.707l8.19-1.365L182.042,44.926z"/>
<path fill="#212121" d="M185.657,66.622c-0.001,0-0.003,0-0.004,0.001l-8.19,1.365c-0.265,0.044-0.538-0.017-0.755-0.172
	c-0.219-0.154-0.366-0.389-0.409-0.652l-3.446-20.707c-0.091-0.546,0.281-1.063,0.832-1.157c0.001,0,0.002,0,0.004-0.001l8.19-1.365
	c0.265-0.044,0.536,0.018,0.755,0.172c0.218,0.154,0.365,0.389,0.409,0.652l3.445,20.708
	C186.58,66.011,186.208,66.528,185.657,66.622z M178.133,65.839l6.191-1.032l-3.115-18.725l-6.19,1.032L178.133,65.839z"/>
<path fill="#EAEAEA" d="M191.936,53.809l-8.19,1.365l1.74,10.46l8.19-1.365L191.936,53.809z"/>
<path fill="#212121" d="M193.846,65.259c-0.001,0-0.003,0.001-0.004,0.001l-8.19,1.365c-0.552,0.092-1.073-0.278-1.164-0.825
	l-1.741-10.459c-0.091-0.546,0.281-1.063,0.831-1.157c0.001,0,0.003,0,0.004-0.001l8.19-1.365c0.265-0.044,0.536,0.018,0.755,0.172
	c0.218,0.154,0.365,0.389,0.409,0.652l1.741,10.461c0.044,0.263-0.019,0.532-0.177,0.75
	C194.344,65.067,194.11,65.214,193.846,65.259z M186.321,64.476l6.191-1.032l-1.412-8.479l-6.19,1.032L186.321,64.476z"/>
</svg>
