<?xml version="1.0" encoding="utf-8"?>
<!-- Generator: Adobe Illustrator 26.0.1, SVG Export Plug-In . SVG Version: 6.00 Build 0)  -->
<svg version="1.1" id="Layer_1" xmlns="http://www.w3.org/2000/svg" xmlns:xlink="http://www.w3.org/1999/xlink" x="0px" y="0px"
	 viewBox="0 0 640 360" style="enable-background:new 0 0 640 360;" xml:space="preserve">
<style type="text/css">
	.st0{fill:#F2F2F2;}
	.st1{fill:#F56539;}
	.st2{fill:#3F3D56;}
	.st3{opacity:0.1;enable-background:new    ;}
</style>
<g>
	<circle class="st0" cx="142.5" cy="287" r="32.6"/>
	<circle class="st1" cx="147.8" cy="282.2" r="32.6"/>
	<rect x="174" y="246.1" class="st2" width="403.2" height="1.1"/>
	<path class="st2" d="M382.8,10.3H239.7V7.3h-64.9v2.9H31.2c-5.3,0-9.7,4.3-9.7,9.7l0,0v195.9c0,5.3,4.3,9.7,9.7,9.7h351.7
		c5.3,0,9.7-4.3,9.7-9.7V19.9C392.5,14.6,388.2,10.3,382.8,10.3L382.8,10.3z"/>
	<rect x="34.5" y="27.4" class="st1" width="345.1" height="194.7"/>
	<circle class="st1" cx="206.7" cy="18.5" r="3.5"/>
	<polygon class="st3" points="280.8,222 34.5,222 34.5,27.4 	"/>
	<circle class="st0" cx="88.4" cy="174.3" r="33.2"/>
	<rect x="287.2" y="132.3" class="st2" width="32.2" height="6.7"/>
	<rect x="248.2" y="79.9" class="st2" width="110.2" height="2.9"/>
	<rect x="248.2" y="89" class="st2" width="110.2" height="2.9"/>
	<rect x="248.2" y="98.2" class="st2" width="110.2" height="2.9"/>
	<rect x="248.2" y="107.3" class="st2" width="110.2" height="2.9"/>
	<rect x="248.2" y="116.5" class="st2" width="110.2" height="2.9"/>
	<rect x="344.9" y="31.3" class="st0" width="13.5" height="13.5"/>
	<path class="st2" d="M364.7,51h-16.4V34.7h16.4V51z M349,50.3h14.9V35.4H349V50.3z"/>
	<path class="st2" d="M402.2,218.5h-33.7v-2.4c0-0.3-0.2-0.5-0.5-0.5l0,0h-11.5c-0.3,0-0.5,0.2-0.5,0.5l0,0v2.4h-7.2v-2.4
		c0-0.3-0.2-0.5-0.5-0.5h0h-11.5c-0.3,0-0.5,0.2-0.5,0.5l0,0v2.4h-7.2v-2.4c0-0.3-0.2-0.5-0.5-0.5l0,0H317c-0.3,0-0.5,0.2-0.5,0.5
		l0,0v2.4h-7.2v-2.4c0-0.3-0.2-0.5-0.5-0.5l0,0h-11.5c-0.3,0-0.5,0.2-0.5,0.5l0,0v2.4h-7.2v-2.4c0-0.3-0.2-0.5-0.5-0.5l0,0h-11.5
		c-0.3,0-0.5,0.2-0.5,0.5l0,0v2.4h-7.2v-2.4c0-0.3-0.2-0.5-0.5-0.5l0,0h-11.5c-0.3,0-0.5,0.2-0.5,0.5l0,0v2.4h-7.2v-2.4
		c0-0.3-0.2-0.5-0.5-0.5l0,0h-90.4c-0.3,0-0.5,0.2-0.5,0.5l0,0v2.4h-7.2v-2.4c0-0.3-0.2-0.5-0.5-0.5l0,0h-11.5
		c-0.3,0-0.5,0.2-0.5,0.5l0,0v2.4h-7.2v-2.4c0-0.3-0.2-0.5-0.5-0.5l0,0h-11.5c-0.3,0-0.5,0.2-0.5,0.5l0,0v2.4h-7.2v-2.4
		c0-0.3-0.2-0.5-0.5-0.5l0,0h-11.5c-0.3,0-0.5,0.2-0.5,0.5l0,0v2.4h-7.2v-2.4c0-0.3-0.2-0.5-0.5-0.5l0,0H80.3
		c-0.3,0-0.5,0.2-0.5,0.5l0,0v2.4h-7.2v-2.4c0-0.3-0.2-0.5-0.5-0.5l0,0H60.6c-0.3,0-0.5,0.2-0.5,0.5l0,0v2.4h-7.2v-2.4
		c0-0.3-0.2-0.5-0.5-0.5l0,0H40.9c-0.3,0-0.5,0.2-0.5,0.5l0,0v2.4H18.3c-6.4,0-11.5,5.2-11.5,11.5v5.2c0,6.4,5.2,11.5,11.5,11.5
		h383.9c6.4,0,11.5-5.2,11.5-11.5V230C413.7,223.6,408.6,218.5,402.2,218.5z"/>
	<path class="st2" d="M96.5,195c-23.1,0-41.8-18.7-41.8-41.8s18.7-41.8,41.8-41.8s41.8,18.7,41.8,41.8
		C138.2,176.3,119.5,195,96.5,195z M96.5,112.5c-22.5,0-40.7,18.2-40.7,40.7s18.2,40.7,40.7,40.7s40.7-18.2,40.7-40.7
		C137.1,130.7,118.9,112.5,96.5,112.5z"/>
	<rect x="329.1" y="17.9" class="st2" width="140.3" height="1.1"/>
	<rect x="230.1" y="308.3" class="st2" width="403.2" height="1.1"/>
	<rect x="112.7" y="358.9" class="st2" width="140.3" height="1.1"/>
	<rect x="265.8" y="302.5" class="st1" width="15.4" height="15.4"/>
	<path class="st2" d="M290.5,309.1h-18.7v-18.7h18.7V309.1z M272.6,308.3h17.1v-17.1h-17.1V308.3z"/>
	<rect x="444.5" y="12.1" class="st1" width="15.4" height="15.4"/>
	<path class="st2" d="M469.3,18.7h-18.7V0h18.7V18.7z M451.4,17.9h17.1V0.8h-17.1V17.9z"/>
	<rect x="599.6" y="302.5" class="st1" width="15.4" height="15.4"/>
	<path class="st2" d="M624.4,309.1h-18.7v-18.7h18.7L624.4,309.1L624.4,309.1z M606.5,308.3h17.1v-17.1h-17.1V308.3z"/>
	<path class="st2" d="M588.2,127.6h-1.3V91.7c0-11.5-9.3-20.7-20.7-20.7h0h-75.9c-11.5,0-20.7,9.3-20.7,20.7v0v196.6
		c0,11.5,9.3,20.7,20.7,20.7c0,0,0,0,0,0h75.9c11.5,0,20.7-9.3,20.7-20.7v0V153.1h1.3V127.6z"/>
	<path class="st1" d="M582.4,93v196.3c0,8.6-6.9,15.5-15.5,15.5h-76.3c-8.6,0-15.5-6.9-15.5-15.5V93c0-8.6,6.9-15.5,15.5-15.5h9.3
		c-1.5,3.8,0.3,8.1,4,9.6c0.9,0.4,1.8,0.5,2.8,0.5h43.5c4.1,0,7.4-3.3,7.4-7.4c0-1-0.2-1.9-0.5-2.8h9.9
		C575.5,77.5,582.4,84.4,582.4,93z"/>
	<rect x="517.4" y="206.9" class="st2" width="22.7" height="6.7"/>
	<rect x="490" y="154.5" class="st2" width="77.7" height="2.9"/>
	<rect x="490" y="163.6" class="st2" width="77.7" height="2.9"/>
	<rect x="490" y="172.8" class="st2" width="77.7" height="2.9"/>
	<rect x="490" y="181.9" class="st2" width="77.7" height="2.9"/>
	<rect x="490" y="191" class="st2" width="77.7" height="2.9"/>
	<rect x="518.1" y="116.1" class="st0" width="13.5" height="13.5"/>
	<path class="st2" d="M523.2,119.5v16.4h16.4v-16.4C539.6,119.5,523.2,119.5,523.2,119.5z M538.9,135.2h-14.9v-14.9h14.9V135.2z"/>
	<path class="st3" d="M582.4,268.3v21c0,8.6-6.9,15.5-15.5,15.5h-76.3c-8.6,0-15.5-6.9-15.5-15.5V183.6l64.3,50.8l1.1,0.9l12,9.4
		l1.1,0.9L582.4,268.3z"/>
	
		<ellipse transform="matrix(0.1891 -0.982 0.982 0.1891 154.1168 735.2083)" class="st0" cx="522.2" cy="274.3" rx="24.1" ry="24.1"/>
	<path class="st2" d="M182.8,360c-26.4,0-47.9-21.4-47.9-47.9s21.4-47.9,47.9-47.9s47.9,21.4,47.9,47.9
		C230.6,338.6,209.2,360,182.8,360z M182.8,265.4c-25.8,0-46.8,20.9-46.8,46.8s20.9,46.8,46.8,46.8s46.8-20.9,46.8-46.8
		C229.5,286.3,208.6,265.4,182.8,265.4z"/>
	<path class="st2" d="M529.3,292.9c-16.7,0-30.3-13.5-30.3-30.3s13.5-30.3,30.3-30.3c16.7,0,30.3,13.5,30.3,30.3
		C559.6,279.3,546,292.9,529.3,292.9z M529.3,233.5c-16.1,0-29.2,13.1-29.2,29.2s13.1,29.2,29.2,29.2c16.1,0,29.2-13.1,29.2-29.2
		l0,0C558.5,246.6,545.4,233.5,529.3,233.5z"/>
</g>
</svg>
