<?xml version="1.0" encoding="utf-8"?>
<!-- Generator: Adobe Illustrator 26.0.1, SVG Export Plug-In . SVG Version: 6.00 Build 0)  -->
<svg version="1.1" id="Layer_1" xmlns="http://www.w3.org/2000/svg" xmlns:xlink="http://www.w3.org/1999/xlink" x="0px" y="0px"
	 viewBox="0 0 640 360" enable-background="new 0 0 640 360" xml:space="preserve">
<g>
	<circle fill="#F2F2F2" cx="142.4821" cy="286.9716" r="32.584"/>
	<circle fill="#F56539" cx="147.7804" cy="282.2032" r="32.584"/>
	<rect x="174.0218" y="246.1496" fill="#3F3D56" width="403.1511" height="1.1"/>
	<path fill="#3F3D56" d="M382.8142,10.2587H239.7205V7.3094h-64.8843v2.9493H31.1526c-5.3457,0-9.6792,4.3335-9.6792,9.6792
		c0,0,0,0,0,0v195.9394c0,5.3457,4.3335,9.6792,9.6792,9.6792h351.6617c5.3457,0,9.6792-4.3335,9.6792-9.6792V19.9379
		C392.4935,14.5923,388.1599,10.2587,382.8142,10.2587L382.8142,10.2587z"/>
	<rect x="34.4502" y="27.3646" fill="#F56539" width="345.0664" height="194.6528"/>
	<circle fill="#F56539" cx="206.6885" cy="18.5167" r="3.5391"/>
	<polygon opacity="0.1" enable-background="new    " points="280.8336,222.0176 34.4503,222.0176 34.4503,27.3648 	"/>
	<circle fill="#F2F2F2" cx="88.4428" cy="174.2826" r="33.1689"/>
	<rect x="287.2019" y="132.3424" fill="#3F3D56" width="32.233" height="6.7352"/>
	<rect x="248.2337" y="79.9037" fill="#3F3D56" width="110.1694" height="2.8865"/>
	<rect x="248.2337" y="89.0444" fill="#3F3D56" width="110.1694" height="2.8865"/>
	<rect x="248.2337" y="98.1851" fill="#3F3D56" width="110.1694" height="2.8865"/>
	<rect x="248.2337" y="107.3258" fill="#3F3D56" width="110.1694" height="2.8865"/>
	<rect x="248.2337" y="116.4665" fill="#3F3D56" width="110.1694" height="2.8865"/>
	<rect x="344.9326" y="31.3137" fill="#F2F2F2" width="13.4705" height="13.4705"/>
	<path fill="#3F3D56" d="M364.6572,51.0384h-16.3571V34.6813h16.3571V51.0384z M349.0114,50.3272h14.9347V35.3925h-14.9347V50.3272z
		"/>
	<path fill="#3F3D56" d="M402.1822,218.4783H368.506v-2.4264c0-0.2657-0.2154-0.4811-0.4811-0.4811l0,0h-11.5461
		c-0.2657,0-0.4811,0.2154-0.4811,0.4811l0,0v2.4264h-7.2163v-2.4264c0-0.2657-0.2154-0.4811-0.481-0.4811h-0.0001h-11.5461
		c-0.2657,0-0.4811,0.2154-0.4811,0.4811l0,0v2.4264h-7.2163v-2.4264c0-0.2657-0.2154-0.4811-0.4811-0.4811l0,0h-11.5461
		c-0.2657,0-0.4811,0.2154-0.4811,0.4811l0,0v2.4264h-7.2163v-2.4264c0-0.2657-0.2154-0.4811-0.4811-0.4811l0,0h-11.5462
		c-0.2657,0-0.4811,0.2154-0.4811,0.4811l0,0v2.4264h-7.2163v-2.4264c0-0.2657-0.2154-0.4811-0.4811-0.4811l0,0h-11.5461
		c-0.2657,0-0.4811,0.2154-0.4811,0.481v0v2.4264h-7.2163v-2.4264c0-0.2657-0.2154-0.4811-0.4811-0.4811l0,0h-11.5461
		c-0.2657,0-0.4811,0.2154-0.4811,0.4811l0,0v2.4264h-7.2164v-2.4264c0-0.2657-0.2154-0.4811-0.4811-0.4811h0h-90.4447
		c-0.2657,0-0.4811,0.2154-0.4811,0.4811l0,0v2.4264h-7.2163v-2.4264c0-0.2657-0.2154-0.4811-0.4811-0.4811h0h-11.5461
		c-0.2657,0-0.4811,0.2154-0.4811,0.481v0v2.4264h-7.2164v-2.4264c0-0.2657-0.2154-0.4811-0.4811-0.4811h0h-11.5461
		c-0.2657,0-0.4811,0.2154-0.4811,0.481c0,0,0,0,0,0v2.4264h-7.2163v-2.4264c0-0.2657-0.2154-0.4811-0.4811-0.4811c0,0,0,0,0,0
		h-11.5461c-0.2657,0-0.4811,0.2154-0.4811,0.4811l0,0v2.4264h-7.2163v-2.4264c0-0.2657-0.2154-0.4811-0.4811-0.4811c0,0,0,0,0,0
		H80.3336c-0.2657,0-0.4811,0.2154-0.4811,0.481c0,0,0,0,0,0v2.4264h-7.2163v-2.4264c0-0.2657-0.2154-0.4811-0.4811-0.4811
		c0,0,0,0,0,0H60.6089c-0.2657,0-0.4811,0.2154-0.4811,0.481c0,0,0,0,0,0v2.4264h-7.2163v-2.4264
		c0-0.2657-0.2154-0.4811-0.4811-0.4811c0,0,0,0,0,0H40.8843c-0.2657,0-0.4811,0.2153-0.4811,0.481v0v2.4264H18.2731
		c-6.3768,0-11.5461,5.1694-11.5461,11.5461v5.2209c0,6.3767,5.1694,11.5461,11.5461,11.5461h383.9091
		c6.3768,0,11.5461-5.1694,11.5461-11.5461v-5.2209C413.7283,223.6476,408.5589,218.4783,402.1822,218.4783z"/>
	<path fill="#3F3D56" d="M96.4715,194.9994c-23.0856,0-41.8001-18.7146-41.8001-41.8001s18.7146-41.8001,41.8001-41.8001
		s41.8001,18.7146,41.8001,41.8001C138.2455,176.274,119.5463,194.9733,96.4715,194.9994z M96.4715,112.4992
		c-22.4781,0-40.7001,18.2221-40.7001,40.7001s18.2221,40.7001,40.7001,40.7001s40.7001-18.2221,40.7001-40.7001
		C137.1462,130.7318,118.939,112.5246,96.4715,112.4992z"/>
	<rect x="329.1223" y="17.8988" fill="#3F3D56" width="140.2502" height="1.1"/>
	<rect x="230.1219" y="308.2998" fill="#3F3D56" width="403.1511" height="1.1"/>
	<rect x="112.6967" y="358.9" fill="#3F3D56" width="140.2502" height="1.1"/>
	<rect x="265.7778" y="302.501" fill="#F56539" width="15.4001" height="15.4001"/>
	<path fill="#3F3D56" d="M290.5279,309.1011h-18.7001V290.401h18.7001V309.1011z M272.6409,308.288h17.0739v-17.0739h-17.0739
		V308.288z"/>
	<rect x="444.5284" y="12.1" fill="#F56539" width="15.4001" height="15.4001"/>
	<path fill="#3F3D56" d="M469.2785,18.7001h-18.7001V0h18.7001V18.7001z M451.3915,17.887h17.074V0.813h-17.074V17.887z"/>
	<rect x="599.629" y="302.501" fill="#F56539" width="15.4001" height="15.4001"/>
	<path fill="#3F3D56" d="M624.379,309.1011H605.679V290.401h18.7001V309.1011z M606.492,308.288h17.074v-17.0739h-17.074V308.288z"
		/>
	<path fill="#3F3D56" d="M588.1732,127.5775h-1.3082v-35.839c0-11.4558-9.2868-20.7426-20.7427-20.7426h-0.0001h-75.9296
		c-11.4558,0-20.7426,9.2867-20.7427,20.7425c0,0,0,0.0001,0,0.0001v196.6155c0,11.4558,9.2868,20.7426,20.7426,20.7426
		c0,0,0,0,0.0001,0h75.9297c11.4559,0,20.7427-9.2867,20.7427-20.7426c0,0,0-0.0001,0-0.0001V153.0882h1.3082L588.1732,127.5775z"/>
	<path fill="#F56539" d="M582.4477,92.9576v196.3286c0.0015,8.5553-6.9328,15.492-15.4882,15.4935h-76.2961
		c-8.5553-0.0015-15.4895-6.9382-15.488-15.4935V92.9576c0.0009-8.5534,6.9346-15.4871,15.488-15.4881h9.2565
		c-1.5342,3.7633,0.2728,8.0578,4.0362,9.592c0.8821,0.3596,1.8257,0.5445,2.7784,0.5445h43.4997
		c4.064,0.0003,7.3588-3.2941,7.3589-7.358c0.0001-0.9527-0.1848-1.8963-0.5445-2.7785h9.9111
		C575.5131,77.4704,582.4468,84.4041,582.4477,92.9576z"/>
	<rect x="517.4475" y="206.9204" fill="#3F3D56" width="22.728" height="6.7352"/>
	<rect x="489.9703" y="154.4817" fill="#3F3D56" width="77.6824" height="2.8865"/>
	<rect x="489.9703" y="163.6224" fill="#3F3D56" width="77.6824" height="2.8865"/>
	<rect x="489.9703" y="172.7631" fill="#3F3D56" width="77.6824" height="2.8865"/>
	<rect x="489.9703" y="181.9038" fill="#3F3D56" width="77.6824" height="2.8865"/>
	<rect x="489.9703" y="191.0445" fill="#3F3D56" width="77.6824" height="2.8865"/>
	<rect x="518.0546" y="116.1487" fill="#F2F2F2" width="13.4705" height="13.4705"/>
	<path fill="#3F3D56" d="M523.2113,119.5172v16.357h16.3571v-16.357H523.2113z M538.8589,135.1647h-14.938v-14.9381h14.938V135.1647
		z"/>
	<path opacity="0.1" enable-background="new    " d="M582.4477,268.3202v20.9661c0.0015,8.5553-6.9328,15.492-15.4882,15.4935
		h-76.2961c-8.5553-0.0015-15.4895-6.9382-15.488-15.4935V183.5704l64.2787,50.7817l1.1,0.869l11.957,9.4435l1.1165,0.8855
		L582.4477,268.3202z"/>
	<circle fill="#F2F2F2" cx="522.2115" cy="274.2897" r="24.1274"/>
	<path fill="#3F3D56" d="M182.8218,360c-26.4269,0-47.8502-21.4232-47.8502-47.8502s21.4232-47.8502,47.8502-47.8502
		s47.8502,21.4232,47.8502,47.8502C230.6421,338.5644,209.2363,359.9701,182.8218,360z M182.8218,265.3997
		c-25.8194,0-46.7502,20.9308-46.7502,46.7502S157.0024,358.9,182.8218,358.9s46.7502-20.9308,46.7502-46.7502
		C229.5428,286.3426,208.6291,265.4289,182.8218,265.3997z"/>
	<path fill="#3F3D56" d="M529.323,292.8998c-16.7067,0-30.2501-13.5434-30.2501-30.2501c0-16.7067,13.5434-30.2501,30.2501-30.2501
		c16.7067,0,30.2501,13.5434,30.2501,30.2501C559.5542,279.3485,546.0219,292.8809,529.323,292.8998z M529.323,233.4996
		c-16.0992,0-29.1501,13.0509-29.1501,29.1501c0,16.0992,13.0509,29.1501,29.1501,29.1501
		c16.0991,0,29.1501-13.0509,29.1501-29.1501l0,0C558.455,246.558,545.4146,233.5176,529.323,233.4996z"/>
</g>
</svg>
