<?xml version="1.0" encoding="utf-8"?>
<!-- Generator: Adobe Illustrator 26.0.1, SVG Export Plug-In . SVG Version: 6.00 Build 0)  -->
<svg version="1.1" id="Layer_1" xmlns="http://www.w3.org/2000/svg" xmlns:xlink="http://www.w3.org/1999/xlink" x="0px" y="0px"
	 viewBox="0 0 640 360" enable-background="new 0 0 640 360" xml:space="preserve">
<g>
	<g>
		<polygon fill="#A0616A" points="296.4942,354.1559 288.2314,354.1551 284.3007,322.2837 296.4958,322.2846 		"/>
		<path fill="#2F2E41" d="M268.1847,353.9684L268.1847,353.9684c-0.2573,0.4333-0.393,1.8318-0.393,2.3357l0,0
			c0,1.5488,1.2556,2.8044,2.8044,2.8044h25.5891c1.0566,0,1.9132-0.8566,1.9132-1.9132v-1.0654c0,0,1.2659-3.202-1.3403-7.1485
			c0,0-3.2392,3.0902-8.0793-1.7499l-1.4273-2.5857l-10.3318,7.5561l-5.7267,0.7049
			C269.94,353.0611,268.8293,352.8829,268.1847,353.9684L268.1847,353.9684L268.1847,353.9684z"/>
	</g>
	<g>
		<polygon fill="#A0616A" points="259.4724,354.1559 251.2095,354.1551 247.2788,322.2837 259.474,322.2846 		"/>
		<path fill="#2F2E41" d="M231.1628,353.9684L231.1628,353.9684c-0.2573,0.4333-0.393,1.8318-0.393,2.3357l0,0
			c0,1.5488,1.2556,2.8044,2.8044,2.8044h25.5891c1.0566,0,1.9132-0.8566,1.9132-1.9132v-1.0654c0,0,1.2659-3.202-1.3403-7.1485
			c0,0-3.2391,3.0902-8.0793-1.7499l-1.4273-2.5857l-10.3318,7.5561l-5.7267,0.7049c-1.2529,0.1542-2.3637-0.024-3.0082,1.0615
			L231.1628,353.9684L231.1628,353.9684z"/>
	</g>
	<polygon fill="#2F2E41" points="297.2037,154.2046 304.8965,173.9175 298.8865,331.3805 282.0584,331.3805 266.9131,189.3032 
		263.3071,331.8613 246.9597,331.3805 229.17,173.1963 240.9497,159.0126 	"/>
	<path fill="#E6E6E6" d="M260.903,42.4178l20.1937-1.4424l6.2504,10.0969l18.7513,5.2888l-6.9716,48.8015l7.4525,72.8417
		c0,0-26.925-3.8464-28.8482,3.8464c-1.9232,7.6928-49.0419-7.6929-49.0419-7.6929l16.1069-49.7631l-1.4424-38.9451l-4.3272-22.5977
		l19.7129-9.1353L260.903,42.4178L260.903,42.4178z"/>
	<path fill="#E6E6E6" d="M251.7678,56.8419c0,0-16.0918-0.2404-18.2629,6.4908c-2.1712,6.7313-9.3832,53.3692-9.3832,53.3692
		l-5.5292,20.4341l24.7614-12.2605l-5.2888-8.1604l17.3089-33.1887L251.7678,56.8419L251.7678,56.8419z"/>
	<path fill="#F56539" d="M261.6122,131.6068c2.6607,0.0027,5.1342-1.5307,6.1687-3.9821c0.7823-1.8539,0.7086-3.6325,0.1232-5.1575
		c0.1884-0.0781,0.3751-0.1593,0.568-0.2283c-0.2834-0.1148-0.5587-0.2445-0.8339-0.3745c-0.9585-1.9103-2.796-3.2966-4.9846-3.6333
		c-2.711-2.904-4.3774-6.7951-4.3947-11.0776c-0.0358-8.8261,7.1238-16.1985,15.9475-16.4102
		c0.0695-0.0017,0.1388-0.0029,0.2081-0.0037c3.9511-0.0455,7.5354,2.1647,9.5372,5.5714c1.1681,1.9879,3.3266,3.3223,5.7997,3.3223
		c1.8933,0,3.6013-0.7827,4.8221-2.0418c2.6599-2.7432,5.9907-4.7843,9.7601-5.4105c2.4754-0.4112,5.0373-0.5664,7.6586-0.4361
		c17.9437,0.892,33.3813,16.7952,33.7645,34.757c0.4268,20.0056-15.6626,36.3569-35.5711,36.3569
		c-10.3591,0-19.6796-4.43-26.1799-11.4967c-2.8859-3.1374-6.9299-4.8948-11.1925-4.8512
		c-0.0434,0.0005-0.0868,0.0007-0.1303,0.0007c-6.904,0-12.5009-5.5968-12.5009-12.5009c0-0.3829,0.019-0.7611,0.0547-1.1345
		C260.3033,132.1782,260.9108,131.6061,261.6122,131.6068L261.6122,131.6068L261.6122,131.6068z"/>
	<g>
		<path fill="#F2F2F2" d="M494.1557,264.7361c-0.8734-1.4727-4.6516,0.1041-5.3462-1.2324
			c-0.6922-1.3317,2.8183-3.3607,4.8239-7.9959c0.3617-0.8359,2.6409-6.1034,0.9536-7.7289
			c-3.1982-3.0809-17.8331,9.6331-22.9547,5.4725c-1.124-0.9131-1.9092-2.7359-5.311-5.6954
			c-1.3533-1.1773-2.1717-1.7089-2.9636-1.5111c-1.1237,0.2806-1.2128,1.7846-2.4178,4.7418
			c-1.8071,4.4349-2.876,4.1671-3.9289,7.7054c-0.7816,2.6267-0.6031,4.1537-1.5228,4.4513
			c-1.3016,0.421-2.4996-2.3651-4.1491-2.1156c-1.6832,0.2546-2.7008,3.4985-3.0222,5.9272
			c-0.6032,4.5577,1.0706,7.5652,1.9983,10.7276c1.0081,3.4367,1.6065,8.6633-0.7217,16.0622l-23.0441,64.9269
			c5.0874-13.3228,19.8179-49.8442,26.0077-63.4158c1.7868-3.9178,3.7598-7.8917,7.8109-9.4601
			c3.9003-1.51,9.2567-0.6085,16.0856-2.2536c0.7975-0.1921,3.0107-0.7552,3.2893-2.0569c0.2303-1.0762-1.0715-1.6769-0.8715-2.6848
			c0.2683-1.3521,2.8283-1.3686,5.9741-2.9285c2.2183-1.0999,3.6003-2.408,4.7887-3.5329
			C489.9924,271.8,495.3184,266.6964,494.1557,264.7361L494.1557,264.7361z"/>
		<path fill="#F2F2F2" d="M403.4934,298.9163c-0.9748,0.0038-1.291,2.3131-2.1474,2.2684
			c-0.8533-0.0445-0.8363-2.3529-2.5326-4.6747c-0.3059-0.4187-2.2336-3.0572-3.5182-2.6981
			c-2.4349,0.6808-0.4174,11.5321-3.9372,12.8453c-0.7724,0.2882-1.8937,0.1477-4.3277,0.9634
			c-0.9683,0.3245-1.4653,0.5728-1.5967,1.0186c-0.1865,0.6325,0.526,1.1102,1.6297,2.5548
			c1.6553,2.1666,1.2154,2.6139,2.6482,4.1516c1.0637,1.1415,1.8647,1.4945,1.7454,2.0317c-0.1689,0.7603-1.882,0.5444-2.2355,1.426
			c-0.3607,0.8996,0.9378,2.335,2.0371,3.1935c2.0629,1.6111,4.022,1.6574,5.8418,2.1145c1.9776,0.4968,4.7155,1.7112,7.6751,4.9887
			l25.2176,30.0436c-5.071-6.341-18.7457-24.1084-23.6208-31.0622c-1.4073-2.0074-2.7885-4.1224-2.3894-6.5632
			c0.3842-2.3499,2.3722-4.7188,3.5351-8.5451c0.1358-0.4469,0.498-1.6956-0.0605-2.2079
			c-0.4618-0.4236-1.1322,0.0421-1.5692-0.3469c-0.5862-0.5218,0.1443-1.783,0.2864-3.7771
			c0.1002-1.4061-0.1431-2.4618-0.3523-3.3697C405.7592,302.9978,404.791,298.9112,403.4934,298.9163L403.4934,298.9163z"/>
		<path fill="#F2F2F2" d="M422.9402,303.2816l-0.5873-5.2426l0.2683-0.3974c1.2417-1.8379,1.8745-3.6327,1.8821-5.3363
			c0.0013-0.2708-0.0114-0.5417-0.024-0.8177c-0.0506-1.0936-0.114-2.453,0.5949-4.0377c0.3974-0.8835,1.5138-2.9289,3.1922-2.6758
			c0.4518,0.0633,0.7936,0.2708,1.0531,0.5139c0.038-0.0607,0.0772-0.1215,0.119-0.1873c0.5228-0.7974,0.9366-1.1391,1.3354-1.4683
			c0.3063-0.2531,0.6227-0.5139,1.1189-1.1316c0.2177-0.2708,0.3873-0.5088,0.5303-0.7088c0.4341-0.605,1.0012-1.3265,2.0011-1.3138
			c1.0683,0.0506,1.6277,0.9341,1.9986,1.5189c0.662,1.043,0.962,1.7948,1.1607,2.2935c0.0722,0.1823,0.1544,0.3873,0.1962,0.4506
			c0.3443,0.5063,3.1428,0.0329,4.1971-0.1393c2.3682-0.3949,4.4174-0.7367,5.2616,0.7569c0.605,1.0683,0.1557,2.4808-1.3758,4.3111
			c-0.4772,0.5696-0.9847,1.0025-1.4353,1.3417c0.3734,0.2227,0.7076,0.5645,0.843,1.1012l0,0
			c0.319,1.2708-0.7733,2.5441-3.2453,3.7896c-0.6139,0.3114-1.4404,0.7266-2.5985,0.9265
			c-0.5455,0.0937-1.0366,0.1164-1.4569,0.1291c-0.0089,0.243-0.0658,0.5063-0.2139,0.7771
			c-0.4341,0.7974-1.3379,1.1771-2.6998,1.086c-1.4986-0.0785-2.7327-0.3645-3.8212-0.6151
			c-0.9506-0.2177-1.7695-0.4025-2.4125-0.3595c-1.1923,0.0962-2.1112,1.0505-3.1896,2.2884L422.9402,303.2816L422.9402,303.2816z"
			/>
		<path fill="#F2F2F2" d="M425.6646,272.0669l-4.9222,1.8979l-0.4525-0.1588c-2.0927-0.7349-3.9893-0.8918-5.6392-0.467
			c-0.2623,0.0675-0.5211,0.1484-0.7849,0.2307c-1.045,0.3264-2.3438,0.7324-4.0565,0.4487
			c-0.9554-0.1603-3.2171-0.7214-3.3979-2.4091c-0.0534-0.4531,0.0607-0.8364,0.23-1.149
			c-0.0684-0.0213-0.1371-0.0439-0.2114-0.0676c-0.9039-0.3034-1.3395-0.6171-1.7589-0.9192
			c-0.3225-0.2321-0.655-0.472-1.3784-0.7953c-0.3172-0.1419-0.5904-0.2456-0.8202-0.3332c-0.6953-0.2665-1.537-0.632-1.7784-1.6024
			c-0.222-1.0462,0.4907-1.8114,0.9622-2.3185c0.8409-0.9049,1.4921-1.3857,1.9241-1.7045c0.158-0.116,0.3355-0.2476,0.3861-0.3041
			c0.4024-0.4614-0.7654-3.0483-1.1993-4.0246c-0.9827-2.1906-1.833-4.0861-0.6025-5.2815
			c0.8799-0.8562,2.3602-0.7798,4.5191,0.2374c0.672,0.3171,1.2195,0.6983,1.6619,1.0481c0.1208-0.4177,0.3666-0.8276,0.8513-1.0947
			l0,0c1.1483-0.6309,2.6571,0.1028,4.4888,2.178c0.4569,0.5148,1.0681,1.209,1.5553,2.2785
			c0.229,0.5039,0.3756,0.9732,0.4944,1.3765c0.2373-0.0531,0.5064-0.0648,0.806,0.0098c0.8814,0.2177,1.478,0.9955,1.7353,2.336
			c0.3042,1.4695,0.3405,2.7358,0.3742,3.8523c0.0305,0.9747,0.0595,1.8137,0.2642,2.4248
			c0.3955,1.1289,1.5517,1.7757,3.0226,2.5049L425.6646,272.0669L425.6646,272.0669z"/>
		<path fill="#F2F2F2" d="M422.9402,256.6219l-0.5873-5.2426l0.2683-0.3974c1.2417-1.8378,1.8745-3.6326,1.8821-5.3363
			c0.0013-0.2708-0.0114-0.5417-0.024-0.8177c-0.0506-1.0936-0.114-2.453,0.5949-4.0377c0.3974-0.8835,1.5138-2.9289,3.1922-2.6758
			c0.4518,0.0633,0.7936,0.2708,1.0531,0.5139c0.038-0.0607,0.0772-0.1215,0.119-0.1873c0.5228-0.7974,0.9366-1.1392,1.3354-1.4683
			c0.3063-0.2531,0.6227-0.5139,1.1189-1.1316c0.2177-0.2708,0.3873-0.5088,0.5303-0.7088c0.4341-0.605,1.0012-1.3265,2.0011-1.3138
			c1.0683,0.0506,1.6277,0.9341,1.9986,1.5189c0.662,1.043,0.962,1.7948,1.1607,2.2935c0.0722,0.1823,0.1544,0.3873,0.1962,0.4506
			c0.3443,0.5063,3.1428,0.0329,4.1971-0.1393c2.3682-0.3949,4.4174-0.7367,5.2616,0.7569c0.605,1.0683,0.1557,2.4808-1.3758,4.3111
			c-0.4772,0.5696-0.9847,1.0025-1.4353,1.3417c0.3734,0.2228,0.7076,0.5645,0.843,1.1012l0,0
			c0.319,1.2708-0.7733,2.5441-3.2453,3.7896c-0.6139,0.3114-1.4404,0.7265-2.5985,0.9265
			c-0.5455,0.0937-1.0366,0.1164-1.4569,0.1291c-0.0089,0.243-0.0658,0.5063-0.2139,0.7771
			c-0.4341,0.7974-1.3379,1.1771-2.6998,1.086c-1.4986-0.0785-2.7327-0.3645-3.8212-0.6151
			c-0.9506-0.2177-1.7695-0.4025-2.4125-0.3595c-1.1923,0.0962-2.1112,1.0506-3.1896,2.2884l-2.6922,3.1466V256.6219z"/>
		<path fill="#F2F2F2" d="M428.3044,358.3863l-1.0986-0.6885l-0.2658-1.2682l0.2658,1.2682l-1.2809,0.1468
			c-0.0202-0.119-0.0898-0.3924-0.1949-0.8202c-0.5734-2.3441-2.3214-9.4778-3.7794-20.7123
			c-1.0176-7.8424-1.5936-15.9052-1.7125-23.9678c-0.119-8.0753,0.2633-14.1888,0.5696-19.1023
			c0.2316-3.7061,0.5126-7.2349,0.7885-10.6726c0.7341-9.1841,1.4265-17.8594,0.9113-27.4637
			c-0.1139-2.1441-0.3531-6.6071-2.9605-11.3561c-1.5125-2.7542-3.5959-5.1996-6.1932-7.2653l1.6151-2.0302
			c2.8669,2.2834,5.1718,4.992,6.8514,8.05c2.8909,5.2654,3.1517,10.1283,3.277,12.4649c0.524,9.7739-0.1759,18.5328-0.9177,27.8055
			c-0.2734,3.425-0.5544,6.9387-0.7847,10.6296c-0.3038,4.868-0.6823,10.9283-0.5645,18.8998
			c0.1165,7.9665,0.686,15.9305,1.6898,23.6741c1.4404,11.0928,3.1631,18.1201,3.7288,20.4288
			C428.5499,357.6395,428.6132,357.8977,428.3044,358.3863L428.3044,358.3863z"/>
		<path fill="#F2F2F2" d="M408.5995,240.6029c-0.1063,0-0.2139-0.0025-0.3228-0.0101c-2.2074-0.119-4.2516-1.4404-6.0768-3.9263
			c-0.8557-1.1695-1.2936-2.5036-2.1669-5.1642c-0.1354-0.4101-0.7936-2.491-1.1936-5.354c-0.262-1.8707-0.2291-2.653,0.1418-3.344
			c0.4114-0.7696,1.0771-1.3062,1.8264-1.6682c-0.0329-0.2481-0.0063-0.5038,0.1013-0.7645
			c0.4417-1.0809,1.6163-0.9392,2.2517-0.8708c0.3215,0.0405,0.7227,0.0937,1.1556,0.0709c0.681-0.0329,1.0468-0.2354,1.6012-0.5392
			c0.5303-0.2911,1.1898-0.6531,2.1682-0.8531c1.929-0.4025,3.5453,0.1443,4.0782,0.324c2.8036,0.9341,4.1858,3.1137,5.7856,5.6375
			c0.319,0.5063,1.4138,2.3492,2.1365,4.8756c0.5215,1.8226,0.4481,2.6327,0.2911,3.2352c-0.319,1.2379-1.0721,1.9467-2.9846,3.5111
			c-1.9973,1.6379-2.9998,2.458-3.8605,2.9568C411.5284,239.8763,410.2703,240.6029,408.5995,240.6029L408.5995,240.6029z"/>
	</g>
	<polygon fill="#F56539" points="320.763,121.0291 201.0431,98.4314 200.5623,107.0859 319.3206,135.4532 	"/>
	<path fill="#F56539" d="M202.4855,99.8738l-1.4424-1.4424c0,0-6.2504-2.8848-6.2504-3.3656c0-0.3009-9.2297-3.4273-16.1352-5.7243
		c-3.8566-1.2828-7.9294,1.2557-8.4785,5.2827l-0.8653,6.3459c-0.5174,3.7944,2.3455,7.2098,6.172,7.3628l16.903,0.6761
		l8.1736-1.9232C200.5622,107.0859,202.4855,99.8738,202.4855,99.8738z"/>
	<polygon fill="#3F3D56" points="320.5226,123.6736 320.8081,122.4758 201.0116,99.5733 200.8027,101.0758 	"/>
	<polygon fill="#3F3D56" points="320.2482,125.948 320.5226,124.6352 200.8813,101.944 200.8027,103.4798 	"/>
	<polygon fill="#3F3D56" points="319.9738,128.6736 320.0418,126.5584 200.7874,103.67 200.8027,104.9222 	"/>
	<polygon fill="#3F3D56" points="319.6542,131.8392 319.561,129.924 200.6134,105.3955 200.5111,105.8651 	"/>
	<polygon fill="#3F3D56" points="319.6521,133.7587 319.561,132.328 200.7923,106.189 200.6857,106.6576 	"/>
	<path fill="#3F3D56" d="M250.8592,53.7765l5.957-3.2985l2.5839,52.7615l-0.9011,6.4908
		C258.499,109.7303,243.4597,68.2603,250.8592,53.7765z"/>
	<circle fill="#A0616A" cx="271.2403" cy="22.4645" r="14.9049"/>
	<path fill="#2F2E41" d="M258.499,31.3594l3.5633,2.8446l-4.0441-15.3455c0,0,11.2989-0.2404,12.2605-6.4908
		c0,0,8.8949-0.2404,11.2989-0.2404c2.404,0,3.4887,15.907,3.4887,15.907s4.6849-13.0222-0.1231-19.7535
		c-4.808-6.7312-3.1252-2.6444-4.0868-5.0484c-0.9616-2.404-10.8181-4.615-17.0685-2.1636s-6.4908,5.9457-8.4141,5.9779
		c-1.9232,0.0322-8.6544,9.6482-2.404,17.3411S258.4991,31.3594,258.499,31.3594L258.499,31.3594z"/>
	<path fill="#A0616A" d="M304.0344,129.1685c1.7667-1.4096,3.0685-3.1014,3.8021-4.7735l17.6779-12.3654l-6.1301-8.2397
		l-17.2724,13.4307c-1.7933,0.3441-3.7319,1.2378-5.4985,2.6474c-4.0359,3.2203-5.6464,7.9128-3.5971,10.4811
		S299.9985,132.3888,304.0344,129.1685L304.0344,129.1685z"/>
	<path fill="#A0616A" d="M236.3076,110.3594c-1.3109,1.8411-2.0972,3.8257-2.3427,5.6351l-13.5956,16.7503l8.1597,6.2362
		l12.9128-17.6629c1.6295-0.824,3.2476-2.2164,4.5584-4.0575c2.9947-4.206,3.2525-9.1605,0.576-11.0662
		S239.3023,106.1534,236.3076,110.3594L236.3076,110.3594L236.3076,110.3594z"/>
	<path fill="#E6E6E6" d="M298.4057,59.4864c0,0,4.3272-7.212,8.6544-2.8848c3.4241,3.4241,22.2022,25.2128,29.891,34.1582
		c2.1203,2.4669,3.2844,5.61,3.2844,8.8628l0,0c0,5.0316-2.778,9.652-7.2219,12.0118l-24.0303,12.7604l-6.7313-10.0969
		l20.6745-14.9049l-31.733-17.3089L298.4057,59.4864L298.4057,59.4864z"/>
	<polyline fill="#E6E6E6" points="222.4199,125.948 218.5924,137.136 229.6508,142.9057 238.0649,137.136 243.3537,124.8756 
		227.7276,120.3079 	"/>
	<path fill="#F56539" d="M401.1987,18.7171l-36.3235,9.867l5.285,23.5696c-1.7089-1.1467-3.7644-1.817-5.9771-1.817
		c-5.9327,0-10.7421,4.8094-10.7421,10.7421s4.8094,10.7421,10.7421,10.7421s10.7421-4.8094,10.7421-10.7421
		c0-2.0621-0.5912-3.9815-1.5985-5.6174l-4.1901-18.6867l31.3359-9.8519l2.8659,13.9198c-1.7201-1.1701-3.7965-1.8553-6.0338-1.8553
		c-5.9327,0-10.7421,4.8094-10.7421,10.7421s4.8094,10.7421,10.7421,10.7421s10.7421-4.8094,10.7421-10.7421
		c0-2.084-0.6032-4.0228-1.6304-5.6699L401.1987,18.7171z"/>
	<path fill="#F56539" d="M436.8224,40.7497c-5.8711,0-10.6306,4.7594-10.6306,10.6306c0,1.6597,0.3912,3.2242,1.0695,4.6238
		l6.0673,25.0277l3.444-0.8348l-4.6805-19.3068c1.4261,0.7108,3.0285,1.1208,4.7302,1.1208c5.8711,0,10.6306-4.7595,10.6306-10.6306
		S442.6935,40.7497,436.8224,40.7497L436.8224,40.7497z"/>
	<path fill="#F56539" d="M480.0839,95.9106l-6.0231-24.0896l-3.6566,0.8594l4.7112,18.8426
		c-1.449-0.6561-3.0593-1.0331-4.7641-1.0331c-6.2336,0-11.2869,4.8996-11.2869,10.9435s5.0533,10.9435,11.2869,10.9435
		s11.2869-4.8996,11.2869-10.9435C481.6382,99.4163,481.0656,97.5331,480.0839,95.9106L480.0839,95.9106z"/>
	<path fill="#E6E6E6" d="M495.843,359.2572L495.843,359.2572c0,0.4102-0.3326,0.7428-0.7428,0.7428H144.1569v-1.4856h350.9434
		C495.5105,358.5144,495.8431,358.847,495.843,359.2572L495.843,359.2572z"/>
</g>
</svg>
