<?xml version="1.0" encoding="utf-8"?>
<!-- Generator: Adobe Illustrator 26.0.1, SVG Export Plug-In . SVG Version: 6.00 Build 0)  -->
<svg version="1.1" id="Layer_1" xmlns="http://www.w3.org/2000/svg" xmlns:xlink="http://www.w3.org/1999/xlink" x="0px" y="0px"
	 viewBox="0 0 640 360" enable-background="new 0 0 640 360" xml:space="preserve">
<g>
	<circle fill="#FF6584" cx="195.8829" cy="157.3706" r="27.222"/>
	<path fill="#F56539" d="M364.5272,188.1935c0,53.594-31.8608,72.3071-71.1631,72.3071s-71.1631-18.713-71.1631-72.3071
		s71.1631-121.7741,71.1631-121.7741S364.5272,134.5995,364.5272,188.1935z"/>
	<polygon fill="#3F3D56" points="290.7718,252.3025 291.5003,207.4487 321.8319,151.9588 291.6146,200.413 291.9424,180.2448 
		312.8465,140.0984 292.029,174.9079 292.029,174.9079 292.6185,138.635 315.0034,106.6733 292.711,132.9311 293.079,66.4195 
		290.7654,154.4687 290.9558,150.8366 268.1966,116.0004 290.5908,157.8091 288.4701,198.3199 288.4068,197.2448 262.1702,160.5846 
		288.3276,201.0431 288.062,206.1095 288.0146,206.1856 288.0363,206.6016 282.6564,309.3806 289.8445,309.3806 290.707,256.2932 
		316.8001,215.9336 	"/>
	<path fill="#3F3D56" d="M433.1898,238.8133c0,53.5941-31.8608,72.3071-71.1631,72.3071s-71.1631-18.713-71.1631-72.3071
		s71.1631-121.7741,71.1631-121.7741S433.1898,185.2193,433.1898,238.8133z"/>
	<polygon fill="#F2F2F2" points="359.4342,302.9219 360.1632,258.0687 390.4944,202.5787 360.2775,251.0324 360.6049,230.8648 
		381.5094,190.7184 360.6914,225.5273 360.6914,225.5278 361.281,189.2544 383.6658,157.2932 361.3734,183.551 361.7419,117.039 
		359.4278,205.0887 359.6182,201.4565 336.859,166.6203 359.2532,208.429 357.1325,248.9394 357.0692,247.8642 330.8326,211.2045 
		356.9901,251.663 356.725,256.7294 356.677,256.8056 356.6988,257.2215 351.3188,360 358.5069,360 359.3694,306.9127 
		385.4626,266.5536 	"/>
	<path fill="#3F3D56" d="M299.373,238.8133c0,53.5941-31.8608,72.3071-71.1631,72.3071s-71.1631-18.713-71.1631-72.3071
		s71.1631-121.7741,71.1631-121.7741S299.373,185.2193,299.373,238.8133z"/>
	<polygon fill="#F2F2F2" points="225.6174,302.9219 226.3464,258.0687 256.678,202.5787 226.4606,251.0324 226.788,230.8648 
		247.6926,190.7184 226.8751,225.5273 226.8751,225.5278 227.4641,189.2544 249.8489,157.2932 227.5566,183.551 227.925,117.039 
		225.6115,205.0887 225.8014,201.4565 203.0426,166.6203 225.4364,208.429 223.3156,248.9394 223.2528,247.8642 197.0158,211.2045 
		223.1732,251.663 222.9081,256.7294 222.8606,256.8056 222.8824,257.2215 217.502,360 224.6901,360 225.5526,306.9127 
		251.6462,266.5536 	"/>
	<path fill="#2F2E41" d="M295.1758,359.5472c-81.2498,0.0003-147.1161-65.8655-147.1164-147.1154S213.925,65.3157,295.1749,65.3154
		S442.291,131.181,442.2912,212.4308c0.0002,39.0177-15.4995,76.4374-43.0892,104.0271
		C371.673,344.1378,334.2144,359.6538,295.1758,359.5472z M295.1758,66.4392c-80.5003,0-145.9924,65.4918-145.9924,145.9924
		s65.492,145.9927,145.9924,145.9927s145.9924-65.492,145.9924-145.9927S375.6762,66.4392,295.1758,66.4392L295.1758,66.4392z"/>
	<polygon fill="#F2F2F2" points="415.4712,296.3644 415.4712,359.0124 174.902,359.0124 174.902,296.3644 295.1863,233.716 
		295.4371,233.8461 	"/>
	<polygon opacity="0.1" enable-background="new    " points="415.4712,296.3644 415.4712,359.0124 295.4371,359.0124 
		295.4371,233.8461 	"/>
	<polygon fill="#3F3D56" points="284.9121,272.0567 275.8911,275.4628 275.8911,262.0332 284.9121,258.0791 	"/>
	<polygon fill="#3F3D56" points="185.1762,309.6457 182.1692,310.7827 182.1692,302.6292 185.1762,301.2997 	"/>
	<polygon fill="#3F3D56" points="195.7012,306.1372 192.1927,307.4522 192.1927,298.6197 195.7012,297.0796 	"/>
	<polygon fill="#3F3D56" points="207.2282,301.6267 203.2187,303.1346 203.2187,293.6077 207.2282,291.843 	"/>
	<polygon fill="#3F3D56" points="221.2617,296.1136 216.2497,298.0054 216.2497,288.0947 221.2617,285.8958 	"/>
	<polygon fill="#3F3D56" points="238.3017,289.5981 232.2877,291.8712 232.2877,281.0782 238.3017,278.4401 	"/>
	<polygon fill="#3F3D56" points="258.8506,282.0802 251.8342,284.7237 251.8342,272.5577 258.8506,269.482 	"/>
	<polygon fill="#3F3D56" points="185.1762,326.1846 182.1692,326.9408 182.1692,318.6671 185.1762,317.7161 	"/>
	<polygon fill="#3F3D56" points="195.7012,323.6791 192.1927,324.5575 192.1927,315.6602 195.7012,314.5543 	"/>
	<polygon fill="#3F3D56" points="207.2282,320.6717 203.2187,321.6791 203.2187,312.1517 207.2282,310.887 	"/>
	<polygon fill="#3F3D56" points="221.2617,317.1636 216.2497,318.4223 216.2497,308.1422 221.2617,306.565 	"/>
	<polygon fill="#3F3D56" points="238.3017,312.6526 232.2877,314.1705 232.2877,303.1302 238.3017,301.2384 	"/>
	<polygon fill="#3F3D56" points="258.8506,307.6411 251.3327,309.5319 251.3327,297.1162 258.8506,294.7506 	"/>
	<polygon fill="#3F3D56" points="284.9121,301.1257 275.8911,303.3932 275.8911,289.5981 284.9121,286.7682 	"/>
	<polygon fill="#3F3D56" points="284.9121,329.6931 275.8911,330.8415 275.8911,317.1636 284.9121,315.4574 	"/>
	<polygon fill="#3F3D56" points="185.1762,342.2226 182.1692,342.6094 182.1692,334.7051 185.1762,334.1319 	"/>
	<polygon fill="#3F3D56" points="195.7012,341.2206 192.1927,341.6628 192.1927,333.2016 195.7012,332.5433 	"/>
	<polygon fill="#3F3D56" points="207.2282,339.7166 203.2187,340.2241 203.2187,330.6956 207.2282,329.9315 	"/>
	<polygon fill="#3F3D56" points="221.2617,337.7121 216.2497,338.3526 216.2497,328.1896 221.2617,327.2336 	"/>
	<polygon fill="#3F3D56" points="238.3017,335.7071 232.2877,336.4702 232.2877,325.1826 238.3017,324.0372 	"/>
	<polygon fill="#3F3D56" points="258.8506,333.2016 251.3327,334.1517 251.3327,321.6741 258.8506,320.2473 	"/>
	<polygon fill="#3F3D56" points="405.698,309.6457 408.7055,310.7827 408.7055,302.6292 405.698,301.2997 	"/>
	<polygon fill="#3F3D56" points="395.173,306.1372 398.6815,307.4522 398.6815,298.6197 395.173,297.0796 	"/>
	<polygon fill="#3F3D56" points="383.646,301.6267 387.6555,303.1346 387.6555,293.6077 383.646,291.843 	"/>
	<polygon fill="#3F3D56" points="369.6125,296.1136 374.6245,298.0054 374.6245,288.0947 369.6125,285.8958 	"/>
	<polygon fill="#3F3D56" points="352.5725,289.5981 358.5865,291.8712 358.5865,281.0782 352.5725,278.4401 	"/>
	<polygon fill="#3F3D56" points="332.0236,282.0802 339.0406,284.7237 339.0406,272.5577 332.0236,269.482 	"/>
	<polygon fill="#3F3D56" points="405.698,326.1846 408.7055,326.9408 408.7055,318.6671 405.698,317.7161 	"/>
	<polygon fill="#3F3D56" points="395.173,323.6791 398.6815,324.5575 398.6815,315.6602 395.173,314.5543 	"/>
	<polygon fill="#3F3D56" points="383.646,320.6717 387.6555,321.6791 387.6555,312.1517 383.646,310.887 	"/>
	<polygon fill="#3F3D56" points="369.6125,317.1636 374.6245,318.4223 374.6245,308.1422 369.6125,306.565 	"/>
	<polygon fill="#3F3D56" points="352.5725,312.6526 358.5865,314.1705 358.5865,303.1302 352.5725,301.2384 	"/>
	<polygon fill="#3F3D56" points="332.0236,307.6411 339.5416,309.5319 339.5416,297.1162 332.0236,294.7506 	"/>
	<polygon fill="#3F3D56" points="305.9621,301.1257 314.9836,303.3932 314.9836,289.5981 305.9621,286.7682 	"/>
	<polygon fill="#3F3D56" points="305.9621,329.6931 314.9836,330.8415 314.9836,317.1636 305.9621,315.4574 	"/>
	<polygon fill="#3F3D56" points="405.698,342.2226 408.7055,342.6094 408.7055,334.7051 405.698,334.1319 	"/>
	<polygon fill="#3F3D56" points="395.173,341.2206 398.6815,341.6628 398.6815,333.2016 395.173,332.5433 	"/>
	<polygon fill="#3F3D56" points="383.646,339.7166 387.6555,340.2241 387.6555,330.6956 383.646,329.9315 	"/>
	<polygon fill="#3F3D56" points="369.6125,337.7121 374.6245,338.3526 374.6245,328.1896 369.6125,327.2336 	"/>
	<polygon fill="#3F3D56" points="352.5725,335.7071 358.5865,336.4702 358.5865,325.1826 352.5725,324.0372 	"/>
	<polygon fill="#3F3D56" points="332.0236,333.2016 339.5416,334.1517 339.5416,321.6741 332.0236,320.2473 	"/>
	<polygon fill="#3F3D56" points="314.4821,275.5652 305.4611,272.163 305.4611,258.0237 314.4821,261.9793 	"/>
	<rect x="398.4552" y="347.857" fill="#2F2E41" width="0.7353" height="11.7655"/>
	<rect x="407.3331" y="351.0595" fill="#2F2E41" width="0.5211" height="8.3369"/>
	<rect x="415.0952" y="352.0776" fill="#2F2E41" width="0.458" height="7.3273"/>
	<polygon fill="#3F3D56" points="377.6315,344.1272 377.6315,359.2631 367.8588,359.2483 358.0855,359.2329 358.0855,342.2226 
		367.8588,343.1752 	"/>
	<polygon fill="#3F3D56" points="213.2427,359.2631 232.7887,359.2319 232.7887,342.2226 213.2427,344.1252 	"/>
	<rect x="92.2061" y="358.7619" fill="#2F2E41" width="437.9435" height="1.0024"/>
	<polygon opacity="0.1" enable-background="new    " points="377.6315,344.1272 377.6315,359.2631 367.8588,359.2483 
		367.8588,343.1752 	"/>
	<rect x="293.1818" y="345.4805" fill="#2F2E41" width="1.0024" height="14.0332"/>
	<path fill="#F56539" d="M299.4674,340.4845c0,4.9174-2.6268,9.0211-5.7845,9.1621c-3.0699,0.1371-5.4967-3.5427-5.4967-8.2156
		c0-4.6729,5.9979-17.5015,5.9979-17.5015S299.4674,335.567,299.4674,340.4845z"/>
	<rect x="175.6633" y="349.9779" fill="#2F2E41" width="0.5979" height="8.3704"/>
	<path fill="#F56539" d="M179.4125,346.9979c0,2.9332-1.5668,5.3809-3.4502,5.4649c-1.8311,0.0818-3.2787-2.1131-3.2787-4.9004
		c0-2.7872,3.5776-10.4391,3.5776-10.4391S179.4125,344.0648,179.4125,346.9979z"/>
	<path fill="#F56539" d="M402.8673,348.3211c0,2.7896-1.758,4.9685-4.0444,4.8612c-2.4279-0.1139-4.509-2.7327-4.509-5.8427
		c0-3.11,4.509-10.8804,4.509-10.8804S402.8673,345.5315,402.8673,348.3211z"/>
	<path fill="#F56539" d="M410.4594,351.3883c0,1.9767-1.2457,3.5206-2.8658,3.4447c-1.7203-0.0807-3.1951-1.9364-3.1951-4.1401
		c0-2.2038,3.1951-7.7098,3.1951-7.7098S410.4594,349.4117,410.4594,351.3883z"/>
	<path fill="#F56539" d="M417.843,352.3667c0,1.7373-1.0948,3.0943-2.5188,3.0275c-1.512-0.071-2.8081-1.7019-2.8081-3.6388
		c0-1.9369,2.8081-6.7761,2.8081-6.7761S417.843,350.6294,417.843,352.3667z"/>
	<path fill="#A0616A" d="M421.4021,80.7393c0,0-4.8783,14.6349-2.1681,17.8871s-16.261-9.7566-16.261-9.7566l10.2986-11.9248
		L421.4021,80.7393z"/>
	<circle fill="#2F2E41" cx="410.2773" cy="56.3791" r="24.3363"/>
	<polygon fill="#A0616A" points="504.8755,245.5175 492.4088,255.2744 485.3622,243.8913 497.8288,235.219 	"/>
	<path fill="#2F2E41" d="M487.2593,318.9632l3.2522,15.719l9.2146,12.4668c0,0,24.9335,7.5885,8.1305,11.3827
		c-16.8031,3.7942-20.5973-2.7102-20.5973-2.7102l-11.9247-10.2986v14.0929h-7.5885l-1.6261-20.0553
		c0,0-1.0841-5.9624,3.7943-12.4668l1.0841-9.7566L487.2593,318.9632z"/>
	<path fill="#A0616A" d="M424.3833,124.373l4.3363,24.9336c0,0,46.0729-4.8783,49.3251,4.3363
		c3.2522,9.2146,4.3362,11.9247,4.3362,11.9247l-9.2146,3.2522l-4.3362-8.1305c-2.6694-0.9452-5.6103-0.7492-8.1305,0.5421
		c-4.3363,2.1681-42.2787,7.5885-44.9888,0.5421c-2.7101-7.0464-10.2986-33.0641-10.2986-33.0641l11.3827-9.2146L424.3833,124.373z"
		/>
	<path opacity="0.1" enable-background="new    " d="M424.3833,124.373l4.3363,24.9336c0,0,46.0729-4.8783,49.3251,4.3363
		c3.2522,9.2146,4.3362,11.9247,4.3362,11.9247l-9.2146,3.2522l-4.3362-8.1305c-2.6694-0.9452-5.6103-0.7492-8.1305,0.5421
		c-4.3363,2.1681-42.2787,7.5885-44.9888,0.5421c-2.7101-7.0464-10.2986-33.0641-10.2986-33.0641l11.3827-9.2146L424.3833,124.373z"
		/>
	<path fill="#2F2E41" d="M449.8589,196.4635l3.7943,13.0088l9.7566,49.8671c0,0,1.0841,36.8583,2.7102,41.1946
		c1.6261,4.3363,1.6261,4.8783,0,6.5044c-1.6261,1.6261-4.8783,7.0464,0,10.2986c4.8783,3.2522,22.2234,7.0464,22.7654,3.2522
		c0.5421-3.7943,0.5421-9.7566,0-12.4668s1.6261-44.9888,1.6261-44.9888l-6.5044-64.5021l-22.2234-10.2987L449.8589,196.4635z"/>
	<path opacity="0.1" enable-background="new    " d="M449.8589,196.4635l3.7943,13.0088l9.7566,49.8671
		c0,0,1.0841,36.8583,2.7102,41.1946c1.6261,4.3363,1.6261,4.8783,0,6.5044c-1.6261,1.6261-4.8783,7.0464,0,10.2986
		c4.8783,3.2522,22.2234,7.0464,22.7654,3.2522c0.5421-3.7943,0.5421-9.7566,0-12.4668s1.6261-44.9888,1.6261-44.9888
		l-6.5044-64.5021l-22.2234-10.2987L449.8589,196.4635z"/>
	<path fill="#2F2E41" d="M473.1664,145.5123l11.9248,22.7654c0,0,68.2963,30.3539,62.3339,42.8207
		c-5.9624,12.4668-39.0264,35.7742-39.0264,35.7742s-1.6261,9.2146-6.5044,6.5044c-4.8783-2.7102-16.803-16.803-15.719-18.4292
		c1.084-1.6261,4.8783-5.4203,6.5044-4.8783s20.5973-14.0929,20.5973-14.0929l-32.5221-8.1305c0,0-39.0265-1.0841-41.1946-19.5132
		s0-21.6814,0-21.6814l-2.7101-5.9624l22.2234-13.5509L473.1664,145.5123z"/>
	<path fill="#2F2E41" d="M489.9694,235.49l-11.3827,10.2986c0,0-9.7566-4.3363-15.719-2.7102
		c-5.9624,1.6261-16.261,2.7102-16.261,2.7102l1.6261,9.2146l13.8294-2.5514L450.943,268.012c0,0,0,24.3915,7.0464,24.3915
		c7.0464,0,4.8783-14.6349,4.8783-14.6349l21.6814-16.803c0,0,10.8407-4.3363,11.9247-4.3363S489.9694,235.49,489.9694,235.49z"/>
	<circle fill="#A0616A" cx="419.234" cy="66.6464" r="18.4292"/>
	<path fill="#575A89" d="M401.0758,81.0103c0,0,8.6725-2.1681,11.3827,0c2.7101,2.1681,3.2522,7.0464,7.0464,7.5885
		c3.7942,0.542,7.0464,0.5421,7.5885,1.0841c0.542,0.542,13.0088,15.719,13.0088,15.719s7.5885,4.3363,9.2146,10.2987
		c1.6261,5.9624,17.8871,26.0176,20.0553,28.1858s-14.0929,13.0088-19.5132,16.8031c-5.4203,3.7942-21.1393,5.4203-26.0176-3.2522
		C418.9629,148.7645,392.4033,92.393,401.0758,81.0103z"/>
	<path fill="#A0616A" d="M421.6732,116.2425l4.3362,24.9336c0,0,46.0729-4.8783,49.3251,4.3363
		c3.2522,9.2146,4.3362,11.9248,4.3362,11.9248l-9.2145,3.2522l-4.3363-8.1305c-2.6694-0.9452-5.6102-0.7491-8.1305,0.5421
		c-4.3362,2.1681-42.2787,7.5885-44.9888,0.5421c-2.7102-7.0464-10.2986-33.0641-10.2986-33.0641l11.3827-9.2146L421.6732,116.2425z
		"/>
	<path fill="#575A89" d="M411.315,83.2908c0,0,13.0683,27.5314,11.9843,35.1199s-4.8783,2.1681-4.8783,2.1681
		s-4.8783-7.5885-7.0464-3.2522c-2.1682,4.3363-4.8783,10.2987-7.0464,9.7566c-2.1682-0.542-14.0929-40.6526-7.5885-44.4468
		S411.315,83.2908,411.315,83.2908z"/>
	<circle fill="#2F2E41" cx="383.9129" cy="24.3363" r="24.3363"/>
	<path fill="#2F2E41" d="M362.9216,44.4884c10.8938,7.8736,26.1078,5.4253,33.9814-5.4685c1.6024-2.217,2.8195-4.6884,3.6003-7.3101
		c-1.677,13.3363-13.8477,22.788-27.184,21.111c-13.3363-1.677-22.788-13.8477-21.111-27.184
		c0.1663-1.3227,0.441-2.6295,0.8214-3.9072C351.9193,30.5537,355.7123,39.2804,362.9216,44.4884z"/>
	<circle fill="#2F2E41" cx="405.2713" cy="60.4352" r="17.8466"/>
	<ellipse fill="#2F2E41" cx="418.795" cy="53.7427" rx="15.8186" ry="12.371"/>
	<ellipse fill="#A0616A" cx="419.505" cy="68.5435" rx="3.5232" ry="6.2334"/>
	<path fill="#2F2E41" d="M467.8677,160.4524c0,0,9.5955-5.5052,11.3768-4.1248c1.7814,1.3804,2.5728,5.7001,2.5728,5.7001
		l-11.0901,4.3529l-3.2522-5.9624L467.8677,160.4524z"/>
</g>
</svg>
