<?xml version="1.0" encoding="utf-8"?>
<!-- Generator: Adobe Illustrator 26.0.1, SVG Export Plug-In . SVG Version: 6.00 Build 0)  -->
<svg version="1.1" id="Layer_1" xmlns="http://www.w3.org/2000/svg" xmlns:xlink="http://www.w3.org/1999/xlink" x="0px" y="0px"
	 viewBox="0 0 640 360" enable-background="new 0 0 640 360" xml:space="preserve">
<g>
	<path opacity="0.1" fill="#F56539" enable-background="new    " d="M144.7639,194.9091
		c16.2713,27.8138,13.206,65.1561,6.0419,94.487c-2.3999,9.8169-5.1591,20.1794-3.1052,31.2739
		c2.4975,13.5698,11.6135,24.398,20.8492,30.6617c16.8258,11.436,36.047,11.5647,50.0382,0.3371
		c12.0926-9.706,20.0552-26.9266,32.3829-36.0869c20.6629-15.3663,48.9558-5.1192,73.5535,10.2161
		c17.4025,10.8505,36.5483,24.5311,52.6288,17.4024c11.3163-5.0171,18.3739-19.7402,21.6743-35.8607
		c1.5925-7.7852,2.5551-16.3023,6.2104-22.1801c2.1692-3.4956,5.1547-5.7979,8.2421-7.6654
		c28.213-17.0831,66.3716-1.3885,93.5998-20.8492c18.3784-13.135,28.8341-40.8867,32.2808-70.741
		c3.4468-29.8544,0.6388-61.9444-2.8878-93.5599c-2.5063-22.4684-5.8999-46.5426-17.1851-65.0275
		C507.1503,7.7583,488.3239-1.2822,471.955,0.1462c-16.3689,1.4284-30.5996,11.9462-42.843,24.8727
		c-15.3176,16.1604-29.1313,36.9298-48.9469,41.8005c-13.4944,3.3181-28.2352-1.2155-42.5857-3.917
		c-23.9544-4.5203-47.5851-3.917-71.0471-2.9632c-22.4595,0.9138-45.0565,2.1825-65.9901,9.95
		c-14.8118,5.4962-26.1724,17.3803-40.0039,24.9614c-9.0095,4.9417-19.1724,5.3631-27.5698,12.0349
		c-10.3448,8.2199-19.2966,23.6217-15.1623,43.4463C121.741,169.1714,136.1137,180.1461,144.7639,194.9091z"/>
	<path fill="#F56539" d="M102.4266,136.3405c0,0-21.9849,34.3436,50.0959,34.9424c0,0,1.0602-29.8898-22.5039-42.2042
		c-9.4836-4.9782-21.1917-2.0778-27.2548,6.7516L102.4266,136.3405z"/>
	<path fill="none" stroke="#535461" stroke-miterlimit="10" d="M102.5908,135.7639c0,0,36.9209,7.2751,49.9317,35.5191"/>
	<path fill="none" stroke="#535461" stroke-width="2" stroke-miterlimit="10" d="M155.743,166.6606
		c0,0-23.706-30.6351-21.5413-60.8354c0.8872-12.6737-2.0894-25.334-8.9652-36.0248c-3.2717-5.0619-7.0003-9.8135-11.1388-14.1952"
		/>
	<path fill="#F56539" d="M115.3398,36.5614c1.6546,4.2408-1.2243,19.5406-1.2243,19.5406s-12.4829-9.3156-14.1376-13.5431
		c-1.5911-4.2675,0.5785-9.0168,4.846-10.6079C108.9992,30.3943,113.6558,32.4359,115.3398,36.5614z"/>
	<path fill="#F56539" d="M137.2227,55.1039c-0.9138,4.4626-11.6489,15.739-11.6489,15.739s-5.4208-14.5945-4.507-19.0748
		c0.9212-4.4613,5.2846-7.3312,9.7459-6.41C135.274,46.2792,138.1438,50.6426,137.2227,55.1039z"/>
	<path fill="#F56539" d="M152.3051,95.4716c-3.0431,3.3891-17.9969,7.7053-17.9969,7.7053s2.6882-15.3353,5.7269-18.7244
		c2.9971-3.4293,8.2068-3.7796,11.6361-0.7825c3.4293,2.9971,3.7796,8.2068,0.7825,11.6361
		C152.4049,95.362,152.3554,95.4171,152.3051,95.4716z"/>
	<path fill="#F56539" d="M156.8875,128.5908c-2.4265,3.8549-16.4398,10.6464-16.4398,10.6464s0.0577-15.566,2.4842-19.4208
		c2.3464-3.9035,7.413-5.1657,11.3165-2.8193c3.9035,2.3464,5.1657,7.413,2.8193,11.3165c-0.0581,0.0966-0.1181,0.192-0.1801,0.2861
		V128.5908z"/>
	<path fill="#F56539" d="M109.7549,77.9715c4.1965,1.7744,19.5672-0.7009,19.5672-0.7009s-8.9563-12.7402-13.1661-14.5102
		c-4.2004-1.7676-9.0385,0.2045-10.8061,4.405S105.5545,76.2039,109.7549,77.9715z"/>
	<path fill="#F56539" d="M115.5794,116.6225c4.5336,0.4436,18.4582-6.5254,18.4582-6.5254s-12.341-9.4576-16.8968-9.8879
		c-4.5438-0.3116-8.4798,3.1193-8.7914,7.6631C108.0495,112.2474,111.2262,116.0921,115.5794,116.6225L115.5794,116.6225z"/>
	<path fill="#F56539" d="M126.3988,153.428c4.3961,1.1933,19.2966-3.3137,19.2966-3.3137s-10.5887-11.4139-14.9848-12.6027
		c-4.3726-1.2742-8.9502,1.2375-10.2244,5.6101c-1.2742,4.3726,1.2375,8.9502,5.61,10.2244
		C126.1966,153.3753,126.2975,153.4026,126.3988,153.428z"/>
	<path opacity="0.25" enable-background="new    " d="M115.3398,36.5614c1.6546,4.2408-1.2243,19.5406-1.2243,19.5406
		s-12.4829-9.3156-14.1376-13.5431c-1.5911-4.2675,0.5785-9.0168,4.846-10.6079C108.9992,30.3943,113.6558,32.4359,115.3398,36.5614
		z"/>
	<path opacity="0.25" enable-background="new    " d="M137.2227,55.1039c-0.9138,4.4626-11.6489,15.739-11.6489,15.739
		s-5.4208-14.5945-4.507-19.0748c0.9212-4.4613,5.2846-7.3312,9.7459-6.41C135.274,46.2792,138.1438,50.6426,137.2227,55.1039z"/>
	<path opacity="0.25" enable-background="new    " d="M152.3051,95.4716c-3.0431,3.3891-17.9969,7.7053-17.9969,7.7053
		s2.6882-15.3353,5.7269-18.7244c2.9971-3.4293,8.2068-3.7796,11.6361-0.7825c3.4293,2.9971,3.7796,8.2068,0.7825,11.6361
		C152.4049,95.362,152.3554,95.4171,152.3051,95.4716z"/>
	<path opacity="0.25" enable-background="new    " d="M156.8875,128.5908c-2.4265,3.8549-16.4398,10.6464-16.4398,10.6464
		s0.0577-15.566,2.4842-19.4208c2.3464-3.9035,7.413-5.1657,11.3165-2.8193c3.9035,2.3464,5.1657,7.413,2.8193,11.3165
		c-0.0581,0.0966-0.1181,0.192-0.1801,0.2861V128.5908z"/>
	<path opacity="0.25" enable-background="new    " d="M109.7549,77.9715c4.1965,1.7744,19.5672-0.7009,19.5672-0.7009
		s-8.9563-12.7402-13.1661-14.5102c-4.2004-1.7676-9.0385,0.2045-10.8061,4.405S105.5545,76.2039,109.7549,77.9715z"/>
	<path opacity="0.25" enable-background="new    " d="M115.5794,116.6225c4.5336,0.4436,18.4582-6.5254,18.4582-6.5254
		s-12.341-9.4576-16.8968-9.8879c-4.5438-0.3116-8.4798,3.1193-8.7914,7.6631
		C108.0495,112.2474,111.2262,116.0921,115.5794,116.6225L115.5794,116.6225z"/>
	<path opacity="0.25" enable-background="new    " d="M126.3988,153.428c4.3961,1.1933,19.2966-3.3137,19.2966-3.3137
		s-10.5887-11.4139-14.9848-12.6027c-4.3726-1.2742-8.9502,1.2375-10.2244,5.6101c-1.2742,4.3726,1.2375,8.9502,5.61,10.2244
		C126.1966,153.3753,126.2975,153.4026,126.3988,153.428z"/>
	<polygon fill="#5F546F" points="153.8311,62.135 153.8311,213.7711 355.5808,174.5789 351.7259,58.2801 	"/>
	<polygon opacity="0.1" enable-background="new    " points="153.8311,62.135 153.8311,213.7711 355.5808,174.5789 
		351.7259,58.2801 	"/>
	<polygon fill="#5F546F" points="533.0788,240.9194 533.0788,291.0375 319.7644,353.3589 317.5864,352.2322 148.8495,264.692 
		148.8495,57.4772 357.6701,50.73 358.9566,165.7424 350.6036,168.3153 347.3919,60.7421 163.6302,67.1166 162.3438,222.927 
		322.3329,292.9627 322.4527,292.9361 	"/>
	<polygon opacity="0.1" enable-background="new    " points="533.0788,240.9194 533.0788,291.0375 319.7644,353.3589 
		317.5864,352.2322 322.4527,292.9361 	"/>
	<path fill="#EBECF0" d="M275.9101,168.1512c0,0-103.2792,10.3049-113.3223,25.232s-0.0798,33.239-0.0798,33.239l159.6653,69.3925
		l216.5305-55.8937c0,0-5.7668-39.1921-23.7726-43.6902c-18.0057-4.4981-161.2755-35.3461-161.2755-35.3461
		S295.8277,157.5491,275.9101,168.1512z"/>
	<path fill="#F8F9FA" d="M162.5079,193.5296l162.8769,56.222c0,0,173.7318-52.6865,198.3429-47.7093
		c0,0-121.5467-43.4951-170.0722-41.6053c-38.6864,1.5082-79.1916,7.8606-79.1916,7.8606S167.0016,179.077,162.5079,193.5296z"/>
	<path fill="#F56539" d="M180.9671,144.6367l50.5438-42.592c5.6204-4.7362,14.016-4.0193,18.7522,1.601l25.4037,30.1465
		c4.7361,5.6204,4.0193,14.016-1.601,18.7522l-50.5438,42.592c-5.6204,4.7361-14.016,4.0193-18.7522-1.601l-25.4037-30.1465
		C174.6299,157.7685,175.3467,149.3729,180.9671,144.6367z"/>
	<path opacity="0.1" enable-background="new    " d="M180.9646,145.078l50.5438-42.592c5.6204-4.7362,14.016-4.0193,18.7522,1.601
		l25.4037,30.1465c4.7362,5.6204,4.0193,14.016-1.601,18.7522l-50.5438,42.592c-5.6204,4.7361-14.016,4.0193-18.7522-1.601
		l-25.4037-30.1465C174.6275,158.2098,175.3443,149.8141,180.9646,145.078z"/>
	<path fill="#F56539" d="M184.6857,144.334l45.8965-38.6758c5.6204-4.7362,14.016-4.0193,18.7522,1.601l22.6109,26.8323
		c4.7361,5.6204,4.0193,14.016-1.601,18.7522l-45.8965,38.6758c-5.6204,4.7362-14.016,4.0193-18.7522-1.601l-22.6109-26.8323
		C178.3485,157.4658,179.0654,149.0702,184.6857,144.334z"/>
	<path opacity="0.05" enable-background="new    " d="M195.6405,168.9718c1.2687-1.7212,2.6616-3.5488,4.6356-4.3118
		c1.1578-0.4436,2.4487-0.5234,3.5932-1.007c2.4043-1.0203,3.6996-3.6109,4.578-6.0729c0.8783-2.462,1.6236-5.1236,3.5488-6.8891"/>
	<path opacity="0.05" enable-background="new    " d="M206.7172,173.1505c1.2687-1.7212,2.6616-3.5488,4.6356-4.3118
		c1.1578-0.4436,2.4487-0.5234,3.5932-1.007c2.4043-1.0203,3.6996-3.6109,4.578-6.0729c0.8783-2.462,1.6236-5.1236,3.5488-6.8891"/>
	<path opacity="0.05" enable-background="new    " d="M230.9201,137.2499c1.2687-1.7212,2.6616-3.5488,4.6356-4.3118
		c1.1578-0.4436,2.4487-0.5234,3.5932-1.007c2.4043-1.0203,3.6996-3.6109,4.578-6.0729c0.8783-2.462,1.6236-5.1236,3.5488-6.8891"/>
	<path opacity="0.1" enable-background="new    " d="M235.1653,165.871c1.2687-1.7212,2.6616-3.5488,4.6356-4.3118
		c1.1578-0.4436,2.4487-0.5234,3.5932-1.007c2.4043-1.0203,3.6996-3.6109,4.578-6.0729c0.8783-2.462,1.6236-5.1236,3.5488-6.8891"/>
	<path fill="#F56539" d="M261.7061,134.8764l50.5438-42.592c5.6204-4.7362,14.016-4.0193,18.7522,1.601l25.4037,30.1465
		c4.7361,5.6204,4.0193,14.016-1.601,18.7522l-50.5438,42.592c-5.6204,4.7361-14.016,4.0193-18.7522-1.601l-25.4037-30.1465
		C255.3689,148.0082,256.0857,139.6126,261.7061,134.8764z"/>
	<path opacity="0.1" enable-background="new    " d="M261.7061,134.8764l50.5438-42.592c5.6204-4.7362,14.016-4.0193,18.7522,1.601
		l25.4037,30.1465c4.7361,5.6204,4.0193,14.016-1.601,18.7522l-50.5438,42.592c-5.6204,4.7361-14.016,4.0193-18.7522-1.601
		l-25.4037-30.1465C255.3689,148.0082,256.0857,139.6126,261.7061,134.8764z"/>
	<path fill="#F56539" d="M265.4247,134.5737l45.8965-38.6758c5.6204-4.7362,14.016-4.0193,18.7522,1.601l22.6109,26.8323
		c4.7361,5.6204,4.0193,14.016-1.601,18.7522l-45.8965,38.6758c-5.6204,4.7362-14.016,4.0193-18.7522-1.601l-22.6109-26.8323
		C259.0875,147.7055,259.8044,139.3099,265.4247,134.5737z"/>
	<path opacity="0.05" enable-background="new    " d="M276.3758,159.2126c1.2687-1.7212,2.6616-3.5488,4.6357-4.3118
		c1.1578-0.4436,2.4487-0.5235,3.5931-1.007c2.4043-1.0203,3.6996-3.6109,4.578-6.0729s1.6236-5.1236,3.5488-6.8891"/>
	<path opacity="0.05" enable-background="new    " d="M287.4525,163.3913c1.2687-1.7212,2.6616-3.5488,4.6356-4.3118
		c1.1578-0.4436,2.4487-0.5235,3.5932-1.007c2.4043-1.0203,3.6996-3.6109,4.5779-6.0729c0.8783-2.462,1.6236-5.1236,3.5488-6.8891"
		/>
	<path opacity="0.05" enable-background="new    " d="M311.6554,127.4907c1.2687-1.7212,2.6616-3.5488,4.6357-4.3118
		c1.1578-0.4436,2.4487-0.5234,3.5931-1.007c2.4043-1.0203,3.6996-3.6109,4.578-6.0729c0.8783-2.462,1.6236-5.1236,3.5488-6.8891"/>
	<path opacity="0.1" enable-background="new    " d="M315.9007,156.1118c1.2687-1.7212,2.6616-3.5488,4.6356-4.3118
		c1.1578-0.4436,2.4487-0.5234,3.5932-1.007c2.4043-1.0203,3.6996-3.6109,4.578-6.0729s1.6236-5.1236,3.5488-6.8891"/>
	
		<linearGradient id="SVGID_1_" gradientUnits="userSpaceOnUse" x1="438.4952" y1="33.0366" x2="438.4952" y2="260.6082" gradientTransform="matrix(1 0 0 -1 -102.44 317.75)">
		<stop  offset="0" style="stop-color:#808080;stop-opacity:0.25"/>
		<stop  offset="0.54" style="stop-color:#808080;stop-opacity:0.12"/>
		<stop  offset="1" style="stop-color:#808080;stop-opacity:0.1"/>
	</linearGradient>
	<path fill="url(#SVGID_1_)" d="M517.7745,281.3359c-0.3549-1.4567-1.5018-2.5882-2.9633-2.9233
		c-12.4785-3.1052-23.7105-26.8157-23.7105-26.8157s-0.4436-4.5159-3.6109-11.2896c-1.4772-3.1629-2.5551-8.4861-3.2915-13.2681
		c4.0323-1.8187,7.0976-3.846,5.097-5.2478c-1.1145-0.7574-2.3695-1.2838-3.6908-1.5482l-1.2776-7.0311
		c0.4436-4.9683-3.1629-21.6788-3.1629-21.6788l-3.1274-25.9152c0,0,0.3593-0.6077-0.1996-1.6103v-0.0355l-0.0843-0.142
		l-0.0399-0.0577l-0.0932-0.1375l-0.0533-0.071l-0.1685-0.2085l-0.1109-0.1286l-0.0932-0.0976l-0.1331-0.1375l-0.102-0.0976
		l-0.1597-0.1464l-0.1065-0.0932l-0.2085-0.173l-0.0932-0.0754c-0.2174-0.173-0.4436-0.3504-0.7364-0.5279l-0.0754-0.0488
		l-0.3549-0.2262l-0.1153-0.071l-0.3682-0.2174l-0.1242-0.071l-0.4436-0.2395l-0.0932-0.0488
		c-0.3814-0.1982-0.797-0.3992-1.2465-0.6033l-0.1109-0.0488l-0.5767-0.2529l-0.1996-0.0843l-0.5501-0.2262l-0.2307-0.0932
		l-0.6077-0.2307l-0.2173-0.0843l-0.8872-0.315c-0.2972-0.102-0.5856-0.1952-0.8872-0.2839l-0.315-0.0887l-0.5279-0.1464
		l-0.3416-0.0843l-0.4747-0.1065l-0.3238-0.0665l-0.4879-0.0843l-0.2617-0.0444c-0.2396-0.0355-0.4747-0.0651-0.7053-0.0887h-0.142
		l-0.55-0.0399h-0.2174h-0.6609h-0.4436h-0.173l-0.519,0.0532h-0.0399c-0.1952,0.0266-0.3845,0.0577-0.5678,0.0932h-0.0488
		l-0.4436,0.1065l-0.1331,0.0355l-0.3504,0.1065l-0.1508,0.0488l-0.3016,0.1109l-0.1553,0.0621h-0.0488l-0.1065,0.0488
		c-3.8105,1.3308-10.429,2.3777-17.5178,3.1673c-1.3885-4.7998-2.5685-9.564-2.8923-12.7802
		c-0.8872-9.0317-5.4208-19.4208-5.4208-19.4208c-0.0468,0.1193-0.1078,0.2325-0.1819,0.3371c0-0.1198-0.0399-0.2395-0.0621-0.3549
		c-0.6388-3.256-2.8612-4.436-10.1452-7.2085c-7.0976-2.706-10.4024,1.424-11.6135,3.6686
		c-0.071,0.1286-0.1286,0.2484-0.1863,0.3638l-0.8428-0.417l-10.3891,14l-0.2795,0.5146l-7.0976,13.8936l-0.2395,0.4702
		l-0.0976,0.0665l-10.0209,23.156c-5.6382-2.8302-14.8163-2.8302-14.8163-2.8302l-4.5159-4.0634l-11.2985-13.552
		c-1.0884-3.7105-2.4526-7.3344-4.0811-10.8416c-1.4594-3.1629-2.2623-8.0292-2.6971-11.8441
		c1.1137-1.4983,2.0209-3.1395,2.6971-4.8796l-0.2484-0.3238c0.0843-0.1907,0.1686-0.3815,0.2484-0.5767
		c0,0-9.0317-11.7421-9.0317-16.258s-25.2852-8.1312-25.2852-8.1312s-0.0222,0.0887-0.0665,0.2351
		c-1.0224-0.5938-1.925-1.3731-2.6616-2.2979c-0.1242-0.1553-0.2484-0.3238-0.3682-0.4968
		c1.6463-1.7549,2.9252-3.8212,3.7617-6.0773c0.7834,0.4239,1.66,0.6464,2.5507,0.6477c1.1223,0,2.4797-0.7763,2.2624-1.8764l0,0
		c0.0289-0.1464,0.0289-0.2971,0-0.4436c-0.1242-0.6343-0.7231-1.038-1.1888-1.4861c-0.524-0.5138-0.856-1.1918-0.9404-1.9208
		c0.0312-0.4089,0.2055-0.7937,0.4924-1.0868c0.4048-0.3126,0.8285-0.6,1.2687-0.8606c1.038-0.8118,1.1977-2.2668,1.1667-3.6109
		c0-0.2839,0-0.5634,0-0.8384c-0.1335-2.9653-0.4715-5.9178-1.0114-8.8365c-0.1244-0.7527-0.3083-1.4944-0.5501-2.218
		c-0.3958-1.0034-0.8907-1.9648-1.4772-2.8701l-4.4005-7.3061c-0.5066-0.9708-1.1895-1.8388-2.0139-2.5596
		c-3.0742-2.3644-6.654,0.5146-9.5906-1.1489c-1.5349-0.8606-2.635-1.9518-4.436-2.3644c-2.0894-0.4747-4.2852-0.1952-6.3479,0.2573
		c-0.5731,0.0743-1.1124,0.3132-1.5526,0.6876c-0.5811,0.5989-0.59,1.526-0.8118,2.3289c-0.4436,1.5526-1.7301,2.7104-3.1052,3.5488
		c-1.3752,0.8384-2.8878,1.4506-4.1698,2.4265c-2.3422,1.7744-3.6775,4.5336-5.2434,7.0222
		c-2.0904,3.3165-4.7063,6.271-7.7452,8.7478c0.0479,0.1056,0.1123,0.2029,0.1907,0.2883l-0.1907,0.1641
		c0.4436,1.0158,2.0406,0.7186,2.9278,1.3973c0.379,0.2982,0.609,0.747,0.6299,1.2288c-0.0801,0.7089-0.2922,1.3965-0.6255,2.0273
		c-0.417,0.8295-0.834,1.8365-0.7541,2.706c-0.0794,0.5434,0.0826,1.0944,0.4436,1.5082c0.2869,0.2284,0.5554,0.4791,0.8029,0.7497
		c0.0914,0.1333,0.1534,0.2845,0.1819,0.4436c-0.1287,0.8251-0.8473,1.73-0.9227,2.635c-0.0132,0.1268-0.0132,0.2547,0,0.3815
		c0,0.0222,0,0.0444,0,0.071c-0.102,1.211,0.9937,2.187,2.0938,2.706c1.0203,0.4835,2.1648,0.7985,2.9899,1.5482
		c-0.5944,0.865-1.1445,1.8809-1.0469,2.8346c-0.0436,0.3941,0.0256,0.7926,0.1996,1.1489
		c0.7009,1.4062,2.6971,1.4151,4.2231,1.0425c0.3958-0.1422,0.8245-0.1654,1.2332-0.0665c0.3562,0.1832,0.6693,0.4403,0.9182,0.7541
		c1.6591,1.628,4.853,1.0203,5.8821-1.0336l-0.0798,0.3327c-0.1375,0.5589-0.2928,1.1312-0.4436,1.7167c0-0.1242,0-0.244,0-0.3726
		c0,0-8.5526,2.0006-15.2865,3.4601c-3.9032,0.8494-7.2473,3.3474-9.1693,6.8492l-6.2548,11.3695c0,0,0.0665,0.1908,0.2129,0.5146
		l-0.2129,0.3904c0.3834,0.9674,0.8824,1.8849,1.4861,2.7326c-2.8523,6.725-8.872,19.8644-14.1331,24.815
		c-0.8543,0.8069-1.7533,1.5652-2.6927,2.2712c-1.0536-0.0269-2.0993,0.1886-3.0564,0.6299c-1.0823,0.5146-2.03,1.2739-2.7681,2.218
		c-1.5437,0.2529-2.32-0.1286-2.32-0.1286s-5.1768,4.0723-8.5127,8.4728c-0.6876,0.2484-1.3707,0.5013-2.0406,0.7807
		c-3.0742,1.2953-6.1838,3.8017-6.1527,7.1375c0,2.3422,1.6058,4.436,2.3866,6.654l-1.9385,2.2624c0,0-4.0634,3.1629-7.6787,4.0634
		c-3.6153,0.9005-10.8505,6.7383-10.8505,6.7383l-13.5476,9.4842l-1.4284,0.9183c-2.95-4.192-5.7979-10.4024-5.7979-10.4024
		s-4.9683-9.0317-10.3891,0.8872l-0.1641,0.2972c-0.8523,1.5977-1.4438,3.3214-1.7522,5.1059
		c-6.3568-3.1052-9.4398,9.0317-9.8302,11.7598c-0.0887,0.6166-0.9183,3.5976,0.1774,6.0862
		c3.0934,7.1762,9.1477,12.6576,16.5951,15.0247c0.7293,0.2254,1.4696,0.4135,2.218,0.5634
		c6.7738,1.353,11.2896-8.5793,11.2896-8.5793l0.142-1.4284c1.0314,0.1066,2.0694,0.1363,3.1052,0.0887
		c0.661-0.0311,1.3308-0.0355,2.0716,0c3.6292,0.0702,7.2348-0.5984,10.5976-1.9651l5.7668-2.3112l0.9626-0.3859
		c-0.0266,0.1908-0.0532,0.3815-0.0843,0.5767l21.6832-7.1952c0,0,7.4081-0.9271,15.6414-2.1382
		c0.2573,0.7275,0.4968,1.4639,0.7985,2.1781c1.8853,4.436,6.2104,7.4392,10.7839,8.8942c4.5735,1.455,9.4665,1.5748,14.2707,1.6812
		c0.4968,0,0.9937,0,1.4949,0c1.5748,0.0222,3.1806-0.0266,4.609-0.6654c1.6103-0.7186,2.9322-2.4043,2.6306-4.1432
		c-0.2351-1.3574-1.3308-2.3644-2.3511-3.296c-1.9563-1.8099-3.8239-3.8238-4.8086-6.2991c-0.2304-0.5816-0.4014-1.185-0.5102-1.801
		c1.2357,1.1735,2.7527,2.0091,4.405,2.4265c9.0317,2.2579,24.8416,4.5159,29.3531,3.1629c4.5114-1.353,15.8055-4.0634,32.9684,0
		c17.1629,4.0634,22.1268,2.7104,22.1268,2.7104l-0.0754-0.1109c4.4981,1.0513,10.9791,1.9962,17.1097,0.834
		c3.5864-0.6747,7.2095-1.1369,10.8505-1.384c2.3023-0.1597,4.9905-0.4436,7.7231-0.8872
		c4.8916-0.8372,9.3411-3.3457,12.5894-7.0976c9.0051,1.2199,23.1515-3.9924,23.1515-3.9924l2.0716-1.0779l1.5437,3.7883
		c0,0-2.2579,11.7421,11.7421,16.7104c6.6406,2.3535,13.5073,4.0126,20.4899,4.9506c2.2757,15.4018,5.2522,21.6921,5.2522,21.6921
		l-4.9683,7.2262c-1.5304,6.1128,3.1052,8.6369,7.4702,9.6705c3.6595,0.896,7.0989,2.5259,10.1096,4.7909
		c6.2991,4.68,18.547,9.4709,18.547,9.4709C516.6212,286.1978,518.2758,283.6249,517.7745,281.3359z M356.9737,180.6917
		l2.7947,2.7947l-0.9892-0.0843l-1.7389,3.1629h-8.6635c-0.8872,0-4.9683-3.1629-4.9683-3.1629l-1.1534,0.1153l2.0583-1.4683
		c0,0,2.9766-1.6103,2.5685-7.5944L356.9737,180.6917z M326.0503,169.1271c-0.7542-2.4176-1.6014-5.0437-2.4664-7.5811
		c0.1065-1.007,0.2307-2.0095,0.377-2.9943l3.2072,9.9455L326.0503,169.1271z M262.7617,155.2557
		c-0.9999,1.7691-2.1643,3.44-3.4778,4.9905c-0.4037-0.1242-0.8118-0.2262-1.2244-0.3238l0,0
		C258.0595,159.9223,260.1755,158.0681,262.7617,155.2557z M448.1869,200.1082c-0.0666-0.6255-0.1508-1.3042-0.2484-2.0184
		l5.6648-2.95c3.6198,2.7148,4.9728,10.4113,5.4208,17.4202C457.0589,211.6684,448.9898,207.6183,448.1869,200.1082z"/>
	<path fill="#FFBCC7" d="M454.1977,162.3311c0,0,2.6616-6.654,12.8644-3.1052c10.2028,3.5488,8.4595,6.4854,8.4595,6.4854
		l-1.3618,5.9354l-5.3232,3.1052l-8.872-0.8872L454.1977,162.3311z"/>
	<path opacity="0.03" enable-background="new    " d="M475.6014,165.4718c-0.0146,0.0834-0.0415,0.1641-0.0798,0.2395
		l-1.3618,5.9354l-5.3232,3.1052l-8.872-0.8872l-5.7668-11.5336c0.768-1.5839,2.1025-2.8219,3.7396-3.469
		c1.9829-0.8295,4.9107-1.1001,9.1249,0.3638C475.5482,162.1759,475.77,164.7044,475.6014,165.4718z"/>
	<path fill="#FFBCC7" d="M480.3701,216.0068c0,0,1.3308,16.4132,4.436,23.0672c3.1052,6.654,3.5488,11.09,3.5488,11.09
		s11.0279,23.2846,23.2891,26.341c1.435,0.329,2.5612,1.4398,2.9101,2.8701c0.4924,2.2491-1.1357,4.7776-13.3347,2.2845
		c0,0-12.0305-4.7066-18.2187-9.3156c-2.9579-2.2253-6.3369-3.8265-9.9322-4.7066c-4.2675-1.0158-8.8365-3.4956-7.3372-9.5019
		l4.8796-7.0976c0,0-3.9924-8.4284-6.2104-29.7213C462.1826,200.0239,480.3701,216.0068,480.3701,216.0068z"/>
	<path fill="#FFBCC7" d="M432.4612,133.9407c0,6.2104-22.1801-5.7668-22.1801-5.7668c0.1533-0.441,0.3432-0.8683,0.5678-1.2776
		c1.1933-2.218,4.436-6.2592,11.4094-3.602c7.1508,2.7237,9.3156,3.8815,9.9633,7.0976
		C432.4121,131.5647,432.4923,132.7528,432.4612,133.9407z"/>
	<polygon fill="#FFBCC7" points="406.2888,135.7151 392.9807,161.4439 391.7387,156.0542 392.4263,154.7056 399.3997,141.0605 
		399.6348,140.5947 	"/>
	<polygon fill="#FFBCC7" points="360.1543,186.2856 353.0567,201.8116 348.1771,206.6912 345.8881,204.2824 344.9743,203.3198 
		339.7487,197.8192 344.6283,186.2856 	"/>
	<path fill="#FEB7C5" d="M322.4482,116.1966c0,0-30.1649,14.1952-31.0521,13.7516c-0.8872-0.4436-12.4208-3.1052-7.0976-13.7516
		c1.5413-3.1113,2.7316-6.3846,3.5488-9.7592c0.9023-3.4763,1.3496-7.055,1.3308-10.6464c0,0,18.6312-8.4284,19.962,1.3308
		c0.4436,3.1584,1.4639,5.3232,2.6616,6.8448c1.402,1.8385,3.4759,3.0461,5.7668,3.3581L322.4482,116.1966z"/>
	<path fill="#FEB7C5" d="M188.9243,214.676l-1.3308,13.308c0,0-4.436,9.7592-11.09,8.4284c-0.729-0.1482-1.45-0.3333-2.1603-0.5545
		c-7.3143-2.3259-13.2602-7.7101-16.2979-14.7586c-1.078-2.4442-0.2573-5.372-0.173-5.9797
		c0.4436-3.1052,4.436-18.6312,12.8644-8.872c8.4284,9.7592,13.308,14.6388,13.308,14.6388L188.9243,214.676z"/>
	<path fill="#5D526D" d="M261.2313,162.7747l-37.7061,17.744l-5.3232,6.2104c0,0-3.9924,3.1052-7.5412,3.9924
		s-10.6464,6.654-10.6464,6.654l-13.308,9.3156l-6.2104,3.9924l6.2104,4.8796l19.0748-4.436l23.0672-4.8796l11.9772-5.7668
		l34.1573-29.7213L261.2313,162.7747z"/>
	<path opacity="0.03" enable-background="new    " d="M188.9243,214.676l-1.3308,13.308c0,0-4.436,9.7592-11.09,8.4284
		c-0.729-0.1482-1.45-0.3333-2.1603-0.5545c-7.3143-2.3259-13.2602-7.7101-16.2979-14.7586c-1.078-2.4442-0.2573-5.372-0.173-5.9797
		c0.4436-3.1052,4.436-18.6312,12.8644-8.872c8.4284,9.7592,13.308,14.6388,13.308,14.6388L188.9243,214.676z"/>
	<path opacity="0.05" enable-background="new    " d="M261.2313,162.7747l-37.7061,17.744l-5.3232,6.2104
		c0,0-3.9924,3.1052-7.5412,3.9924s-10.6464,6.654-10.6464,6.654l-13.308,9.3156l-6.2104,3.9924l6.2104,4.8796l19.0748-4.436
		l23.0672-4.8796l11.9772-5.7668l34.1573-29.7213L261.2313,162.7747z"/>
	<path fill="#FEB7C5" d="M215.0968,219.9992l-6.1838,2.4709l-5.6737,2.2712c-3.3077,1.3376-6.853,1.9881-10.4202,1.9119
		c-0.7098,0-1.3885,0-2.0361,0c-5.1432,0.2497-10.1885-1.4681-14.1109-4.8042c-0.7408-0.6344-1.5215-1.2288-2.3156-1.7744
		c-6.883-4.8622-9.073-14.0862-5.1103-21.5235l0.1597-0.2928c5.3232-9.7592,10.2028-0.8872,10.2028-0.8872
		s4.8796,10.6464,8.4284,13.308c2.4176,1.8143,10.3891,0.1286,15.2288-1.1312c2.2668-0.59,3.846-1.0868,3.846-1.0868
		L215.0968,219.9992z"/>
	<path opacity="0.1" enable-background="new    " d="M208.913,222.4701c1.4461-9.4842-2.218-12.2744-5.647-12.9177
		c2.2668-0.59,3.846-1.0868,3.846-1.0868l7.9848,11.5336L208.913,222.4701z"/>
	<path fill="#5D526D" d="M282.0805,167.6543l-46.1345,32.3829c0,0-11.9772,7.0976-16.4132,5.3232
		c-4.436-1.7744-20.4056,4.436-20.4056,4.436s13.308-3.9924,10.6464,12.8644l21.2928-7.0976c0,0,31.9393-3.9924,36.3753-6.2104
		c4.436-2.218,23.0672-40.3677,23.0672-40.3677L282.0805,167.6543z"/>
	<path fill="#FEB7C5" d="M345.0719,129.9483c0,0,0.4436,11.5336,3.1052,17.3004c1.5939,3.4445,2.9284,7.0032,3.9924,10.6464
		l11.09,13.308l4.436,3.9924c0,0,16.8568,0,18.6313,7.0976c1.7744,7.0976-25.7289,2.218-25.7289,2.218l-3.9924-3.9924
		l-18.6312-11.5336l-10.6464-32.3829L345.0719,129.9483z"/>
	<path fill="#FEB7C5" d="M260.3441,128.6174c0,0-8.4284,21.7365-15.526,28.3905c-7.0976,6.654-10.6464,4.8796-10.6464,4.8796
		s-18.6312,14.6388-7.5412,18.1876c11.09,3.5488,16.8568-11.9772,16.8568-11.9772l15.9696-7.9848c0,0,14.6389-12.8644,13.7516-22.18
		C272.3213,128.6174,260.3441,128.6174,260.3441,128.6174z"/>
	<path opacity="0.03" enable-background="new    " d="M260.3441,128.6174c0,0-8.4284,21.7365-15.526,28.3905
		c-7.0976,6.654-10.6464,4.8796-10.6464,4.8796s-18.6312,14.6388-7.5412,18.1876c11.09,3.5488,16.8568-11.9772,16.8568-11.9772
		l15.9696-7.9848c0,0,14.6389-12.8644,13.7516-22.18C272.3213,128.6174,260.3441,128.6174,260.3441,128.6174z"/>
	<path opacity="0.1" enable-background="new    " d="M296.0806,117.4964c-3.287,0.1686-8.5393,1.6458-8.6768-8.841
		c0,0-8.4018,1.9651-15.0159,3.398c-3.8353,0.8341-7.1213,3.2885-9.0095,6.7294l-6.1439,11.1654c0,0,2.6616,7.5412,11.09,8.4284
		c0,0,1.7744,17.744-14.1952,28.8341s41.2549,26.6161,41.2549,26.6161l28.3904-9.3156c0,0-3.1052-31.9393,6.2104-40.3677
		c0,0,13.308-0.8872,18.1877-13.308c0,0-8.872-11.5336-8.872-15.9696c0-4.436-24.8416-7.9848-24.8416-7.9848
		s-3.0076,12.1547-13.481,10.7706C299.3536,117.4504,297.7144,117.3984,296.0806,117.4964z"/>
	<path fill="#D6E6F9" d="M296.0806,116.6092c-3.287,0.1686-8.5393,1.6458-8.6768-8.841c0,0-8.4018,1.9651-15.0159,3.398
		c-3.8353,0.8341-7.1213,3.2885-9.0095,6.7294l-6.1439,11.1654c0,0,2.6616,7.5412,11.09,8.4284c0,0,1.7744,17.744-14.1952,28.834
		c-15.9696,11.09,41.2549,26.6161,41.2549,26.6161l28.3904-9.3156c0,0-3.1052-31.9393,6.2104-40.3677
		c0,0,13.308-0.8872,18.1877-13.308c0,0-8.872-11.5336-8.872-15.9696c0-4.436-24.8416-7.9848-24.8416-7.9848
		s-3.0076,12.1547-13.481,10.7706C299.3536,116.5632,297.7144,116.5112,296.0806,116.6092z"/>
	<path opacity="0.03" enable-background="new    " d="M480.3701,216.0068c0,0,1.3308,16.4132,4.436,23.0672
		c3.1052,6.654,3.5488,11.09,3.5488,11.09s11.0279,23.2846,23.2891,26.341c1.435,0.329,2.5612,1.4398,2.9101,2.8701
		c0.4924,2.2491-1.1357,4.7776-13.3347,2.2845c0,0-12.0305-4.7066-18.2187-9.3156c-2.9579-2.2253-6.3369-3.8265-9.9322-4.7066
		c-4.2675-1.0158-8.8365-3.4956-7.3372-9.5019l4.8796-7.0976c0,0-3.9924-8.4284-6.2104-29.7213
		C462.1826,200.0239,480.3701,216.0068,480.3701,216.0068z"/>
	<path opacity="0.1" enable-background="new    " d="M475.6014,165.4718c-0.0146,0.0834-0.0415,0.1641-0.0798,0.2395l-1.3618,5.9354
		l-5.3232,3.1052l-8.872-0.8872l-5.7668-11.5336c0.768-1.5839,2.1025-2.8219,3.7396-3.469
		c-0.6876,3.0032-2.0273,11.9772,6.4633,12.341c10.2028,0.4436,11.09-6.654,11.09-6.654L475.6014,165.4718z"/>
	<path fill="#94B6F0" d="M411.612,164.1055c0,0,35.9317-1.3308,46.5781-5.3232c0,0-3.9924,12.8644,6.2104,13.308
		s11.09-6.654,11.09-6.654l3.1052,25.7289c0,0,3.5488,16.4132,3.1052,21.2928l1.7744,9.7592c0,0-23.9545,7.9848-26.6161,2.6616
		c0,0,1.7744-24.8416-5.3232-30.1649l-21.2928,11.09c0,0-20.4056,7.5412-27.5033,2.218
		C395.6424,202.6988,411.612,164.1055,411.612,164.1055z"/>
	<path opacity="0.03" enable-background="new    " d="M411.612,164.1055c0,0,35.9317-1.3308,46.5781-5.3232
		c0,0-3.9924,12.8644,6.2104,13.308s11.09-6.654,11.09-6.654l3.1052,25.7289c0,0,3.5488,16.4132,3.1052,21.2928l1.7744,9.7592
		c0,0-23.9545,7.9848-26.6161,2.6616c0,0,1.7744-24.8416-5.3232-30.1649l-21.2928,11.09c0,0-20.4056,7.5412-27.5033,2.218
		C395.6424,202.6988,411.612,164.1055,411.612,164.1055z"/>
	<path opacity="0.1" enable-background="new    " d="M311.8062,103.9665c-6.1146,6.9494-16.544,8.031-23.9545,2.4842
		c0.9023-3.4763,1.3496-7.055,1.3308-10.6464c0,0,18.6313-8.4284,19.962,1.3308
		C309.5705,100.2802,310.6041,102.4583,311.8062,103.9665z"/>
	<circle fill="#FEB7C5" cx="298.4938" cy="91.355" r="17.744"/>
	<path opacity="0.1" enable-background="new    " d="M291.3429,60.09c-0.5636,0.0738-1.0937,0.3096-1.526,0.6787
		c-0.5722,0.5856-0.5767,1.4994-0.7985,2.289c-0.4436,1.5215-1.699,2.6616-3.052,3.4823c-1.353,0.8207-2.8391,1.4284-4.0989,2.3821
		c-2.3023,1.7434-3.6109,4.436-5.1502,6.898c-2.0585,3.2656-4.6356,6.1739-7.6299,8.6103c0.4436,0.9981,2.0051,0.7053,2.8745,1.3707
		c1.0513,0.8029,0.5989,2.462,0,3.642c-0.5988,1.18-1.1933,2.737-0.2839,3.6952c0.2822,0.2243,0.5462,0.4705,0.7896,0.7364
		c0.6965,1.0158-0.6255,2.2491-0.7275,3.4778s0.9759,2.147,2.0583,2.6616c1.0824,0.5146,2.3067,0.8251,3.1052,1.6946
		c-0.7985,1.1046-1.628,2.5196-1.0203,3.7395c0.6876,1.3796,2.6616,1.3885,4.1477,1.0203c0.3885-0.1399,0.8095-0.163,1.211-0.0665
		c0.3445,0.1818,0.6469,0.4342,0.8872,0.7408c1.6901,1.6591,5.0127,0.9582,5.8866-1.2465c0.4746-1.1977,0.2839-2.5374,0.3327-3.8238
		c0.0799-2.0406,0.794-3.9924,1.0514-6.033c0.4436-3.429-0.4436-6.8802-0.5013-10.3359c-0.0258-0.226,0.0208-0.4543,0.1331-0.6521
		c0.2103-0.2179,0.5001-0.3412,0.8029-0.3416c1.9383-0.2583,3.8595-0.6316,5.7535-1.1179c1.4639-0.3771,3.1052-0.9981,3.6109-2.4221
		c-0.2972,1.0469,0.2307,2.1914,1.0469,2.91c0.8585,0.6711,1.8508,1.1505,2.91,1.4062c2.5507,0.7719,5.5007,1.2288,7.7187-0.244
		c-0.1198,2.7326-0.2263,5.5539,0.7408,8.1135c0.9671,2.5596,3.3048,4.8086,6.0374,4.7865c1.1001,0,2.4354-0.763,2.218-1.8409
		c-0.1242-0.621-0.7142-1.0203-1.1667-1.4594c-0.9138-0.8872-1.3308-2.4975-0.4436-3.398c0.3979-0.3062,0.8141-0.5877,1.2465-0.8428
		c1.1179-0.8872,1.1977-2.5108,1.1356-3.9259c-0.1301-2.9206-0.4621-5.8287-0.9937-8.7034
		c-0.1256-0.738-0.3096-1.4648-0.5501-2.1736c-0.3887-0.9863-0.8746-1.9313-1.4506-2.8213l-4.3162-7.173
		c-0.4976-0.954-1.1685-1.8069-1.9785-2.5152c-3.0209-2.32-6.5209,0.5057-9.4221-1.1267c-1.5082-0.8473-2.5906-1.9208-4.3562-2.32
		C295.5261,59.3713,293.3702,59.6464,291.3429,60.09z"/>
	<path fill="#8E6F80" d="M291.3429,59.6464c-0.5636,0.0738-1.0937,0.3096-1.526,0.6787c-0.5722,0.5856-0.5767,1.4994-0.7985,2.289
		c-0.4436,1.5215-1.699,2.6616-3.052,3.4823c-1.353,0.8207-2.8391,1.4284-4.0989,2.3821c-2.3023,1.7433-3.6109,4.436-5.1502,6.898
		c-2.0585,3.2656-4.6356,6.1739-7.6299,8.6103c0.4436,0.9981,2.0051,0.7053,2.8745,1.3707c1.0513,0.8029,0.5989,2.462,0,3.642
		c-0.5988,1.18-1.1933,2.737-0.2839,3.6952c0.2822,0.2243,0.5462,0.4705,0.7896,0.7364c0.6965,1.0158-0.6255,2.2491-0.7275,3.4778
		s0.9759,2.147,2.0583,2.6616c1.0824,0.5146,2.3067,0.8251,3.1052,1.6946c-0.7985,1.1046-1.628,2.5197-1.0203,3.7396
		c0.6876,1.3796,2.6616,1.3885,4.1477,1.0203c0.3885-0.1399,0.8095-0.163,1.211-0.0665c0.3445,0.1818,0.6469,0.4342,0.8872,0.7408
		c1.6901,1.6591,5.0127,0.9582,5.8866-1.2465c0.4746-1.1977,0.2839-2.5374,0.3327-3.8238c0.0799-2.0406,0.794-3.9924,1.0514-6.033
		c0.4436-3.429-0.4436-6.8802-0.5013-10.3359c-0.0258-0.226,0.0208-0.4543,0.1331-0.6521c0.2103-0.2179,0.5001-0.3412,0.8029-0.3416
		c1.9383-0.2583,3.8595-0.6316,5.7535-1.1179c1.4639-0.3771,3.1052-0.9981,3.6109-2.4221c-0.2972,1.0469,0.2307,2.1914,1.0469,2.91
		c0.8585,0.6711,1.8508,1.1505,2.91,1.4062c2.5507,0.7719,5.5007,1.2288,7.7187-0.244c-0.1198,2.7326-0.2263,5.5539,0.7408,8.1135
		c0.9671,2.5596,3.3048,4.8086,6.0374,4.7865c1.1001,0,2.4354-0.763,2.218-1.8409c-0.1242-0.621-0.7142-1.0203-1.1667-1.4594
		c-0.9138-0.8872-1.3308-2.4975-0.4436-3.398c0.3979-0.3062,0.8141-0.5877,1.2465-0.8428c1.1179-0.8872,1.1977-2.5108,1.1356-3.9259
		c-0.1301-2.9206-0.4621-5.8287-0.9937-8.7034c-0.1256-0.738-0.3096-1.4648-0.5501-2.1736
		c-0.3887-0.9862-0.8746-1.9313-1.4506-2.8213l-4.3162-7.173c-0.4976-0.954-1.1685-1.8069-1.9785-2.5152
		c-3.0209-2.32-6.5209,0.5057-9.4221-1.1267c-1.5082-0.8473-2.5906-1.9208-4.3562-2.32
		C295.5261,58.9277,293.3702,59.2028,291.3429,59.6464z"/>
	<path fill="#FFBCC7" d="M282.9677,199.15l-6.654,4.436c-2.3844-4.4954-5.2507-8.7182-8.5482-12.5938
		c-3.2959-3.8638-7.4525-7.7985-12.3011-10.4734c-12.8644-7.0976,12.4208-11.09,12.4208-11.09
		c1.8267,2.6828,3.9063,5.1843,6.2104,7.4702c4.4626,4.436,10.8239,8.872,17.3004,7.1686
		C303.3734,180.9624,282.9677,199.15,282.9677,199.15z"/>
	<rect x="294.945" y="173.8647" fill="#CCCAD6" width="27.5033" height="9.3156"/>
	<path fill="#FFBCC7" d="M303.817,154.7899c0,0-3.9924-8.872-6.2104-11.5336s-2.6616-11.9772-2.6616-11.9772
		s-2.6616-16.4132,5.3232-19.962c7.9848-3.5488,5.7668,20.4056,5.7668,20.4056l-0.4436,3.5488c0,0,11.9772,11.09,11.5336,19.5184
		S303.817,154.7899,303.817,154.7899z"/>
	<path opacity="0.03" enable-background="new    " d="M303.817,154.7899c0,0-3.9924-8.872-6.2104-11.5336
		s-2.6616-11.9772-2.6616-11.9772s-2.6616-16.4132,5.3232-19.962c7.9848-3.5488,5.7668,20.4056,5.7668,20.4056l-0.4436,3.5488
		c0,0,11.9772,11.09,11.5336,19.5184S303.817,154.7899,303.817,154.7899z"/>
	<path opacity="0.1" enable-background="new    " d="M275.4265,178.3008c0,0,3.9924-1.7744,4.8796-4.436
		c0.8872-2.6616,11.9772-1.3308,11.9772-1.3308l13.308-2.6616c0,0,3.5488-5.3232,0-7.9848
		c-3.5488-2.6616-3.5488-8.4284-3.5488-8.4284s12.3144,0,15.2244-3.1584c0.1124-0.1205,0.2134-0.2512,0.3016-0.3904
		c2.218-3.5488,11.5336,29.2776,11.5336,29.2776l-22.1801-4.436l-16.8568,9.7592
		C290.0653,184.5112,280.3061,186.2856,275.4265,178.3008z"/>
	<path fill="#FF7F8E" d="M275.4265,177.8571c0,0,3.9924-1.7744,4.8796-4.436c0.8872-2.6616,11.9772-1.3308,11.9772-1.3308
		l13.308-2.6616c0,0,3.5488-5.3232,0-7.9848c-3.5488-2.6616-3.5488-8.4284-3.5488-8.4284s12.3144,0,15.2244-3.1584
		c0.1124-0.1205,0.2134-0.2512,0.3016-0.3904c2.218-3.5488,11.5336,29.2777,11.5336,29.2777l-22.1801-4.436l-16.8568,9.7592
		C290.0653,184.0676,280.3061,185.842,275.4265,177.8571z"/>
	<path opacity="0.03" enable-background="new    " d="M275.4265,177.8571c0,0,3.9924-1.7744,4.8796-4.436
		c0.8872-2.6616,11.9772-1.3308,11.9772-1.3308l13.308-2.6616c0,0,3.5488-5.3232,0-7.9848
		c-3.5488-2.6616-3.5488-8.4284-3.5488-8.4284s12.3144,0,15.2244-3.1584c0.1124-0.1205,0.2134-0.2512,0.3016-0.3904
		c2.218-3.5488,11.5336,29.2777,11.5336,29.2777l-22.1801-4.436l-16.8568,9.7592
		C290.0653,184.0676,280.3061,185.842,275.4265,177.8571z"/>
	<path opacity="0.1" enable-background="new    " d="M344.9743,203.3198l-5.2256-5.5007l4.8796-11.5336h3.9924
		C348.6207,186.2856,351.1891,198.2672,344.9743,203.3198z"/>
	<path fill="#CCCAD6" d="M334.4254,184.0676l8.872-0.8872c0,0,3.9924,3.1052,4.8796,3.1052c0,0,2.6616,12.4208-3.9924,17.3004
		c-6.654,4.8796-15.0824-4.436-15.0824-4.436l-7.5412-8.872L334.4254,184.0676z"/>
	<path fill="#FFBCC7" d="M470.1673,230.202c0,0-11.09-0.4436-24.8416-5.3232s-11.5336-16.4132-11.5336-16.4132l-8.0425-19.7358
		l-1.7167-4.2187l17.3004-10.6464c0,0,0.6299,2.7193,1.4417,6.5342c1.2376,5.7934,2.9011,14.1109,3.4379,19.1946
		c0.8872,8.4284,11.09,12.4208,11.09,12.4208l18.1876,7.5412c0,0,6.654-1.7744,11.09,1.3308S470.1673,230.202,470.1673,230.202z"/>
	<polygon opacity="0.1" enable-background="new    " points="355.7848,186.2856 360.1543,186.2856 353.0567,201.8116 
		348.1771,206.6912 345.8881,204.2824 	"/>
	<path opacity="0.1" enable-background="new    " d="M432.4612,133.9407c0,6.2104-22.1801-5.7668-22.1801-5.7668
		c0.1533-0.441,0.3432-0.8683,0.5678-1.2776c16.2624,7.9227,20.4367,4.751,21.3683,3.4778
		C432.4102,131.5527,432.4919,132.7468,432.4612,133.9407z"/>
	<path opacity="0.1" enable-background="new    " d="M399.6348,140.5947l6.654-4.8796l-13.308,25.7289l-1.2421-5.3986l0.6876-1.3308
		c8.9341-6.2104,7.5989-11.9772,6.9734-13.6452L399.6348,140.5947z"/>
	<path opacity="0.1" enable-background="new    " d="M442.775,180.399c-5.5583,1.3663-13.552,6.1483-17.0254,8.3308l-1.7167-4.2187
		l17.3004-10.6464C441.3333,173.8647,441.9765,176.584,442.775,180.399z"/>
	<path fill="#94B6F0" d="M358.3799,183.1804l-14.6388,26.6161l10.6464,6.654c0,0,11.7953,4.5114,22.5039,2.4841
		c3.5189-0.6631,7.0739-1.1179,10.6464-1.3618c2.258-0.1553,4.8796-0.4436,7.5856-0.8872
		c8.16-1.3824,14.7546-7.4147,16.8568-15.4196c2.7326-10.4069,6.5298-26.3987,5.5627-31.6421
		c-0.0382-0.2193-0.0916-0.4357-0.1597-0.6477l4.436,13.308l2.218,6.654c0,0,15.9696-10.6464,22.1801-9.7592
		c0,0-7.5412-20.8492-8.4284-29.7213s-5.3232-19.0748-5.3232-19.0748s-2.218,6.654-22.6236-3.5488l-10.2028,13.7516
		c0,0,3.9924,7.0976-7.5412,14.6388l-12.8644,29.7213L358.3799,183.1804z"/>
	<path opacity="0.1" enable-background="new    " d="M274.0957,177.4135c0.007,5.2408-2.3116,10.2145-6.3302,13.5786
		c-3.2959-3.8638-7.4525-7.7985-12.3011-10.4734c-12.8644-7.0976,12.4208-11.09,12.4208-11.09
		c1.8267,2.6828,3.9063,5.1843,6.2104,7.4702C274.0913,177.0675,274.0957,177.2405,274.0957,177.4135z"/>
	<circle fill="#FFBCC7" cx="255.4645" cy="177.4135" r="17.744"/>
	<path opacity="0.1" enable-background="new    " d="M360.5979,217.7812c0,0-4.8796,1.3308-21.7365-2.6616
		c-16.8568-3.9924-27.9469-1.3308-32.3829,0c-4.436,1.3308-19.962-0.8872-28.834-3.1052s-9.7592-15.526-9.7592-15.526
		c3.1052,0.4436,16.8568-12.4208,16.8568-12.4208c7.9848-7.0976,22.6236-7.0976,22.6236-7.0976l5.687,1.0203l24.0343,4.3029
		l2.7636,4.1743L360.5979,217.7812z"/>
	<path fill="#FF7F8E" d="M360.1543,218.2248c0,0-4.8796,1.3308-21.7365-2.6616c-16.8568-3.9924-27.9468-1.3308-32.3829,0
		c-4.436,1.3308-19.962-0.8872-28.834-3.1052c-8.872-2.218-9.7592-15.526-9.7592-15.526
		c3.1052,0.4436,16.8568-12.4208,16.8568-12.4208c7.9848-7.0976,22.6236-7.0976,22.6236-7.0976l5.687,1.0203l24.0343,4.3029
		l2.7636,4.1743L360.1543,218.2248z"/>
	<path opacity="0.1" enable-background="new    " d="M339.4071,186.911l-35.1465,25.1034
		c-10.0919,3.4246-16.085,1.5038-19.6427-1.9829c-6.654-6.5431-4.436-17.8239,4.0723-21.6921
		c3.6714-1.61,7.5832-2.6037,11.5779-2.9411l12.341-6.9645l24.0343,4.3029L339.4071,186.911z"/>
	<path opacity="0.1" enable-background="new    " d="M350.6524,186.2856c0,0,1.2953,1.109,3.0697,0"/>
	<path fill="#FFE09C" d="M300.6807,98.5413c0,0-1.3308-0.0311-1.3929,1.0469c-0.0311,0.5146,0.8073,3.673,1.699,6.8226
		c0.4436,1.5482,0.8872,3.1052,1.2421,4.3296c0.4436,1.5127,0.7497,2.5551,0.7497,2.5551l0.3504,0.7408l2.0982,4.4671l1.974,4.2009
		l1.2288,1.5837l6.4366-4.436l3.1939-8.1223l-1.4683-0.6432l-0.2528-0.1109l-2.8346-2.218l-7.9848-6.2104l-3.6021-2.7947
		l-0.4436-0.3283L300.6807,98.5413z"/>
	<path fill="#E7C4C3" d="M310.5686,127.0382c0,0,7.071-4.7199,8.3175-8.872c0,0,1.2155-3.5222,1.1711-5.2922
		c0,0,0.2661-1.6591-2.9588-1.5748c0,0-0.55,6.0463-4.4803,9.2225l-3.9303,3.1806L310.5686,127.0382z"/>
	
		<ellipse transform="matrix(0.1104 -0.9939 0.9939 0.1104 159.7173 413.4731)" fill="#FF7F8E" cx="310.8374" cy="117.5136" rx="2.6173" ry="2.218"/>
	
		<ellipse transform="matrix(0.1104 -0.9939 0.9939 0.1104 166.0101 404.3696)" fill="#FF7F8E" cx="308.8983" cy="109.4465" rx="2.6173" ry="2.218"/>
	<path fill="#FF7F8E" d="M313.696,108.7885c-0.7603,0.4501-1.2561,1.24-1.3308,2.1204c-0.1597,1.4373,0.6965,2.7104,1.9119,2.8435
		s2.3333-0.9183,2.493-2.3555c0-0.1006,0-0.1996,0-0.2972l-0.2529-0.1109L313.696,108.7885z"/>
	<path fill="#FF7F8E" d="M304.9038,113.5128c-0.5761-0.0559-1.1487,0.1361-1.5748,0.5279l2.0982,4.4671
		c0.7944-0.4397,1.3169-1.2467,1.3929-2.1515C306.9754,114.9191,306.1193,113.6459,304.9038,113.5128z"/>
	<path fill="#FF7F8E" d="M302.8721,105.5546c-0.7367-0.0614-1.4524,0.2645-1.8897,0.8606c0.4436,1.5482,0.8872,3.1052,1.2421,4.3296
		h0.071c1.2155,0.1331,2.3333-0.9183,2.493-2.3555C304.9481,106.952,304.0876,105.6877,302.8721,105.5546z"/>
	<path fill="#FF7F8E" d="M302.0825,99.7834c-0.1074,0.2625-0.1775,0.5387-0.2085,0.8207c-0.1597,1.4373,0.6965,2.7104,1.9119,2.8435
		c0.7447,0.0577,1.4651-0.2789,1.8986-0.8872L302.0825,99.7834z"/>
	<path fill="#94CC79" d="M308.6789,120.1802l-0.834-0.0932c0.2279-0.6254,0.3172-1.2929,0.2617-1.9563
		c0-0.0443-0.0103-0.0872-0.0311-0.1287c-0.2307-0.8074,0.834,0.0932,0.834,0.0932S309.0204,119.8164,308.6789,120.1802z"/>
	<path fill="#94CC79" d="M311.5578,114.471l-0.834-0.0931c0.2279-0.6254,0.3172-1.2929,0.2617-1.9563
		c0-0.0443-0.0103-0.0872-0.0311-0.1286c-0.2307-0.8074,0.834,0.0931,0.834,0.0931S311.8861,114.1073,311.5578,114.471z"/>
	<path fill="#94CC79" d="M308.7986,113.1402l-0.834-0.0931c0.2279-0.6254,0.3172-1.2929,0.2617-1.9563
		c0-0.0443-0.0103-0.0872-0.0311-0.1286c-0.2307-0.8074,0.834,0.0932,0.834,0.0932S309.1402,112.7765,308.7986,113.1402z"/>
	<path fill="#94CC79" d="M304.9438,109.3208l-0.834-0.0931c0.2279-0.6254,0.3172-1.2929,0.2617-1.9563
		c0-0.0443-0.0104-0.0872-0.0311-0.1286c-0.2307-0.8074,0.834,0.0932,0.834,0.0932S305.2853,108.9571,304.9438,109.3208z"/>
	<path fill="#94CC79" d="M301.8829,102.5337l-0.834-0.0931c0.2279-0.6254,0.3172-1.2929,0.2617-1.9563
		c0-0.0444-0.0103-0.0872-0.031-0.1286c-0.2307-0.8074,0.834,0.0932,0.834,0.0932S302.2422,102.17,301.8829,102.5337z"/>
	<path fill="#94CC79" d="M306.971,106.8322l-0.834-0.0932c0.2279-0.6254,0.3172-1.2929,0.2617-1.9563
		c0-0.0444-0.0103-0.0872-0.0311-0.1286c-0.2307-0.8074,0.834,0.0932,0.834,0.0932S307.3126,106.4684,306.971,106.8322z"/>
	<path fill="#E7C4C3" d="M308.009,126.7676c0,0,1.5393,2.4221,2.5773,0.2883c-0.3454-1.5527-1.0848-2.9903-2.147-4.1743
		c0,0-5.8466-10.6464-5.7668-12.4519c0,0-3.2782-10.6464-2.9633-11.2941c0,0-0.5634-0.7053-0.4436,2.218
		c0.1198,2.9233,2.7858,11.2187,2.7858,11.2187l3.3891,8.5304l1.8232,2.7725L308.009,126.7676z"/>
	<path opacity="0.2" fill="#FFFFFF" enable-background="new    " d="M308.009,126.7676c0,0,1.5393,2.4221,2.5773,0.2883
		c-0.3454-1.5527-1.0848-2.9903-2.147-4.1743c0,0-5.8466-10.6464-5.7668-12.4519c0,0-3.2782-10.6464-2.9633-11.2941
		c0,0-0.5634-0.7053-0.4436,2.218c0.1198,2.9233,2.7858,11.2187,2.7858,11.2187l3.3891,8.5304l1.8232,2.7725L308.009,126.7676z"/>
	<path fill="#FFBCC7" d="M335.7563,151.6847c0,3.1052-10.6464,4.8796-10.6464,4.8796l-1.5038-2.6616l-11.3606-19.962
		c0,0-7.0976-17.744,0-20.4056c7.0976-2.6616,7.9848,17.744,7.9848,17.744s10.2028,11.3695,14.0666,17.3315
		C335.2018,149.999,335.7563,151.0991,335.7563,151.6847z"/>
	<path opacity="0.1" enable-background="new    " d="M335.7563,151.6847c0,3.1052-10.6464,4.8796-10.6464,4.8796l-1.5038-2.6616
		c3.9658-0.1286,9.014-3.948,10.6908-5.3232C335.2018,149.999,335.7563,151.0991,335.7563,151.6847z"/>
	<path fill="#FF7F8E" d="M284.1743,208.6963c3.5488,3.4867,9.5508,5.4075,19.6427,1.9829l40.3677-28.834
		c0,0,5.7668-3.1052,0-16.8568s-9.3156-15.9696-9.3156-15.9696s-7.0976,6.2104-11.9772,5.7668l4.436,13.7516l-27.5033,15.526
		c-3.9947,0.3377-7.9064,1.3314-11.578,2.9411C279.7339,190.8768,277.5026,202.1576,284.1743,208.6963z"/>
	<path opacity="0.1" enable-background="new    " d="M240.0582,159.8558c-2.9411,1.2776-4.1832,4.751-6.5431,6.9246
		c-2.36,2.1736-5.8023,2.9233-8.8188,4.1965s-6.0729,3.7307-6.0418,7.0089c0.0311,3.2782,3.2516,6.1572,2.706,9.4265
		c-0.2795,1.6812-1.5304,3.0786-1.8188,4.7554c-0.315,1.8099,0.5545,3.642,1.7389,5.0482c3.2294,3.8327,8.455,5.1502,13.2592,6.5742
		c4.8042,1.424,9.981,3.5488,12.1458,8.0647c0.5767,1.2066,0.8872,2.5152,1.424,3.744c1.8498,4.3428,6.0951,7.3061,10.5932,8.7389
		c4.4981,1.4328,9.3156,1.5482,14.0178,1.6502c1.73,0.0355,3.5488,0.0621,5.1103-0.6432s2.879-2.3644,2.5818-4.0678
		c-0.2307-1.3308-1.3308-2.32-2.3112-3.2383c-1.9208-1.7744-3.7573-3.7573-4.7243-6.2104s-0.9138-5.4119,0.7186-7.4569
		c1.9341-2.4221,5.3986-2.9189,7.9183-4.7243c4.5203-3.2383,4.5646-11.019,0.0887-14.3106
		c-1.5925-1.1711-3.5266-1.7744-5.2567-2.7281c-5.2035-2.8657-8.1756-8.597-12.9265-12.1635
		c-3.7751-2.8346-8.3974-4.0944-12.4208-6.4854C247.768,161.7633,245.0887,157.6733,240.0582,159.8558z"/>
	<path fill="#AD5975" d="M239.171,159.8558c-2.9411,1.2776-4.1832,4.751-6.5431,6.9246c-2.36,2.1736-5.8023,2.9233-8.8188,4.1965
		s-6.0729,3.7307-6.0418,7.0089c0.0311,3.2782,3.2516,6.1572,2.706,9.4265c-0.2795,1.6812-1.5304,3.0786-1.8188,4.7554
		c-0.315,1.8099,0.5545,3.642,1.7389,5.0482c3.2294,3.8327,8.455,5.1502,13.2592,6.5742c4.8042,1.424,9.981,3.5488,12.1458,8.0647
		c0.5767,1.2066,0.8872,2.5152,1.424,3.744c1.8498,4.3428,6.0951,7.3061,10.5932,8.7389c4.4981,1.4328,9.3156,1.5482,14.0178,1.6502
		c1.73,0.0355,3.5488,0.0621,5.1103-0.6432c1.5615-0.7053,2.879-2.3644,2.5818-4.0678c-0.2307-1.3308-1.3308-2.32-2.3112-3.2383
		c-1.9208-1.7744-3.7573-3.7573-4.7243-6.2104s-0.9138-5.4119,0.7186-7.4569c1.9341-2.4221,5.3986-2.9189,7.9183-4.7243
		c4.5203-3.2383,4.5647-11.019,0.0887-14.3106c-1.5925-1.1711-3.5266-1.7744-5.2567-2.7281
		c-5.2034-2.8657-8.1756-8.597-12.9265-12.1635c-3.7751-2.8346-8.3974-4.0944-12.4208-6.4854
		C246.8808,161.7633,244.2015,157.6733,239.171,159.8558z"/>
	<polygon fill="#DADAE5" points="216.055,316.6421 184.2222,343.1606 146.7512,317.8354 183.5878,298.1484 214.6266,312.8316 	"/>
	<polygon fill="none" points="167.911,261.192 183.8673,292.5501 146.7912,311.2878 123.0585,267.225 	"/>
	<polygon fill="#DADAE5" points="165.3692,264.3682 181.4053,295.1718 146.7912,311.2878 124.4115,269.7446 	"/>
	<polygon opacity="0.03" enable-background="new    " points="167.911,261.5114 165.3692,264.6876 124.4115,270.064 
		123.0585,267.5443 	"/>
	<polygon opacity="0.03" enable-background="new    " points="183.8673,292.8695 167.911,261.5114 165.3692,264.6876 
		181.0016,294.7149 	"/>
	<polygon fill="#EFF0F4" points="167.911,261.192 165.3692,264.3682 124.4115,269.7446 123.0585,267.225 	"/>
	<polygon fill="#EFF0F4" points="183.8673,292.5501 167.911,261.192 165.3692,264.3682 181.0016,294.4 	"/>
	<polygon opacity="0.03" enable-background="new    " points="167.911,261.192 164.0383,266.1426 123.0807,271.519 
		123.0585,267.225 	"/>
	<polygon opacity="0.03" enable-background="new    " points="183.8673,292.5501 167.911,261.192 164.0383,266.1426 
		179.6709,296.1744 	"/>
	<polygon opacity="0.03" enable-background="new    " points="183.8673,293.0248 183.8673,299.4703 146.7912,319.2372 
		146.7912,311.7625 	"/>
	<polygon opacity="0.03" enable-background="new    " points="216.0949,309.1408 183.8673,293.0248 183.5878,299.5102 
		215.3852,316.2162 	"/>
	<polygon fill="#EFF0F4" points="183.8673,292.5501 183.8673,298.1085 146.7912,317.8753 146.7912,311.2878 	"/>
	<polygon fill="#EFF0F4" points="216.0949,308.6662 183.8673,292.5501 183.5878,298.1484 215.3852,314.8499 	"/>
	<polygon opacity="0.03" enable-background="new    " points="183.8673,292.5501 183.8673,298.1085 146.7912,317.8753 
		146.7912,311.2878 	"/>
	<polygon opacity="0.03" enable-background="new    " points="216.0949,308.6662 183.8673,292.5501 183.5878,298.1484 
		215.3852,314.8499 	"/>
	<polygon fill="#CCCAD6" points="216.0949,308.6662 216.0151,316.682 184.2621,343.1206 183.8673,334.9407 	"/>
	<path fill="#FFE09C" d="M199.9434,309.9348c0,0,0.7896,1.0647-0.0532,1.7433c-0.4037,0.3238-3.469,1.4506-6.5564,2.5418
		c-1.5171,0.5368-3.0387,1.0602-4.2541,1.4772l-2.5241,0.8561l-0.8074,0.1419l-4.8796,0.8562l-4.5691,0.8073l-2.0006-0.0932
		l-0.0843-7.8118l4.8042-7.2839l1.3707,0.8295l0.2395,0.1419l3.4335,1.0513l9.6882,2.9721l4.3606,1.3308l0.5101,0.1552
		L199.9434,309.9348z"/>
	<path fill="#E7C4C3" d="M170.9363,318.2568c0,0-0.2129-8.4994,2.4709-11.9107c0,0,2.1781-3.0209,3.6553-3.9924
		c0,0,1.2021-1.1711,2.9899,1.5127c0,0-4.6268,3.9303-4.9639,8.974l-0.3371,5.0438L170.9363,318.2568z"/>
	
		<ellipse transform="matrix(0.7491 -0.6625 0.6625 0.7491 -162.2439 196.7481)" fill="#FF7F8E" cx="178.6003" cy="312.5482" rx="2.6172" ry="2.218"/>
	
		<ellipse transform="matrix(0.7491 -0.6625 0.6625 0.7491 -158.2799 201.0896)" fill="#FF7F8E" cx="186.3134" cy="309.4862" rx="2.6172" ry="2.218"/>
	<path fill="#FF7F8E" d="M184.0714,305.1927c0.0706,0.8815-0.2897,1.7426-0.9671,2.3112c-1.0824,0.9582-2.6172,0.9892-3.429,0.071
		c-0.8118-0.9182-0.59-2.4354,0.4924-3.3936c0.0739-0.0651,0.1508-0.1271,0.2307-0.1863l0.2395,0.142L184.0714,305.1927z"/>
	<path fill="#FF7F8E" d="M185.2735,315.1028c0.3775,0.4392,0.5501,1.0183,0.4747,1.5925l-4.8796,0.8562
		c-0.0977-0.9029,0.2618-1.7949,0.9582-2.3777C182.9136,314.2201,184.4617,314.1846,185.2735,315.1028z"/>
	<path fill="#FF7F8E" d="M192.9478,312.1928c0.4749,0.5667,0.6211,1.3396,0.3859,2.0406c-1.5171,0.5368-3.0387,1.0602-4.2541,1.4772
		l-0.0488-0.0532c-0.8118-0.9183-0.59-2.4354,0.4924-3.3936C190.6056,311.3056,192.136,311.2657,192.9478,312.1928z"/>
	<path fill="#FF7F8E" d="M198.1202,309.5001c-0.1525,0.239-0.3377,0.4554-0.5501,0.6432c-1.0824,0.9582-2.6172,0.9892-3.429,0.071
		c-0.4773-0.5709-0.622-1.3496-0.3815-2.0539L198.1202,309.5001z"/>
	<path fill="#94CC79" d="M177.6436,315.8525l0.5545,0.6299c0.3804-0.5427,0.8738-0.9966,1.4461-1.3308l0.1242-0.0488
		c0.7941-0.275-0.5545-0.6299-0.5545-0.6299S177.7456,315.3646,177.6436,315.8525z"/>
	<path fill="#94CC79" d="M180.6645,310.2232l0.5545,0.6299c0.3804-0.5427,0.8738-0.9967,1.4461-1.3308l0.1242-0.0488
		c0.7941-0.275-0.5545-0.6299-0.5545-0.6299S180.7621,309.7353,180.6645,310.2232z"/>
	<path fill="#94CC79" d="M183.3306,311.7048l0.5545,0.6299c0.3804-0.5427,0.8738-0.9967,1.4461-1.3308l0.1242-0.0488
		c0.7941-0.2751-0.5545-0.6299-0.5545-0.6299S183.4326,311.2124,183.3306,311.7048z"/>
	<path fill="#94CC79" d="M188.6804,312.6364l0.5545,0.6299c0.3804-0.5427,0.8738-0.9967,1.4462-1.3308l0.1242-0.0488
		c0.794-0.2751-0.5545-0.6299-0.5545-0.6299S188.7735,312.1662,188.6804,312.6364z"/>
	<path fill="#94CC79" d="M195.9865,311.2479l0.5545,0.6299c0.3804-0.5427,0.8738-0.9967,1.4462-1.3308l0.1242-0.0488
		c0.794-0.275-0.5545-0.6299-0.5545-0.6299S196.0885,310.76,195.9865,311.2479z"/>
	<path fill="#94CC79" d="M189.541,309.5667l0.5545,0.6299c0.3805-0.5427,0.8738-0.9967,1.4462-1.3308l0.1242-0.0488
		c0.7941-0.275-0.5545-0.6299-0.5545-0.6299S189.643,309.0876,189.541,309.5667z"/>
	<path fill="#E7C4C3" d="M172.6708,320.1776c0,0-2.8657,0.1375-1.7212-1.943c1.4683-0.6115,3.0694-0.8345,4.6489-0.6477
		c0,0,12.0748-1.3308,13.4988-2.4531c0,0,10.5932-3.4512,10.9436-4.0811c0,0,0.8872,0.0532-1.5703,1.6591
		s-10.8061,4.1743-10.8061,4.1743l-8.9297,2.1382l-3.3181,0.1065L172.6708,320.1776z"/>
	<path opacity="0.2" fill="#FFFFFF" enable-background="new    " d="M172.6708,320.1776c0,0-2.8657,0.1375-1.7212-1.943
		c1.4683-0.6115,3.0694-0.8345,4.6489-0.6477c0,0,12.0748-1.3308,13.4988-2.4531c0,0,10.5932-3.4512,10.9436-4.0811
		c0,0,0.8872,0.0532-1.5703,1.6591s-10.8061,4.1743-10.8061,4.1743l-8.9297,2.1382l-3.3181,0.1065L172.6708,320.1776z"/>
	<path fill="#FFE09C" d="M197.0467,312.9735c0,0,1.1312,0.6876,0.6077,1.6324c-0.2529,0.4436-2.6616,2.6616-5.1192,4.8219
		c-1.2022,1.0647-2.4176,2.1248-3.3847,2.9721c-1.1888,1.0336-2.0139,1.7433-2.0139,1.7433l-0.6965,0.4436l-4.1787,2.6217
		l-3.9303,2.4664l-1.8897,0.6654l-3.0209-7.2041l1.7079-8.557l1.5836,0.2528l0.275,0.0444l3.5754-0.315l10.0919-0.8872
		l4.5425-0.4037l0.5323-0.0488L197.0467,312.9735z"/>
	<path fill="#E7C4C3" d="M173.3185,331.5959c0,0-3.398-7.7941-2.218-11.9772c0,0,0.8872-3.6198,1.8764-5.0836
		c0,0,0.6743-1.5393,3.3403,0.275c0,0-2.8036,5.3809-1.2199,10.2028l1.6058,4.7865L173.3185,331.5959z"/>
	
		<ellipse transform="matrix(0.4446 -0.8957 0.8957 0.4446 -190.7455 339.3075)" fill="#FF7F8E" cx="178.2508" cy="323.4742" rx="2.6172" ry="2.218"/>
	
		<ellipse transform="matrix(0.4446 -0.8957 0.8957 0.4446 -182.2746 341.4851)" fill="#FF7F8E" cx="184.2423" cy="317.732" rx="2.6172" ry="2.218"/>
	<path fill="#FF7F8E" d="M180.558,314.5572c0.3959,0.7893,0.386,1.7212-0.0266,2.5019c-0.6432,1.2953-2.0494,1.903-3.1496,1.3574
		c-1.1001-0.5456-1.4639-2.0317-0.8207-3.327c0.0444-0.0887,0.0932-0.176,0.1464-0.2617l0.275,0.0443L180.558,314.5572z"/>
	<path fill="#FF7F8E" d="M185.3977,323.2828c0.5143,0.2647,0.8917,0.7357,1.038,1.2953l-4.1787,2.6217
		c-0.4282-0.8011-0.4282-1.763,0-2.564C182.9136,323.3494,184.302,322.7416,185.3977,323.2828z"/>
	<path fill="#FF7F8E" d="M191.4085,317.6846c0.6532,0.3456,1.0799,1.0059,1.1268,1.7433c-1.2022,1.0647-2.4176,2.1248-3.3847,2.9721
		l-0.0621-0.0311c-1.0957-0.5456-1.4639-2.0317-0.8207-3.327C188.911,317.7467,190.3128,317.1434,191.4085,317.6846z"/>
	<path fill="#FF7F8E" d="M195.1924,313.2574c-0.0524,0.2789-0.1434,0.5492-0.2706,0.8029c-0.6432,1.2953-2.0494,1.903-3.1496,1.3574
		c-0.6617-0.352-1.0896-1.0258-1.1268-1.7744L195.1924,313.2574z"/>
	<path fill="#94CC79" d="M178.6151,326.8316l0.7497,0.3726c0.1485-0.6449,0.4344-1.2502,0.8384-1.7744l0.0932-0.0931
		c0.6343-0.5545-0.7497-0.3727-0.7497-0.3727S178.5264,326.357,178.6151,326.8316z"/>
	<path fill="#94CC79" d="M179.2938,320.497l0.7497,0.3727c0.1485-0.6449,0.4344-1.2502,0.8384-1.7744l0.0932-0.0932
		c0.6343-0.5545-0.7497-0.3726-0.7497-0.3726S179.2006,320.009,179.2938,320.497z"/>
	<path fill="#94CC79" d="M182.3191,320.8652l0.7497,0.3727c0.1485-0.6449,0.4344-1.2502,0.8384-1.7744l0.0932-0.0932
		c0.6343-0.5545-0.7497-0.3726-0.7497-0.3726S182.2304,320.3728,182.3191,320.8652z"/>
	<path fill="#94CC79" d="M187.629,319.734l0.7497,0.3727c0.1485-0.645,0.4344-1.2502,0.8384-1.7744l0.0932-0.0932
		c0.6343-0.5545-0.7497-0.3727-0.7497-0.3727S187.5403,319.2416,187.629,319.734z"/>
	<path fill="#94CC79" d="M193.8749,315.6795l0.7497,0.3726c0.1485-0.6449,0.4344-1.2502,0.8384-1.7744l0.0932-0.0931
		c0.6343-0.5545-0.7497-0.3727-0.7497-0.3727S193.7862,315.1871,193.8749,315.6795z"/>
	<path fill="#94CC79" d="M187.2697,316.549l0.7497,0.3727c0.1485-0.6449,0.4344-1.2502,0.8384-1.7744l0.0932-0.0932
		c0.6343-0.5545-0.7497-0.3726-0.7497-0.3726S187.181,316.0566,187.2697,316.549z"/>
	<path fill="#E7C4C3" d="M175.6429,332.7493c0,0-2.6039,1.2022-2.3245-1.1534c1.1301-1.1196,2.5295-1.9293,4.0634-2.3511
		c0,0,10.6775-5.7979,11.5824-7.3549c0,0,8.5127-7.1863,8.6014-7.9005c0,0,0.8561-0.2884-0.834,2.1293
		c-1.6901,2.4176-8.4284,7.936-8.4284,7.936l-7.4658,5.3232l-3.0298,1.3308L175.6429,332.7493z"/>
	<path opacity="0.2" fill="#FFFFFF" enable-background="new    " d="M175.6429,332.7493c0,0-2.6039,1.2022-2.3245-1.1534
		c1.1301-1.1196,2.5295-1.9293,4.0634-2.3511c0,0,10.6775-5.7979,11.5824-7.3549c0,0,8.5127-7.1863,8.6014-7.9005
		c0,0,0.8561-0.2884-0.834,2.1293c-1.6901,2.4176-8.4284,7.936-8.4284,7.936l-7.4658,5.3232l-3.0298,1.3308L175.6429,332.7493z"/>
	<polygon fill="#CCCAD6" points="183.8673,334.9407 146.7912,311.2878 146.7912,317.7955 184.2621,343.1206 	"/>
	<polygon fill="#CCCAD6" points="142.8254,313.5857 146.7912,311.2878 123.0585,267.225 120.2771,269.9265 	"/>
</g>
</svg>
