<?xml version="1.0" encoding="utf-8"?>
<!-- Generator: Adobe Illustrator 26.0.1, SVG Export Plug-In . SVG Version: 6.00 Build 0)  -->
<svg version="1.1" id="Layer_1" xmlns="http://www.w3.org/2000/svg" xmlns:xlink="http://www.w3.org/1999/xlink" x="0px" y="0px"
	 viewBox="0 0 640 360" enable-background="new 0 0 640 360" xml:space="preserve">
<g>
	<path id="e73ea6d0-018f-4f1a-b9fb-ec835afd7d29-212" fill="#E6E6E6" d="M575.4529,325.0858
		c-5.6863,1.9988-12.0035,0.8861-16.6646-2.9354c-5.8367-4.8994-7.6671-12.9681-9.1557-20.4413l-4.4042-22.1051l9.2205,6.3489
		c6.6313,4.5658,13.4116,9.2783,18.0026,15.8914c4.591,6.6132,6.5939,15.6414,2.9062,22.7975"/>
	<path id="adfa37d6-6055-4e93-a6c7-1993979ff9f6-213" fill="#F2F2F2" d="M574.0293,353.387
		c1.1605-8.4551,2.3546-17.0195,1.5385-25.5653c-0.7231-7.5897-3.0387-15.0013-7.7528-21.0809
		c-2.5023-3.2203-5.547-5.9795-8.9974-8.1534c-0.8995-0.5677-1.7276,0.8578-0.832,1.4232
		c5.9703,3.773,10.5883,9.3445,13.1879,15.9112c2.8711,7.3023,3.3322,15.2628,2.8376,23.02
		c-0.2989,4.691-0.9341,9.3513-1.5721,14.0061c-0.1045,0.4368,0.1472,0.8799,0.5759,1.0138
		c0.4387,0.1182,0.8907-0.1386,1.0138-0.5758L574.0293,353.387z"/>
	<path id="ab8f3b7e-46a3-4c45-91c1-6e6ed9e46d7b-214" fill="#E6E6E6" d="M565.6758,339.8199
		c-2.4384,3.7074-6.6345,5.8738-11.0691,5.7148c-5.6049-0.2659-10.2756-4.1761-14.4798-7.8896l-12.4378-10.9817l8.2314-0.394
		c5.9197-0.2835,11.9922-0.5495,17.6306,1.2781c5.6384,1.8276,10.8383,6.2192,11.8691,12.0554"/>
	<path id="a06078c2-c2e6-4e9e-9e9d-932246ef76f7-215" fill="#F2F2F2" d="M577.3098,358.2473
		c-5.5873-9.886-12.0674-20.8732-23.6475-24.385c-3.2195-0.9731-6.5954-1.3216-9.9459-1.027
		c-1.0561,0.0912-0.7924,1.7188,0.2616,1.6282c5.6163-0.4663,11.2218,1.0167,15.8727,4.1992
		c4.4756,3.0464,7.9605,7.2819,10.9097,11.7729c1.8068,2.7513,3.425,5.6191,5.0433,8.4831
		C576.3207,359.8342,577.8329,359.1732,577.3098,358.2473z"/>
	<polygon fill="#FFFFFF" points="377.7484,107.2595 377.7484,201.3913 160.3359,201.3913 160.3359,251.3721 102.8576,251.3721 
		102.8576,107.2595 	"/>
	<path fill="#E5E5E5" d="M100.3561,104.7651v149.1086h59.9799v-4.9959h-54.984V109.7611h269.902v91.6303h4.9959v-96.6262H100.3561z"
		/>
	<rect x="160.4743" y="160.6026" fill="#E5E5E5" width="174.249" height="6.1511"/>
	<rect x="160.4743" y="176.5954" fill="#E5E5E5" width="174.249" height="6.1511"/>
	<rect x="160.4743" y="192.5882" fill="#E5E5E5" width="174.249" height="6.1511"/>
	<circle fill="#E5E5E5" cx="149.8974" cy="163.9103" r="4.0143"/>
	<polygon fill="#FFFFFF" points="302.9162,2.4944 302.9162,96.6262 85.5037,96.6262 85.5037,146.607 28.0254,146.607 
		28.0254,2.4944 	"/>
	<path fill="#F1F1F1" d="M25.5239,0v149.1086h59.9799v-4.996h-54.984V4.9959h269.902v91.6303h4.996V0H25.5239z"/>
	<rect x="85.6421" y="55.8375" fill="#F1F1F1" width="174.249" height="6.1511"/>
	<rect x="85.6421" y="71.8303" fill="#F1F1F1" width="174.249" height="6.1511"/>
	<rect x="85.6421" y="87.8231" fill="#F1F1F1" width="174.249" height="6.1511"/>
	<circle fill="#F1F1F1" cx="75.0652" cy="59.1452" r="4.0143"/>
	<rect x="175.0288" y="213.3888" fill="#FFFFFF" width="274.896" height="144.1121"/>
	<path fill="#CBCBCB" d="M452.4239,360H172.5297V210.8897h279.8942V360z M177.5279,355.0019h269.8979V215.8879H177.5278
		L177.5279,355.0019z"/>
	<rect x="232.3461" y="266.9561" fill="#F56539" width="174.249" height="6.1511"/>
	<rect x="232.3461" y="282.949" fill="#F56539" width="174.249" height="6.1511"/>
	<rect x="232.3461" y="298.9418" fill="#F56539" width="174.249" height="6.1511"/>
	<circle fill="#F56539" cx="221.7693" cy="270.2638" r="4.0143"/>
	<path fill="#9F616A" d="M409.404,210.8951c-2.292-3.2325-1.5294-7.7109,1.703-10.0029c0.3447-0.2444,0.7102-0.4578,1.0924-0.6378
		l19.8814-62.2511l13.8464,7.1927l-23.8967,58.9291c1.4557,3.7086-0.3706,7.8951-4.0792,9.3507
		C414.8482,214.6938,411.3146,213.6269,409.404,210.8951L409.404,210.8951z"/>
	<path fill="#F56539" d="M425.6466,146.6116c-0.3851-0.8526-0.3796-1.8306,0.0151-2.6788l6.8096-14.6404
		c1.3988-4.732,6.3687-7.4341,11.1007-6.0353c4.7166,1.3942,7.4194,6.3383,6.0469,11.0612l-2.276,16.0382
		c-0.2498,1.7591-1.8783,2.9827-3.6374,2.733c-0.1562-0.0222-0.3105-0.0558-0.4616-0.1006l-15.5787-4.6157
		C426.7679,148.1079,426.0309,147.4646,425.6466,146.6116z"/>
	<polygon fill="#9F616A" points="483.083,149.0822 481.9726,164.6316 444.2101,177.9596 443.6549,162.9653 	"/>
	<path fill="#F56539" d="M434.7698,126.3139l12.2172-8.8852l19.9917-5.5533l16.6598,3.332l2.7766,26.1003l-3.3319,16.6598
		l-43.3154,9.9958l-4.4426-7.7746c0,0-9.9958-9.9959-2.2213-21.1024L434.7698,126.3139z"/>
	<path fill="#2F2E41" d="M430.3272,103.5084V88.9246c-0.0092-12.8487,10.3992-23.2721,23.2479-23.2813
		c12.8487-0.0092,23.2721,10.3992,23.2813,23.2479c0,0.0111,0,0.0223,0,0.0334v14.5838c-0.0019,1.7252-1.4,3.1232-3.1251,3.1251
		h-40.2791C431.7271,106.6316,430.3291,105.2335,430.3272,103.5084z"/>
	<circle fill="#9F616A" cx="452.6568" cy="89.4331" r="17.0568"/>
	<path fill="#2F2E41" d="M435.1318,89.3674c-0.3298-0.3806-0.4781-0.8857-0.4064-1.3842l2.0205-14.0697
		c0.0814-0.5816,0.4508-1.0828,0.9823-1.3327c10.3131-4.8267,20.7713-4.8328,31.0844-0.0183
		c0.5566,0.2638,0.9334,0.8009,0.9922,1.414l1.3488,14.0881c0.0916,0.9543-0.6078,1.8021-1.5621,1.8937
		c-0.0552,0.0053-0.1107,0.008-0.1662,0.0079h-3.4206c-0.674-0.0016-1.2866-0.3917-1.5732-1.0017l-1.4762-3.1631
		c-0.2432-0.5214-0.8629-0.7469-1.3843-0.5037c-0.3248,0.1515-0.5489,0.4594-0.5933,0.815l-0.2916,2.3323
		c-0.1095,0.8684-0.8475,1.5201-1.7228,1.5212h-22.5192C435.9405,89.9664,435.4617,89.7479,435.1318,89.3674z"/>
	<path fill="#9F616A" d="M509.1753,203.6319c-3.8598-0.8964-6.2622-4.7521-5.3658-8.6119c0.0956-0.4116,0.2273-0.8139,0.3937-1.2022
		l-26.4497-59.7569l15.1306-3.8109l21.2415,59.9374c3.5504,1.8076,4.9632,6.1511,3.1556,9.7015
		C515.7687,202.8596,512.4176,204.4071,509.1753,203.6319z"/>
	<path fill="#F56539" d="M478.6549,144.7703c-0.8539-0.382-1.499-1.1172-1.7668-2.0136l-4.6245-15.4701
		c-2.0946-4.4678-0.1707-9.7876,4.297-11.8822c4.4531-2.0877,9.756-0.1839,11.8644,4.2594l8.9433,13.5064
		c0.9808,1.4815,0.575,3.4776-0.9065,4.4584c-0.1315,0.0871-0.2693,0.1644-0.4121,0.2312l-14.7158,6.8882
		C480.4868,145.1451,479.5086,145.1532,478.6549,144.7703z"/>
	<polygon fill="#9F616A" points="481.183,349.4707 471.5559,349.47 466.9762,312.3376 481.1844,312.3383 	"/>
	<path fill="#2F2E41" d="M483.6379,358.8026l-31.0414-0.0012v-0.3926c0.0005-6.6726,5.4096-12.0817,12.0822-12.082h0.0008
		l18.959,0.0008L483.6379,358.8026z"/>
	<polygon fill="#9F616A" points="473.8665,271.0701 467.3033,278.1129 437.0141,256.1493 446.701,245.7547 	"/>
	<path fill="#2F2E41" d="M482.3675,275.6353l-21.1623,22.7096l-0.2873-0.2677c-4.8814-4.5492-5.1513-12.194-0.6028-17.076
		l0.0005-0.0006l12.9253-13.8702L482.3675,275.6353z"/>
	<path fill="#2F2E41" d="M484.1938,164.6314l3.0789,3.0789c15.4009,15.4009,19.1925,36.7554,17.3429,58.4569
		c-0.259,3.2178-0.7743,6.4099-1.5408,9.5459c-5.5533,22.213-2.2213,93.2947-13.3279,97.7373l-2.2212,7.7745l-21.6577-0.8002
		l0.5553-6.9744c0,0-4.998-10.5512-1.666-17.2151c3.332-6.6639,10.5512-56.0879,10.5512-56.0879l-3.8873-40.5388l-28.877,14.4385
		c0,0,14.9938,8.3299,13.8831,13.8831c0,0,8.8852,2.2213,6.6639,7.7745l3.3319,6.6639l-7.7746,12.2172
		c0,0-52.2006-31.0982-47.758-46.6474s32.2089-26.6556,32.2089-26.6556l2.2213-16.6598l-1.9152-9.0776l38.854-14.9355
		L484.1938,164.6314z"/>
	<path fill="#CBCBCB" d="M613.7634,360H297.33c-0.3936,0-0.7127-0.3191-0.7127-0.7127c0-0.3936,0.3191-0.7127,0.7127-0.7127
		h316.4334c0.3936,0,0.7127,0.3191,0.7127,0.7127C614.4761,359.6809,614.157,360,613.7634,360z"/>
</g>
</svg>
