<?xml version="1.0" encoding="utf-8"?>
<!-- Generator: Adobe Illustrator 26.0.1, SVG Export Plug-In . SVG Version: 6.00 Build 0)  -->
<svg version="1.1" id="Layer_1" xmlns="http://www.w3.org/2000/svg" xmlns:xlink="http://www.w3.org/1999/xlink" x="0px" y="0px"
	 viewBox="0 0 640 360" enable-background="new 0 0 640 360" xml:space="preserve">
<g>
	<path fill="#2F2E41" d="M395.9664,78.8548c-0.0661,0.0113-0.1652,0.0281-0.2853,0.048
		c-2.3507,0.3891-16.5628,2.5819-30.8915-2.8764c-6.0701-2.3123-3.9994-2.8886-17.5185-10.9276
		c-15.8497-9.4249-19.9172-9.359-21.0975-13.7537c-2.3568-8.7754,10.2278-22.5705,18.5574-21.6622
		c2.193,0.2391,4.5416,1.5466,8.1945,0.66c0.8026-0.1948,4.3158-1.0474,6.0285-3.9555c1.5279-2.5942,0.2338-4.4656,0.8483-6.5933
		c1.6129-5.5848,15.0576-8.3719,26.8449-6.4026c6.7796,1.1326,12.0528,4.2248,22.3223,10.3629
		c17.8745,10.6835,26.8116,16.0253,28.8202,24.2095c1.9039,7.7571-2.6656,11.0996,0.6577,19.4033
		c3.0944,7.7318,8.0092,7.2154,9.7005,13.4701c2.7216,10.065-7.3798,21.1114-11.5877,25.713
		c-4.6135,5.0451-9.0256,7.814-14.8831,11.49c-7.3522,4.614-11.0282,6.9209-15.4478,6.6862
		c-8.0131-0.4256-31.824,1.0231-32.1346-5.608c-0.1164-2.4851-28.995-0.4503-14.7751-27.2051
		c1.7442-3.2816,35.9123,0.2237,36.3633-1.6615"/>
	<polygon fill="#FFB6B6" points="409.7957,95.9754 434.3562,132.6103 363.8554,146.8676 368.3459,101.002 	"/>
	<polygon opacity="0.1" enable-background="new    " points="409.7957,95.9754 434.3562,132.6103 363.8554,146.8676 
		368.3459,101.002 	"/>
	<polygon fill="#F56539" points="358.575,123.1054 434.614,119.9371 468.4091,138.4188 466.825,257.2298 502.2042,324.292 
		323.7238,290.4969 337.453,239.8042 331.1164,133.1384 	"/>
	<path fill="#FFFFFF" d="M96.1829,353.917c-2.4276-3.8266-2.7143-8.5547-0.7668-12.6472l28.9407-60.8079
		c2.1599-4.5383,6.8032-7.4705,11.8291-7.4705h365.5439c4.8861,0,9.3315,2.6879,11.6009,7.0149l31.0205,59.132
		c2.1443,4.0876,2.0031,8.8881-0.3773,12.8428c-2.3804,3.9541-6.5568,6.3256-11.1721,6.3439L107.2968,360h-0.0533
		C102.7328,360,98.6007,357.7289,96.1829,353.917L96.1829,353.917z"/>
	<path fill="#3F3D56" d="M96.1829,353.917c-2.4276-3.8266-2.7143-8.5547-0.7668-12.6472l28.9407-60.8079
		c2.1599-4.5383,6.8032-7.4705,11.8291-7.4705h365.5439c4.8861,0,9.3315,2.6879,11.6009,7.0149l31.0205,59.132
		c2.1443,4.0876,2.0031,8.8881-0.3773,12.8428c-2.3804,3.9541-6.5568,6.3256-11.1721,6.3439L107.2968,360h-0.0533
		C102.7328,360,98.6007,357.7289,96.1829,353.917L96.1829,353.917z M136.186,274.3665c-4.4985,0-8.6543,2.6248-10.5875,6.6864
		l-28.9407,60.8079c-1.7432,3.6628-1.4867,7.8944,0.6862,11.32c2.1642,3.4117,5.8621,5.4442,9.8997,5.4442h0.0477l425.5051-1.675
		c4.1307-0.0161,7.869-2.1391,9.9993-5.6783c2.1306-3.5392,2.2568-7.8363,0.338-11.4941l-31.0205-59.133
		c-2.0315-3.8723-6.01-6.2781-10.3834-6.2781L136.186,274.3665L136.186,274.3665z"/>
	<path fill="#3F3D56" d="M467.6969,336.7537L316.847,326.3825c-2.2272-0.1532-4.0034-1.6548-4.525-3.8253
		c-0.5219-2.1705,0.378-4.3152,2.2922-5.4636l33.3573-20.0148c0.847-0.5085,1.8185-0.7555,2.8035-0.708l130.484,5.9313
		c1.7252,0.0779,3.266,1.02,4.1218,2.5201c0.856,1.4996,0.8831,3.3055,0.073,4.8303l-12.9913,24.4547
		c-0.872,1.6414-2.5815,2.6583-4.4219,2.6583C467.9264,336.7656,467.8117,336.7614,467.6969,336.7537z"/>
	<polygon fill="#FFFFFF" points="315.539,320.3316 465.7689,330.6285 477.6499,305.0182 348.8341,299.9664 	"/>
	<circle fill="#FFB6B6" cx="389.4657" cy="63.172" r="45.1439"/>
	<path fill="#2F2E41" d="M404.0063,66.0934c-0.0661,0.0113-0.1652,0.0281-0.2853,0.048
		c-2.3507,0.3891-16.5628,2.5819-30.8915-2.8764c-6.0701-2.3123-3.9994-2.8886-17.5185-10.9276
		c-15.8497-9.4249-19.9172-9.359-21.0975-13.7537c-2.3568-8.7754,10.2278-22.5705,18.5574-21.6622
		c2.193,0.2391,4.5416,1.5466,8.1945,0.66c0.8026-0.1948,4.3158-1.0474,6.0285-3.9555c1.5279-2.5942,0.2338-4.4656,0.8483-6.5933
		c1.6129-5.5848,15.0575-8.3719,26.8449-6.4026c6.7796,1.1326,12.0528,4.2248,22.3223,10.3629
		c17.8745,10.6835,26.8116,16.0253,28.8202,24.2095c1.9039,7.7571-2.6656,11.0996,0.6577,19.4033
		c3.0944,7.7318,8.0092,7.2154,9.7005,13.4701c2.7216,10.065-7.3798,21.1114-11.5877,25.713
		c-4.6135,5.0451-9.0256,7.814-14.8831,11.49c-7.3522,4.614-11.0282,6.9209-15.4478,6.6862
		c-8.0131-0.4256-15.9831-7.6873-16.2937-14.3184c-0.1164-2.4851,0.9203-3.2304,3.4861-11.7735
		c1.0689-3.5593,1.8103-6.4976,2.2613-8.3828"/>
	<path fill="#F56539" d="M434.9481,307.9635c2.9043,0.1147,5.1146,2.7169,5.2748,5.5364c0.1663,2.9262-1.8684,5.6219-4.3128,7.0151
		c-2.8636,1.6321-6.4378,1.8941-9.662,1.6132c-2.9003-0.2527-6.0557-1.1548-7.9221-3.5496c-1.5703-2.015-2.148-5.0596-0.8125-7.347
		c1.3242-2.2679,4.1404-2.894,6.496-1.984c2.493,0.9631,4.0603,3.2304,4.0761,5.9096c0.0174,2.97-1.6977,5.714-4.1046,7.3563
		c-2.5959,1.7711-5.8634,2.3406-8.9534,2.3335c-3.3669-0.0077-6.7191-0.7144-9.8165-2.0266
		c-2.9019-1.2294-5.8013-3.0022-7.8762-5.4111c-1.9453-2.2584-3.1099-5.3918-2.0299-8.3211c0.8857-2.4023,3.123-3.875,5.6854-3.6716
		c2.346,0.1863,4.7189,1.5475,5.7602,3.7153c1.1748,2.4457,0.6472,5.3799-0.8479,7.5665c-1.7263,2.5247-4.4551,3.9434-7.4854,4.1484
		c-3.225,0.2182-6.4189-0.928-9.0718-2.6995c-2.4565-1.6403-4.6154-3.7403-7.2529-5.1049
		c-1.2692-0.6567-2.6505-1.0743-4.0875-1.0725c-1.8299,0.0023-3.5892,0.6031-5.3687,0.9518
		c-1.5083,0.2956-3.0629,0.4678-4.5513-0.0142c-1.2737-0.4125-2.4657-1.1685-3.268-2.2525
		c-0.759-1.0255-1.0254-2.3103-0.5954-3.5278c0.3371-0.9548,1.8682-0.5437,1.5275,0.4211
		c-0.7861,2.2263,1.9107,3.8623,3.7985,4.0666c1.4322,0.155,2.9097-0.2589,4.2914-0.5821c1.44-0.3368,2.9124-0.6813,4.4013-0.6447
		c5.2747,0.1297,8.7617,4.6386,13.0146,7.0849c4.4713,2.5719,11.0191,2.7512,13.7572-2.3596
		c0.9945-1.8563,1.1998-4.3236-0.1664-6.0579c-1.1381-1.4448-3.1599-2.3092-4.9925-2.0292
		c-2.3013,0.3516-3.4476,2.5435-3.364,4.7226c0.1023,2.6669,1.9611,4.8336,3.9435,6.4309
		c4.4128,3.5555,10.2645,5.3666,15.9087,5.0487c2.6481-0.1491,5.4625-0.8386,7.5196-2.6017
		c1.7774-1.5233,2.9906-4.0008,2.5635-6.3738c-0.3697-2.0538-2.0919-3.6115-4.1732-3.8182c-2.1289-0.2115-3.7926,1.3-3.8876,3.4266
		c-0.1069,2.392,1.3144,4.3885,3.3737,5.4778c2.3329,1.234,5.16,1.387,7.7451,1.2525c2.7447-0.1428,5.605-0.8662,7.5257-2.9562
		c1.6384-1.7829,2.2595-4.4279,0.7498-6.4908c-0.6664-0.9105-1.6685-1.552-2.8099-1.5971c-1.016-0.0401-1.0211-1.6245,0-1.5841l0,0
		L434.9481,307.9635z"/>
	<path fill="#3F3D56" d="M362.7491,306.2664l0.8076-4.994l44.8176-85.6597c0.7423-1.4187,2.501-1.9692,3.9197-1.2269
		c1.4189,0.7424,1.9692,2.501,1.2269,3.9197l-44.7978,85.6217l-3.6624,3.5487c-0.4332,0.4176-1.0581,0.5074-1.5916,0.2282
		C362.9361,307.4252,362.6536,306.8607,362.7491,306.2664L362.7491,306.2664z"/>
	<path fill="#FFB6B6" d="M393.2985,251.7681c5.0563,0.9519,9.8111,3.1009,13.8666,6.2672l0.2282,0.0492l0.0461-0.2273
		l48.8455,7.6506l-3.5387-64.9689l37.0187-20.2755l-8.7498,109.8197c-1.895,7.0135-9.1736,11.1096-16.1521,9.0897l-62.1782-17.8848
		l0.1553-0.7651l-0.2173-0.0585c-4.9692,1.3402-10.1872,1.4706-15.2172,0.3803c-12.6187-2.5537-21.5296-11.1345-19.9031-19.1649
		C369.129,253.6495,380.6756,249.2118,393.2985,251.7681L393.2985,251.7681z"/>
	<path fill="#F56539" d="M426.6932,150.0359l41.7159-11.6171c0,0,21.914,16.1055,24.5543,33.5311
		c0.314,2.0725,1.1851,98.6109,0.264,101.1213c-6.8233,18.5974-44.3561-11.089-44.3561-11.089L426.6932,150.0359L426.6932,150.0359z
		"/>
	<path fill="#3F3D56" d="M245.7497,323.5468l-4.3247-3.7067h-0.0003c-0.6438-0.5523-1.4266-0.9179-2.2638-1.0576l-96.3598-16.0601
		c-2.1994-0.3666-3.824-1.9549-4.2401-4.1455c-0.4159-2.1906,0.5134-4.2641,2.4255-5.4115l34.3768-20.6259
		c1.1489-0.6895,2.501-0.9066,3.809-0.6111l122.1765,27.6029c2.3752,0.5363,3.9604,2.4556,4.0382,4.8896
		c0.0779,2.434-1.3815,4.4507-3.718,5.1382l-51.0838,15.0246c-0.4847,0.1429-0.979,0.2125-1.4692,0.2125
		C247.8967,324.7963,246.7034,324.3647,245.7497,323.5468z"/>
	<path fill="#FFB6B6" d="M199.3449,203.7646c4.7764,1.9128,9.0252,4.9416,12.391,8.8331l0.2144,0.0925l0.0892-0.2141
		l46.4402,16.9622l49.5853-80.2856l27.4122,16.9891l-57.4928,92.1945c-3.2169,6.514-11.1508,9.1235-17.6063,5.7908l-57.5394-29.5839
		l0.3004-0.7206l-0.2019-0.0995c-5.1347,0.3528-10.2792-0.5294-15.0029-2.5729c-11.8856-4.9483-18.9666-15.0919-15.8163-22.6555
		C175.2684,200.9314,187.4557,198.813,199.3449,203.7646L199.3449,203.7646z"/>
	<path fill="#F56539" d="M361.2572,163.647l-21.9319-32.7971c0,0-26.0986,5.1657-36.8495,19.1315
		c-1.3438,1.7457-47.505,68.6936-47.8024,71.6153c-2.0818,20.4517,50.9721,30.0344,50.9721,30.0344L361.2572,163.647
		L361.2572,163.647z"/>
	<path fill="#3F3D56" d="M243.3629,324.5323l-110.4581-15.267c-3.6969-0.5105-6.7481-3.1595-7.7738-6.7481l-25.3693-88.7926
		c-0.8596-3.0095-0.2179-6.1257,1.7608-8.5504c1.9786-2.4247,4.902-3.6778,8.0236-3.4395l111.2865,8.5261
		c4.0261,0.3084,7.4058,3.1435,8.4106,7.0544l24.5406,95.5335c0.783,3.0487,0,6.2711-2.0952,8.62
		c-1.8041,2.023-4.3623,3.1528-7.0291,3.1528C244.2295,324.6215,243.7961,324.5921,243.3629,324.5323z"/>
	<path fill="#CCCCCC" d="M218.7417,142.6606c0.6456,0.7102,2.9886-0.0134,7.6483-1.4894c3.542-1.122,4.0876-1.5303,4.4245-1.823
		c1.1845-1.0291,1.4949-2.1114,2.6682-6.8922c2.1057-8.581,2.1709-9.4331,3.2522-11.254c0.3723-0.6271,1.3129-2.1228,1.0836-2.3082
		c-0.2357-0.1905-1.2536,1.3677-3.1349,1.9564c-1.8336,0.5738-2.6589-0.3454-4.2243-0.1113
		c-2.0235,0.3026-3.2267,2.2247-5.1139,5.3359c-1.6712,2.7552-1.8814,3.8636-4.2245,9.3378
		c-0.6638,1.5507-1.1983,2.751-1.6086,3.6996c-4.6003,4.2936-9.1629,8.6439-13.684,13.0319
		c0.0872-0.1333,0.1691-0.259,0.2403-0.3682c2.0026-3.0748,2.2748-4.7233,2.2458-5.9584c-0.0471-2.0012-1.0029-3.5253-2.9124-6.4922
		c-1.8712-2.9073-3.6443-4.8256-5.7804-7.1148c-2.8002-3.0006-4.2003-4.501-4.7579-4.4023
		c-3.9824,0.7048-5.0474,27.8215-0.0367,32.6711c-0.7032,0.5025-1.2857,1.0287-1.7069,1.5464
		c-4.2892-4.7623-11.6369-10.0829-19.7766-10.7379c-5.018-0.4039-7.7876,1.1708-8.6487,1.7117
		c-3.9802,2.4999-6.3469,7.5035-5.1583,8.9154c1.1083,1.3166,4.3094-1.6765,10.583-1.5116c4.3775,0.1151,7.797,1.7032,9.8271,2.646
		c4.2585,1.9779,5.8161,3.9223,8.9559,5.2544c-1.4718,1.2129-2.638,2.7266-3.3703,4.1385c-0.2537,0.2614-0.5064,0.5242-0.7598,0.786
		c-3.2397-1.8257-6.888-3.165-10.7121-3.4728c-5.0181-0.4039-7.7877,1.1708-8.6489,1.7117
		c-2.6825,1.6849-4.6265,4.5041-5.2486,6.5974c-0.4066,0.0818-0.7829,0.175-1.1274,0.2757
		c-1.2161-2.7482-4.8349-5.6464-8.1998-7.107c-5.7922-2.5142-13.3161-1.8478-14.1212,0.5431
		c-0.0257,0.0761-0.0321,0.1513-0.0435,0.2266c0.6349-5.1229,1.497-10.21,2.5741-15.2601c0.0365,0.144,0.0824,0.2899,0.1435,0.4434
		c1.4298,3.5912,5.2935,7.0382,10.5601,8.8264c4.1335,1.4035,5.8649,0.6761,6.3046,0.4728c0.4201-0.1942,2.2348-0.973,2.6794-2.5218
		c0.8243-2.8714-4.2237-11.3576-7.4079-8.5112c-10.2306,9.1454-11.6345,1.74-12.1044,0.4935
		c0.8698-3.9925,1.871-7.9623,2.9939-11.9093c0.0193,0.0241,0.0361,0.0478,0.0562,0.0722
		c2.2352,2.7108,6.5367,4.6205,11.5916,4.7049c3.9673,0.0662,5.2636-1.0443,5.5878-1.3424c0.3095-0.2848,1.6637-1.463,1.6182-2.927
		c-0.0843-2.7141-4.9127-4.9246-8.7758-5.3079c-3.5599-0.3532-7.3933,0.7367-9.2949,2.1169
		c0.8841-2.9558,1.8351-5.8988,2.8496-8.829c2.5981,1.0612,6.2783,0.9185,9.8937-0.6976c2.9815-1.3327,3.5612-2.6124,3.6991-2.9476
		c0.1316-0.3202,0.731-1.6706,0.1871-2.7463c-1.0084-1.9945-5.3788-1.9607-8.3931-0.9007
		c-1.2415,0.4366-2.4213,1.1082-3.4326,1.8676c1.7978-4.8028,3.7574-9.5713,5.865-14.3047l-2.1122-0.528
		c-2.6923,6.0466-5.0397,12.172-7.057,18.3652c-0.2509-1.8163-0.8795-3.7513-1.7071-5.3234
		c-2.4337-4.6224-7.6319-8.0903-9.3899-6.9651c-0.3517,0.2251-0.4997,0.5916-0.6335,1.028
		c-1.0776,3.5116-0.2661,8.3646,2.5719,12.8233c2.2273,3.4995,3.9428,3.9908,4.3897,4.1019c0.3773,0.0938,1.834,0.496,3.0312-0.022
		c-0.8052,2.7591-1.5497,5.5302-2.2286,8.3136c-0.817-2.0283-2.4269-4.1895-4.1295-5.684
		c-3.9262-3.446-10.0211-4.825-11.2602-3.1454c-0.2478,0.3359-0.2549,0.7312-0.2238,1.1866
		c0.2498,3.6647,2.7436,7.9062,6.9887,11.0548c3.3319,2.4712,5.1095,2.3163,5.5666,2.2602c0.269-0.033,1.082-0.114,1.8658-0.4684
		c-0.7276,3.382-1.3636,6.7803-1.9133,10.193c-1.0994-3.8177-4.834-8.5804-8.3587-7.0652
		c-6.2545,2.6888-13.6065-1.4413-14.4158,0.3647c-0.2105,0.4699-0.0362,0.9544,0.1653,1.4802
		c1.6204,4.231,6.0956,8.3304,12.2405,10.5074c4.8228,1.7086,6.8632,0.8828,7.3817,0.6513
		c0.3437-0.1534,1.4778-0.6272,2.3226-1.5064c-0.6073,4.3851-1.0729,8.7926-1.4007,13.2192
		c-1.304-2.8472-4.977-5.8468-8.4155-7.3934c-6.0316-2.7129-13.9203-2.1186-14.7964,0.3743
		c-0.1752,0.4986-0.037,0.9797,0.1697,1.5193c1.6633,4.3427,6.2565,8.5503,12.5637,10.7847
		c4.9502,1.7537,7.0443,0.9061,7.5766,0.6685c0.3888-0.1735,1.7622-0.7473,2.6379-1.8369
		c-0.1122,2.0464-0.1988,4.0962-0.2536,6.1499c-0.0156,0.585-0.0247,1.1699-0.0361,1.7548c-0.071,0.1149-0.133,0.2324-0.1743,0.3553
		c-0.169,0.5018-0.054,0.9845,0.1444,1.5119c-0.0044,0.3715-0.0067,0.7429-0.0091,1.1144
		c-1.1035-1.0003-2.4199-2.5044-4.0033-4.6477c-1.4287-1.9339-2.7854-0.5149-3.6569,1.1317
		c-1.3663-0.3043-2.6695-0.116-3.6944,0.8414c-6.873,6.4205-14.5818,3.0142-14.6909,4.9285
		c-0.0315,0.5524,0.2644,0.9917,0.6374,1.4681c3.001,3.8336,8.8923,6.6303,15.8912,6.9251
		c5.4931,0.2313,7.3277-1.2614,7.7872-1.6629c0.1614-0.141,0.5231-0.4456,0.9149-0.8738c0.3146,0.2513,0.6207,0.4791,0.9278,0.6871
		c0.1208,3.6753,0.337,7.3463,0.6575,11.0106c-0.2605,0.0233-0.5097,0.0662-0.6954,0.0851
		c-2.6607,0.2711-3.5572-3.3187-7.5766-4.6302c-1.3348-0.4355-3.9063-0.9108-5.2615,0c-0.1952,0.1312-0.861,0.6245-1.8942,1.0523
		c-0.6107,0.253-1.0772,0.3702-1.2628,0.4209c-1.6491,0.4511-3.1765,1.6888-4.2092,2.5255
		c-1.9413,1.573-2.9118,2.3595-3.3675,3.7883c-0.1433,0.4497-0.5467,1.7145,0,2.9465c0.2584,0.5821,0.858,1.448,3.157,2.3151
		c1.3664,0.5154,5.3518,2.0185,10.1021,0.4209c1.0817-0.3638,0.256-0.2335,4.4197-2.3151c3.2758-1.6377,5.1917-2.4206,5.4721-3.9988
		c0.0986-0.5548-0.0008-1.2314,0.4209-1.4733c0.2344-0.1344,0.5177-0.0691,0.8006,0.0328c0.2756,2.9459,0.6198,5.8871,1.037,8.8223
		h-3.7484c-4.9773,0-9.4425,2.7702-11.6527,7.2297l-14.0209,28.2864c-0.8851,1.7853-1.3531,3.7825-1.3531,5.7755v72.7351
		c0,7.1715,5.8344,13.0058,13.0058,13.0058h32.7269c7.1714,0,13.0058-5.8343,13.0058-13.0058v-66.975
		c0-1.6326-0.3024-3.2312-0.8991-4.7514l-13.3626-34.0462c-1.6208-4.129-5.1309-7.0498-9.327-7.9542
		c1.3459-1.5956,2.6939-3.1896,4.0524-4.7788c1.7105,0.8253,3.5922,1.5029,5.6153,1.9785c5.3522,1.2582,7.4343,0.1364,7.9611-0.1718
		c0.503-0.2944,2.6836-1.4908,3.0532-3.4864c0.0396-0.2138,0.0549-0.4302,0.0521-0.6481c5.4824,4.4566,8.3422,6.6533,10.4317,5.9209
		c1.7964-0.6297,2.8219-2.6933,3.4091-4.545c0.6133,0.0851,1.2637,0.1724,1.9568,0.2649
		c7.5086,1.0026,11.2923,1.4676,12.7397-0.3109c2.0031-2.4613,0.1019-7.2073-0.4222-8.5153
		c-1.139-2.843-2.8911-4.5728-3.9796-5.6251c-1.4133-1.3666-5.4416-5.2614-11.7835-5.7809
		c-1.3786-0.113-2.6172-0.0263-3.8789,0.2377c-0.4396-0.4021-0.9036-0.7962-1.4145-1.1704
		c-0.9735-0.7131-1.9348-1.2413-2.9695-1.654c1.5872-1.7391,3.1789-3.4726,4.778-5.199c0.2532,0.1151,0.4935,0.2263,0.7143,0.3289
		c5.2387,2.4331,6.3897,4.8157,11.4277,6.07c2.2857,0.569,4.8734,1.2133,5.5138,0.2447c1.1381-1.7206-3.6925-8.8005-11.1571-13.5907
		c0.5033-0.5329,1.0079-1.0641,1.5123-1.5955c0.6826,0.2862,1.284,0.5653,1.7965,0.8033c5.2387,2.4331,6.3897,4.8157,11.4278,6.07
		c2.2855,0.569,4.8731,1.2133,5.5138,0.2447c1.0154-1.5353-2.7209-7.3388-8.8399-11.9746c1.6808-0.5338,3.9096-1.1253,6.7957-1.0495
		c4.3775,0.1151,7.797,1.7032,9.827,2.646c5.2387,2.4331,6.3897,4.8157,11.4277,6.07c2.2856,0.569,4.8732,1.2133,5.5138,0.2447
		c1.6918-2.5581-9.7991-16.97-23.5446-18.0762c-1.0669-0.0859-2.0261-0.0786-2.8931-0.0145
		c-0.1198-0.1985-0.2498-0.4023-0.3869-0.6096c4.6507,0.1495,13.7334-1.1802,21.4641,4.2474
		c2.2291,1.565,6.5595,5.2464,13.8066,8.2711c2.3163,0.9668,3.481,1.4421,3.8018,1.0451
		c1.1483-1.4209-8.3997-13.1155-21.8326-18.8766c-5.3259-2.2841-8.6165-2.5003-10.957-2.1543
		c0.3607-0.4113,0.7123-0.8357,1.0507-1.2619c5.2306-5.13,10.5272-10.2064,15.8714-15.2145
		C218.4508,141.9243,218.4595,142.3501,218.7417,142.6606L218.7417,142.6606z M151.6175,206.5098
		c-5.9079-1.9126-13.0619-0.8851-14.9273,1.291c-0.263-1.9286-0.4916-3.8601-0.6799-5.7953c2.6916,1.5032,5.5,1.9058,10.8276,2.6171
		c2.2691,0.303,4.1927,0.5552,5.8197,0.7129c0.2185,0.5923,0.4516,1.1254,0.7221,1.6354c0.0313,0.0592,0.065,0.1155,0.0969,0.1739
		l-0.0472,0.0538C152.8227,206.9356,152.2149,206.7032,151.6175,206.5098z M135.9208,180.5988
		c0.1685-0.559,0.172-1.1544,0.0433-1.768c0.1838-2.2234,0.4133-4.4399,0.6848-6.6498c-0.007,0.3383,0.1003,0.6768,0.2465,1.0437
		c1.6424,4.125,6.0803,8.0843,12.1296,10.1383c1.1284,0.3832,2.0965,0.6248,2.9303,0.7724
		c-0.3669,0.6392-0.6479,1.2622-0.8342,1.8384c-2.0623-1.6568-4.717-2.8615-7.729-1.5834
		c-0.8197,0.3478-1.3062,1.6203-1.7288,3.1418c-2.7826,0.048-5.1077,0.6286-6.2151,1.6108
		c0.0059-0.4097,0.0039-0.8185,0.0148-1.2288c0.0624-2.3387,0.1777-4.6697,0.3401-6.9937
		C135.8474,180.8164,135.8874,180.7095,135.9208,180.5988z M135.456,192.6278c0.1199,0.2456,0.2513,0.4899,0.3876,0.7335
		c-0.1238-0.0911-0.2505-0.1892-0.3806-0.2953C135.4596,192.92,135.4587,192.7738,135.456,192.6278z M140.2069,222.5604
		c-0.324-0.0427-0.6509-0.0735-0.9809-0.0921c-0.7616-3.7814-1.465-7.5603-2.0537-11.3463c1.548,2.4568,4.0747,4.7062,7.2932,6.4118
		C143.0373,219.2052,141.621,220.882,140.2069,222.5604L140.2069,222.5604z M165.1424,194.1204
		c-2.0147-0.647-4.379-0.9568-7.651-1.3368c-0.8292-1.1525-1.6839-2.0015-2.3158-2.6123c-0.3423-0.3309-0.8676-0.9872-1.5483-1.7551
		c1.7637-0.5661,4.396-1.5747,8.1155-1.4769c3.3805,0.0889,6.186,1.0556,8.225,1.9258
		C168.3527,190.6099,166.7456,192.3626,165.1424,194.1204z M176.5608,181.8141c-1.9798-1.1964-4.1269-2.2207-6.3873-2.9406
		c0.2197-0.002,0.4347-0.0085,0.6625-0.0025c2.8031,0.0737,5.2105,0.7515,7.1145,1.4769
		C177.4872,180.8365,177.0232,181.3243,176.5608,181.8141z"/>
</g>
</svg>
