<?xml version="1.0" encoding="utf-8"?>
<!-- Generator: Adobe Illustrator 26.0.1, SVG Export Plug-In . SVG Version: 6.00 Build 0)  -->
<svg version="1.1" id="Layer_1" xmlns="http://www.w3.org/2000/svg" xmlns:xlink="http://www.w3.org/1999/xlink" x="0px" y="0px"
	 viewBox="0 0 640 360" enable-background="new 0 0 640 360" xml:space="preserve">
<g>
	<path fill="#F2F2F2" d="M464.6985,210.8214c0.9327,0.0429,1.7235-0.6784,1.7664-1.611c0.0229-0.498-0.1751-0.9807-0.5412-1.3192
		l-0.1158-0.4605l0.0461-0.1106c0.9775-2.3088,3.6416-3.3881,5.9505-2.4107c1.0969,0.4645,1.9673,1.3414,2.4236,2.4417
		c1.3696,3.2988,3.1134,6.603,3.5427,10.0908c0.1891,1.5416,0.1093,3.1045-0.2358,4.619
		c3.2169-7.0173,4.8873-14.6441,4.8981-22.3636c0.0007-1.9371-0.1069-3.8727-0.3223-5.7978
		c-0.1781-1.5782-0.425-3.1451-0.741-4.7008c-1.7242-8.4411-5.426-16.3528-10.8016-23.0852
		c-2.6018-1.4196-4.7059-3.6026-6.0287-6.2548c-0.4792-0.9534-0.818-1.9712-1.0056-3.0216
		c0.2935,0.0385,0.5918,0.0626,0.8852,0.0817c0.0915,0.0047,0.1877,0.0096,0.2791,0.0145l0.0344,0.0015
		c0.9242,0.0415,1.7069-0.674,1.7484-1.5982c0.0184-0.4098-0.1143-0.812-0.3728-1.1306c-0.1267-0.156-0.2535-0.3118-0.3804-0.4677
		c-0.1924-0.2405-0.3897-0.4763-0.5822-0.7169c-0.0222-0.0228-0.0431-0.0469-0.0626-0.0722
		c-0.2213-0.2743-0.4427-0.5437-0.664-0.818c0.404-0.6271,0.9473-1.1524,1.5879-1.5349c2.218-1.2991,5.2782-0.3994,6.8803,1.607
		c1.5198,2.1192,2.0155,4.8057,1.3521,7.3278c-0.5489,2.1331-1.4567,4.1571-2.6848,5.9854
		c0.1203,0.1539,0.2454,0.3031,0.3656,0.4571c2.1988,2.8274,4.1153,5.8635,5.7219,9.0648
		c-0.3907-3.5863,0.0755-7.2142,1.3606-10.5852c1.3023-3.1416,3.7433-5.7875,5.8928-8.5034
		c1.5878-2.0377,4.527-2.4024,6.5648-0.8144c0.9779,0.762,1.6133,1.8811,1.7665,3.1113l0.0129,0.1201
		c-0.3193,0.1801-0.6318,0.3712-0.9376,0.5735c-1.0531,0.7036-1.3364,2.1275-0.6328,3.1806
		c0.357,0.5344,0.9221,0.8945,1.5572,0.9924l0.0468,0.0072c-0.1138,1.1507-0.3148,2.2911-0.6014,3.4114
		c-1.6791,6.322-5.9179,11.6579-11.6966,14.723c-0.1877,0.0962-0.3705,0.1924-0.5582,0.2839
		c1.6141,4.5743,2.6265,9.3391,3.0118,14.1745c0.2182,2.8527,0.2053,5.7185-0.0385,8.5692l0.0143-0.1011
		c0.6159-3.1699,2.3069-6.0302,4.7874-8.0977c3.6841-3.0264,8.8891-4.1408,12.8637-6.5735
		c1.2231-0.7853,2.8513-0.4305,3.6366,0.7927c0.3365,0.524,0.4762,1.1503,0.3944,1.7677l-0.0162,0.1062
		c-0.5925,0.2413-1.1693,0.5192-1.7273,0.8324c-0.3193,0.1802-0.6318,0.3713-0.9376,0.5735
		c-1.0531,0.7036-1.3364,2.1275-0.6328,3.1806c0.3571,0.5344,0.9221,0.8945,1.5572,0.9924l0.0468,0.0071
		c0.0338,0.0047,0.0626,0.0096,0.0962,0.0145c-1.0124,2.4172-2.4333,4.642-4.2004,6.5772
		c-4.412,4.7343-10.5803,7.4408-17.0517,7.4818h-0.0049c-0.8692,3.777-2.1286,7.4535-3.7578,10.9701h-13.4238
		c-0.0481-0.1492-0.0915-0.3032-0.1347-0.4523c1.2425,0.078,2.4899,0.0038,3.7145-0.2213c-0.9961-1.2221-1.992-2.4539-2.9879-3.676
		c-0.0222-0.0228-0.0431-0.0469-0.0626-0.0722c-0.5052-0.6254-1.0152-1.2461-1.5204-1.8716l-0.0002-0.0007
		c-0.027-1.9174,0.1931-3.8301,0.6546-5.6911L464.6985,210.8214z"/>
	<path fill="#2F2E41" d="M424.0886,87.6693c0,7.3895,3.6966,14.9089,11.0861,14.9089s17.5848-5.3519,15.2911-16.8203
		c-1.4492-7.2458-5.608-11.4683-12.9975-11.4683c-7.3895,0-13.3797,5.9903-13.3799,13.3796v0.0001H424.0886z"/>
	<path fill="#A0616A" d="M455.0861,193.2451c-1.5212-1.6874-1.3866-4.2885,0.3008-5.8098c0.18-0.1623,0.3738-0.3083,0.5796-0.4363
		l-3.2347-14.2564l7.11,2.6751l1.9816,13.1279c1.0769,2.0144,0.3168,4.5205-1.6976,5.5974
		C458.4401,195.0441,456.3566,194.6729,455.0861,193.2451L455.0861,193.2451z"/>
	<path fill="#E6E6E6" d="M439.9942,142.7139l4.9625,0.5052c0,0-1.2979,7.3515,0.7318,9.0074
		c2.0296,1.6559,1.2115,1.6481,1.1998,2.8753c0.1254,1.7816,1.002,3.4261,2.4113,4.5233c1.6246,1.2429,5.003,23.3785,5.003,23.3785
		l7.3632,0.0707c-0.2196-1.9038-0.2012-3.8277,0.0549-5.7269c0.4365-2.8596,2.6434-10.0625,1.8369-11.2976
		c-0.8065-1.235-0.3819-3.5061-0.3584-5.9607c0.0235-2.4544-3.4876,0.2575-3.4485-3.8331
		c0.0393-4.0907-4.4643-29.7593-4.0199-33.437c0.4444-3.6777-4.024-6.9934-4.024-6.9934l-4.0907-0.0392L439.9942,142.7139
		L439.9942,142.7139z"/>
	<path fill="#A0616A" d="M387.3119,108.1921c-0.4677,2.1011,0.8566,4.1837,2.9577,4.6514c0.224,0.0499,0.452,0.0798,0.6814,0.0896
		l3.9811,13.2665l4.6163-5.5223l-4.4882-11.7515c-0.0513-2.1637-1.8469-3.8761-4.0107-3.8248
		C389.239,105.1439,387.6937,106.4219,387.3119,108.1921z"/>
	<path fill="#E6E6E6" d="M429.3417,112.5131c0,0-9.6241-3.6085-14.8419,16.1529l-6.9265,7.1736l-5.8192-10.515l0.7694-2.4944
		l-4.4973-10.1958l-7.7108,4.4252l1.8981,7l-0.3207,3.4604l1.8427,2.1522l3.0163,11.1236l1.8868,3.6342
		c0,0,2.3796,4.6532,6.5334,5.4196c1.1073,0.2074,2.2403,0.2396,3.3577,0.0953c2.6568-0.4156,5.1194-1.645,7.0482-3.5189
		c5.1357-4.5798,9.9927-9.4628,14.545-14.6228L429.3417,112.5131z"/>
	<polygon fill="#A0616A" points="442.2506,145.6034 442.9317,148.8476 443.5101,160.8144 420.2543,157.6655 418.4686,143.8085 
		420.9363,139.7529 	"/>
	<circle fill="#A0616A" cx="434.7069" cy="91.3781" r="11.0067"/>
	<path fill="#E6E6E6" d="M453.1486,117.116c-1.8164-4.2844-5.5753-7.4395-10.1098-8.4855l-0.0415-0.0083l-2.1794-2.9335
		l-8.8419,0.8866l-1.616,3.3147l-4.1931,2.4943h-0.0083l-0.0083,0.0083l-2.196,1.3093l-7.284,8.527l-0.0083,0.0083
		c-2.1615,1.443-3.6285,3.7171-4.0521,6.2813c-0.1099,0.7321-0.146,1.4733-0.1077,2.2126c0.2403,4.5328,3.0744,8.5684,3.4638,9.1071
		l0.9531,5.3615l0.1905,1.1021l1.7154,0.2486l24.164,3.4556l0.6713,0.0994l0.1989,0.0248l0.6961-1.7982v-0.0165l6.7371-17.6258
		l3.0247-7.864C454.3252,120.8621,453.9275,118.9183,453.1486,117.116L453.1486,117.116z"/>
	<path fill="#2F2E41" d="M446.2259,94.2636c-0.0998-0.0158-0.1996-0.0368-0.2993-0.0525c-1.7169-0.3045-3.4337-0.6037-5.1454-0.9136
		l-0.1575-3.88l-2.0738,3.4756c-4.7306,1.5698-9.1567,0.6826-13.3202-1.2758c-1.3733-0.6519-2.7059-1.3866-3.9903-2.1998
		c-0.8957-5.4653,1.3639-9.7725,7.1667-10.3222c0.1802-0.0171,0.3097-0.168,0.4673-0.2468l0.0052-0.0051v-0.0002
		c0.2677-0.126,0.5408-0.2467,0.8138-0.357c4.3628-1.705,9.3175-0.7443,12.7269,2.4677
		C445.8633,84.4578,447.2964,89.4686,446.2259,94.2636z"/>
	<path fill="#CCCCCC" d="M457.0683,183.0286c-0.4869-3.2514-1.2861-6.4483-2.3866-9.5463v-0.0083
		c-0.9212-2.6196-2.0692-5.1539-3.4307-7.5741c-0.0045,0.0001-0.0082-0.0034-0.0083-0.0079v-0.0004
		c-1.9601-3.648-4.5175-6.9419-7.5658-9.7451l-0.3232-0.3397h-0.0829l-23.3354-0.5718h-0.2403l-0.2652-0.0083
		c0,0-0.0994,0.2901-0.2899,0.837c-0.0073,0.0343-0.0184,0.0677-0.0331,0.0994c-0.0663,0.2155-0.1491,0.4641-0.2486,0.7375
		c-0.0581,0.1823-0.1244,0.3729-0.1905,0.58c-0.0746,0.2238-0.1575,0.4558-0.2403,0.7044c-0.6464,1.9308-1.591,4.7317-2.7511,8.2039
		c-0.174,0.5304-0.3564,1.0773-0.5469,1.649c-4.4251,13.3168-11.5434,35.0776-17.7584,55.7033h22.0426
		c2.138-6.1819,4.4086-14.9989,4.4086-14.9989c0.8867-1.0525,0.837-3.9113,0.837-3.9113l6.9276-7.2758l4.9886,26.1859h20.9323
		l0.1574-29.1444v-0.2486C457.8283,190.5645,457.6284,186.774,457.0683,183.0286z"/>
	<path fill="#2F2E41" d="M442.0088,78.5699v0.0093c-0.0013,0.5761,0.0722,1.15,0.2185,1.7071
		c0.0233,0.0976,0.0512,0.2,0.0837,0.2977v0.0046c0.6326,2.017,2.1732,3.6215,4.1631,4.3352
		c0.1442,0.0558,0.2931,0.1023,0.4419,0.1442c0.3136,0.091,0.6341,0.1562,0.9582,0.1954c0.2913,0.0412,0.585,0.0615,0.8792,0.0605
		c0.2299,0.0009,0.4596-0.0099,0.6884-0.0326c0.5354-0.0542,1.0618-0.1745,1.5675-0.3581c0.0793-0.023,0.1568-0.0509,0.2326-0.0837
		c0.038-0.0135,0.0753-0.029,0.1117-0.0466c3.4395-1.4398,5.0606-5.3952,3.6209-8.8348c-0.0431-0.103-0.0887-0.2048-0.1368-0.3055
		l-0.0046-0.0046c-0.3307-0.6924-0.7793-1.322-1.3257-1.8606c-1.2187-1.214-1.7557-4.2565-3.607-4.2565
		c-0.0885-0.0015-0.177,0.0015-0.2652,0.0093c-1.2419,0.0419-3.5378,2.7217-4.5146,3.3542
		c-0.7254,0.4583-1.3544,1.054-1.8513,1.7537c-0.519,0.7197-0.889,1.5357-1.0884,2.4002
		C442.0666,77.554,442.009,78.0612,442.0088,78.5699z"/>
	<path fill="#2F2E41" d="M450.2494,76.2214c1.0474,1.2195,2.6875,1.6935,4.1669,2.3281c5.3009,2.3255,9.1119,7.1179,10.1838,12.8063
		c0.409,2.2822,0.3555,4.6447,1.0016,6.8695c0.6422,2.2249,2.2325,4.4076,4.5147,4.7938c1.5444,0.2637,3.0925-0.3326,4.5452-0.9213
		c0.799-0.3211,1.598-0.6435,2.3969-0.9672c-0.8333-2.0912-1.6654-4.1822-2.4962-6.2732c1.3353,1.9734,2.8881,3.7904,4.6294,5.4169
		c2.8632-1.1545,5.7291-2.309,8.5974-3.4634c-7.0569,0.0267-5.8527-6.8237-7.4315-13.697
		c-0.8677-3.7769-8.2572-6.3344-9.7061-9.9277c-2.2629-5.6338-8.6644-8.3664-14.2982-6.1035
		c-2.4277,0.9751-4.428,2.784-5.6415,5.1018C449.2633,72.7617,449.2212,75.0171,450.2494,76.2214z"/>
	<path fill="#CCCCCC" d="M420.2766,156.9096c-3.2957,0.8593-5.963,3.2756-7.1432,6.4704c-0.4176,0.9028-0.4066,1.9456,0.0299,2.8395
		c0.3413,0.6381,1.1013,0.9263,1.7798,0.6748c0.6815-0.3673,1.2252-0.9463,1.5488-1.6495c0.4748-0.9026,0.8829-1.8386,1.221-2.8008
		c0.5536-1.452,1.7348-3.8755,0.0485-5.0106c-1.4183-0.9546-3.2961-0.5838-4.892-0.6493c-1.7246-0.0707-3.6414-0.7311-4.2539-2.5187
		c-0.5959-1.7382,0.801-3.3733,2.3068-4.0344c1.8384-0.7623,3.9352-0.5625,5.5966,0.5331c1.6171,1.121,2.7719,2.7914,3.2494,4.7002
		c0.0738,0.3083-0.1163,0.6179-0.4247,0.6917c-0.2935,0.0702-0.5912-0.0988-0.6812-0.3869c-0.4229-1.771-1.538-3.2988-3.0959-4.2411
		c-1.5478-0.8931-3.4711-0.818-4.9446,0.1931c-0.7732,0.4812-1.1323,1.4176-0.8792,2.2924c0.3885,0.7763,1.12,1.3241,1.9742,1.4788
		c1.8196,0.44,3.7227-0.1294,5.5364,0.4517c1.6882,0.4326,2.7643,2.0856,2.4767,3.8044c-0.1888,1.0313-0.4944,2.0378-0.9111,3
		c-0.354,0.9893-0.7677,1.956-1.2391,2.895c-0.72,1.3608-2.0183,2.834-3.7318,2.4349c-1.9527-0.4548-2.4164-2.7347-1.9979-4.4116
		c1.1323-3.8692,4.218-6.8567,8.1218-7.8634c0.3084-0.0735,0.6178,0.1169,0.6913,0.4251
		C420.7329,156.5222,420.5641,156.8194,420.2766,156.9096L420.2766,156.9096z"/>
	<path fill="#3F3D56" d="M506.4903,224.5698H370.5881c-3.2021-0.0037-5.797-2.5986-5.8007-5.8007V33.9755
		c0.0036-3.2022,2.5985-5.7971,5.8007-5.8007h135.902c3.2021,0.0036,5.7971,2.5985,5.8007,5.8007v184.7937
		C512.2871,221.9712,509.6923,224.566,506.4903,224.5698z M370.5881,29.8321c-2.2872,0.0027-4.1406,1.8562-4.1433,4.1433v184.7936
		c0.0027,2.2872,1.8562,4.1406,4.1433,4.1434h135.902c2.2872-0.0027,4.1406-1.8562,4.1434-4.1434V33.9755
		c-0.0027-2.2871-1.8562-4.1407-4.1434-4.1433C506.4901,29.8321,370.5881,29.8321,370.5881,29.8321z"/>
	<path fill="#F56539" d="M602.9911,138.388h-43.9197c-5.9496,0-10.7726-4.8232-10.7726-10.7727
		c0-5.9495,4.8231-10.7727,10.7726-10.7727h43.9197c5.9495,0,10.7726,4.8232,10.7726,10.7727
		C613.7638,133.5649,608.9408,138.388,602.9911,138.388z"/>
	<path fill="#F2F2F2" d="M288.0793,183.4752c-0.9327,0.0429-1.7235-0.6784-1.7664-1.611c-0.0229-0.498,0.1751-0.9807,0.5412-1.319
		l0.1158-0.4605l-0.0461-0.1105c-0.9774-2.3089-3.6416-3.3881-5.9505-2.4106c-1.0969,0.4643-1.9673,1.3413-2.4236,2.4417
		c-1.3697,3.2988-3.1133,6.6031-3.5428,10.0908c-0.1891,1.5417-0.1094,3.1045,0.2358,4.619
		c-3.2169-7.0172-4.8873-14.6441-4.8981-22.3636c-0.0007-1.9371,0.1069-3.8727,0.3224-5.7978
		c0.1781-1.5782,0.425-3.145,0.741-4.7008c1.7241-8.4411,5.426-16.3528,10.8017-23.0852c2.6017-1.4196,4.7058-3.6026,6.0287-6.2548
		c0.4792-0.9534,0.818-1.9712,1.0056-3.0216c-0.2935,0.0385-0.5918,0.0626-0.8852,0.0817
		c-0.0915,0.0048-0.1877,0.0096-0.2791,0.0145l-0.0344,0.0015c-0.9242,0.0414-1.7069-0.674-1.7484-1.5982
		c-0.0184-0.4098,0.1143-0.812,0.3728-1.1306c0.1267-0.156,0.2535-0.3118,0.3805-0.4677c0.1924-0.2405,0.3897-0.4763,0.5822-0.7169
		c0.0222-0.0228,0.0431-0.0469,0.0626-0.0722c0.2213-0.2743,0.4427-0.5437,0.664-0.818c-0.404-0.6271-0.9473-1.1524-1.5879-1.5349
		c-2.218-1.2991-5.2781-0.3994-6.8803,1.607c-1.5198,2.1192-2.0155,4.8057-1.3521,7.3278c0.5489,2.1331,1.4567,4.157,2.6848,5.9854
		c-0.1203,0.1539-0.2454,0.3032-0.3656,0.4571c-2.1989,2.8274-4.1153,5.8635-5.7219,9.0649
		c0.3907-3.5863-0.0757-7.2142-1.3606-10.5852c-1.3023-3.1416-3.7433-5.7875-5.8927-8.5034
		c-1.5878-2.0377-4.527-2.4024-6.5648-0.8144c-0.9779,0.762-1.6133,1.8811-1.7665,3.1113l-0.0129,0.1201
		c0.3193,0.1801,0.6318,0.3712,0.9376,0.5735c1.0531,0.7036,1.3364,2.1275,0.6328,3.1806c-0.357,0.5344-0.9221,0.8945-1.5572,0.9924
		l-0.0467,0.0072c0.1138,1.1507,0.3148,2.2911,0.6014,3.4114c1.679,6.322,5.9179,11.6578,11.6966,14.723
		c0.1877,0.0962,0.3705,0.1924,0.5582,0.2839c-1.6142,4.5743-2.6266,9.3391-3.012,14.1745
		c-0.2182,2.8528-0.2053,5.7185,0.0385,8.5692l-0.0145-0.1011c-0.6159-3.1699-2.3069-6.0302-4.7874-8.0977
		c-3.6842-3.0264-8.8892-4.1408-12.8637-6.5735c-1.2232-0.7853-2.8513-0.4305-3.6366,0.7927
		c-0.3365,0.524-0.4762,1.1503-0.3944,1.7677l0.0163,0.1062c0.5924,0.2413,1.1694,0.5192,1.7273,0.8324
		c0.3193,0.1802,0.6318,0.3713,0.9376,0.5735c1.0531,0.7036,1.3363,2.1276,0.6328,3.1806
		c-0.3571,0.5344-0.9221,0.8945-1.5572,0.9924l-0.0468,0.0073c-0.0337,0.0049-0.0626,0.0096-0.0962,0.0145
		c1.0124,2.4172,2.4333,4.642,4.2004,6.5772c4.412,4.7343,10.5803,7.4408,17.0517,7.4818h0.0049
		c0.8692,3.777,2.1285,7.4535,3.7578,10.9701h13.4239c0.0481-0.1492,0.0915-0.3031,0.1347-0.4523
		c-1.2425,0.0782-2.4899,0.0038-3.7145-0.2213c0.9959-1.2221,1.9918-2.4539,2.9879-3.676c0.0222-0.0228,0.0431-0.0469,0.0626-0.0721
		c0.5052-0.6255,1.0152-1.2462,1.5204-1.8716l0.0002-0.0007c0.0269-1.9173-0.1931-3.8301-0.6546-5.6912L288.0793,183.4752z"/>
	<g opacity="0.38">
		<path fill="#FFB8B8" d="M262.5904,163.9731c-2.0739-1.6977-2.3788-4.7552-0.6811-6.8291c0.181-0.2211,0.3813-0.4259,0.5983-0.6118
			l-10.9701-28.6796l8.7672,1.857l9.3085,27.5862c1.6137,2.1582,1.1725,5.2157-0.9857,6.8295
			C266.8215,165.4756,264.3258,165.4126,262.5904,163.9731z"/>
		<path fill="#2F2E41" d="M267.1038,132.5624l-9.8446-40.9695l-4.2345-11.9163c-0.0045-0.0044-0.0075-0.0102-0.0083-0.0165
			c-0.6895-1.9465-2.1314-3.5348-4.0025-4.4086c-1.872-0.8964-4.0267-0.9979-5.9747-0.2818
			c-0.1663,0.0577-0.3295,0.1241-0.4889,0.1989c-0.3397,0.1554-0.6691,0.3325-0.9862,0.5304
			c-1.8272,1.1519-3.0961,3.0087-3.5053,5.1295l-0.7457,3.9113l-0.3149,1.6657l11.6263,40.638v0.0165l4.0439,14.1537l1.8728,6.5299
			v0.0083l2.1711,7.5989l0.0498,0.1574l5.2123-0.348h0.0083l0.7873-0.058l5.9664-0.3978l0.8618-0.058L267.1038,132.5624
			L267.1038,132.5624z"/>
		<path fill="#2F2E41" d="M227.1364,64.1596l21.928,44.3459l13.8721,47.1542c-29.2255,5.6989-65.896,17.89-68.5356,0.4055
			c1.6264-48.7472,6.7506-64.2963,17.3284-85.4292L227.1364,64.1596L227.1364,64.1596z"/>
		<path fill="#2F2E41" d="M256.4553,195.5663h-18.007l-7.3006-24.6695l-5.1377,24.3546c-0.0165,0.1077-0.0248,0.2072-0.0414,0.3149
			h-19.192c0.6215-7.6238,1.7568-20.8825,2.2955-22.7635c0.7624-2.6684,0-2.6684-1.5248-4.1931
			c-0.3397-0.3397-0.4558-1.6988-0.4227-3.5964c0.0911-6.5382,1.8728-19.4903,1.8728-19.4903l2.1131-3.9113l0.7292-1.3591
			l37.6382-1.3259l0.3232-0.0083l0.6961,3.0329l0.8536,3.7373l1.4999,6.5549l1.3839,5.2289l0.0746,0.2651v1.5496
			c-0.2357,0.5399-0.3436,1.1269-0.3149,1.7153C253.9941,161.5327,255.1874,178.0564,256.4553,195.5663z"/>
		<path fill="#F56539" d="M224.5667,70.736l2.5841-6.1827l7.9979,0.1404l8.3398,11.7969l8.7534,36.8117c0,0,3.144,26.8909,0,28.3105
			c-3.144,1.4195-41.214,0.6641-41.214,0.6641c1.7627-14.5221,3.0764-29.2952,4.4609-38.1204
			C220.0645,74.9895,222.2242,81.1276,224.5667,70.736z"/>
		<path fill="#2F2E41" d="M235.1489,64.6938c0,0,17.2283,9.9591,17.9022,15.1577c0.6739,5.1986,2.9301,68.827,2.9301,68.827
			l-6.0925-3.9368l-1.6652-23.1903c1.1613-20.6064-1.6728-35.9659-7.4354-47.4796L235.1489,64.6938L235.1489,64.6938z"/>
		<ellipse fill="#FFB8B8" cx="231.0757" cy="50.047" rx="11.7418" ry="11.7418"/>
		<path fill="#2F2E41" d="M216.6141,49.358c0.5243,2.379,1.4701,4.645,2.7927,6.6909c0.351,0.6975,0.8756,1.2931,1.5232,1.7296
			c0.6766,0.4342,1.5668,0.3229,2.1157-0.2644l0.2857-0.2327c-0.5602-0.3452-1.0604-0.7793-1.481-1.2853
			c-0.4225-0.5152-0.5702-1.2026-0.3966-1.846c0.2109-0.6499,0.8978-1.0167,1.5551-0.8304
			c0.6877,0.2698,1.1055,1.2641,1.8248,1.1108c0.5818-0.127,0.7034-0.8939,0.7034-1.4969
			c-0.0211-3.1524,1.5022-7.6323,2.6817-7.4948c1.1916,0.0651,2.3848-0.0946,3.5173-0.4708
			c1.134-0.3768,2.3304-0.5296,3.5227-0.4496c0.0846,0.0106,0.1693,0.0265,0.2592,0.0423c0.1911-0.5989,0.454-1.1726,0.7828-1.7084
			c-0.0371,0.6468-0.0051,1.2957,0.0953,1.9358c0.9488,0.3911,1.929,0.7007,2.9303,0.9256
			c1.0896,0.1534,3.4856,3.4115,3.5967,3.0783c0.1911-0.5989,0.454-1.1726,0.7828-1.7084
			c-0.0371,0.6468-0.0051,1.2957,0.0953,1.9358c0.0052,0.0265,0.0052,0.0476,0.0106,0.074c0.529-0.7035,0.8516-1.5603,0.6718-0.9045
			c1.7719-4.0092,1.0843-6.8812-1.7032-10.2611c-0.5432-0.7267-1.2621-1.3036-2.0892-1.6767
			c-0.8425-0.37-1.8168-0.2738-2.5706,0.2538c-2.3152-2.1226-5.5992-2.8231-8.579-1.8301c-2.9038,1.0103-5.141,1.6027-5.5854,4.6493
			c-2.4726-0.2704-4.8811,0.902-6.1936,3.0149C216.5104,44.4513,216.1006,46.9573,216.6141,49.358L216.6141,49.358z"/>
		<path fill="#FFB8B8" d="M183.7117,161.076c-0.997-2.4878,0.2116-5.3128,2.6993-6.3098c0.2653-0.1063,0.5394-0.189,0.8193-0.2471
			l4.2336-30.4129l6.7823,5.8577l-5.1612,28.6533c0.3717,2.6689-1.4906,5.1339-4.1595,5.5056
			C186.6924,164.4338,184.537,163.1743,183.7117,161.076L183.7117,161.076z"/>
		<path fill="#2F2E41" d="M221.0793,79.8922l-0.3232-2.9501c-0.3046-2.7245-2.0156-5.0897-4.508-6.2316
			c-0.9465-0.4392-1.9732-0.6789-3.0164-0.7044h-0.0083c-3.139-0.0733-6.0159,1.7425-7.3006,4.6074l-5.1709,11.56l-13.0515,40.0662
			l-4.2179,21.7941l4.5577,0.6713l6.6045,0.9695l0.0498,0.0083l1.5164,0.2238L217.4,93.1924l0.0083-0.0165l3.961-10.5987
			L221.0793,79.8922L221.0793,79.8922z"/>
	</g>
	<path fill="#E6E6E6" d="M300.1512,196.395h-135.902c-3.2021-0.0038-5.797-2.5986-5.8007-5.8007V5.8007
		C158.452,2.5985,161.047,0.0036,164.2491,0h135.902c3.202,0.0036,5.7971,2.5985,5.8007,5.8007v184.7937
		C305.9481,193.7964,303.3532,196.3912,300.1512,196.395z M164.2491,1.6573c-2.2872,0.0027-4.1407,1.8562-4.1433,4.1433v184.7937
		c0.0027,2.2872,1.8562,4.1406,4.1433,4.1433h135.902c2.2871-0.0027,4.1406-1.8562,4.1433-4.1433V5.8007
		c-0.0027-2.2871-1.8562-4.1407-4.1433-4.1433C300.1512,1.6573,164.2491,1.6573,164.2491,1.6573z"/>
	<path fill="#E6E6E6" d="M80.9285,138.388H37.0089c-5.9496,0-10.7727-4.8232-10.7727-10.7727
		c0-5.9495,4.8232-10.7727,10.7727-10.7727h43.9196c5.9496,0,10.7727,4.8232,10.7727,10.7727
		C91.7012,133.5649,86.8781,138.388,80.9285,138.388z"/>
	<path fill="#E6E6E6" d="M102.474,180.6502H58.5543c-5.9496,0-10.7727-4.8232-10.7727-10.7727s4.8232-10.7727,10.7727-10.7727
		h43.9196c5.9496,0,10.7727,4.8232,10.7727,10.7727S108.4236,180.6502,102.474,180.6502z"/>
	
		<rect x="167.2911" y="131.7365" transform="matrix(0.0144 -0.9999 0.9999 0.0144 -8.46 339.7715)" fill="#E6E6E6" width="1.6576" height="84.8812"/>
	<path fill="#E6E6E6" d="M214.1255,178.5947c-1.5863,0.0012-3.0345-0.9022-3.731-2.3274l0,0
		c-1.0028-2.0567-0.1485-4.537,1.9083-5.5399c2.0568-1.0028,4.5371-0.1485,5.5399,1.9083c1.0028,2.0567,0.1485,4.537-1.9084,5.5399
		C215.3708,178.4503,214.7524,178.5937,214.1255,178.5947z M214.1171,171.9645c-1.3733,0.0013-2.4854,1.1156-2.4841,2.489
		c0.0004,0.3767,0.0863,0.7485,0.2513,1.087l0,0c0.603,1.2324,2.0909,1.7428,3.3233,1.1396
		c1.2324-0.603,1.7426-2.0909,1.1396-3.3233C215.9306,172.5052,215.0653,171.965,214.1171,171.9645z"/>
	
		<rect x="149.0609" y="87.819" transform="matrix(0.0144 -0.9999 0.9999 0.0144 17.4853 278.258)" fill="#E6E6E6" width="1.6576" height="84.8812"/>
	<path fill="#E6E6E6" d="M195.8948,134.6752c-1.5862,0.0012-3.0343-0.9019-3.731-2.3269l0,0
		c-1.004-2.0573-0.1501-4.5389,1.9072-5.5428c2.0572-1.004,4.5388-0.1502,5.5428,1.907s0.1501,4.5389-1.9072,5.5429
		C197.1422,134.5306,196.5227,134.6742,195.8948,134.6752z M193.6536,131.6215c0.6019,1.2336,2.0897,1.7457,3.3233,1.1438
		c1.2336-0.6019,1.7457-2.0897,1.1438-3.3233c-0.6019-1.2336-2.0897-1.7457-3.3233-1.1438c-0.5922,0.2889-1.0453,0.8011-1.26,1.424
		C193.3229,130.3456,193.3646,131.0287,193.6536,131.6215z"/>
	<path fill="#E6E6E6" d="M114.0753,96.9544H70.1557c-5.9496,0-10.7727-4.8232-10.7727-10.7727
		c0-5.9496,4.8232-10.7727,10.7727-10.7727h43.9196c5.9496,0,10.7727,4.8232,10.7727,10.7727
		C124.8481,92.1313,120.0249,96.9544,114.0753,96.9544z"/>
	
		<rect x="182.2061" y="46.3872" transform="matrix(0.0144 -0.9999 0.9999 0.0144 91.5806 270.5646)" fill="#E6E6E6" width="1.6576" height="84.8812"/>
	<path fill="#E6E6E6" d="M229.0416,93.2416c-1.5862,0.0012-3.0343-0.9019-3.731-2.3269l0,0
		c-1.004-2.0572-0.1501-4.5389,1.9072-5.5428c2.0573-1.004,4.5388-0.1501,5.5428,1.907c1.004,2.0573,0.1502,4.5389-1.9071,5.5429
		C230.2891,93.0971,229.6695,93.2406,229.0416,93.2416z M226.8004,90.1879c0.6019,1.2336,2.0898,1.7457,3.3233,1.1438
		c1.2336-0.6019,1.7457-2.0898,1.1438-3.3233c-0.6019-1.2336-2.0897-1.7457-3.3233-1.1438c-0.5922,0.2889-1.0453,0.8011-1.26,1.424
		C226.4697,88.9121,226.5115,89.5953,226.8004,90.1879z"/>
	
		<rect x="494.4978" y="82.1695" transform="matrix(0.0144 -0.9999 0.9999 0.0144 363.5969 618.0906)" fill="#3F3D56" width="1.6575" height="84.8807"/>
	<path fill="#3F3D56" d="M449.3636,128.5034c-2.2924,0.0053-4.1548-1.8487-4.1602-4.1411c-0.0053-2.2924,1.8487-4.155,4.1411-4.1602
		s4.1549,1.8487,4.1602,4.1411c0.0037,1.5894-0.9007,3.0413-2.3287,3.739C450.6116,128.358,449.9919,128.5021,449.3636,128.5034z
		 M449.3581,121.8704c-1.3741,0-2.488,1.1138-2.488,2.4878c-0.0001,1.374,1.1137,2.488,2.4878,2.488
		c1.3741,0.0001,2.488-1.1138,2.4882-2.4878c0-0.3777-0.086-0.7505-0.2515-1.0901v-0.0005
		C451.1767,122.4136,450.3091,121.8713,449.3581,121.8704L449.3581,121.8704z"/>
	<path fill="#F56539" d="M602.9911,223.7411h-43.9197c-5.9496,0-10.7726-4.8232-10.7726-10.7727s4.8231-10.7727,10.7726-10.7727
		h43.9197c5.9495,0,10.7726,4.8232,10.7726,10.7727S608.9408,223.7411,602.9911,223.7411z"/>
	
		<rect x="494.498" y="167.5189" transform="matrix(0.0144 -0.9999 0.9999 0.0144 278.2566 702.2112)" fill="#3F3D56" width="1.6575" height="84.8807"/>
	<path fill="#3F3D56" d="M449.3633,213.8562c-2.2888,0.0023-4.1462-1.8514-4.1485-4.1403
		c-0.0022-2.2888,1.8514-4.1462,4.1403-4.1484c1.586-0.0015,3.0338,0.9022,3.7292,2.3278l0,0
		c1.002,2.0593,0.1448,4.541-1.9144,5.543C450.6069,213.7121,449.9893,213.855,449.3633,213.8562z M449.3581,207.2235
		c-1.3741-0.0002-2.4882,1.1135-2.4884,2.4877c-0.0002,1.3741,1.1135,2.4883,2.4877,2.4884
		c1.3741,0.0001,2.4882-1.1136,2.4884-2.4877c0-0.3776-0.0859-0.7504-0.2512-1.09l0,0
		C451.1771,207.7671,450.3093,207.2244,449.3581,207.2235z"/>
	<path fill="#FFB6B6" d="M340.2777,223.6406c2.0996-1.6853,2.4354-4.7538,0.7501-6.8534c-0.1634-0.2034-0.3426-0.3933-0.5362-0.568
		l7.8928-22.9808l-5.8197-3.746l-9.1748,27.3631c-1.6479,2.1244-1.2615,5.1825,0.8629,6.8303
		C336.0303,225.0649,338.5211,225.0461,340.2777,223.6406L340.2777,223.6406z"/>
	<path fill="#F56539" d="M347.0135,160.2336c-1.3941,5.8968-3.4748,11.0478-3.1929,13.5214
		c0.2789,2.467-2.7357,4.8374-1.7776,6.7874c0.9561,1.9549-1.9873,2.1641-1.1914,5.3101c0.7988,3.1529,1.3177,3.8271,0.6434,4.346
		c-0.6791,0.517-4.267,12.5505-4.267,12.5505l2.1045,0.7713l6.1408,2.2402l14.4307-23.7351l-0.0437-29.1336l-3.5831-0.115
		c-0.8603,0.3225-1.813,0.7095-2.7635,1.1759C350.6112,155.3542,347.675,157.4253,347.0135,160.2336z"/>
	<polygon fill="#FFB6B6" points="400.1524,345.0918 407.6568,345.0918 411.2268,316.1472 400.1507,316.1472 	"/>
	<path fill="#2F2E41" d="M410.1536,345.7676v-5.0873l-1.9728,0.1206l-8.0307,0.4757l-1.8586,0.1142l-1.4209,17.0381l-0.0761,0.9135
		h5.3284l0.1713-0.9071l0.7738-4.1232l1.9983,4.1232l0.4377,0.9071h14.1266c1.7495-0.0111,3.1641-1.4285,3.1717-3.1781
		C423.3986,353.3796,411.6506,347.3597,410.1536,345.7676z"/>
	<polygon fill="#FFB6B6" points="312.2363,336.9236 318.7637,340.6269 336.1525,317.2136 326.5192,311.7486 	"/>
	<path fill="#2F2E41" d="M320.6049,342.4438l2.5056-4.4213l-1.7634-0.869l-7.2251-3.5458l-1.6747-0.8246l-8.2273,12.046
		l-1.9348,2.829l2.1884,1.2433l2.4422,1.3891l3.3111-3.9074l-0.3679,5.5758l11.5385,6.5526h0.0064l0.7422,0.4186
		c1.5258,0.8621,3.4616,0.3256,4.3261-1.1989C328.3629,355.5997,321.1187,344.5751,320.6049,342.4438z"/>
	<path fill="#2F2E41" d="M362.9115,203.0079c-10.0559,6.6636-20.0107,70.6843-17.3982,69.6391l-23.702,44.1723l12.1148,8.1907
		l43.8039-70.0899l14.5611,31.0063l6.0132,47.5922l15.0832-1.0774c-3.9193-53.6163-13.705-110.1649-21.8146-132.0388
		L362.9115,203.0079z"/>
	<path fill="#F56539" d="M355.2765,207.7624l-0.1094,0.4116c10.6309,5.9147,39.7297-0.9364,39.7297-0.9364l-4.69-15.1122
		l6.3316-33.5718c-0.0342-5.4195-4.4554-9.7852-9.8748-9.751c-0.2227,0.0014-0.4452,0.0103-0.6672,0.027l-7.6395-5.6593
		l-10.8757,0.3753l-7.2747,8.0356l-4.3461,1.5529l-3.3768,1.2038c-0.6827,0.6148-1.4278,1.3237-2.1418,2.1053l5.3415,31.7881
		l2.2721,9.5051L355.2765,207.7624z"/>
	<circle fill="#FFB6B6" cx="372.9294" cy="127.9551" r="13.9543"/>
	<path fill="#2F2E41" d="M354.5814,123.0938c0.0417,0.0158,0.0781,0.0315,0.1198,0.0473c0.0795,0.0352,0.1612,0.065,0.2447,0.0892
		c0.5322,0.1954,1.0869,0.3229,1.651,0.3794c0.2406,0.026,0.4823,0.0388,0.7243,0.0382c0.3103,0.0011,0.6202-0.019,0.9277-0.0602
		c0.3421-0.0419,0.6803-0.1108,1.0115-0.2058c0.1572-0.0421,0.3121-0.0922,0.4641-0.15c2.1001-0.746,3.7286-2.4337,4.3993-4.5591
		v-0.0052c0.0353-0.1025,0.0651-0.2068,0.0893-0.3124c0.1549-0.5866,0.2334-1.1906,0.2338-1.7973v-0.0105
		c0.0039-1.4794-0.4572-2.9225-1.3184-4.1254c-0.5192-0.7361-1.119-0.8591-0.7826-1.7008c1.0734-2.685-3.318-4.8798-5.9106-3.6993
		c-0.0935-0.0089-0.1875-0.0127-0.2814-0.0112c-1.7457-0.0044-2.3932,2.5734-3.4339,4.0248l0.0302,0.0099
		c0.6982,0.2445,1.066,1.0086,0.8217,1.7069c-0.1367,0.3906-0.4463,0.696-0.8387,0.8274c-0.6929,0.2257-1.393,0.4251-2.1003,0.5982
		C348.3003,116.933,350.9745,124.993,354.5814,123.0938z"/>
	<path fill="#2F2E41" d="M355.8655,130.4814c0.6636,2.9848,2.2547,5.6831,4.5454,7.7084c2.361,1.9081,13.4651,6.4282,14.4025,2.5586
		c-0.627,2.703-0.2492,3.7358,0.7593,4.7023c0.1726-0.234,0.3555-0.4577,0.5437-0.6761c0.693-0.7985,1.5244-1.4655,2.4542-1.9688
		c0.0241,1.6328-0.0934,3.2643-0.351,4.8768c0.4155,0.3834,0.8111,0.7879,1.185,1.212c1.7957-5.3525,5.732-11.7635,2.8822-16.6373
		c-1.131-1.9342-0.1879-2.1991,0.8138-2.4211c1.7488-0.3875,2.7132-7.5649,3.1294-9.3096c0.5163-2.1874,0.7207-4.7039-0.6349-6.5
		c-1.3556-1.7961-4.7843-1.8725-5.4777,0.2675l-1.4438-1.963c-1.8657-4.1059-6.8183-3.2847-11.2961-2.754
		c-4.5407,0.6878-8.4498,3.5715-10.4471,7.707C355.0079,121.414,354.6299,126.0965,355.8655,130.4814L355.8655,130.4814z"/>
	<path fill="#F56539" d="M362.9245,111.7258c0.1943,5.0612-2.6512,9.7499-7.2307,11.9138
		c-0.9097,0.4122-1.7018-0.9368-0.7855-1.3519c4.0938-1.8884,6.6424-6.0615,6.4529-10.5659
		C361.309,110.7164,362.8726,110.7234,362.9245,111.7258L362.9245,111.7258z"/>
	<path fill="#FFB6B6" d="M425.9497,119.4459c-2.5943,0.7201-4.1136,3.4068-3.3937,6.0012c0.0697,0.2512,0.1595,0.4967,0.2686,0.7335
		l-16.3209,18.0011l3.8692,5.7386l19.2284-21.5218c2.3525-1.3017,3.2043-4.264,1.9026-6.6165
		C430.4147,119.8135,428.1185,118.8477,425.9497,119.4459L425.9497,119.4459z"/>
	<path fill="#F56539" d="M379.5563,177.8449c0,0,11.5757,2.0788,15.1832-2.794c3.6075-4.8729,7.552-8.7815,8.2696-11.1633
		s4.4213-3.3661,4.3118-5.5385c-0.1095-2.1724,2.6806-1.2019,3.1889-4.4107c0.5083-3.2088,0.2991-4.0359,1.1261-4.2451
		c0.8271-0.2093,8.869-9.848,8.869-9.848l-6.3862-6.0216l-22.6238,16.1147L379.5563,177.8449z"/>
	<path fill="#F2F2F2" d="M292.4945,353.2654c-9.0835-1.0815-17.1935-6.2053-22.071-13.9441
		c-3.1317-5.0789-4.7477-11.1105-6.3105-16.9435c-0.455-1.6975-0.9252-3.4527-1.4232-5.1448
		c-1.1519-3.783,0.1136-7.8862,3.196-10.3634c2.9799-2.4978,7.1798-2.9312,10.607-1.0947l0.3656,0.1939l0.6407,14.402
		c0.9495-1.9294,3.033-6.2881,4.6838-10.6404l0.1384-0.3645l0.3163,0.2284c3.3187,2.3842,6.3239,5.1769,8.9449,8.312
		c9.3669,11.3873,13.2505,26.3184,10.6193,40.8265l-0.0797,0.4269L292.4945,353.2654z"/>
	<path fill="#CCCCCC" d="M233.7671,359.0139c-0.0017,0.543,0.4373,0.9845,0.9802,0.9861h240.5608
		c0.5446,0,0.9861-0.4415,0.9861-0.9861c0-0.5446-0.4415-0.9862-0.9861-0.9862h-240.555c-0.543-0.0016-0.9845,0.4373-0.9862,0.9803
		v0.0058H233.7671z"/>
</g>
</svg>
