<?xml version="1.0" encoding="utf-8"?>
<!-- Generator: Adobe Illustrator 26.0.1, SVG Export Plug-In . SVG Version: 6.00 Build 0)  -->
<svg version="1.1" id="Layer_1" xmlns="http://www.w3.org/2000/svg" xmlns:xlink="http://www.w3.org/1999/xlink" x="0px" y="0px"
	 viewBox="0 0 572 572" enable-background="new 0 0 572 572" xml:space="preserve">
<path fill="#004663" d="M325.007,242.86l7.255-2.352l-18.19-56.1l-7.255,2.352L325.007,242.86z"/>
<path fill="#FFFFFF" d="M325.006,242.86l7.255-2.353l-0.472,10.907L325.006,242.86z"/>
<path d="M331.788,251.414l0.222-5.124l-3.408,1.105L331.788,251.414z"/>
<path fill="#006996" d="M358.431,342.907v-7.587h9.283v-5.195h-101.87v17.977h101.87v-5.195H358.431z"/>
<path fill="#FFFFFF" d="M360.596,335.32h-79.727v7.585h79.727V335.32z"/>
<path fill="#009FE3" d="M346.179,325.244v-7.125h4.648v-4.881H286v16.888h64.827v-4.882H346.179z"/>
<path fill="#FFFFFF" d="M346.18,318.119h-55.071v7.125h55.071V318.119z"/>
<path fill="#006996" d="M360.453,299.619l-2.297,1.422l1.824,3.034l-8.857,5.258l-1.788-2.831l-2.321,1.436l23.604,37.986
	l13.439-8.317L360.453,299.619z"/>
<path fill="#FFFFFF" d="M359.98,304.074l0.003,0.003l-8.86,5.255l19.045,30.648l8.756-5.419L359.98,304.074z"/>
<path fill="#004663" d="M440.684,361.879v-16.108H254.001v16.108H440.684z"/>
<path fill="#818181" d="M448.735,266.271h-16.104v239.814h16.104V266.271z"/>
<path fill="#818181" d="M339.08,266.271h-16.103v239.814h16.103V266.271z"/>
<path fill="#004663" d="M482.58,274.325v-16.108H186.851v16.108H482.58z"/>
<path fill="#818181" d="M482.582,506.084v-16.107H199.81v16.107H482.582z"/>
<path d="M214.756,506.084v-16.107h-20.943v16.107H214.756z"/>
<path d="M491.375,506.085v-16.108h-20.943v16.108H491.375z"/>
<path d="M381.466,421.166v51.689h-18.111v-33.62C363.355,429.256,371.464,421.166,381.466,421.166z"/>
<path d="M499.957,421.166v51.689h18.111v-33.62C518.068,429.256,509.96,421.166,499.957,421.166z"/>
<path d="M462.893,329.399h-7.672v-18.602c0-7.951-6.483-14.419-14.453-14.419c-7.969,0-14.451,6.468-14.451,14.419v18.602h-7.672
	v-18.602c-0.004-12.171,9.922-22.072,22.122-22.072s22.126,9.901,22.126,22.072V329.399z"/>
<path fill="#006996" d="M506.084,472.854H375.451v-87.24c0-35.986,29.243-65.161,65.318-65.161
	c36.072,0,65.317,29.173,65.317,65.161v87.24H506.084z"/>
<path fill="#009FE3" d="M444.587,373.742h-7.639c-20.201,0-36.579,16.337-36.579,36.491v44.112h80.795v-44.112
	C481.165,390.079,464.788,373.742,444.587,373.742z"/>
<path d="M440.769,393.08c9.074,0,16.429-7.338,16.429-16.389c0-9.052-7.355-16.39-16.429-16.39c-9.074,0-16.429,7.338-16.429,16.39
	C424.34,385.742,431.695,393.08,440.769,393.08z"/>
<path fill="#818181" d="M131.698,358.449H115.51v141.318h16.188V358.449z"/>
<path fill="#818181" d="M25.13,232.826v114.325c0,10.413,8.422,18.863,18.83,18.893l81.309,0.23v16.195l-86.514-0.244
	c-16.48-0.045-29.815-13.426-29.815-29.913l0.002-119.486H25.13z"/>
<path fill="#004663" d="M51.769,366.217l-0.124-16.196l110.417,0.33v16.195L51.769,366.217z"/>
<path fill="#004663" d="M41.092,318.206l-16.188,0.124l0.329-108.053h16.188L41.092,318.206z"/>
<path fill="#818181" d="M62.702,505.755l-0.124-16.194l118.741,0.327v16.196L62.702,505.755z"/>
<path d="M186.311,505.92v-16.195h-21.052v16.195H186.311z"/>
<path d="M81.949,505.92v-16.195H60.897v16.195H81.949z"/>
<path d="M24.905,232.826H8.717v21.062h16.188V232.826z"/>
<path d="M465.898,170.961l-19.939,57.986l6.743,2.31l19.939-57.986L465.898,170.961z"/>
<path d="M447.557,147.663l-4.842,5.224l22.499,20.78l4.842-5.224L447.557,147.663z"/>
<path d="M453.647,238.816h-7.129v14.734h7.129V238.816z"/>
<path d="M443.909,146.252h-21.466v7.116h21.466V146.252z"/>
<path fill="#009FE3" d="M457.55,252.602h-69.638v5.616h69.638V252.602z"/>
<path fill="#006996" d="M428.015,139.114c-3.933-4.311-10.62-4.626-14.934-0.701l-14.555,13.236l14.245,15.611l14.555-13.237
	C431.639,150.101,431.948,143.425,428.015,139.114z"/>
<path fill="#009FE3" d="M415.384,164.865l-14.226-15.589c-11.167-5.841-25.242-4.485-35.093,4.474l-0.331,0.301l41.595,45.582
	l0.331-0.302C417.512,190.373,420.172,176.509,415.384,164.865z"/>
<path fill="#006996" d="M457.55,226.957h-15.335v14.891h15.335V226.957z"/>
<path fill="#009FE3" d="M444.555,156.644c3.78,0,6.845-3.059,6.845-6.833c0-3.773-3.065-6.832-6.845-6.832
	c-3.781,0-6.846,3.059-6.846,6.832C437.709,153.585,440.774,156.644,444.555,156.644z"/>
<path fill="#009FE3" d="M469.275,178.943c3.781,0,6.846-3.059,6.846-6.833s-3.065-6.833-6.846-6.833
	c-3.78,0-6.845,3.059-6.845,6.833S465.495,178.943,469.275,178.943z"/>
<path fill="#818181" d="M367.17,252.225h-71.363v5.447h71.363V252.225z"/>
<path fill="#FFFFFF" d="M441.256,307.245c3.009,0,5.448-2.439,5.448-5.448c0-3.008-2.439-5.447-5.448-5.447
	c-3.008,0-5.447,2.439-5.447,5.447C435.809,304.806,438.248,307.245,441.256,307.245z"/>
<path d="M198.871,202.652c-5.822-14.384-4.879-28.324-4.879-28.324s10.381,9.382,16.202,23.766
	c5.82,14.384,4.879,28.324,4.879,28.324S204.692,217.036,198.871,202.652z"/>
<path d="M240.872,204.26c-7.963,13.324-19.663,21.007-19.663,21.007s1.211-13.92,9.175-27.243s19.663-21.006,19.663-21.006
	S248.835,190.937,240.872,204.26z"/>
<path d="M221.03,167.455c3.354-12.576,11.023-21.459,11.023-21.459s2.231,11.508-1.123,24.085
	c-3.353,12.577-11.023,21.46-11.023,21.46S217.675,180.031,221.03,167.455z"/>
<path d="M209.125,169.763c-2.538-8.048-1.429-15.566-1.429-15.566s5.226,5.53,7.764,13.578c2.538,8.048,1.429,15.566,1.429,15.566
	S211.664,177.811,209.125,169.763z"/>
<path d="M218.043,234.792c-0.905-22.832,2.016-47.634,2.045-47.882l0.853,0.101c-0.03,0.248-2.943,24.984-2.041,47.748
	L218.043,234.792z"/>
<path d="M217.994,233.245c-1.872-5.892-4.434-8.634-4.459-8.661l0.622-0.59c0.109,0.115,2.718,2.893,4.655,8.992L217.994,233.245z"
	/>
<path d="M218.843,233.3l-0.771-0.376c0.331-0.674,3.17-8.227,4.625-12.127l0.805,0.299
	C223.329,221.557,219.275,232.42,218.843,233.3z"/>
<path d="M219.095,197.074c-0.009-5.121-3.182-15.284-3.214-15.386l0.819-0.256c0.132,0.422,3.244,10.39,3.253,15.641
	L219.095,197.074z"/>
<path fill="#009FE3" d="M224.932,259.852h-12.474c-4.821,0-8.861-3.631-9.352-8.405l-3.432-27.242h37.553l-2.93,27.106
	C233.871,256.144,229.805,259.852,224.932,259.852z"/>
<path d="M239.697,222.809h-42.492v2.793h42.492V222.809z"/>
</svg>
