<?xml version="1.0" encoding="utf-8"?>
<!-- Generator: Adobe Illustrator 26.0.1, SVG Export Plug-In . SVG Version: 6.00 Build 0)  -->
<svg version="1.1" id="Layer_1" xmlns="http://www.w3.org/2000/svg" xmlns:xlink="http://www.w3.org/1999/xlink" x="0px" y="0px"
	 viewBox="0 0 640 360" enable-background="new 0 0 640 360" xml:space="preserve">
<g>
	<path fill="#FFB6B6" d="M267.3652,157.6752c0,0,6.6459,6.8677,7.2359,10.7397l-5.7816,3.3298l-6.6729-11.6937l-3.5194-15.6097
		c-1.0347-1.0359-1.0338-2.7144,0.0021-3.7492c1.0359-1.0347,2.7144-1.0338,3.7492,0.0021
		c0.6837,0.6845,0.9403,1.6871,0.6694,2.6159L267.3652,157.6752z"/>
	<path fill="#FFB6B6" d="M329.0057,141.2077c-0.3576-1.4198,0.5035-2.8607,1.9233-3.2182c1.4198-0.3576,2.8607,0.5035,3.2182,1.9234
		c0.2363,0.9382-0.0573,1.9306-0.7659,2.5892l-4.096,15.4684l-7.1021,11.4381l-5.654-3.542
		c0.7333-3.8474,7.6293-10.4639,7.6293-10.4639L329.0057,141.2077z"/>
	<path fill="#E6E6E6" d="M223.6893,197.3137c-0.0416-9.1165,3.4573-17.7088,7.3464-25.793
		c4.0187-8.3537,8.5936-16.549,10.8646-25.6061c1.3261-4.9874,1.6487-10.1885,0.9489-15.3015
		c-0.1372-0.9116-1.5225-0.5242-1.386,0.3821c1.3926,9.2508-1.6175,18.464-5.3659,26.8072
		c-3.7171,8.2736-8.3509,16.144-11.251,24.7718c-1.668,4.7375-2.5446,9.7173-2.5944,14.7396
		c0.0138,0.3969,0.3467,0.7076,0.7436,0.6938C223.3731,197.9944,223.6762,197.6913,223.6893,197.3137L223.6893,197.3137z"/>
	<path fill="#E6E6E6" d="M265.4629,200.3726c-0.3073-3.8807,2.4324-7.1186,5.6662-8.9c4.1037-2.2607,9.0706-2.0664,13.6057-1.9321
		c4.6525,0.1858,9.3122-0.0358,13.9261-0.6622c22.0999-3.2113,41.3354-16.7881,51.7636-36.5358
		c4.2652-8.0751,7.2679-17.3855,6.0687-26.6072c-0.145-1.1213-0.3514-2.2338-0.6185-3.3325
		c-0.2189-0.8983-1.6054-0.5179-1.386,0.3821c2.2331,9.1613-0.3269,18.7572-4.3861,27.0274
		c-3.731,7.5815-8.8203,14.4148-15.0153,20.1612c-6.4878,6.018-14.0886,10.711-22.3754,13.8154
		c-4.3036,1.6092-8.7551,2.7907-13.2903,3.5274c-4.5967,0.7111-9.2507,0.9824-13.8989,0.8102
		c-4.6212-0.1345-9.5187-0.3783-13.8618,1.492c-3.399,1.4637-6.5543,4.363-7.4299,8.069c-0.2075,0.8789-0.2768,1.7848-0.2055,2.6851
		C264.0981,201.2886,265.536,201.2964,265.4629,200.3726L265.4629,200.3726z"/>
	<path fill="#F56539" d="M411.8553,67.5117c-1.6913-0.7618-3.3539-1.4949-4.9445-2.1704c-0.2396-0.1006-0.4791-0.206-0.7187-0.3066
		l-0.0287-0.0144c-1.4326-0.6133-2.8683-1.2138-4.3073-1.8015c-1.0062-0.4121-2.0075-0.8193-3.0137-1.217
		c-0.3929-0.1629-0.7858-0.3162-1.1834-0.4695c-0.6372-0.2539-1.2793-0.5031-1.9165-0.7522
		c-0.527-0.206-1.0589-0.4073-1.5859-0.6085c-0.6085-0.2348-1.217-0.46-1.8207-0.6899c-0.7187-0.2683-1.4358-0.5334-2.1512-0.7953
		c-0.0073-0.0039-0.0157-0.0055-0.024-0.0048c-0.5414-0.2012-1.0828-0.3977-1.6194-0.5893
		c-7.2875-2.6256-14.6803-4.9733-21.9821-6.9808c-0.2635-0.0719-0.527-0.1437-0.7906-0.2156
		c-0.4552-0.1246-0.9103-0.2491-1.3655-0.3737c-0.805-0.2156-1.6131-0.4264-2.4244-0.6324
		c-0.7618-0.2012-1.5284-0.3929-2.295-0.5845c-0.6755-0.1677-1.3511-0.3354-2.0315-0.4983c-0.666-0.1629-1.332-0.321-2.0027-0.4743
		c-1.998-0.4696-3.9927-0.9135-5.9843-1.332c-0.014-0.004-0.0286-0.0056-0.0431-0.0048c-0.4791-0.1054-0.9535-0.206-1.4326-0.3018
		c-7.2731-1.4901-14.6707-2.6879-21.9869-3.5647c-0.3593-0.0431-0.7187-0.0862-1.078-0.1246h-0.0096
		c-0.0623-0.0096-0.1294-0.0144-0.1917-0.0192c-0.6037-0.0719-1.2074-0.1389-1.8111-0.2012
		c-0.7953-0.0862-1.5859-0.1677-2.3812-0.2443c-1.883-0.1869-3.7627-0.3498-5.6393-0.4887
		c-0.4743-0.0383-0.9438-0.0719-1.4134-0.1006c-0.5414-0.0431-1.0828-0.0767-1.6194-0.1102
		c-0.5558-0.0383-1.1116-0.0719-1.6674-0.1006c-0.2108-0.0144-0.4168-0.024-0.6228-0.0335
		c-0.2587-0.0192-0.5223-0.0287-0.781-0.0431c-0.3881-0.0192-0.7762-0.0383-1.1643-0.0575
		c-7.3018-0.3498-14.6947-0.3785-21.9773-0.0862c-0.4025,0.0144-0.8049,0.0335-1.2122,0.0527h-0.0144
		c-0.2922,0.0144-0.5845,0.024-0.8816,0.0383c-0.1054,0.0048-0.2156,0.0096-0.321,0.0144c-0.7235,0.0383-1.447,0.0767-2.1704,0.1198
		c-0.7714,0.0431-1.538,0.091-2.3046,0.1437c-0.4839,0.0335-0.963,0.0671-1.4421,0.1006c-0.3162,0.024-0.6324,0.0479-0.9535,0.0719
		c-2.0027,0.1533-4.0055,0.3306-5.9938,0.5318c-0.666,0.0671-1.3271,0.1342-1.9883,0.206
		c-0.3689,0.0383-0.7331,0.0767-1.0972,0.1198c-7.3018,0.8241-14.6995,1.9884-21.9821,3.4545
		c-0.4791,0.0958-0.963,0.1964-1.4469,0.2971c-0.0096,0-0.0192,0.0048-0.0287,0.0048c-0.0719,0.0144-0.1485,0.0287-0.2204,0.0479
		c-0.4983,0.1006-1.0014,0.206-1.4996,0.3162c-0.551,0.115-1.0972,0.2348-1.6482,0.3546c-0.46,0.1006-0.9199,0.206-1.3799,0.3114
		c-1.0828,0.2444-2.1704,0.4935-3.2532,0.757c-2.204,0.5271-4.4063,1.0844-6.6071,1.6721
		c-0.4983,0.1342-1.0014,0.2683-1.5045,0.4073c-0.0037,0.0004-0.0071,0.0021-0.0096,0.0048
		c-0.2587,0.0671-0.5222,0.1389-0.781,0.2108c-7.2827,2.0027-14.6755,4.3696-21.9773,7.0431
		c-0.5366,0.1964-1.0732,0.3929-1.6146,0.5989c-0.0132,0.0009-0.0262,0.0042-0.0383,0.0096
		c-1.4517,0.5414-2.9115,1.0972-4.3792,1.6673c-0.5318,0.2108-1.0685,0.4216-1.6051,0.6324
		c-0.5174,0.206-1.0397,0.412-1.5571,0.6229c-0.4552,0.1821-0.9055,0.3641-1.3607,0.551c-0.3641,0.1485-0.7235,0.2971-1.0876,0.4456
		c-1.2457,0.5175-2.4898,1.0413-3.7324,1.5715c-0.7522,0.3258-1.5092,0.6516-2.2615,0.9822
		c-0.2444,0.1054-0.4935,0.2108-0.7379,0.321c-1.8111,0.8002-3.4593,1.5428-5.0404,2.2758c-3.4379,1.59-5.6428,5.0281-5.6536,8.8158
		v16.9082c0,5.355,4.341,9.6961,9.696,9.6961c0.9232,0,1.8417-0.1318,2.7277-0.3916c0.7139-0.2108,1.4278-0.4216,2.1465-0.6324
		c0.5989-0.1773,1.2026-0.3498,1.8015-0.5222c0.6564-0.1869,1.308-0.3737,1.9644-0.5606c1.4996-0.4168,3.0089-0.8337,4.5181-1.2361
		c0.7043-0.1869,1.4086-0.3737,2.1129-0.5606c1.1068-0.2923,2.2135-0.575,3.3203-0.8576c0.3066-0.0767,0.6133-0.1533,0.9199-0.23
		c4.8152-1.2074,9.6543-2.3285,14.4551-3.3443c0.4935-0.1054,0.987-0.206,1.4757-0.3066c2.0171-0.4216,4.023-0.8209,6.0178-1.1978
		l1.4374-0.2731h0.0144c0.4695-0.091,0.9391-0.1773,1.4086-0.2635c1.3128-0.2396,2.6336-0.4727,3.9623-0.6995
		c0.7618-0.1341,1.5284-0.2635,2.295-0.3881c0.0767-0.0144,0.1533-0.0287,0.23-0.0383c1.3224-0.2204,2.6479-0.4328,3.9767-0.6372
		c0.9008-0.1389,1.8063-0.2779,2.7118-0.4073c0.7714-0.115,1.5428-0.2252,2.3141-0.3354
		c7.3114-1.0253,14.6947-1.8446,21.9486-2.4196c0.6277-0.0527,1.2553-0.1006,1.883-0.1485c2.4339-0.1821,4.8871-0.345,7.3449-0.4791
		c3.0376-0.1629,6.0848-0.2923,9.1177-0.3833c7.2827-0.2252,14.6659-0.2252,21.9438,0c3.0376,0.091,6.0848,0.2204,9.1225,0.3833
		c2.4579,0.1342,4.911,0.2971,7.3449,0.4791c0.6277,0.0479,1.2553,0.0958,1.883,0.1485c7.2491,0.575,14.6324,1.3895,21.9533,2.4196
		c0.3498,0.0479,0.6947,0.1006,1.0445,0.1485c0.1246,0.0192,0.2444,0.0335,0.3689,0.0527c0.5318,0.0767,1.0636,0.1581,1.5955,0.2348
		c1.9979,0.2971,3.9943,0.6117,5.989,0.9439c0.5127,0.0815,1.0253,0.1677,1.5332,0.2539c1.0972,0.1869,2.1896,0.3769,3.2772,0.5702
		c0.6324,0.115,1.2601,0.23,1.8878,0.345c0.3977,0.0719,0.8001,0.1437,1.1978,0.2204c0.4839,0.091,0.9678,0.1821,1.447,0.2731
		c0.7906,0.1485,1.5811,0.3018,2.3764,0.46c0.4983,0.1006,1.0014,0.1964,1.5045,0.3018c5.3614,1.078,10.7755,2.2902,16.1656,3.6126
		c0.5606,0.1389,1.1211,0.2779,1.6817,0.4168c0.0767,0.0192,0.1485,0.0383,0.2252,0.0575c0.5797,0.1437,1.1595,0.2923,1.7392,0.4408
		c0.8289,0.2108,1.6593,0.4264,2.4914,0.6468c0.7043,0.1821,1.4086,0.3689,2.1129,0.5606c2.1752,0.5797,4.3504,1.1834,6.5113,1.8015
		c1.3176,0.3785,2.6288,0.7618,3.9336,1.1499h0.0096c0.5199,0.154,1.0521,0.263,1.5907,0.3258
		c0.3815,0.0478,0.7655,0.0718,1.1499,0.0719c5.3484-0.0112,9.676-4.3539,9.6687-9.7022V76.3707
		C417.5997,72.5433,415.3481,69.0768,411.8553,67.5117z"/>
	<path fill="#3F3D56" d="M204.817,58.5761c-0.381-0.2642-0.8655-0.3301-1.3032-0.1773c-0.0132,0.0009-0.0262,0.0042-0.0383,0.0096
		c-1.4517,0.5414-2.9115,1.0972-4.3792,1.6673c-0.5318,0.2108-1.0685,0.4216-1.6051,0.6324
		c-0.5174,0.206-1.0397,0.412-1.5571,0.6229c-0.4552,0.1821-0.9055,0.3641-1.3607,0.551c-0.3641,0.1485-0.7235,0.2971-1.0876,0.4456
		c-1.2457,0.5174-2.4899,1.0413-3.7324,1.5715c-0.7522,0.3258-1.5092,0.6516-2.2614,0.9822
		c-0.5356,0.2333-0.8819,0.7621-0.8816,1.3463v34.8657c-0.0019,0.4666,0.2188,0.9062,0.5941,1.1834
		c0.1175,0.0862,0.2466,0.1556,0.3833,0.206c0.289,0.1016,0.6029,0.1083,0.896,0.0192l2.1417-0.6324
		c0.5989-0.1725,1.1978-0.345,1.7967-0.5174c0.6564-0.1869,1.3128-0.3737,1.974-0.5606c1.4996-0.4168,3.0089-0.8337,4.5181-1.2361
		c0.7043-0.1917,1.4086-0.3785,2.1129-0.5606c1.1068-0.2923,2.2135-0.575,3.3203-0.8576c0.2732-0.0698,0.5209-0.216,0.7139-0.4216
		l0.0048-0.0048c0.246-0.2699,0.3827-0.6218,0.3833-0.987V59.7834C205.4498,59.3015,205.2134,58.8502,204.817,58.5761z"/>
	<path fill="#3F3D56" d="M245.2261,46.9717c-0.3312-0.273-0.767-0.3837-1.1882-0.3018c-0.0096,0-0.0192,0.0048-0.0287,0.0048
		c-0.0719,0.0144-0.1485,0.0287-0.2204,0.0479c-0.4983,0.1006-1.0014,0.206-1.4996,0.3162c-0.551,0.115-1.0972,0.2348-1.6482,0.3546
		c-0.46,0.1006-0.9199,0.206-1.3799,0.3114c-1.0828,0.2444-2.1704,0.4935-3.2532,0.757c-2.2088,0.5271-4.4111,1.0844-6.6071,1.6721
		c-0.46,0.1198-0.9247,0.2444-1.3847,0.3689c-0.0406,0.0106-0.0806,0.0234-0.1198,0.0383
		c-0.0037,0.0004-0.0071,0.0021-0.0096,0.0048c-0.5722,0.2163-0.9515,0.7634-0.9535,1.3751v39.427
		c-0.001,0.4351,0.1922,0.848,0.527,1.1259c0.1134,0.0947,0.2412,0.1707,0.3785,0.2252c0.1764,0.0723,0.3651,0.1098,0.5558,0.1102
		c0.0867-0.0008,0.1733-0.0088,0.2587-0.0239h0.0144c0.4695-0.091,0.9391-0.1773,1.4086-0.2635
		c1.3128-0.2396,2.6336-0.4727,3.9623-0.6995c0.7618-0.1342,1.5284-0.2635,2.295-0.3881c0.0767-0.0144,0.1533-0.0287,0.23-0.0383
		c1.3224-0.2204,2.648-0.4328,3.9767-0.6372c0.9008-0.1389,1.8063-0.2779,2.7118-0.4073c0.4216-0.0671,0.8433-0.1246,1.2649-0.1869
		c0.2792-0.0386,0.5408-0.1586,0.7522-0.345c0.3185-0.2778,0.5018-0.6794,0.5031-1.102V48.112
		C245.7727,47.6687,245.5717,47.2493,245.2261,46.9717z"/>
	<path fill="#3F3D56" d="M285.6401,41.9793c-0.2717-0.2583-0.6313-0.4038-1.0061-0.4073h-0.0719
		c-0.2731,0.0144-0.551,0.024-0.8241,0.0383c-0.1054,0.0048-0.2156,0.0096-0.321,0.0144c-0.7235,0.0383-1.447,0.0767-2.1704,0.1198
		c-0.7714,0.0431-1.538,0.091-2.3046,0.1437c-0.4839,0.0335-0.963,0.0671-1.4421,0.1006c-0.3162,0.024-0.6324,0.0479-0.9535,0.0719
		c-2.0027,0.1533-4.0055,0.3306-5.9938,0.5318c-0.666,0.0671-1.3271,0.1342-1.9883,0.206c-0.7458,0.0804-1.3105,0.7112-1.308,1.4613
		v41.7747c-0.0008,0.4063,0.1697,0.7942,0.4695,1.0684c0.0893,0.0844,0.1891,0.1569,0.2971,0.2156
		c0.2149,0.1162,0.4552,0.1771,0.6995,0.1773c0.0335,0,0.0719-0.0048,0.1102-0.0048c0.1869-0.0144,0.3785-0.0287,0.5654-0.0431
		c2.4339-0.1821,4.887-0.345,7.3449-0.4791c2.6496-0.1485,5.2991-0.2635,7.9343-0.3498c0.2851-0.0044,0.5623-0.0945,0.7953-0.2587
		c0.3923-0.2745,0.625-0.7238,0.6228-1.2026V43.0429C286.097,42.6407,285.9322,42.2557,285.6401,41.9793z"/>
	<path fill="#3F3D56" d="M325.1245,43.0046h-0.0096c-0.0623-0.0096-0.1294-0.0144-0.1917-0.0192
		c-0.6037-0.0719-1.2074-0.139-1.8111-0.2012c-0.7953-0.0862-1.5859-0.1677-2.3812-0.2444
		c-1.8829-0.1869-3.7627-0.3498-5.6393-0.4887c-0.4743-0.0383-0.9438-0.0719-1.4134-0.1006
		c-0.5414-0.0431-1.0828-0.0767-1.6194-0.1102c-0.5558-0.0383-1.1115-0.0719-1.6674-0.1006
		c-0.2108-0.0144-0.4168-0.024-0.6228-0.0335c-0.2204-0.0144-0.436-0.0287-0.6516-0.0383c-0.043-0.004-0.0862-0.0056-0.1294-0.0048
		c-0.3569,0.0106-0.6969,0.1542-0.9535,0.4025c-0.2946,0.2771-0.4612,0.664-0.46,1.0684v42.0238
		c-0.0024,0.48,0.2325,0.9302,0.6277,1.2026c0.2313,0.1641,0.507,0.2544,0.7906,0.2587c2.6352,0.0862,5.2847,0.2012,7.9343,0.3498
		c2.4579,0.1342,4.911,0.2971,7.3449,0.4791c0.1869,0.0144,0.3785,0.0287,0.5654,0.0431c0.0383,0,0.0719,0.0048,0.1102,0.0048
		c0.2443-0.0002,0.4847-0.0611,0.6995-0.1773c0.1079-0.0587,0.2078-0.1312,0.2971-0.2156c0.298-0.2755,0.4681-0.6626,0.4695-1.0684
		V44.4611C326.4109,43.7207,325.8592,43.0972,325.1245,43.0046z"/>
	<path fill="#3F3D56" d="M365.7685,50.8957c-0.0376-0.0149-0.076-0.0277-0.115-0.0383c-0.4169-0.115-0.8336-0.2252-1.2505-0.3354
		c-0.8049-0.2156-1.613-0.4264-2.4243-0.6324c-0.7618-0.2012-1.5284-0.3929-2.295-0.5845
		c-0.6755-0.1677-1.3511-0.3354-2.0315-0.4983c-0.666-0.1629-1.332-0.321-2.0027-0.4743c-1.998-0.4696-3.9927-0.9135-5.9842-1.332
		c-0.014-0.004-0.0286-0.0056-0.0432-0.0048c-0.4182-0.0782-0.8495,0.0323-1.1786,0.3018c-0.3456,0.2776-0.5465,0.697-0.5462,1.1403
		v40.2798c0.0009,0.4237,0.1863,0.826,0.5079,1.102c0.2096,0.1863,0.4697,0.3063,0.7474,0.345
		c0.1246,0.0192,0.2444,0.0335,0.3689,0.0527c0.5318,0.0767,1.0636,0.1533,1.5955,0.2348c1.9979,0.2971,3.9943,0.6117,5.989,0.9439
		c0.5127,0.0815,1.0253,0.1677,1.5332,0.2539c1.0972,0.1868,2.1896,0.3769,3.2772,0.5702c0.6324,0.115,1.2601,0.23,1.8878,0.345
		c0.3977,0.0719,0.8001,0.1437,1.1978,0.2204c0.0903,0.0151,0.1815,0.0231,0.2731,0.0239c0.1907,0,0.3795-0.0374,0.5558-0.1102
		c0.1379-0.0534,0.2658-0.1295,0.3785-0.2252c0.3348-0.2779,0.528-0.6908,0.527-1.1259V52.2756
		C366.7352,51.6581,366.3487,51.107,365.7685,50.8957z"/>
	<path fill="#3F3D56" d="M406.192,65.0346l-0.0287-0.0144c-1.4326-0.6133-2.8683-1.2138-4.3073-1.8015
		c-1.0062-0.4121-2.0075-0.8193-3.0137-1.217c-0.3929-0.1629-0.7858-0.3162-1.1834-0.4695
		c-0.6372-0.2539-1.2793-0.5031-1.9165-0.7522c-0.527-0.206-1.0589-0.4073-1.5859-0.6085c-0.6085-0.2348-1.217-0.46-1.8207-0.6899
		c-0.7187-0.2683-1.4358-0.5334-2.1512-0.7953c-0.0073-0.0039-0.0157-0.0055-0.024-0.0048
		c-0.4409-0.1588-0.9317-0.0907-1.3128,0.1821c-0.3933,0.2741-0.6277,0.7232-0.6277,1.2026v36.6576
		c0.0002,0.3043,0.0957,0.6008,0.2731,0.848c0.0341,0.0484,0.0709,0.0948,0.1102,0.139l0.0048,0.0048
		c0.1922,0.2065,0.4402,0.353,0.7139,0.4216c0.2731,0.0671,0.5462,0.139,0.8193,0.2108c0.8289,0.2108,1.6593,0.4264,2.4914,0.6468
		c0.7043,0.1821,1.4086,0.3689,2.1129,0.5606c2.1752,0.5797,4.3504,1.1834,6.5113,1.8015c1.3176,0.3785,2.6288,0.7618,3.9336,1.1499
		h0.0096c0.1324,0.0379,0.2695,0.0572,0.4073,0.0575c0.1615-0.0006,0.3218-0.0281,0.4743-0.0815
		c0.1376-0.0485,0.2669-0.118,0.3833-0.206c0.3724-0.2792,0.5909-0.718,0.5893-1.1834v-34.722
		C407.0557,65.7947,406.7179,65.2712,406.192,65.0346z"/>
	<path fill="#3F3D56" d="M190.6624,101.8979c6.2393,4.2042,12.7539,7.9845,19.3192,11.652
		c7.0233,3.9234,14.1201,7.7137,21.1447,11.6349c7.067,3.9448,14.0714,8.0168,20.8281,12.477
		c6.5702,4.2524,12.782,9.0343,18.5737,14.298c5.485,5.0771,10.453,10.7507,14.3584,17.1402
		c0.4657,0.7619,0.9159,1.5329,1.3504,2.3131c0.451,0.8078,1.6929,0.0838,1.2411-0.7255
		c-3.7195-6.5134-8.3503-12.462-13.7522-17.6658c-5.6487-5.4392-11.7644-10.3716-18.2766-14.7402
		c-6.7125-4.5947-13.7101-8.7582-20.7883-12.7603c-7.0575-3.9904-14.2066-7.8152-21.3012-11.7387
		c-6.6784-3.6933-13.3234-7.4674-19.7205-11.6342c-0.7544-0.4914-1.5048-0.9886-2.2514-1.4919
		C190.6187,100.1385,189.8985,101.3831,190.6624,101.8979L190.6624,101.8979z"/>
	<path fill="#3F3D56" d="M214.9132,85.0308c2.9893,6.7365,6.6621,13.1484,10.9605,19.135
		c4.3991,6.131,9.1044,12.0364,14.0981,17.6936c4.9952,5.7546,10.1401,11.3768,15.1714,17.0995
		c4.9742,5.6576,9.8512,11.4151,14.305,17.4954c4.4196,5.9182,8.2581,12.2488,11.4622,18.9041
		c0.3877,0.8251,0.7625,1.656,1.1244,2.4928c0.3668,0.8465,1.6055,0.1154,1.2411-0.7255
		c-2.9893-6.7365-6.6621-13.1484-10.9605-19.1349c-4.3991-6.131-9.1044-12.0364-14.0981-17.6936
		c-4.9952-5.7546-10.1401-11.3768-15.1714-17.0995c-4.9742-5.6576-9.8512-11.4151-14.305-17.4954
		c-4.4197-5.9181-8.2582-12.2488-11.4621-18.9041c-0.3877-0.8251-0.7625-1.656-1.1244-2.4928
		C215.7875,83.4588,214.5488,84.1899,214.9132,85.0308L214.9132,85.0308z"/>
	<path fill="#3F3D56" d="M390.6159,93.602c-5.4819,5.231-11.2876,10.1118-17.3827,14.6134
		c-6.3244,4.7602-12.8205,9.2861-19.2843,13.8533c-6.4533,4.5599-12.8842,9.1598-19.0806,14.0663
		c-5.9794,4.6383-11.5945,9.728-16.7962,15.2243c-4.8543,5.234-9.2051,10.9984-12.4666,17.3652
		c-0.3922,0.7656-0.7681,1.5392-1.1277,2.3208c-0.3849,0.8343,0.8536,1.5654,1.2411,0.7255
		c3.0347-6.3996,6.9859-12.3227,11.729-17.5826c5.0153-5.5621,10.4824-10.6997,16.3451-15.3602
		c6.091-4.9446,12.4531-9.5439,18.8505-14.0808c6.4689-4.5876,12.9883-9.1061,19.3593-13.8299
		c6.1548-4.4761,12.0534-9.2941,17.668-14.4315c0.6603-0.6156,1.3141-1.238,1.9614-1.8674
		C392.2968,93.9726,391.2799,92.9567,390.6159,93.602L390.6159,93.602z"/>
	<path fill="#3F3D56" d="M375.8015,80.371c-2.9893,6.7365-6.6621,13.1484-10.9605,19.1349
		c-4.4022,6.1288-9.1131,12.0298-14.1144,17.6802c-5.0001,5.7505-10.1456,11.3724-15.1734,17.0986
		c-4.9707,5.6611-9.8329,11.4293-14.2867,17.5097c-4.4197,5.9181-8.2581,12.2488-11.4621,18.9041
		c-0.3877,0.8251-0.7625,1.656-1.1244,2.4928c-0.364,0.8401,0.8739,1.5729,1.2411,0.7255
		c2.9893-6.7365,6.6621-13.1484,10.9605-19.135c4.4022-6.1288,9.1131-12.0298,14.1144-17.6802
		c5.0001-5.7505,10.1456-11.3724,15.1734-17.0986c4.9706-5.6611,9.8329-11.4293,14.2867-17.5097
		c4.4197-5.9181,8.2581-12.2488,11.4622-18.9041c0.3877-0.8251,0.7625-1.656,1.1244-2.4928
		C377.4066,80.2564,376.1687,79.5236,375.8015,80.371L375.8015,80.371z"/>
	<polygon fill="#FFB6B6" points="269.6911,262.866 270.5971,266.0086 283.151,264.0102 281.8138,259.3713 	"/>
	<path fill="#2F2E41" d="M266.3807,263.6999l2.7857,9.6649l0.1223-0.0352c2.0775-0.5989,3.2763-2.7684,2.6777-4.846l-0.0001-0.0002
		l0.8306-2.1514l-2.2888-2.9079l-0.2432-0.8437L266.3807,263.6999z"/>
	<polygon fill="#FFB6B6" points="323.5933,278.3033 326.7847,277.5861 325.537,264.9354 320.8268,265.9942 	"/>
	<path fill="#2F2E41" d="M323.2984,281.8873l9.8135-2.2054l-0.0279-0.1241c-0.4741-2.1095-2.5684-3.4353-4.6779-2.9615
		l-0.0002,0.0001l-2.0981-0.9572l-3.039,2.1116l-0.8567,0.1925L323.2984,281.8873z"/>
	<path fill="#2F2E41" d="M313.8254,210.5486l14.451,59.2961l-7.0688,0.6263l-7.8326-19.8443l-12.0906-23.3568l1.0928,26.6592
		l-22.4944,13.1552l-5.2862-7.2413l17.9828-9.6719l-7.8554-35.2812l2.0908-4.3411H313.8254z"/>
	<path fill="#E6E6E6" d="M284.8721,215.7411c-2.3427-3.2798,1.9912-8.6796,2.5226-9.8221l0,0
		c-1.3012-0.4223-2.1231-1.7047-1.9633-3.0633l0.2291-1.9473l0.2388-1.91l-1.7106-1.7107l-0.0048-0.0426l-0.9845-8.614
		l-1.4314-5.7213c-1.0981-4.4037,0.2648-9.0573,3.5652-12.1729l3.3086-0.5254l4.021-3.8743h6.4843l2.2233,2.1242
		c4.1505,0.7279,4.8635,0.4902,8.4286,4.7684l-1.62,13.301l-0.4041,1.8298l0.0012,2.4818l1.0274,1.1418
		c0.7504,0.834,1.0629,1.9734,0.8428,3.0735l-0.1351,0.6756l0,0c1.0596,0.4541,2.0708,8.5244,2.3124,9.6516l0.3608,1.6839
		c0.3087,0.4074,2.3465,3.1245,2.3465,3.8673c0,0.1115-0.0823,0.2193-0.259,0.3389c-1.3887,0.9404-13.5455,3.4298-16.9426,2.0704
		C293.7107,211.8986,284.8721,215.7411,284.8721,215.7411z"/>
	<path fill="#E6E6E6" d="M271.8784,176.2754l2.8511,3.4869c2.1673,2.6505,5.3021,4.3274,8.7098,4.6591l0,0
		c2.1328,0.1997,4.1942-0.8283,5.3179-2.652l0,0c1.5325-2.5251,0.8473-5.8058-1.5679-7.5063
		c-3.532-2.4826-5.4587-6.3291-8.2355-5.0819l-0.5974-1.4672l-7.829-6.3259l-6.4166,5.5061L271.8784,176.2754z"/>
	<path fill="#E6E6E6" d="M327.0687,164.7359l-6.2079-5.7403l-4.8417,3.0831l-0.6514,1.444
		c-2.7285-1.3493-8.0133,5.3709-11.635,7.7209c-2.4766,1.6098-3.2831,4.8628-1.8452,7.443l0,0
		c1.0553,1.8642,3.0771,2.9679,5.2159,2.8475l0,0c3.4177-0.205,6.6125-1.7645,8.8766-4.3328l2.9785-3.3787L327.0687,164.7359z"/>
	<circle fill="#FFB6B6" cx="295.4673" cy="157.2644" r="7.2013"/>
	<path fill="#2F2E41" d="M290.2412,162.3403c-0.0628-0.0551-0.1222-0.114-0.1836-0.1706c-0.0022,0.0058-0.0026,0.0118-0.0049,0.0176
		L290.2412,162.3403z"/>
	<path fill="#2F2E41" d="M302.2273,154.5634c-0.0383-0.0239-0.0719-0.0479-0.1102-0.0671
		c-0.4734-0.3723-1.0604-0.5702-1.6625-0.5606c-0.575,0.0719-1.0493,0.4839-1.6003,0.6468c-1.1834,0.345-2.3765-0.4983-3.603-0.5845
		h-0.0287c-1.643-0.1034-3.0588,1.1448-3.1622,2.7878c0,0.0002,0,0.0005,0,0.0007c-0.024,0.3977,0.0287,0.7953-0.0192,1.1882
		c-0.0266,0.4045-0.253,0.7692-0.6037,0.9726c-0.5414,0.2444-1.2697-0.1198-1.7296,0.2587
		c-0.4073,0.3402-0.2587,1.0014-0.0144,1.4757c0.2852,0.3997,0.4255,0.8848,0.3977,1.3751c-0.009,0.0389-0.0202,0.0773-0.0335,0.115
		c-2.2426-2.0882-3.496-5.0284-3.4497-8.0924c-0.019-0.6678,0.1188-1.3308,0.4025-1.9357c0.2898-0.6124,0.8673-1.0388,1.538-1.1355
		c0.5653-0.0479,1.1499,0.206,1.6865,0.0239c0.6612-0.2204,0.9391-0.9822,1.2841-1.5955c0.8672-1.4906,2.494-2.3724,4.2163-2.2854
		c0.6078,0.0596,1.2081,0.18,1.7919,0.3593l1.1403,0.3114c0.435,0.1024,0.8575,0.2518,1.2601,0.4456
		c0.5887,0.3382,1.0842,0.8173,1.4421,1.3942c0.3037,0.4641,0.5439,0.9669,0.7139,1.4949
		c-0.6316,0.0328-1.2649,0.0104-1.8925-0.0671c0.7187,0.4456,1.4422,0.8912,2.1609,1.3368
		C302.4371,153.1405,302.3949,153.8641,302.2273,154.5634z"/>
	<circle fill="#FF6584" cx="415.7981" cy="23.684" r="23.684"/>
	<path fill="#F2F2F2" d="M468.8085,12.4701c-1.3703-4.59-5.2416-7.5845-9.9178-8.2409c-0.0479-0.0048-0.1006,0.0048-0.1485,0
		c-0.0658-0.021-0.1331-0.037-0.2012-0.0479c-6.6243-0.8058-13.3264,0.6531-19.0164,4.1396
		c-1.3019,0.8136-2.6632,1.528-4.0725,2.1369c-4.5184,1.905-9.3522,2.9514-14.2539,3.0855c-0.0384,0-0.0767,0.0048-0.115,0.0048
		c-4.9183,0.3269-9.1045,3.7007-10.4688,8.4373c-0.1448,0.5802,0.1034,1.1872,0.6133,1.4996
		c0.7151,0.6062,1.5616,1.0376,2.4723,1.2601c1.9692,0.4168,3.9432,0.7985,5.9219,1.1451
		c3.8665,0.6756,7.7522,1.2218,11.6571,1.6386c2.5872,0.2779,5.1793,0.4951,7.7761,0.6516
		c5.3566,0.3354,10.7371,0.4168,16.1033,0.2491c2.6543-0.0814,5.2128-0.1677,7.6468-1.3415
		c1.7694-0.8731,3.2805-2.1926,4.384-3.8282C469.2963,20.0791,469.889,16.1294,468.8085,12.4701z"/>
	<path fill="#F2F2F2" d="M376.0217,188.9069c-0.987-3.3059-3.7755-5.4668-7.1485-5.9411c-0.0383-0.0048-0.0719,0.0048-0.1102,0
		c-0.0472-0.014-0.0952-0.0252-0.1437-0.0335c-4.7769-0.5836-9.6104,0.4686-13.7125,2.9849
		c-3.9528,2.4675-8.5571,3.5838-13.2142,3.7659c-0.0272-0.0007-0.0545,0.001-0.0814,0.0048
		c-3.5444,0.2363-6.5613,2.667-7.5462,6.0801c-0.1058,0.4185,0.0728,0.8572,0.4408,1.0828c0.5145,0.438,1.1252,0.7483,1.7823,0.9055
		c1.4182,0.3018,2.846,0.575,4.2738,0.8289c2.7837,0.4839,5.5913,0.8768,8.4038,1.1786c5.7163,0.6147,11.4684,0.8324,17.2149,0.6516
		c1.9117-0.0575,3.7563-0.1198,5.5099-0.9678c1.2776-0.629,2.3691-1.5802,3.167-2.7597
		C376.3748,194.3931,376.8009,191.5452,376.0217,188.9069z"/>
	<path fill="#F2F2F2" d="M224.6191,149.6189c-0.987-3.306-3.7755-5.4668-7.1485-5.9411c-0.0383-0.0048-0.0719,0.0048-0.1102,0
		c-0.0472-0.014-0.0952-0.0252-0.1437-0.0335c-4.7768-0.5836-9.6105,0.4686-13.7125,2.9849
		c-3.9528,2.4675-8.5571,3.5838-13.2142,3.7659c-0.0272-0.0007-0.0545,0.0009-0.0815,0.0048
		c-3.5444,0.2363-6.5613,2.6671-7.5462,6.0801c-0.1058,0.4185,0.0728,0.8572,0.4408,1.0828
		c0.5145,0.438,1.1252,0.7483,1.7823,0.9055c1.4182,0.3018,2.846,0.575,4.2738,0.8289c2.7837,0.4839,5.5914,0.8768,8.4038,1.1786
		c5.7163,0.6147,11.4684,0.8324,17.2149,0.6516c1.9117-0.0575,3.7563-0.1198,5.5099-0.9678c1.2776-0.629,2.3691-1.5802,3.167-2.7598
		C224.9722,155.1051,225.3983,152.2572,224.6191,149.6189z"/>
	<path fill="#F2F2F2" d="M264.3513,354.5524c1.6194,1.7776,3.191,3.5934,4.7146,5.4476
		c-22.6536-4.0524-44.3197-12.4124-63.8239-24.6269c-0.4073-0.2539-0.8097-0.5079-1.2122-0.7666
		c-11.0672-7.0491-21.3388-15.2756-30.6351-24.5359c1.629-1.5284,2.6352-2.4388,2.6352-2.4388
		c22.7344-24.4161,25.2833-33.0115,48.0176-57.4276c7.5605,30.6351,39.3503,51.9177,56.0238,78.7054
		c-4.8619,3.3926-10.1804,6.0785-15.7967,7.9774c-0.0383,0.0432-0.0767,0.091-0.115,0.1342
		C259.7799,342.0722,259.8622,349.5984,264.3513,354.5524z"/>
	<path fill="#F2F2F2" d="M460.3027,268.2433c-13.615,24.9628-32.8893,46.3883-56.2777,62.559
		c-0.4983,0.3449-0.9966,0.6899-1.4997,1.0301c-16.5664,11.2158-34.8846,19.5952-54.2031,24.7946
		c-0.9276-0.7142-1.9691-1.2666-3.0807-1.6338v-0.0096c1.2457-2.3285,2.4915-4.6571,3.7372-6.9856
		c-4.3025,4.3887-11.8056,5.141-16.8939,1.7009c0.8366-1.8896,2.0308-3.5995,3.5168-5.0356
		c-1.2457,0.5702-3.1814-0.2539-3.718-1.6913c-0.6755-1.7967,0.091-3.7851,0.896-5.5291
		c8.8781-19.2032,37.9656-50.2934,38.4208-50.7773c-0.3114,0.1917-13.5927,8.5331-21.297,7.9151
		c-0.3929-2.3573-10.6126-5.2368-11.7529-6.4346c4.6427-10.4401,26.1744-29.8637,26.1744-29.8637
		c22.7344-24.4161,25.2833-33.0115,48.0176-57.4276C418.8107,227.0628,443.0063,246.4241,460.3027,268.2433z"/>
	<g opacity="0.2">
		<path d="M170.6714,94.8907c0.1414-0.1874,0.2897-0.3678,0.4339-0.5524l0.0078-0.0736L170.6714,94.8907z"/>
		<path d="M416.6355,96.8661c-1.6325,3.882-5.6342,6.2177-9.8172,5.7303c-0.5286-0.0636-1.0511-0.171-1.562-0.321
			c-5.6009-1.6674-11.2003-3.2005-16.798-4.5996c-7.321-1.8398-14.642-3.4576-21.963-4.8535
			c-6.1184-1.1691-12.2368-2.1832-18.3552-3.0424c-7.3258-1.0301-14.6483-1.8382-21.9677-2.4244
			c-6.1184-0.4935-12.2384-0.8305-18.36-1.0109c-7.321-0.2252-14.6404-0.2252-21.9582,0c-6.1183,0.1821-12.2383,0.5191-18.36,1.0109
			c-7.321,0.5845-14.642,1.3926-21.963,2.4244c-6.1184,0.8624-12.2384,1.8766-18.36,3.0424
			c-7.321,1.3942-14.642,3.0121-21.963,4.8535c-5.6009,1.4039-11.1987,2.937-16.7932,4.5996
			c-0.5109,0.15-1.0333,0.2574-1.5619,0.321c-5.1869,0.6071-9.8839-3.1056-10.491-8.2925c-0.0428-0.3661-0.0642-0.7344-0.0641-1.103
			v-4.4271c10.8042-9.7693,26.0882-14.297,40.826-15.8398c17.5263-1.835,35.3353-0.2683,52.7657-2.8699
			c14.2108-2.1225,28.3305-7.0144,42.5988-5.3135c12.4332,1.4757,23.7644,7.848,36.0252,10.3969
			c15.3798,3.1957,31.6173,0.2587,46.8582,4.0582c5.9746,1.4853,11.8295,4.0965,16.0985,8.5284
			C413.944,90.2869,415.7222,93.4309,416.6355,96.8661z"/>
	</g>
	<circle fill="#F56539" cx="296.2616" cy="187.5748" r="9.2052"/>
	<path fill="#FFFFFF" d="M295.0059,192.3656c-0.3223,0-0.6258-0.1518-0.8191-0.4097l-2.5113-3.3485
		c-0.3393-0.4524-0.2476-1.0942,0.2048-1.4335c0.4524-0.3393,1.0942-0.2476,1.4335,0.2048l1.643,2.1905l4.2198-6.3296
		c0.3125-0.4713,0.9479-0.6001,1.4193-0.2875c0.4713,0.3125,0.6,0.948,0.2875,1.4193c-0.0009,0.0014-0.0019,0.0028-0.0028,0.0042
		l-5.0226,7.534c-0.1844,0.2765-0.4914,0.4463-0.8236,0.4556L295.0059,192.3656z"/>
	<path fill="#FFFFFF" d="M409.4438,241.3071c-0.436,7.1629-0.8704,14.3273-1.3032,21.4934
		c-0.7666,12.6584-1.5332,25.3184-2.2998,37.98c-0.6037,10.0089-1.209,20.0161-1.8159,30.0218
		c-0.4983,0.3449-0.9966,0.6899-1.4997,1.0301c0.2923-4.7769,0.5813-9.5537,0.8672-14.3305
		c0.7666-12.6632,1.5332-25.3232,2.2998-37.98c0.7714-12.7398,1.5428-25.4781,2.3142-38.2148
		C408.0592,240.3824,409.4966,240.3824,409.4438,241.3071z"/>
	<path fill="#FFFFFF" d="M362.2763,276.5957l25.3305-21.3575l7.1071-5.9924c0.7081-0.597-0.3131-1.6094-1.0164-1.0164
		l-25.3305,21.3575l-7.1071,5.9924C360.5518,276.1764,361.573,277.1887,362.2763,276.5957z"/>
	<path fill="#FFFFFF" d="M365.5106,316.7669l18.4707-16.2977c0.695-0.6133-0.3248-1.6266-1.0164-1.0164l-18.4707,16.2977
		C363.7993,316.3637,364.819,317.3771,365.5106,316.7669z"/>
	<path fill="#FFFFFF" d="M187.7563,309.58l18.4707-16.2977c0.695-0.6133-0.3248-1.6266-1.0164-1.0164L186.74,308.5637
		C186.045,309.1769,187.0647,310.1903,187.7563,309.58z"/>
	<path fill="#FFFFFF" d="M425.8437,262.5871c4.9311-0.2096,9.615,2.1654,12.3599,6.2673c0.505,0.7706,1.7502,0.0512,1.2411-0.7255
		c-3.0062-4.5393-8.1604-7.1841-13.6011-6.9792C424.9227,261.1931,424.9174,262.6307,425.8437,262.5871L425.8437,262.5871z"/>
	<path fill="#FFFFFF" d="M224.5589,289.549c12.2908,5.8496,22.1345,15.8334,27.8097,28.2058
		c0.3853,0.8397,1.6246,0.1102,1.2411-0.7255c-4.5128-9.7463-11.5692-18.096-20.4267-24.1706
		c-2.5092-1.7221-5.1503-3.2438-7.8986-4.5509C224.4534,287.9123,223.7232,289.1512,224.5589,289.549L224.5589,289.549z"/>
	<path fill="#FFFFFF" d="M223.6355,279.5554c-0.987,5.486-2.1912,10.9272-3.6126,16.3237
		c-2.5116,9.5307-5.6913,18.8727-9.5154,27.9568c-1.6386,3.9001-3.3938,7.7458-5.2655,11.5373
		c-0.4073-0.2539-0.8097-0.5079-1.2122-0.7666c4.2828-8.7036,7.9553-17.6945,10.9911-26.9075
		c3.0756-9.3258,5.49-18.8568,7.2251-28.5221C222.409,278.2665,223.7984,278.6546,223.6355,279.5554z"/>
	<circle fill="#E6E6E6" cx="237.1038" cy="207.3532" r="6.9781"/>
	<path fill="#FFFFFF" d="M236.1518,210.985c-0.2443,0-0.4743-0.115-0.6209-0.3105l-1.9037-2.5384
		c-0.2572-0.343-0.1877-0.8295,0.1553-1.0867c0.343-0.2572,0.8295-0.1877,1.0867,0.1553l1.2455,1.6605l3.1989-4.7982
		c0.2365-0.3576,0.718-0.4558,1.0756-0.2193c0.3576,0.2365,0.4558,0.718,0.2193,1.0756c-0.0011,0.0016-0.0021,0.0032-0.0032,0.0048
		l-3.8075,5.7112c-0.1398,0.2096-0.3725,0.3383-0.6243,0.3454L236.1518,210.985z"/>
	<circle fill="#E6E6E6" cx="250.5424" cy="207.3532" r="6.9781"/>
	<path fill="#FFFFFF" d="M249.5904,210.985c-0.2443,0-0.4744-0.115-0.6209-0.3105l-1.9037-2.5384
		c-0.2572-0.343-0.1877-0.8295,0.1553-1.0867c0.3429-0.2572,0.8295-0.1877,1.0867,0.1553l1.2455,1.6605l3.1989-4.7982
		c0.2365-0.3576,0.718-0.4558,1.0756-0.2193c0.3576,0.2365,0.4558,0.718,0.2193,1.0756c-0.0011,0.0016-0.0022,0.0032-0.0032,0.0048
		l-3.8075,5.7112c-0.1398,0.2096-0.3725,0.3384-0.6243,0.3454L249.5904,210.985z"/>
	<circle fill="#E6E6E6" cx="243.6415" cy="196.0938" r="6.9781"/>
	<path fill="#FFFFFF" d="M242.6895,199.7256c-0.2443,0-0.4744-0.1151-0.6209-0.3105l-1.9037-2.5384
		c-0.2572-0.343-0.1877-0.8295,0.1553-1.0867c0.3429-0.2572,0.8295-0.1877,1.0867,0.1553l1.2455,1.6605l3.1989-4.7982
		c0.2391-0.3558,0.7214-0.4504,1.0772-0.2112c0.3539,0.2379,0.4497,0.7167,0.2145,1.0724l-3.8075,5.7112
		c-0.1398,0.2096-0.3725,0.3384-0.6243,0.3454L242.6895,199.7256z"/>
	<path fill="#F2F2F2" d="M263.8195,196.5714l-1.0305,0.1031l-5.0849,13.4386h-27.6036l-5.0849-13.4386l-1.0305-0.1031
		c-1.3003-0.13-2.4598,0.8187-2.5898,2.119c-0.0078,0.0782-0.0117,0.1568-0.0117,0.2354v30.4614
		c0,5.0014,4.0544,9.0558,9.0558,9.0558l0,0h26.9258c5.0014,0,9.0558-4.0544,9.0558-9.0558l0,0v-30.4614
		c0-1.3068-1.0594-2.3662-2.3661-2.3662C263.9763,196.5597,263.8978,196.5636,263.8195,196.5714z"/>
	<path fill="#E6E6E6" d="M302.728,166.1528c-0.3405-1.0019-1.6545-1.1913-2.7127-1.1882c-2.3593,0.007-4.7159,0.1073-7.0697,0.301
		l0.236-0.2727c-0.6254-0.2639-1.3138-0.3411-1.9821-0.2223c-0.6493,0.1842-1.1829,0.9296-0.8895,1.5374
		c0.2203,0.4565,0.836,0.7465,0.7917,1.2514c-0.0749,0.8548-1.7291,0.5706-1.9865,1.3892
		c-0.0724,0.3331,0.0728,0.6757,0.3624,0.8554c0.2865,0.1697,0.6079,0.2716,0.9398,0.2979
		c3.5014,0.5083,7.0751,0.0475,10.333-1.3323c0.5694-0.207,1.0889-0.5314,1.5248-0.9522
		C302.7134,167.3836,302.886,166.7487,302.728,166.1528z"/>
</g>
</svg>
