<?xml version="1.0" encoding="utf-8"?>
<!-- Generator: Adobe Illustrator 26.0.1, SVG Export Plug-In . SVG Version: 6.00 Build 0)  -->
<svg version="1.1" id="Layer_1" xmlns="http://www.w3.org/2000/svg" xmlns:xlink="http://www.w3.org/1999/xlink" x="0px" y="0px"
	 viewBox="0 0 640 360" enable-background="new 0 0 640 360" xml:space="preserve">
<ellipse transform="matrix(0.7414 -0.671 0.671 0.7414 -42.8747 368.7128)" fill="#F56539" cx="457.0082" cy="239.991" rx="80.6608" ry="50.0653"/>
<path fill="#E6E6E6" d="M394.5029,358.9423c-4.4542-9.2013-6.0315-19.5687-5.256-29.7194
	c0.8414-10.0865,3.8171-19.879,8.7298-28.7284c4.7693-8.5408,10.8196-16.3001,17.9402-23.0076
	c7.4805-7.1658,15.9158-13.2491,24.7908-18.5657c9.3718-5.6142,19.2194-10.3852,29.1816-14.8492
	c1.2415-0.5563,2.485-1.1083,3.7304-1.656c0.8173-0.3598,0.1104-1.5585-0.7019-1.2008
	c-10.1571,4.4722-20.2287,9.1852-29.8597,14.7153c-9.201,5.2831-18.0038,11.3268-25.8683,18.4687
	c-7.4106,6.6249-13.7952,14.3147-18.9445,22.8171c-5.2715,8.7491-8.6898,18.4876-10.0431,28.612
	c-1.2988,10.1962-0.2947,20.7993,3.5708,30.3662c0.4714,1.1666,0.981,2.3165,1.5291,3.4496
	C393.6919,360.4496,394.8915,359.7452,394.5029,358.9423z"/>
<path fill="#E6E6E6" d="M432.8638,262.4677c-0.4597-7.5826,0.1109-15.1925,1.6963-22.6218
	c1.5804-7.4333,4.1458-14.6226,7.6281-21.3772c1.9604-3.7919,4.2069-7.4288,6.7201-10.8793
	c0.5275-0.7243-0.6785-1.4191-1.2008-0.7019c-4.5156,6.2197-8.1705,13.0207-10.8659,20.2186
	c-2.7016,7.1987-4.435,14.7244-5.1547,22.3796c-0.4062,4.3153-0.4776,8.6556-0.2137,12.982
	C431.5273,263.3569,432.9184,263.3631,432.8638,262.4677z"/>
<ellipse transform="matrix(0.7414 -0.671 0.671 0.7414 -73.9313 213.7014)" fill="#F56539" cx="240.3354" cy="202.7847" rx="104.9885" ry="65.1653"/>
<path fill="#E6E6E6" d="M158.9781,357.6124c-5.7976-11.9764-7.8506-25.4707-6.8412-38.6829
	c1.003-13.1284,5.0572-25.8639,11.3628-37.393c6.1063-11.1649,14.177-21.1588,23.351-29.9468
	c9.7367-9.327,20.7161-17.2451,32.268-24.1652c12.1984-7.3074,25.0161-13.5174,37.983-19.3277
	c1.616-0.7241,3.2345-1.4426,4.8554-2.1554c1.0638-0.4684,0.1437-2.0285-0.9136-1.563
	c-13.2206,5.8211-26.3298,11.9556-38.8656,19.1535c-11.9761,6.8765-23.4338,14.743-33.6703,24.039
	c-9.5492,8.6717-18.0595,18.5918-24.6583,29.6989c-6.8614,11.3878-11.3107,24.0636-13.0722,37.2415
	c-1.6905,13.2715-0.3835,27.0726,4.6478,39.5249c0.6135,1.5185,1.277,3.0151,1.9903,4.4899
	C157.9226,359.5743,159.484,358.6575,158.9781,357.6124L158.9781,357.6124z"/>
<path fill="#E6E6E6" d="M208.909,232.0405c-0.5984-9.8696,0.1443-19.7747,2.2079-29.4447
	c2.0571-9.6753,5.3961-19.0328,9.9288-27.8247c2.5516-4.9356,5.4757-9.6694,8.7469-14.1605
	c0.6866-0.9428-0.8832-1.8471-1.563-0.9136c-5.8775,8.0956-10.6348,16.9478-14.1432,26.3166
	c-3.5164,9.3699-5.7726,19.1654-6.7094,29.1295c-0.5287,5.6169-0.6217,11.2662-0.2782,16.8974
	C207.1694,233.1979,208.98,233.2059,208.909,232.0405L208.909,232.0405z"/>
<path fill="#3F3D56" d="M367.9198,102.6032c-10.8528,0-21.6651-7.4598-30.4454-21.0054
	c-7.7205-11.9105-12.5165-26.715-12.5165-38.6359C324.9579,19.2347,344.1925,0,367.9198,0s42.9619,19.2347,42.9619,42.9619
	c0,11.9209-4.7961,26.7254-12.5165,38.6359C389.5848,95.1433,378.7726,102.6032,367.9198,102.6032z M367.9198,1.0109
	c-23.1581,0.0261-41.9249,18.793-41.951,41.9511c0,23.1527,18.794,58.6304,41.951,58.6304s41.951-35.4777,41.951-58.6304
	C409.8447,19.8038,391.0779,1.037,367.9198,1.0109z"/>
<path fill="#3F3D56" d="M371.97,111.701h-8.1005c-1.3957,0-2.5271-1.1314-2.5271-2.5271c0-0.1844,0.0202-0.3682,0.0602-0.5482
	l1.5628-7.0334h9.9088l1.5628,7.0334c0.3028,1.3624-0.5563,2.7124-1.9187,3.0151C372.3383,111.6808,372.1544,111.701,371.97,111.701
	L371.97,111.701z M363.7763,102.6032l-1.3871,6.2417c-0.1816,0.8176,0.3339,1.6276,1.1514,1.8092
	c0.1079,0.024,0.2182,0.0361,0.3288,0.0361h8.1005c0.8375,0,1.5164-0.679,1.5164-1.5164c0-0.1106-0.0121-0.2209-0.0361-0.3288
	l-1.3871-6.2417H363.7763z"/>
<path fill="#3F3D56" d="M360.898,103.5556c9.1598-0.4689,19.5832-0.7187,26.7218,6.0377c2.9775,2.8181,4.8561,6.5947,4.7428,10.7463
	c-0.1233,4.5178-2.4206,8.7499-5.2677,12.1439c-6.1288,7.3064-15.1173,11.8747-23.7372,15.5567
	c-9.1615,3.9134-18.7056,6.9694-27.5079,11.6918c-7.7286,4.1462-14.9326,9.7429-19.6014,17.2825
	c-2.2969,3.6545-3.8203,7.741-4.4762,12.0072c-0.6022,4.2765-0.3855,8.6284,0.6384,12.8239
	c2.0561,8.5994,7.1181,16.1994,13.8634,21.8466c6.8261,5.715,15.0954,9.5206,23.6626,11.7943
	c10.1704,2.6992,20.7674,3.3101,31.2465,3.3712c10.8228,0.063,21.6546-0.4665,32.4698,0.1401
	c2.6307,0.1476,5.2569,0.3654,7.8743,0.6687c0.9676,0.1121,0.9595-1.4051,0-1.5163c-10.8045-1.252-21.6938-0.9651-32.5468-0.8424
	c-10.64,0.1203-21.3701,0.0833-31.8782-1.7953c-9.06-1.6197-17.9431-4.6553-25.6271-9.8039
	c-7.3604-4.9317-13.3589-11.8469-16.3944-20.2381c-2.9651-8.1965-2.9341-17.2677,1.0363-25.1253
	c3.9754-7.8676,10.9098-13.8194,18.4451-18.1626c8.6958-5.0121,18.2709-8.1487,27.5086-11.9704
	c8.7254-3.6097,17.6499-7.914,24.3524-14.7381c3.1039-3.1602,5.7627-7.0065,6.9005-11.3339
	c1.1229-4.0913,0.5002-8.4651-1.72-12.0805c-2.1971-3.3634-5.3336-6.0075-9.0202-7.604c-4.4492-2.0047-9.3858-2.5827-14.2232-2.6315
	c-2.4892-0.0251-4.977,0.088-7.4623,0.2152C359.927,102.089,359.9211,103.6056,360.898,103.5556L360.898,103.5556z"/>
<polygon fill="#FFB8B8" points="314.2693,349.6307 308.192,350.8408 300.6327,327.9764 309.6022,326.1902 "/>
<path fill="#2F2E41" d="M316.9924,355.2132l-19.5954,3.9019l-0.0493-0.2478c-0.839-4.2122,1.8956-8.3069,6.1077-9.1459
	c0.0001,0,0.0002,0,0.0003-0.0001l0.0005-0.0001l11.9682-2.3831L316.9924,355.2132z"/>
<polygon fill="#FFB8B8" points="372.3251,353.1087 366.1284,353.1081 359.1373,329.2072 368.2826,329.2077 "/>
<path fill="#2F2E41" d="M373.9052,359.1151l-19.9801-0.0007v-0.2527c-0.0001-4.2949,3.4816-7.7767,7.7766-7.7767
	c0.0001,0,0.0002,0,0.0003,0h0.0005l12.2031,0.0005L373.9052,359.1151z"/>
<path fill="#FFB8B8" d="M357.5333,284.8438c1.869-2.3451,1.483-5.7613-0.8621-7.6302c-0.25-0.1993-0.5172-0.3761-0.7983-0.5284
	l-12.3792-47.8797l-10.7674,4.8469l15.5541,45.5401c-1.2573,2.7403-0.0551,5.981,2.6853,7.2384
	C353.2586,287.4829,355.9738,286.8268,357.5333,284.8438z"/>
<path fill="#F56539" d="M346.3899,236.8284l-11.9669,2.8262c-1.3086,0.309-2.62-0.5013-2.929-1.8099
	c-0.0274-0.1161-0.0463-0.2341-0.0564-0.353l-1.0388-12.2147c-0.8377-3.639,1.4333-7.2681,5.0723-8.1058
	c3.625-0.8344,7.2432,1.416,8.0974,5.0363l4.5236,11.351c0.4974,1.2492-0.1121,2.6651-1.3613,3.1625
	C346.62,236.765,346.506,236.801,346.3899,236.8284L346.3899,236.8284z"/>
<path fill="#2F2E41" d="M305.5661,345.2964c-1.0768,0.001-2.0055-0.7564-2.2209-1.8115l-6.0292-28.9401
	c-0.7573-3.6815-0.0152-7.5131,2.0618-10.6457l18.9946-28.4919v-21.3536l22.051-4.9689l0.0952,0.0775
	c11.4388,9.3407,10.7807,20.8556,10.7104,21.7455l21.6713,70.3708c0.3698,1.2006-0.3038,2.4737-1.5044,2.8435
	c-0.2168,0.0668-0.4424,0.1007-0.6693,0.1008h-6.5072c-0.9311,0.0031-1.769-0.5643-2.1119-1.4299l-23.3566-55.7868l-27.4888,22.6231
	c-0.447,0.3683-0.6857,0.9321-0.6389,1.5094l2.5346,31.1069c0.1063,1.2281-0.79,2.3153-2.0158,2.4452l-5.319,0.5913
	C305.7377,345.2915,305.6519,345.2963,305.5661,345.2964z"/>
<circle fill="#FFB8B8" cx="333.7544" cy="196.8131" r="12.414"/>
<path fill="#F56539" d="M319.5471,256.4224c-0.9248,0.0003-1.7586-0.557-2.1119-1.4117
	c-4.1584-10.2099-4.0895-23.1054-2.2658-30.7664c1.6035-6.6939,7.7646-11.2833,14.6374-10.9034h0.0001
	c7.8669,0.4196,13.9041,7.137,13.4845,15.0038c-0.0235,0.441-0.0675,0.8807-0.1318,1.3177
	c-0.9721,6.5879-1.3669,15.8669-1.4915,19.55c-0.0384,1.0097-0.7365,1.8739-1.7157,2.1234l-19.8504,5.0173
	C319.9206,256.3992,319.7342,256.4225,319.5471,256.4224z"/>
<path fill="#FFB8B8" d="M319.7753,182.3125c-0.2586,0.1065-0.5252,0.1925-0.7973,0.2571l-8.7418,23.4924l3.8732,4.6989
	l-6.3275,6.7722l-7.6652-7.6522c-1.272-1.2698-1.5531-3.2269-0.6899-4.8034l13.6949-25.0138
	c-1.4599-2.5406-0.5837-5.7837,1.9569-7.2436s5.7837-0.5838,7.2436,1.9568c1.4599,2.5406,0.5838,5.7837-1.9568,7.2436
	C320.1749,182.13,319.9778,182.2275,319.7753,182.3125L319.7753,182.3125z"/>
<path fill="#F56539" d="M305.5459,216.8605l6.9726-10.128c0.7625-1.1075,2.2784-1.3872,3.3859-0.6247
	c0.0983,0.0677,0.1915,0.1425,0.2788,0.2238l8.9696,8.3562c3.0642,2.1343,3.818,6.3485,1.6837,9.4126
	c-2.1267,3.0532-6.3206,3.8143-9.3845,1.7032l-10.9728-5.3766c-1.2072-0.592-1.706-2.0506-1.114-3.2579
	C305.4178,217.062,305.4782,216.9588,305.5459,216.8605L305.5459,216.8605z"/>
<path fill="#2F2E41" d="M333.0398,211.0409c-0.8946-0.992-0.3717-2.6959,0.4557-3.7543c0.8275-1.0585,1.9455-1.9577,2.2719-3.3001
	c0.5557-2.286-1.5177-4.3705-3.5859-5.1092c-2.0683-0.7387-4.3858-0.7959-6.2071-2.0913c-2.7609-1.9637-3.39-6.4388-1.8038-9.5816
	c1.5862-3.1428,4.9022-4.9451,8.1933-5.2144c3.2911-0.2693,6.5614,0.8007,9.5737,2.2651c2.9133,1.4163,5.7234,3.2614,7.7707,5.9207
	c2.0472,2.6593,3.2518,6.233,2.6602,9.6391c-0.7225,4.1598-3.982,7.371-7.6033,8.9385c-3.6213,1.5675-7.6013,1.7742-11.4959,1.9617
	L333.0398,211.0409z"/>
<path fill="#2F2E41" d="M346.8602,187.3399c7.8982-7.8204,20.5-8.1992,28.8537-0.8674c6.7188,5.8969,9.2804,15.6083,16.3329,21.1016
	c6.3495,4.9457,15.8835,5.3141,22.5957,0.8731c-3.0649,3.5803-6.1831,7.2083-10.1068,9.8192
	c-3.9238,2.6108-8.8272,4.1188-13.4053,2.9989c-5.3742-1.3146-9.2847-5.8907-12.3215-10.5153
	c-3.0368-4.6247-5.7133-9.6909-10.1166-13.0407c-3.3371-2.5231-7.4158-3.8702-11.5992-3.8311
	c-2.5615,0.0316-5.1758,0.5815-7.6509-0.0789c-2.4751-0.6603-4.7487-3.1846-3.9243-5.61L346.8602,187.3399z"/>
<path fill="#3F3D56" d="M461.6181,359.8693h-346.728c-0.2792,0-0.5054-0.2263-0.5054-0.5054s0.2263-0.5054,0.5054-0.5054h346.728
	c0.2792,0,0.5054,0.2263,0.5054,0.5054S461.8973,359.8693,461.6181,359.8693z"/>
<g>
	<g>
		<polygon fill="#A6A6A6" points="362.3431,41.6189 367.6635,56.8596 367.6635,41.8063 364.5688,39.2604 		"/>
		<polygon fill="#878787" points="370.7545,39.2596 372.9789,41.6177 367.6635,56.8596 367.6635,41.8063 		"/>
		<polygon fill="#656565" points="367.6635,56.8596 362.3431,41.6189 356.7268,39.4945 		"/>
		<polygon fill="#656565" points="378.6003,39.4945 372.9789,41.6177 367.6635,56.8596 370.9377,51.6695 371.6532,50.5352 
			377.4123,41.4059 		"/>
		<polygon fill="#828282" points="367.6621,36.0341 367.6622,36.0342 367.6622,36.0341 		"/>
		<polygon fill="#717171" points="349.1512,25.8526 346.0126,50.4786 355.4037,39.4945 		"/>
		<polygon fill="#2E2E2E" points="386.1759,25.8526 389.3145,50.4786 379.9234,39.4945 		"/>
		<polygon fill="#2E2E2E" points="349.9619,24.8454 356.7268,39.4945 367.6636,35.983 		"/>
		<polygon fill="#828282" points="367.6636,35.983 356.7268,39.4945 362.3431,41.6189 		"/>
		<polygon fill="#BBBBBB" points="367.6635,41.8063 367.6636,35.983 362.3431,41.6189 		"/>
		<polygon fill="#828282" points="372.9789,41.6177 378.6003,39.4945 367.6636,35.983 		"/>
		<polygon fill="#919191" points="367.6636,35.983 367.6635,41.8063 372.9789,41.6177 		"/>
		<polygon fill="#656565" points="361.9248,54.0032 346.2818,52.4638 367.6635,64.7391 		"/>
		<polygon fill="#919191" points="361.9248,54.0032 356.3322,41.4059 346.2818,52.4638 361.9248,54.0032 		"/>
		<polygon fill="#656565" points="373.4023,54.0032 389.0453,52.4638 367.6635,64.7391 		"/>
		<polygon fill="#919191" points="373.4023,54.0032 379.0012,41.4064 389.0453,52.4638 373.4023,54.0032 		"/>
		<path fill="#494949" stroke="#494949" stroke-width="0.5" stroke-miterlimit="10" d="M367.6635,56.8596"/>
		<polygon fill="#2E2E2E" points="367.6635,56.8596 367.6635,64.7391 362.587,55.242 364.3948,51.6695 		"/>
		<polygon fill="#161616" points="363.6803,50.5352 361.9248,54.0032 356.3322,41.4059 357.9298,41.4059 		"/>
		<polygon fill="#2E2E2E" points="371.653,50.5358 373.4086,54.0038 379.0012,41.4064 377.4036,41.4064 		"/>
		<polygon fill="#161616" points="367.6635,56.8596 367.6635,64.7391 372.7601,55.2154 370.9377,51.6695 		"/>
		<path fill="#878787" d="M370.7545,39.2596"/>
		<polygon fill="#717171" points="385.3652,24.8454 378.6003,39.4945 367.6635,35.983 		"/>
	</g>
</g>
</svg>
