<?xml version="1.0" encoding="utf-8"?>
<!-- Generator: Adobe Illustrator 27.8.1, SVG Export Plug-In . SVG Version: 6.00 Build 0)  -->
<svg version="1.1" id="fe3d76f5-46b5-45da-a5bd-d5567e35d175"
	 xmlns="http://www.w3.org/2000/svg" xmlns:xlink="http://www.w3.org/1999/xlink" x="0px" y="0px" viewBox="0 0 34.9 40"
	 style="enable-background:new 0 0 34.9 40;" xml:space="preserve">
<style type="text/css">
	.st0{fill:#545FC4;}
	.st1{fill:#212121;}
</style>
<path class="st0" d="M0.5,9.6C0.2,9.8,0,10.1,0,10.5v19c0,0.3,0.2,0.7,0.5,0.8L17,39.9c0.3,0.2,0.7,0.2,1,0l16.5-9.5
	c0.3-0.2,0.5-0.5,0.5-0.8v-19c0-0.3-0.2-0.7-0.5-0.8L17.9,0.1c-0.3-0.2-0.7-0.2-1,0L0.5,9.6z"/>
<path class="st1" d="M20.8,21.3h-6.4c-0.8,0-1.4-0.6-1.4-1.4c0-0.7,0.6-1.4,1.3-1.4h6.5c0.8,0,1.4,0.6,1.4,1.3
	c0,0.8-0.6,1.4-1.3,1.4C20.9,21.3,20.9,21.3,20.8,21.3L20.8,21.3z"/>
<path class="st1" d="M26.9,20.3c0-0.8,0.6-4.5-6-8.1c-0.6,0.7-1.3,1.4-2,2c0.1,0.1,1.2,0.7,1.3,0.8c4,2,4,4.9,4,5.2v0.1v0.2
	c0,0.3-0.2,2.4-3.9,4.6c-4.9,2.8-5.7,5.3-5.8,5.7l2.7,0.7l0,0c0.3-0.6,0.6-1.1,1.1-1.5l4.4,2.5c0.7,0.4,1.5,0.1,1.9-0.5
	c0.4-0.7,0.1-1.5-0.5-1.9l-3.5-2c0.4-0.2,0.8-0.5,1.2-0.8C26.6,24.4,26.9,21,26.9,20.3z"/>
<path class="st1" d="M8.4,19.7c0,0.8-0.6,4.5,6,8.1c0.6-0.7,1.3-1.4,2-2c-0.1-0.1-1.2-0.7-1.3-0.8c-4-2-4-4.9-4-5.2v-0.1v-0.2
	c0-0.3,0.2-2.4,3.9-4.6c4.9-2.8,5.7-5.3,5.8-5.7l-2.7-0.7l0,0C17.8,9.1,17.5,9.6,17,10l-4.4-2.5c-0.7-0.4-1.5-0.1-1.9,0.6
	c-0.3,0.6-0.1,1.5,0.5,1.8l3.5,2c-0.4,0.2-0.8,0.5-1.2,0.8C8.7,15.6,8.4,19,8.4,19.7z"/>
</svg>
