<?xml version="1.0" encoding="utf-8"?>
<!-- Generator: Adobe Illustrator 26.0.1, SVG Export Plug-In . SVG Version: 6.00 Build 0)  -->
<svg version="1.1" id="Layer_1" xmlns="http://www.w3.org/2000/svg" xmlns:xlink="http://www.w3.org/1999/xlink" x="0px" y="0px"
	 viewBox="0 0 640 360" style="enable-background:new 0 0 640 360;" xml:space="preserve">
<style type="text/css">
	.st0{fill:#FF6584;}
	.st1{fill:#E6E6E6;}
	.st2{fill:#FFFFFF;}
	.st3{fill:#F2F2F2;}
	.st4{fill:#E34300;}
	.st5{fill:#F0F0F0;}
	.st6{fill:#3F3D56;}
	.st7{fill:#FFB6B6;}
	.st8{fill:#2F2E41;}
	.st9{opacity:0.2;enable-background:new    ;}
	.st10{fill:#CCCCCC;}
</style>
<g>
	<path class="st0" d="M313.6,50.8c-4.7,6.5-8.4,13.7-10.8,21.3c-2.1,6.7-3.7,13.5-4.8,20.4c-0.5-0.2-1-0.4-1.5-0.7
		c-11.1-5.4-15.7-18.7-10.3-29.8c3.7-7.7,11.5-12.5,20-12.5c1.9,0,3.8,0.2,5.6,0.7C312.4,50.5,313,50.6,313.6,50.8z"/>
	<path class="st1" d="M107.3,308.2c1.5-12.3,9.2-24.4,20.9-28.5c-4.6,12.7-4.6,26.6,0,39.3c1.8,4.9,4.3,10.1,2.6,15
		c-1.1,3.1-3.6,5.4-6.5,6.9c-2.9,1.5-6.1,2.2-9.3,2.8l-0.6,0.5C109.4,333,105.7,320.5,107.3,308.2z"/>
	<path class="st2" d="M128.3,280c-6.8,7.7-11.1,17.3-12.1,27.5c-0.3,2.2-0.2,4.4,0.2,6.6c0.5,2.1,1.5,4,3,5.6
		c1.4,1.5,2.9,2.9,3.9,4.6c1,1.9,1.1,4.1,0.4,6c-0.9,2.5-2.5,4.4-4.3,6.3c-1.9,2.1-3.9,4.3-4.7,7.1c-0.1,0.3-0.6,0.2-0.5-0.2
		c1.4-4.9,6.1-7.6,8.4-12c1-2,1.5-4.4,0.5-6.6c-0.9-1.9-2.5-3.3-3.8-4.8c-1.5-1.5-2.5-3.3-3.1-5.4c-0.5-2.1-0.7-4.4-0.5-6.6
		c0.4-5,1.6-9.8,3.5-14.4c2.1-5.3,5.2-10.1,8.9-14.3C128.2,279.3,128.5,279.8,128.3,280L128.3,280z"/>
	<path class="st2" d="M116.3,304.2c-3.5-0.8-5.9-4.1-5.6-7.7c0-0.4,0.6-0.3,0.5,0c-0.3,3.3,1.9,6.4,5.2,7.1
		C116.8,303.8,116.6,304.3,116.3,304.2L116.3,304.2z"/>
	<path class="st2" d="M118.6,319c3.1-1.8,5.3-4.7,6.3-8.1c0.1-0.3,0.6-0.2,0.5,0.2c-1.1,3.5-3.4,6.6-6.6,8.5
		C118.5,319.7,118.3,319.2,118.6,319z"/>
	<path class="st2" d="M121.6,289.2c1.3,0.6,2.7,0.5,3.9-0.2c0.3-0.2,0.5,0.3,0.2,0.5c-1.3,0.8-3,0.9-4.4,0.2
		c-0.1-0.1-0.2-0.2-0.2-0.3C121.3,289.2,121.5,289.2,121.6,289.2L121.6,289.2z"/>
	<path class="st1" d="M164,301.8c-0.2,0.1-0.4,0.2-0.6,0.4c-2.5,1.6-4.8,3.5-7,5.5c-0.2,0.2-0.3,0.3-0.5,0.5
		c-5.2,4.9-9.4,10.7-12.5,17.1c-1.2,2.6-2.2,5.2-3.1,7.9c-1.1,3.8-2.1,7.9-4.3,11c-0.2,0.3-0.5,0.6-0.7,0.9h-20.2c0,0-0.1,0-0.1-0.1
		l-0.8,0c0-0.1,0.1-0.3,0.1-0.4c0-0.1,0-0.2,0.1-0.2c0-0.1,0-0.1,0-0.2c0,0,0,0,0-0.1c0-0.1,0-0.1,0-0.1c0.2-0.8,0.4-1.7,0.6-2.5
		c0,0,0,0,0,0c1.6-6.3,3.9-12.4,6.9-18.2c0.1-0.2,0.2-0.3,0.3-0.5c1.4-2.6,3-5,4.8-7.3c1-1.3,2-2.5,3.1-3.6c2.9-3,6.2-5.4,9.8-7.4
		c7.3-3.8,15.7-5.3,23.4-3C163.6,301.7,163.8,301.7,164,301.8z"/>
	<path class="st2" d="M163.9,302c-10.1,2-19.3,7.1-26.3,14.6c-1.5,1.6-2.8,3.4-3.8,5.4c-0.9,2-1.2,4.1-1,6.3c0.2,2,0.6,4,0.3,6
		c-0.3,2.1-1.6,3.9-3.3,5c-2.2,1.4-4.7,2-7.2,2.5c-2.8,0.5-5.7,1-8,2.8c-0.3,0.2-0.6-0.2-0.3-0.4c4-3,9.5-2.4,13.9-4.5
		c2.1-1,3.8-2.6,4.4-4.9c0.4-2,0-4.1-0.2-6.1c-0.3-2.1,0-4.2,0.7-6.2c0.9-2,2.1-3.9,3.6-5.5c3.3-3.7,7.2-6.9,11.4-9.4
		c4.9-2.9,10.2-5,15.8-6.1C164.2,301.4,164.3,302,163.9,302L163.9,302z"/>
	<path class="st2" d="M139.8,314.1c-2.3-2.8-2.2-6.8,0.2-9.5c0.2-0.3,0.7,0.1,0.4,0.4c-2.2,2.5-2.3,6.3-0.1,8.8
		C140.5,314.1,140,314.4,139.8,314.1L139.8,314.1z"/>
	<path class="st2" d="M132.7,327.4c3.5,0.4,7.1-0.6,9.9-2.7c0.3-0.2,0.6,0.2,0.3,0.4c-3,2.2-6.7,3.2-10.3,2.8
		C132.2,327.9,132.3,327.3,132.7,327.4z"/>
	<path class="st2" d="M153.1,305.4c0.6,1.2,1.9,2.1,3.3,2.2c0.4,0,0.3,0.6-0.1,0.5c-1.5-0.2-2.9-1.1-3.6-2.4
		c-0.1-0.1-0.1-0.3,0.1-0.4C152.8,305.2,153,305.2,153.1,305.4z"/>
	<path class="st1" d="M320.7,315.8c-8.4-9.1-12.7-22.8-8.2-34.3c6.7,11.7,17.3,20.7,30,25.4c4.9,1.8,10.5,3.2,13.2,7.7
		c1.7,2.8,1.8,6.3,1,9.4c-0.7,3.2-2.3,6-3.8,8.9l0,0.8C340.9,330.2,329.1,325,320.7,315.8z"/>
	<path class="st2" d="M312.8,281.5c1.4,10.2,6,19.6,13.1,27c1.5,1.6,3.3,3,5.2,4.1c1.9,1,4.1,1.4,6.2,1.3c2-0.1,4.1-0.4,6,0
		c2.1,0.5,3.8,1.8,4.8,3.6c1.3,2.2,1.8,4.8,2.1,7.3c0.4,2.8,0.7,5.7,2.3,8.2c0.2,0.3-0.3,0.6-0.5,0.3c-2.8-4.2-1.9-9.6-3.7-14.1
		c-0.9-2.1-2.4-4-4.7-4.6c-2-0.6-4.1-0.2-6.1-0.2c-2.1,0.1-4.2-0.2-6.1-1.1c-2-1-3.8-2.3-5.3-3.9c-3.5-3.5-6.5-7.5-8.8-12
		c-2.6-5-4.4-10.5-5.2-16.1C312.2,281.2,312.7,281.2,312.8,281.5L312.8,281.5z"/>
	<path class="st2" d="M323.5,306.3c-2.9,2.1-6.9,1.8-9.5-0.7c-0.2-0.2,0.1-0.6,0.4-0.4c2.4,2.4,6.1,2.6,8.8,0.6
		C323.5,305.7,323.8,306.1,323.5,306.3z"/>
	<path class="st2" d="M336.3,314.2c0.6-3.5-0.2-7.1-2.1-10.1c-0.2-0.3,0.3-0.6,0.5-0.3c2,3.1,2.8,6.8,2.2,10.5
		C336.8,314.6,336.2,314.5,336.3,314.2L336.3,314.2z"/>
	<path class="st2" d="M315.5,292.6c1.3-0.6,2.2-1.8,2.4-3.1c0.1-0.3,0.6-0.2,0.5,0.1c-0.2,1.5-1.2,2.8-2.6,3.5
		c-0.1,0.1-0.3,0-0.4-0.1C315.3,292.8,315.4,292.6,315.5,292.6L315.5,292.6z"/>
	<path class="st1" d="M352.4,268.4c0,0.2-0.1,0.4-0.1,0.7c-0.4,2.9-0.5,5.9-0.4,8.9c0,0.2,0,0.5,0,0.7c0.4,7.1,2.1,14.1,5,20.6
		c1.2,2.6,2.5,5.1,4.1,7.5c2.1,3.3,4.7,6.7,5.6,10.4c0.1,0.4,0.2,0.8,0.2,1.2l-13.1,15.4c0,0-0.1,0-0.1,0.1l-0.5,0.6
		c-0.1-0.1-0.2-0.2-0.3-0.4c-0.1-0.1-0.1-0.1-0.2-0.2c0,0-0.1-0.1-0.1-0.1c0,0,0,0,0,0c0,0-0.1-0.1-0.1-0.1c-0.5-0.7-1-1.4-1.5-2.1
		c0,0,0,0,0,0c-3.8-5.3-6.9-11-9.4-17c-0.1-0.2-0.1-0.4-0.2-0.6c-1-2.7-1.9-5.5-2.5-8.4c-0.3-1.6-0.6-3.1-0.7-4.7
		c-0.4-4.1-0.2-8.2,0.7-12.3c1.8-8,6.1-15.4,12.9-19.8C352.1,268.6,352.3,268.5,352.4,268.4z"/>
	<path class="st2" d="M352.6,268.6c-5,9-7,19.3-5.8,29.5c0.2,2.2,0.8,4.4,1.7,6.4c0.9,1.9,2.4,3.6,4.2,4.8c1.6,1.2,3.5,2.1,4.8,3.7
		c1.4,1.6,2,3.7,1.7,5.8c-0.3,2.6-1.5,4.9-2.8,7.1c-1.4,2.5-2.9,5-3.1,7.9c0,0.4-0.6,0.3-0.5-0.1c0.3-5,4.3-8.8,5.5-13.5
		c0.6-2.2,0.5-4.6-1-6.5c-1.3-1.6-3.1-2.7-4.8-3.8c-1.8-1.1-3.2-2.7-4.2-4.5c-1-2-1.6-4.1-1.9-6.3c-0.7-4.9-0.6-9.9,0.2-14.8
		c0.9-5.6,2.8-11,5.6-15.9C352.3,268,352.8,268.3,352.6,268.6L352.6,268.6z"/>
	<path class="st2" d="M346.2,294.8c-3.6-0.1-6.6-2.7-7.1-6.3c-0.1-0.3,0.5-0.4,0.5-0.1c0.5,3.3,3.3,5.8,6.6,5.8
		C346.6,294.3,346.6,294.8,346.2,294.8L346.2,294.8z"/>
	<path class="st2" d="M351.8,308.8c2.6-2.4,4.1-5.8,4.4-9.3c0-0.4,0.6-0.3,0.5,0.1c-0.2,3.7-1.9,7.2-4.6,9.7
		C351.8,309.4,351.5,309,351.8,308.8L351.8,308.8z"/>
	<path class="st2" d="M348.1,279c1.4,0.3,2.8-0.1,3.8-1.1c0.3-0.2,0.6,0.2,0.3,0.4c-1.1,1.1-2.7,1.5-4.2,1.2c-0.1,0-0.3-0.1-0.2-0.3
		C347.9,279.1,348,279,348.1,279L348.1,279z"/>
	<circle class="st3" cx="238.7" cy="283.2" r="13.5"/>
	<circle class="st4" cx="228.7" cy="161.8" r="5"/>
	<circle class="st5" cx="159.8" cy="217.7" r="5"/>
	<path class="st4" d="M456.5,0H86.1C85,0,84,0.9,84,2.1v12.2c0,1.1,0.9,2.1,2.1,2.1h370.4c1.1,0,2.1-0.9,2.1-2.1V2.1
		C458.6,0.9,457.6,0,456.5,0z"/>
	<circle id="bf385270-786a-48fa-9396-8c3f6b000715" class="st2" cx="96.1" cy="7.6" r="2.9"/>
	<circle id="b392df74-abbd-431b-8c66-4fa606d2fd26" class="st2" cx="107.3" cy="7.6" r="2.9"/>
	<circle id="b54b329d-692f-4021-a3df-82df9db82412" class="st2" cx="118.4" cy="7.6" r="2.9"/>
	<path class="st2" d="M445.5,3.6h-12.9c-0.5,0-1,0.4-1,1s0.4,1,1,1h12.9c0.5,0,1-0.4,1-1S446.1,3.6,445.5,3.6L445.5,3.6z"/>
	<path class="st2" d="M445.5,7.2h-12.9c-0.5,0-1,0.4-1,1s0.4,1,1,1h12.9c0.5,0,1-0.4,1-1S446.1,7.2,445.5,7.2L445.5,7.2z"/>
	<path class="st2" d="M445.5,10.8h-12.9c-0.5,0-1,0.4-1,1c0,0.5,0.4,1,1,1c0,0,0,0,0,0h12.9c0.5,0,1-0.4,1-1
		C446.5,11.2,446.1,10.8,445.5,10.8L445.5,10.8z"/>
	<path id="a53fb1f8-3aef-4d80-830f-cc7df7624a2a-290" class="st1" d="M97.9,106.4c-1.1,0-1.9,1.4-1.9,3.1c0,1.7,0.9,3.1,1.9,3.1
		h145.3c1.1,0,1.9-1.4,1.9-3.1c0-1.7-0.9-3.1-1.9-3.1H97.9z"/>
	<path id="bb62af06-a55e-49de-a8ab-ddae6c01ce32-291" class="st1" d="M97.9,124.3c-1.1,0-1.9,1.4-1.9,3.1c0,1.7,0.9,3.1,1.9,3.1
		h145.3c1.1,0,1.9-1.4,1.9-3.1c0-1.7-0.9-3.1-1.9-3.1H97.9z"/>
	<path id="be19a32e-edc4-40d3-83d1-fa4636256d4d-292" class="st1" d="M97.9,142c-1.1,0-1.9,1.4-1.9,3.1c0,1.7,0.9,3.1,1.9,3.1h93.2
		c1.1,0,1.9-1.4,1.9-3.1c0-1.7-0.9-3.1-1.9-3.1H97.9z"/>
	<path class="st3" d="M87.4,340.1c0-0.1,0.1-0.2,0.2-0.3C87.7,338.9,87.4,340.1,87.4,340.1z"/>
	<path class="st1" d="M113.8,326.2c-1.8,0-3.7,0.1-5.5,0.4l-0.3,0c-12.1,1.9-20.8,12.5-20.4,24.7l0.1,2.2c0,1.4,0.1,2.9,0.1,4.6
		c0,0.8,0.7,1.5,1.5,1.5h294.5c20.8-0.2,41.4-0.5,61.5-0.8c3.8,0,7.5-0.3,11.2-1c5.6-1.1,9.4-3.4,11.8-6.9h0c3-4.4,3.1-9.8,2.9-16
		c-0.4-12.5-0.7-25.7-1.1-38.8c-0.3-11.5-0.6-23.1-1-34.1c-0.2-6.5-0.6-12.3-4-16.7c-3.6-4.8-10.3-7.2-19.8-7.2c-0.1,0-0.2,0-0.3,0
		c-29.7,0.2-59.1,17.9-73.2,44c-1.6,3-3.1,6.2-4.6,9.3c-2.1,4.7-4.4,9.2-7.1,13.6c-1.4,2.2-2.9,4.3-4.7,6.3
		c-0.1,0.1-0.2,0.3-0.4,0.4c-0.3,0.4-0.6,0.7-1,1c-1.8,1.8-3.8,3.4-5.9,4.7l-0.2,0.1c-0.2,0.1-0.3,0.2-0.5,0.3
		c-1.2,0.7-2.4,1.2-3.7,1.7c-5.4,2.1-11.5,2.5-18.2,1.5c-6.3-1.1-12.4-3.2-18-6.4c-6.2-3.4-12-7.6-17.6-11.7c-2.5-1.8-5-3.6-7.5-5.4
		c-0.5-0.3-0.9-0.7-1.4-1c-3.1-2.1-5.9-3.8-8.6-5.3c-6.3-3.5-13.3-5.8-20.5-6.6c-7.4-0.7-13.9,0.6-19.3,3.9c-1.6,0.9-3,2-4.4,3.3
		c-6.4,5.8-10.4,14.4-14.3,22.6c-4.8,10.3-9.7,20.9-19.5,26.5c-11.3,6.4-27.7,3.7-39.3-0.9c-3.7-1.4-7.3-3.1-10.8-4.7
		c-1.4-0.7-2.9-1.3-4.3-1.9c-2.8-1.3-5.1-2.2-7.2-3l-0.7-0.3c-0.4-0.1-0.7-0.3-1.1-0.4c-2.4-0.9-4.8-1.6-7.2-2.2l-0.5-0.1
		c-1.1-0.3-2.1-0.5-3.1-0.6l-0.4-0.1C117.9,326.4,115.9,326.2,113.8,326.2z"/>
	<path class="st1" d="M278.8,326.6c-4.9-18.4,6-36.4,18.7-48.8c6.8-6.6,14.3-12.4,21.7-18.3c7.1-5.6,13.8-11.7,20.1-18.1
		c12.3-12.6,23-26.9,30.1-43c6.7-15.3,9.9-32.1,8.3-48.8c-1.5-15.9-7.2-31.5-17.7-43.7c-1.3-1.5-2.7-3-4.1-4.4
		c-0.8-0.7-2,0.4-1.2,1.2c11.7,11.4,18.5,26.7,20.8,42.7c2.4,16.5-0.1,33.3-6.2,48.8c-6.6,16.4-17,31.1-29.1,43.9
		c-6.1,6.4-12.6,12.4-19.4,18c-7.3,6-14.9,11.7-21.9,18.2c-12.8,11.9-24.4,28.2-22.8,46.6c0.2,2.1,0.6,4.3,1.1,6.3
		c0.1,0.4,0.6,0.7,1,0.5C278.7,327.4,278.9,327,278.8,326.6L278.8,326.6z"/>
	<path class="st1" d="M330.2,221.6c0.2,0.4,0.1,0.9-0.3,1.1c-0.4,0.2-0.9,0.1-1.1-0.3c-1.9-3.3-3.7-6.6-5.4-10
		c-1.1-2.3-2.3-4.7-3.3-7c-11.6-26.3-16.6-55-14.5-83.6c0.6-7.8,1.7-15.6,3.4-23.3c0.3-1.6,0.7-3.1,1.1-4.7c0.6-0.1,1.2-0.2,1.8-0.4
		c-3.6,13.1-5.1,27-5.1,40.5c-0.1,15.3,1.9,30.6,5.9,45.4C316.5,194.2,322.4,208.4,330.2,221.6z"/>
	<path class="st1" d="M439.9,176.3c-6.3,13.5-16.8,24.5-28.6,33.4c-13.4,10-28.5,17.2-43.6,24.4c-1,0.5-1.8-1-0.8-1.4
		c3.6-1.7,7.2-3.4,10.7-5.2c14.2-7,28.4-14.7,40.3-25.3c11-9.8,20-22,24.1-36.3c4.3-14.9,3.5-31-1.1-45.7c-2.9-8.9-7-17.4-12.2-25.2
		c-1.7-2.6-3.6-5.2-5.5-7.6c-1.4-1.8-2.9-3.6-4.3-5.3c-4.9-5.6-10.2-10.8-15.9-15.6c-5.9-5.1-12.5-9.4-19.5-12.9
		c-7.2-3.5-15.1-5.4-23.1-5.6c-7.6-0.1-15,1.9-21.6,5.7c-4.5,2.7-8.5,6-11.9,10c-0.2-0.6-0.5-1.1-0.7-1.7
		c5.9-6.5,13.2-11.6,21.8-14.1c15.8-4.5,32.5,0.8,45.8,9.5c6.5,4.3,12.6,9.3,18.1,14.8c2.1,2,4.1,4.1,6,6.2c2.3,2.6,4.6,5.2,6.7,7.9
		c3.2,4.1,0,0,0,0c0.7,0.9,1.4,1.8,2.1,2.8c9,12.3,15.7,26.3,18.4,41.4C447.9,145.8,446.6,162.1,439.9,176.3z"/>
	<path class="st1" d="M429.3,160.2c-6.3,13.5-16.8,24.5-28.6,33.4c-12.8,9.5-27.2,16.6-41.6,23.4c-0.7,0.3-1.3,0.6-2,0.9
		c-0.2,0.1-0.5,0.1-0.7,0c-0.4-0.1-0.7-0.6-0.5-1c0.1-0.2,0.2-0.4,0.4-0.5c0.6-0.3,1.1-0.5,1.7-0.8c1-0.5,1.9-0.9,2.9-1.4
		c2.1-1,4.1-2,6.2-3c14.2-7,28.4-14.7,40.3-25.3c11-9.8,20-22,24.1-36.3c4.3-14.9,3.5-31-1.1-45.7c-1.8-5.8-4.2-11.4-7.1-16.7
		c-1.6-3.1-3.4-6-5.4-8.9c-2.9-4.4-6.1-8.6-9.6-12.5c-4.9-5.6-10.2-10.8-15.9-15.6c-5.9-5.1-12.5-9.4-19.5-12.9
		c-7.2-3.5-15.1-5.4-23.1-5.6c-7.6-0.1-15.1,1.9-21.6,5.7c-5.7,3.4-10.7,8-14.7,13.4c-4.7,6.5-8.4,13.7-10.8,21.3
		c-2.1,6.7-3.7,13.5-4.8,20.4c-1.3,8.3-1.9,16.8-1.9,25.2c0,15.3,1.9,30.6,5.9,45.4c3.9,14.8,9.8,29,17.6,42.3c0,0,0,0.1,0.1,0.1
		c0.2,0.4-0.1,0.9-0.5,1.1c-0.4,0.1-0.8,0-1-0.3c-1.9-3.3-3.7-6.6-5.4-10c-13.9-28.1-20-59.4-17.7-90.7c0.3-4.6,0.9-9.1,1.6-13.7
		c0.5-3.2,1.1-6.4,1.8-9.6c1.6-7.8,4.2-15.4,7.7-22.6c1.7-3.3,3.6-6.4,5.8-9.4c6.4-8.6,15.1-15.6,25.5-18.6
		c15.8-4.5,32.5,0.8,45.8,9.5c6.5,4.3,12.6,9.3,18.1,14.8c5.4,5.2,10.4,10.9,14.9,17c3.1,4.2,6,8.7,8.5,13.4c0,0,0,0,0,0
		c1.5,2.8,2.9,5.7,4.1,8.6c2.7,6.2,4.6,12.7,5.8,19.4C437.3,129.7,436,145.9,429.3,160.2z"/>
	<path class="st1" d="M377.8,166c7.4,0,14.5-2.6,20.2-7.4c5.8-4.9,9.6-11.6,10.7-19.1c0.7-4.2,0.4-8.5-0.6-12.7
		c-0.1-0.4-0.6-0.7-1-0.5c-0.4,0.1-0.7,0.6-0.6,1c1.8,7,1,14.4-2.3,20.9c-5.1,9.9-15.2,16.1-26.3,16.1c-0.5,0-0.8,0.4-0.8,0.9
		C377,165.6,377.4,166,377.8,166L377.8,166z"/>
	<path class="st1" d="M315,261l-5.4-9.5c-0.2-0.4-0.8-0.5-1.2-0.3c-0.4,0.2-0.5,0.7-0.3,1.1l5.4,9.5c0.2,0.4,0.8,0.5,1.2,0.3
		C315.1,261.8,315.2,261.4,315,261z"/>
	<path class="st1" d="M283.6,67.8c-1.6-1.1-3.4-2.3-5.3-2.3c-4.8,0.1-7.3,7.1-12.1,6.9c-3-0.2-5.1-3.2-7.9-4.4
		c-3.7-1.5-8.4,1.4-8.8,5.3l0.5-0.4c14.3,3.5,29.2,4.2,43.7,2C290.4,72.5,287,70.2,283.6,67.8z"/>
	<circle class="st2" cx="263.9" cy="347.3" r="4.8"/>
	<circle class="st2" cx="277.9" cy="347.3" r="4.8"/>
	<circle class="st2" cx="291.8" cy="347.3" r="4.8"/>
	
		<ellipse transform="matrix(0.1602 -0.9871 0.9871 0.1602 -109.4066 565.9974)" class="st6" cx="277.9" cy="347.3" rx="3.9" ry="3.9"/>
	<polygon class="st7" points="504,349 498.7,349 496.2,328.6 504,328.6 	"/>
	<path class="st8" d="M506.8,358.1H503l-0.7-3.6l-1.7,3.6h-10c-1.2,0-2.3-1-2.3-2.3c0-0.7,0.4-1.4,1-1.9l8-5.5v-3.6l8.4,0.5
		L506.8,358.1z"/>
	<polygon class="st7" points="473.7,344.5 468.7,346.3 459.5,327.9 466.8,325.3 	"/>
	<path class="st8" d="M480.1,349.6l-3.3,1.9l-2.4-2.7l0.3,4l-8.7,5.1c-1.1,0.6-2.5,0.3-3.1-0.8c-0.4-0.6-0.4-1.4-0.1-2.1l4.1-8.8
		l-1.8-3.1l7.5-3.8L480.1,349.6z"/>
	<path class="st8" d="M505,336.5L505,336.5l-1.2-36.6c1.5-2.8,1.4-6.2-0.1-9l-0.2-0.3l0.4-1.9c0.5-2.5,0.3-5.1-0.7-7.4l-1-34.1
		c3.7-24.2-13.8-43.2-13.8-43.2h-28l-4.7,22.9l-15,57.2c-1.3,2-1.6,4.6-0.7,6.9l21.2,42l-0.2,0.1c-0.6,0.4-0.9,1.2-0.6,1.8
		c0.3,0.8,1,1.3,1.6,1.1l8.3-4.2c0.6-0.4,0.9-1.2,0.6-1.8c-0.3-0.8-1-1.3-1.6-1.1l-1,0.5l-6.4-31.6l-0.2-6.4l0.5-7.3l13.8-31.3
		l8.2,40.5l12.1,43.8c-0.6,0.6-0.7,1.5-0.1,2.2c0.3,0.3,0.7,0.5,1.1,0.5h7.7c0.9,0,1.5-0.7,1.5-1.5
		C506.5,337.2,505.8,336.5,505,336.5z"/>
	<path class="st7" d="M491.5,187.8l-0.7,8.4c0,0-0.3,6.9-1.3,8.5c-1,1.5-28.8,1.7-28.8,1.7s-1.8-9.9-3.4-18.5H491.5z"/>
	<circle class="st7" cx="477.6" cy="121.5" r="14.3"/>
	<path class="st4" d="M485,138.5l-11.4,1.3c-1,0.1-1.8,0.8-2,1.8l-1.8,8.3l-11.3,13.4c0,0-4.1,7.6-2.5,16.3
		c1.5,8.7,2.2,15.1,2.2,15.1s30.4,11.4,31.5,9.9c1-1.5,1.3-8.5,1.3-8.5l4.1-45.3c0,0-4.6-7.6-7.1-7.6
		C486.1,143.1,486.3,139.4,485,138.5z"/>
	<polygon class="st9" points="479.9,167.8 474.8,205.5 469.5,205.8 	"/>
	<ellipse class="st4" cx="457.7" cy="194" rx="2.9" ry="3.5"/>
	<path class="st7" d="M477.6,240.6c2.3-2.3,2.3-6,0-8.3c-0.2-0.2-0.5-0.5-0.8-0.7l9.5-46.2l-10.3,3.2l-7.7,44.7
		c-1.7,2.8-0.8,6.4,2,8.1C472.7,242.9,475.7,242.6,477.6,240.6L477.6,240.6z"/>
	<path class="st4" d="M485.2,144.4c0,0,6.9-3,11,4.5c4.2,7.5-1.8,33.5-2.7,37.7s-12.4,24.3-12.4,24.3l-11.6-2.3L485.2,144.4z"/>
	<path class="st8" d="M471.2,107.9c4.9-3.4,9.3-3.9,12.9-3c0.5-0.7,1.1-1.3,1.9-1.7c2.8-7,11.3-11.3,18.6-9.2
		c7.3,2.1,12.4,10.2,11,17.7c-0.9,4.6-3.8,8.7-5,13.2c-2.3,8.9,3.3,19,12,21.9c-8.2,1.7-17.3-3.4-20.2-11.2c-1.4-3.8-1.5-8-1.7-12
		c-0.2-4.1-0.5-8.3-2.4-11.9c-1.2-2.5-3.3-4.5-5.8-5.6c0.5,1.4,0.2,3-0.7,4.2c1.9,2.4,3,5,3,6.6c4,7.3-1.7,13.6-9,17.6
		c-2.9,1.6-6.3,2.2-9.6,1.7l-0.3-1.3l-0.4,1.2l-1.4,3.9c-1.6,0.8-3.2,1.6-4.8,2.5c0.6-2.8,1.1-5.6,1.4-8.3c0.5-3.7-1.1-9.3-2.3-12.6
		c-0.7-2.1-1.1-4.3-1.1-6.5v-0.1l-1.1,3.6l-4.1-1.7C462.8,112.4,462,107.4,471.2,107.9z"/>
	<path class="st10" d="M556,359.1c0,0.5-0.4,0.9-0.9,0.9H381.4c-0.5,0-0.9-0.4-0.9-0.9s0.4-0.9,0.9-0.9H555
		C555.5,358.2,556,358.6,556,359.1C556,359.1,556,359.1,556,359.1z"/>
</g>
</svg>
