<?xml version="1.0" encoding="utf-8"?>
<!-- Generator: Adobe Illustrator 26.0.1, SVG Export Plug-In . SVG Version: 6.00 Build 0)  -->
<svg version="1.1" id="Layer_1" xmlns="http://www.w3.org/2000/svg" xmlns:xlink="http://www.w3.org/1999/xlink" x="0px" y="0px"
	 viewBox="0 0 640 360" enable-background="new 0 0 640 360" xml:space="preserve">
<g>
	<path fill="#F2F2F2" d="M80.9216,252.9308c-2.6391,0.2839-5.5181,0.7101-8.5805,1.3337
		c-12.9848,2.644-13.2543,11.461-13.1405,13.4824l-0.0882-0.055c-1.3056,2.0944-2.1234,4.214-2.6176,6.2145l-0.5946-27.0229
		c0.3845-0.8017,0.7343-1.7107,1.026-2.6424c0.972,2.9932,2.5653,5.8209,3.9387,5.6335c1.7859-0.2437,2.5645-5.4987,2.2314-9.233
		c2.2711,2.9248,6.0932,6.0528,7.5351,5.0883c1.1522-0.7707,0.469-3.9438-0.7889-6.8284c2.621,1.5791,5.5238,2.6169,6.4246,1.6142
		c1.2292-1.3683-1.7162-6.037-4.4325-8.6432c3.636,0.3391,8.2603-0.2402,8.5635-1.8951c0.2498-1.3635-2.5024-3.084-5.4482-4.1913
		c2.9588-0.7802,5.7257-2.1395,5.6339-3.4843c-0.109-1.5975-4.2168-2.6679-7.7607-2.8307c2.673-2.0912,5.129-4.982,4.3779-6.2894
		c-0.6905-1.2019-3.9027-0.7364-6.8663,0.3223c1.7538-2.5074,2.9869-5.3329,2.0478-6.2998
		c-1.1698-1.2045-5.3213,0.8745-8.1546,3.1724c0.5516-3.58,0.2727-8.099-1.333-8.5079c-1.3433-0.342-3.2472,2.2867-4.5525,5.1502
		c-0.5769-3.0051-1.7448-5.8581-3.0927-5.8581c-1.9201,0-3.4767,5.7892-3.4767,9.5609c0,0.2132,0.0056,0.4139,0.0154,0.6057
		c-0.1927-0.2234-0.4136-0.4569-0.6655-0.7015c-2.7057-2.6277-7.9432-5.5443-9.2809-4.1669
		c-0.939,0.9669,0.294,3.7924,2.0478,6.2998c-2.9636-1.0586-6.1758-1.5242-6.8663-0.3222
		c-0.9278,1.6151,3.0381,5.6467,6.2617,7.6018c-0.1938-0.0233-0.3974-0.043-0.614-0.0578
		c-3.7629-0.2567-9.6447,0.9021-9.7754,2.8178c-0.0918,1.3447,2.6751,2.7041,5.6339,3.4843
		c-2.9458,1.1073-5.698,2.8279-5.4482,4.1913c0.3032,1.6548,4.9275,2.2341,8.5635,1.8951
		c-2.7163,2.6062-5.6617,7.2749-4.4325,8.6432c0.9008,1.0027,3.8036-0.0352,6.4246-1.6142
		c-1.2579,2.8847-1.9411,6.0577-0.7889,6.8284c1.5226,1.0186,5.6986-2.5264,7.9003-5.5767
		c-0.2243,3.7317,0.6686,8.8584,2.4403,9.0607c0.7409,0.0846,1.526-0.7056,2.2346-1.9222l-2.0067,29.0464
		c-0.4691,3.3827,2.5314,5.5901,2.7996,6.9834l0.4328,19.6697c-0.4885-1.4009-1.1465-2.8347-2.0334-4.2574l-0.0882,0.055
		c0.1138-2.0216-0.1559-10.8383-13.1405-13.4823c-3.0624-0.6236-5.9414-1.0498-8.5805-1.3337
		c-3.1152-0.3352-4.3303,3.9292-1.5161,5.3065c4.0755,1.9947,7.9093,4.5079,9.9075,7.4841
		c5.1088,7.6089,12.1676,3.2106,13.1713,2.5276c1.121,1.8661,1.856,3.7461,2.3203,5.535l0.2299,10.4459
		c-0.0563,0.247-0.0953,0.3854-0.0983,0.3958l0.1077,0.0316l0.5563,25.2799l5.1602-0.0414l-1.8457-25.8398
		c0.3102-1.3939,1.2643-6.1425,0-11.0742l-1.8457-20.3027l0,0c-0.0046-0.0157,0.1048,0.5331,0,0l-2.4076-7.9775
		c0.3501-2.468,1.1626-5.244,2.8127-7.9908c1.0036,0.6829,8.0625,5.0813,13.1713-2.5277c1.9982-2.9762,5.832-5.4894,9.9075-7.4841
		C85.2519,256.8599,84.0367,252.5956,80.9216,252.9308L80.9216,252.9308z M57.3494,312.7421l-0.0973-4.421
		C57.4483,309.9927,57.4384,311.5015,57.3494,312.7421z"/>
	<path fill="#3F3D56" d="M14.5629,342.6818c0,0.5511,0.4425,0.9936,0.9936,0.9936h608.887c0.551,0,0.9935-0.4425,0.9935-0.9936
		c0-0.551-0.4425-0.9935-0.9935-0.9935H15.5565C15.0055,341.6883,14.5629,342.1308,14.5629,342.6818z"/>
	<g>
		<circle fill="#3F3D56" cx="384.0739" cy="298.4781" r="45.0848"/>
		<circle fill="#FFFFFF" cx="384.0739" cy="298.4781" r="30.0565"/>
		<circle fill="#3F3D56" cx="384.0739" cy="298.4781" r="17.1155"/>
		<circle fill="#3F3D56" cx="123.5839" cy="298.4781" r="45.0848"/>
		<circle fill="#FFFFFF" cx="123.5839" cy="298.4781" r="30.0565"/>
		<path fill="#F56539" d="M445.7496,277.0358c-5.873-14.8003-26.3951-60.0273-62.9398-74.9954
			c-0.2811-0.1151-0.5765-0.1939-0.8773-0.2371l-117.2251-16.7912c-1.9318-0.2767-3.7293,1.0448-4.0413,2.9712l-2.0554,12.6892
			c-0.1411,0.8712,0.0424,1.7634,0.5206,2.5053c5.9534,9.2364,44.1072,71.923-16.991,71.923
			c-60.1385,0-77.9375-43.7275-80.6101-51.443c-0.2525-0.7288-0.2626-1.5136-0.0304-2.249l18.5219-58.6525
			c0.3294-1.0435,0.1472-2.1118-0.3848-2.9657l8.1418-15.1221l14.9139,8.4427l7.7212,0.0937l26.3586,13.7759l5.3678-8.7665
			l-54.3615-27.1147c0,0,0.0927-6.2815-17.4402-11.2909l-27.5518-12.5236l-3.3396,4.1745l8.349,6.6792l0.8349,5.0094l5.8443,1.6698
			l11.6887,22.5424l-3.3396,6.459l4.0536,1.9764l-1.1643-0.2646c-1.6763-0.381-3.3869,0.4834-4.0744,2.059l-18.4205,42.2136
			c-0.2818,0.6459-0.7481,1.1943-1.3402,1.5763l-6.5617,4.2334c-0.6131,0.3956-1.0907,0.9691-1.3688,1.6436l-7.4944,18.1784
			c-0.2336,0.5664-0.3002,1.1603-0.2399,1.7347c-9.3425,1.7702-36.8062,9.4154-51.8892,39.5814l17.533,14.1934
			c0,0,27.4833-17.7824,72.9051,0.7354c7.8946,12.2881,19.4124,22.486,36.0409,23.4473
			c43.8414,2.5343,116.4781,5.039,124.8271-4.9798c6.1123-7.3347,10.3642-11.9141,12.2038-13.8414
			c0.6481-0.679,1.5327-1.0717,2.471-1.1017l102.233-3.2655C445.0202,281.8601,446.6654,279.3438,445.7496,277.0358z"/>
		<circle fill="#3F3D56" cx="163.6593" cy="132.3323" r="13.3585"/>
		<path fill="#3F3D56" d="M377.5904,202.0916c-0.1582,0-0.3171-0.0033-0.477-0.009l-111.692-4.3237
			c-4.9426-0.1916-9.1758-3.338-10.7845-8.0156l-1.5288-4.4489c-1.2475-3.6274-0.7053-7.5133,1.4872-10.6605
			c2.1924-3.1476,5.6487-5.0033,9.4832-5.0918l115.3977-2.6527c3.5736-0.0819,7.0135,1.448,9.3462,4.2018
			c2.3318,2.753,3.2825,6.3653,2.6075,9.91l-2.1761,11.4245C388.1743,198.0932,383.31,202.0916,377.5904,202.0916z"/>
		<circle fill="#3F3D56" cx="123.5839" cy="298.4781" r="17.1155"/>
		<path fill="#3F3D56" d="M422.4616,249.7504c-2.6735,0-5.219-1.4317-6.5757-3.8867l-8.4616-15.312
			c-1.3404-2.4256-1.2638-5.276,0.2047-7.6258c1.4684-2.3506,4.0049-3.6772,6.7649-3.5255l15.3503,0.7868
			c2.8586,0.1468,5.4269,1.9446,6.5431,4.5822l4.486,10.601c0.8202,1.9413,0.7998,4.0693-0.0571,5.9944
			c-0.8577,1.9242-2.4272,3.3624-4.4191,4.0498l-11.3748,3.9218C424.1102,249.6167,423.2802,249.7504,422.4616,249.7504z"/>
		<path fill="#3F3D56" d="M228.3056,351.5166c-0.1272,0-0.2552-0.0074-0.384-0.0212l-3.4089-0.3791
			c-1.1137-0.1239-2.0775-0.7493-2.6449-1.7163c-0.5675-0.9662-0.6433-2.1133-0.2087-3.1464l17.7311-42.1113l0.3848,0.1622
			l-0.3848-0.1622c0.4868-1.1562,1.5622-1.9707,2.8064-2.1264c1.2108-0.1541,2.3914,0.3221,3.1619,1.2662
			c0.7705,0.9434,0.998,2.1957,0.6091,3.3502l-14.3222,42.4904C231.1626,350.5569,229.7953,351.5166,228.3056,351.5166z"/>
	</g>
	<path fill="#A0616A" d="M320.3677,57.6418c0,0-6.4868-12.9737-5.1895-24.6501l-21.5895,11.1905l0.8316,21.2438L320.3677,57.6418
		L320.3677,57.6418z"/>
	<circle fill="#A0616A" cx="306.9697" cy="30.6989" r="19.4754"/>
	<g>
		<polygon fill="#A0616A" points="326.8637,336.5378 314.9794,336.5366 309.326,290.6969 326.8661,290.6982 		"/>
		<path fill="#2F2E41" d="M286.1469,336.2682L286.1469,336.2682c-0.37,0.6232-0.5653,2.6346-0.5653,3.3593l0,0
			c0,2.2277,1.8058,4.0335,4.0335,4.0335h36.804c1.5197,0,2.7517-1.2319,2.7517-2.7517v-1.5323c0,0,1.8207-4.6053-1.9278-10.2815
			c0,0-4.6588,4.4446-11.6202-2.5168l-2.0529-3.7189l-14.8599,10.8678l-8.2366,1.0138c-1.802,0.2218-3.3997-0.0344-4.3266,1.5267
			L286.1469,336.2682L286.1469,336.2682z"/>
	</g>
	<path fill="#E6E6E6" d="M291.8255,57.6418l28.5422-3.8921l22.0553,10.379l1.2974,80.437c0,0-54.2547,6.4869-62.8051-1.9461
		c-8.5504-8.4329-2.0635-75.8962-2.0635-75.8962L291.8255,57.6418L291.8255,57.6418z"/>
	<path fill="#2F2E41" d="M302.0984,35.6604h-5.2356c0,0-4.5426-5.5917-3.9315-2.1847c0.6111,3.407-1.8334,7.0738-1.8334,7.0738
		l-3.6668-1.2223c0,0-7.3337-30.8362,14.6674-32.53s26.8902,15.4181,26.8902,15.4181s-1.2223,8.556-3.6668,6.1114
		s-15.8897-3.6668-15.8897-3.6668L302.0984,35.6604C302.0984,35.6604,302.0984,35.6604,302.0984,35.6604z"/>
	<g>
		<polygon fill="#A0616A" points="278.6118,245.7805 267.7428,250.5867 244.0302,210.9515 260.0717,203.8576 		"/>
		<path fill="#2F2E41" d="M241.2658,262.0041L241.2658,262.0041c-0.0863,0.7196,0.5488,2.6381,0.8419,3.3009l0,0
			c0.9011,2.0373,3.2831,2.9583,5.3204,2.0572l33.6586-14.8874c1.3898-0.6147,2.0182-2.2397,1.4034-3.6296l-0.6198-1.4013
			c0,0-0.1978-4.9482-5.9219-8.623c0,0-2.4628,5.9492-11.6452,2.3987l-3.3817-2.5707l-9.1938,15.9498l-7.1226,4.259
			c-1.5583,0.9317-3.123,1.3437-3.3392,3.1463L241.2658,262.0041L241.2658,262.0041z"/>
	</g>
	<path fill="#2F2E41" d="M339.8282,136.7815l3.8921,11.7683v40.4535l-12.7132,36.6482l1.0369,85.4477h-22.8112l-2.5743-87.1588
		l2.0329-43.0482l-15.5685-6.4869l-40.8928,2.5239l19.1235,47.0112l-21.044,14.0361c0,0-31.474-71.7283-26.7647-78.6774
		c4.7094-6.9491,59.8476-19.2077,59.8476-19.2077S339.8282,138.0788,339.8282,136.7815L339.8282,136.7815L339.8282,136.7815z"/>
	<g>
		<path fill="#A0616A" d="M351.5046,90.0761l6.2723,10.2729c0,0,8.8671,34.8516,0,34.9933
			c-8.8671,0.1418-26.7698-17.761-26.7698-17.761l2.3343-9.3421l6.4868,2.5947l-1.2974-20.7579L351.5046,90.0761
			C351.5046,90.0761,351.5046,90.0761,351.5046,90.0761z"/>
		<path fill="#E6E6E6" d="M332.044,63.9652c0,0,20.7579-3.6572,22.704,9.9295s3.0289,26.4543,3.0289,26.4543l-22.4895,1.8631
			L332.044,63.9652C332.044,63.9652,332.044,63.9652,332.044,63.9652z"/>
		
			<ellipse transform="matrix(0.5801 -0.8145 0.8145 0.5801 47.9955 312.3941)" fill="#A0616A" cx="327.0082" cy="109.6432" rx="5.857" ry="11.7141"/>
	</g>
	<path fill="#F2F2F2" d="M507.5574,252.9308c-2.6391,0.2839-5.518,0.7101-8.5804,1.3337
		c-12.9848,2.644-13.2543,11.461-13.1405,13.4824l-0.0882-0.055c-1.3057,2.0944-2.1234,4.214-2.6176,6.2145l-0.5946-27.0229
		c0.3845-0.8017,0.7343-1.7107,1.026-2.6424c0.972,2.9932,2.5653,5.8209,3.9387,5.6335c1.7859-0.2437,2.5645-5.4987,2.2314-9.233
		c2.2711,2.9248,6.0932,6.0528,7.5351,5.0883c1.1522-0.7707,0.469-3.9438-0.7889-6.8284c2.621,1.5791,5.5238,2.6169,6.4246,1.6142
		c1.2292-1.3683-1.7162-6.037-4.4325-8.6432c3.636,0.3391,8.2603-0.2402,8.5635-1.8951c0.2498-1.3635-2.5024-3.084-5.4482-4.1913
		c2.9588-0.7802,5.7257-2.1395,5.6339-3.4843c-0.109-1.5975-4.2168-2.6679-7.7607-2.8307c2.673-2.0912,5.129-4.982,4.3779-6.2894
		c-0.6905-1.2019-3.9026-0.7364-6.8663,0.3223c1.7538-2.5074,2.9869-5.3329,2.0478-6.2998
		c-1.1697-1.2045-5.3213,0.8745-8.1546,3.1724c0.5516-3.58,0.2727-8.099-1.333-8.5079c-1.3433-0.342-3.2472,2.2867-4.5525,5.1502
		c-0.5769-3.0051-1.7448-5.8581-3.0927-5.8581c-1.9201,0-3.4767,5.7892-3.4767,9.5609c0,0.2132,0.0056,0.4139,0.0154,0.6057
		c-0.1927-0.2234-0.4136-0.4569-0.6655-0.7015c-2.7057-2.6277-7.9432-5.5443-9.2809-4.1669
		c-0.9391,0.9669,0.294,3.7924,2.0478,6.2998c-2.9636-1.0586-6.1758-1.5242-6.8663-0.3222
		c-0.9278,1.6151,3.0381,5.6467,6.2617,7.6018c-0.1938-0.0233-0.3974-0.043-0.614-0.0578
		c-3.7629-0.2567-9.6447,0.9021-9.7754,2.8178c-0.0918,1.3447,2.6751,2.7041,5.6339,3.4843
		c-2.9458,1.1073-5.698,2.8279-5.4482,4.1913c0.3032,1.6548,4.9275,2.2341,8.5635,1.8951
		c-2.7163,2.6062-5.6617,7.2749-4.4325,8.6432c0.9008,1.0027,3.8036-0.0352,6.4246-1.6142
		c-1.2579,2.8847-1.9411,6.0577-0.7889,6.8284c1.5226,1.0186,5.6986-2.5264,7.9003-5.5767
		c-0.2243,3.7317,0.6686,8.8584,2.4402,9.0607c0.7409,0.0846,1.526-0.7056,2.2346-1.9222l-2.0067,29.0464
		c-0.4691,3.3827,2.5314,5.5901,2.7996,6.9834l0.4329,19.6697c-0.4885-1.4009-1.1465-2.8347-2.0334-4.2574l-0.0882,0.055
		c0.1138-2.0216-0.1559-10.8383-13.1405-13.4823c-3.0624-0.6236-5.9414-1.0498-8.5804-1.3337
		c-3.1151-0.3352-4.3303,3.9292-1.5162,5.3065c4.0756,1.9947,7.9093,4.5079,9.9076,7.4841
		c5.1088,7.6089,12.1676,3.2106,13.1712,2.5276c1.121,1.8661,1.856,3.7461,2.3203,5.535l0.2299,10.4459
		c-0.0563,0.247-0.0953,0.3854-0.0984,0.3958l0.1077,0.0316l0.5563,25.2799l5.1602-0.0414l-1.8457-25.8398
		c0.3102-1.3939,1.2643-6.1425,0-11.0742l-1.8457-20.3027l0,0c-0.0046-0.0157,0.1048,0.5331,0,0l-2.4077-7.9775
		c0.3501-2.468,1.1626-5.244,2.8128-7.9908c1.0036,0.6829,8.0625,5.0813,13.1713-2.5277c1.9982-2.9762,5.832-5.4894,9.9075-7.4841
		c2.8142-1.3773,1.599-5.6417-1.5162-5.3065L507.5574,252.9308z M483.9853,312.7421l-0.0973-4.421
		C484.0842,309.9927,484.0742,311.5015,483.9853,312.7421z"/>
	<g>
		<path fill="#2F2E41" d="M360.5686,19.8009c4.4573-1.6859,4.1903-4.2394,10.2065-7.5205c2.5799-1.407,4.6391-2.5301,7.5205-2.6859
			c5.0839-0.2748,8.9588,2.6652,11.818,4.8346c4.163,3.1587,6.3678,6.7026,7.5206,8.5949c1.9336,3.174,2.826,5.8224,3.7603,8.5949
			c1.3742,4.0782,1.9001,7.1314,2.6859,11.818c1.1727,6.9946,1.759,10.4919,1.0743,13.4296
			c-1.2695,5.4468-4.0633,5.8249-3.7603,9.1321c0.5118,5.5867,8.6301,6.1053,9.6693,11.818
			c0.8619,4.7384-3.6209,10.4418-8.5949,12.3552c-3.0187,1.1612-5.7982,0.7649-13.4296-1.6115
			c-20.2435-6.3039-23.492-10.617-30.0822-8.5949c-3.7482,1.1501-5.7979,3.4967-11.2808,3.7603
			c-3.5062,0.1686-7.7369-0.5473-8.0577-2.1487c-0.4081-2.037,5.9651-3.2317,6.4462-6.9834
			c0.5048-3.9368-6.14-5.5313-6.4462-10.2065c-0.3-4.58,5.9355-5.2143,9.1321-12.3552c1.6078-3.5917,1.43-8.4825,1.0744-18.2642
			c-0.2744-7.5485-1.0059-10.4686,1.0743-12.3552C353.24,19.2897,355.6116,21.6758,360.5686,19.8009
			C360.5686,19.8009,360.5686,19.8009,360.5686,19.8009z"/>
		<g>
			<polygon fill="#A0616A" points="447.4711,338.3293 456.4409,336.3904 453.2326,300.8694 439.9939,303.7307 			"/>
			<path fill="#2F2E41" d="M478.1596,331.4858L478.1596,331.4858c0.3809,0.41,0.8563,1.8964,0.9745,2.4434l0,0
				c0.3633,1.6814-0.7052,3.339-2.3867,3.7022l-27.7791,6.0019c-1.147,0.2478-2.2779-0.4811-2.5257-1.6282l-0.2499-1.1565
				c0,0-2.1252-3.179-0.2217-8.0747c0,0,4.2412,2.595,8.3603-3.7946l0.943-3.1418l12.9883,5.7795l6.3822-0.578
				c1.3963-0.1265,2.5604-0.5804,3.5146,0.4467l0.0001,0H478.1596z"/>
		</g>
		<g>
			<polygon fill="#A0616A" points="463.5155,335.6119 470.9989,330.2999 454.0726,298.9066 443.0276,306.7463 			"/>
			<path fill="#2F2E41" d="M489.0357,317.2452L489.0357,317.2452c0.5115,0.2271,1.5334,1.4065,1.8574,1.8629l0,0
				c0.9956,1.4028,0.6655,3.3471-0.7374,4.3427l-23.1767,16.4482c-0.957,0.6792-2.2834,0.454-2.9626-0.5031l-0.6848-0.9649
				c0,0-3.2047-2.0864-3.381-7.3361c0,0,4.9201,0.7168,6.1928-6.7782l-0.3693-3.2594l14.2147,0.2027l5.64-3.0426
				C486.8626,317.5517,487.7542,316.6764,489.0357,317.2452L489.0357,317.2452L489.0357,317.2452z"/>
		</g>
		<path fill="#2F2E41" d="M355.7088,159.994c0,0-13.955,18.9729,13.955,40.3036l56.9827-18.2083l-20.351-42.4463l-18.0251-9.8847
			L355.7088,159.994L355.7088,159.994z"/>
		<polyline fill="#2F2E41" points="426.6465,182.0893 448.7418,225.1171 462.6967,314.6613 445.2531,315.8242 427.8094,230.9316 
			396.9922,184.9966 418.5061,175.1118 		"/>
		<path fill="#2F2E41" d="M369.6638,186.7821v13.5154l39.539,43.4261c0,0,0,32.5616,15.1179,47.6794l17.4437,26.747l15.1179-8.1404
			l-22.0954-77.9151l-39.539-51.1682L369.6638,186.7821L369.6638,186.7821z"/>
		<path fill="#A0616A" d="M397.7607,52.7899l-7.4484,28.3971l-28.3971-5.5863c0,0,11.1726-20.4832,8.3795-29.7937L397.7607,52.7899
			L397.7607,52.7899L397.7607,52.7899z"/>
		<circle fill="#A0616A" cx="385.6111" cy="36.5141" r="21.6385"/>
		<path fill="#3F3D56" d="M376.0598,57.0762l17.4437,8.1404c0,0,8.9737,5.4849,9.1385,9.1385
			c0.1648,3.6536-0.9981,21.0972-0.9981,21.0972s6.9774,6.9775,2.3258,20.9324l2.3258,23.2582l-52.3311,27.9099l4.6516-48.8423
			l-2.3258-45.3536L376.0598,57.0762L376.0598,57.0762z"/>
		<g>
			<path id="uuid-7b14ab42-c1a1-40ac-9892-55f573797ae2-303" fill="#A0616A" d="M360.4018,189.4176
				c2.0424,4.6861,6.1158,7.4306,9.0978,6.1304c2.982-1.3003,3.743-6.1524,1.6993-10.8399c-0.7907-1.8836-2.021-3.5505-3.588-4.8612
				l-8.9044-19.7457l-9.177,4.3761l9.7525,19.0011C359.1756,185.5192,359.5596,187.5557,360.4018,189.4176L360.4018,189.4176z"/>
			<path fill="#3F3D56" d="M369.6638,76.2643c0,0-12.792-8.1404-17.4437,1.1629s-15.1179,56.9827-15.1179,56.9827l15.1179,45.3536
				l13.955-5.8146l-12.2106-48.8103L369.6638,76.2643L369.6638,76.2643z"/>
		</g>
		<g>
			<path id="uuid-79383bd8-827d-46c7-ab74-7e3a51a2154c-304" fill="#A0616A" d="M435.2257,182.097
				c3.6251,3.604,8.4231,4.6549,10.7163,2.3475c2.2932-2.3074,1.2132-7.0986-2.4137-10.7035
				c-1.429-1.4599-3.1869-2.5563-5.1265-3.1975l-15.5525-15.0764l-6.9194,7.4491l16.0666,14.0718
				C432.6495,178.9245,433.7567,180.6763,435.2257,182.097L435.2257,182.097z"/>
			<path fill="#3F3D56" d="M402.15,73.4901c0,0-22.3019-0.9121-23.199,9.4506c-0.8971,10.3626,14.3488,56.6012,14.3488,56.6012
				l30.763,36.5942l10.8313-10.5467l-29.3336-40.8788L402.15,73.4901z"/>
		</g>
		<path fill="#2F2E41" d="M377.5558,55.6044c-1.045-1.0803-5.5267-2.2421-4.1664-4.9583c0.4467-0.8919,1.6006-1.5008,2.5407-1.3831
			c1.7821,0.2232,2.2567,2.9897,3.0467,2.8845c1.0429-0.1389,1.3389-5.1104,1.4656-10.4517
			c0.206-8.6807-0.2426-9.5894,0.8689-10.9219c1.0229-1.2264,1.7655-0.8914,13.2097-2.648c3.8638-0.5931,5.1227-0.8375,6.998-0.2887
			c3.5656,1.0433,4.9038,3.65,6.3106,3.0384c1.3547-0.5889,1.6797-3.6871,0.9046-6.0576c-1.1072-3.3863-4.3949-5.09-6.6901-6.2391
			c-5.8595-2.9336-10.1059-1.9797-10.7679-4.1328c-0.496-1.6134,1.8187-2.375,2.0348-5.6507
			c0.2317-3.5124-2.2042-6.0547-2.3593-6.2116c-1.5308-1.5496-3.2866-2.0271-4.0504-2.2245
			c-1.0695-0.2765-2.3235-0.6007-3.7974-0.0907c-0.2948,0.102-2.1124,0.7612-2.9477,2.5133
			c-0.7972,1.6721-0.0804,3.0405-0.6874,3.3272c-0.689,0.3253-1.57-1.4581-4.0503-2.2245c-0.5235-0.1617-1.2584-0.3809-2.197-0.2805
			c-1.9699,0.2107-3.2106,1.6545-3.5444,2.0431c-0.8662,1.0081-1.1411,2.0011-1.6911,3.9871
			c-0.2831,1.0222-0.6091,2.2318-0.6242,3.8606c-0.0101,1.0935-0.0194,2.0884,0.3795,3.2007c0,0,0.6487,1.8093,4.3665,4.8918l0,0
			c-0.0001-0.0001-1.5567-1.5446-2.3235-1.3474c-1.312,0.3375-6.4047,2.056-8.9063,7.0063
			c-1.1313,2.2387-1.8678,1.8927-2.758,4.1136c-0.2095,0.5228-1.7437,4.5209-0.055,8.6616
			c1.2917,3.1671,2.9935,2.8002,3.9596,6.0219c0.4618,1.5399,0.0687,1.6096,0.6957,5.8679c0.3604,2.4478,3.5408,0.5,4.0917,1.5447
			c0.3722,0.706-5.2231,21.4466-2.1838,24.3192C367.6061,80.5891,380.6437,58.7964,377.5558,55.6044L377.5558,55.6044z"/>
	</g>
	<g>
		<path fill="#FFFFFF" d="M380.2034,140.9124l-18.6289-56.5468c-15.0596-13.2707-31.3972,18.6813-75.2551,0.5692l13.7946,63.9628
			C333.2737,130.9722,361.816,123.9514,380.2034,140.9124z"/>
		<path fill="#3F3D56" d="M300.1139,149.7328c-0.119,0-0.2381-0.0253-0.3489-0.0766c-0.2389-0.1097-0.4117-0.3253-0.4672-0.5822
			l-13.7947-63.9631c-0.0652-0.3033,0.0424-0.618,0.2813-0.817c0.2381-0.1989,0.5667-0.2491,0.8537-0.1309
			c24.915,10.2895,40.9967,4.1635,52.7367-0.3098c8.9263-3.4012,15.9749-6.0849,22.752-0.1142
			c0.1117,0.0983,0.1949,0.2242,0.2413,0.3653l18.6288,56.5468c0.119,0.3612-0.0212,0.7574-0.3416,0.9633
			c-0.3196,0.205-0.7395,0.1692-1.0175-0.0885c-16.1665-14.9121-41.3098-12.3377-79.1267,8.1065
			C300.3871,149.6993,300.2509,149.7328,300.1139,149.7328z M287.4673,86.2976l13.2288,61.3389
			c36.2857-19.4323,61.138-22.427,77.7814-9.2961L360.854,84.8451c-5.9707-5.113-12.2382-2.7249-20.884,0.5687
			C328.1974,89.8985,312.1613,96.0086,287.4673,86.2976C287.4673,86.2976,287.4673,86.2976,287.4673,86.2976z"/>
	</g>
	<g>
		<path fill="#A0616A" d="M263.8559,90.911l-6.2723,10.2729c0,0-8.8671,34.8516,0,34.9933
			c8.8671,0.1418,26.7697-17.761,26.7697-17.761l-2.3342-9.3421l-6.4869,2.5947l1.2974-20.7579L263.8559,90.911
			C263.8559,90.911,263.8559,90.911,263.8559,90.911z"/>
		<path fill="#E6E6E6" d="M283.3164,64.8001c0,0-20.7579-3.6572-22.704,9.9295s-3.0289,26.4543-3.0289,26.4543l22.4895,1.8631
			L283.3164,64.8001C283.3164,64.8001,283.3164,64.8001,283.3164,64.8001z"/>
		
			<ellipse transform="matrix(0.8145 -0.5801 0.5801 0.8145 -10.6098 187.7705)" fill="#A0616A" cx="288.3523" cy="110.4781" rx="11.7141" ry="5.857"/>
	</g>
	<circle fill="#3F3D56" cx="503.5055" cy="342.0219" r="7.045"/>
	<circle fill="#3F3D56" cx="512.8987" cy="352.955" r="7.045"/>
	<circle fill="#3F3D56" cx="583.3483" cy="352.955" r="7.045"/>
	<path fill="#3F3D56" d="M523.2182,247.5016v-76.5172c0-8.5663,7.1641-10.6828,15.7304-10.6828c4.1981,0,6.2397-0.488,9.1839,2.5047
		c2.9438,2.9927,6.2242,4.2355,6.1553,8.4333l-1.2328,75.0831L523.2182,247.5016z M539.7835,165.311
		c-7.6458,0-14.8955-1.9724-14.8955,5.6734v74.7806l26.5233-1.0485l1.2067-73.5046c0.0616-3.7461-6.0325-3.2298-8.66-5.9009
		C541.3302,162.6399,543.5304,165.311,539.7835,165.311L539.7835,165.311z"/>
	<path fill="#E6E6E6" d="M502.25,246.5808l-1.0717,83.5993c-0.0138,1.0761,0.2429,2.1385,0.7464,3.0897l7.8978,14.918
		c1.1617,2.1943,3.4833,3.5233,5.9637,3.4139l69.351-3.0596c3.5498-0.1566,6.2991-3.1639,6.1375-6.7135l-4.3464-95.4577
		c-0.1563-3.4325-2.9847-6.135-6.4208-6.135h-71.8307C505.1592,240.2358,502.295,243.0635,502.25,246.5808L502.25,246.5808z"/>
	<path fill="#3F3D56" d="M529.5836,284.3083l-1.6674-0.0832l0.6188-12.3735c0.3331-6.6646,5.8195-12.0058,12.4905-12.1615
		l29.5339-0.6865c5.965-0.1044,10.9019,4.4207,11.2329,10.3809l0.6282,11.3136l-1.6674,0.093l-0.6282-11.3136
		c-0.2805-5.0551-4.497-8.9263-9.5264-8.804l-29.5339,0.6865c-5.8011,0.1345-10.5724,4.7803-10.8623,10.5749L529.5836,284.3083z"/>
	<path fill="#3F3D56" d="M528.4062,344.2339l-1.6608-0.1696l3.6017-35.119c0.6661-6.4942,6.0856-11.6112,12.6063-11.9031
		l28.805-1.2915c3.6287-0.1639,7.0771,1.1211,9.7143,3.6168c2.6376,2.4958,4.1113,5.8688,4.1497,9.4995l0.3221,30.5759
		l-1.6698,0.0179l-0.3221-30.5759c-0.0334-3.1741-1.3217-6.1232-3.6274-8.3042s-5.3315-3.3062-8.4917-3.1619l-28.805,1.2915
		c-5.7004,0.2552-10.4379,4.7281-11.0205,10.4045L528.4062,344.2339z"/>
	<path fill="#3F3D56" d="M515.4949,341.8115l-1.6698-0.0212l1.0558-80.251c0.0721-5.488,4.4257-9.9129,9.9113-10.0743
		l56.7702-1.6723l0.0489,1.6698l-56.7702,1.6723c-4.5883,0.1345-8.23,3.8362-8.2903,8.4257L515.4949,341.8115z"/>
	<path fill="#3F3D56" d="M515.6445,330.3755h-1.1605V257.288c0-2.3127-1.8785-4.1996-4.1996-4.1996h-6.4872v-1.6698h6.4872
		c3.0641,0,5.5855,2.3628,5.8443,5.3517c0.0167,0.167,0.0251,0.3423,0.0251,0.5176v34.6068L515.6445,330.3755z"/>
</g>
</svg>
