<?xml version="1.0" encoding="utf-8"?>
<!-- Generator: Adobe Illustrator 26.0.1, SVG Export Plug-In . SVG Version: 6.00 Build 0)  -->
<svg version="1.1" id="Layer_1" xmlns="http://www.w3.org/2000/svg" xmlns:xlink="http://www.w3.org/1999/xlink" x="0px" y="0px"
	 viewBox="0 0 512 258" style="enable-background:new 0 0 512 258;" xml:space="preserve">
<style type="text/css">
	.st0{fill:#00A0E3;}
</style>
<path class="st0" d="M116.4,54.1c22.3,0.2,38.4,6.6,48.4,19.3s13.3,29.9,9.9,51.8c-1.3,10-4.2,19.8-8.8,29.5
	c-4.3,9.6-10.4,18.3-18.1,26.1c-9.4,9.8-19.5,16.1-30.3,18.7c-10.8,2.6-21.9,4-33.4,4h-34l-10.8,53.8H0L40.5,54.1H116.4z
	 M452.3,54.1c22.3,0.2,38.4,6.6,48.4,19.3s13.3,29.9,9.9,51.8c-1.3,10-4.2,19.8-8.8,29.5c-4.3,9.6-10.4,18.3-18.1,26.1
	c-9.4,9.8-19.5,16.1-30.3,18.7c-10.8,2.6-21.9,4-33.4,4h-34l-10.8,53.8h-39.4l40.5-203.1L452.3,54.1L452.3,54.1z M258.8,0l-11,54.1
	h35.1c19.3,0.4,33.6,4.3,43.1,11.9c9.6,7.6,12.5,21.9,8.5,43.1l-19,94.3h-39.7l18.1-90.1c1.9-9.4,1.3-16.1-1.7-20.1
	s-9.5-5.9-19.5-5.9L241.2,87L218,203.4h-39.1L219.7,0H258.8z M85.8,86.4c-2.3,0.2-4.4,0.3-6.5,0.3h-5.7l-16.9,84.7
	c1.1,0.2,2.3,0.3,3.4,0.3h4c18.1,0.2,33.2-1.6,45.3-5.4c12.1-4,20.2-17.8,24.4-41.4c3.4-19.8,0-31.3-10.2-34.3
	C113.5,87.6,101,86.2,85.8,86.4z M421.7,86.4c-2.3,0.2-4.4,0.3-6.5,0.3h-5.7l-16.9,84.7c1.1,0.2,2.3,0.3,3.4,0.3h4
	c18.1,0.2,33.2-1.6,45.3-5.4c12.1-4,20.2-17.8,24.4-41.4c3.4-19.8,0-31.3-10.2-34.3C449.4,87.6,436.9,86.2,421.7,86.4z"/>
</svg>
