<?xml version="1.0" encoding="utf-8"?>
<!-- Generator: Adobe Illustrator 26.0.1, SVG Export Plug-In . SVG Version: 6.00 Build 0)  -->
<svg version="1.1" id="Layer_1" xmlns="http://www.w3.org/2000/svg" xmlns:xlink="http://www.w3.org/1999/xlink" x="0px" y="0px"
	 viewBox="0 0 640 360" enable-background="new 0 0 640 360" xml:space="preserve">
<g>
	<path fill="#E6E6E6" d="M563.9841,318.0839H422.1686c-10.7428-0.0119-19.4486-8.7176-19.4607-19.4604V74.9253
		c0.0121-10.7429,8.7179-19.4486,19.4607-19.4607h141.8154c10.7429,0.0121,19.4487,8.7179,19.4608,19.4607v223.6982
		C583.4327,309.3663,574.7269,318.072,563.9841,318.0839z"/>
	<path fill="#FFFFFF" d="M566.3359,67.077H421.9012c-3.3628,0.0041-6.0879,2.7292-6.0921,6.092v226.6149
		c0.0052,3.3624,2.7297,6.0869,6.0921,6.0921h144.4347c3.3629-0.0042,6.0879-2.7292,6.092-6.0921V73.169
		C572.4238,69.8062,569.6987,67.0811,566.3359,67.077z"/>
	<path fill="#E6E6E6" d="M425.635,55.4645c0.0009-0.8218,0.667-1.4878,1.4888-1.4888h10.1237
		c0.8222-0.0011,1.4897,0.6645,1.4908,1.4867c0.0011,0.8222-0.6645,1.4897-1.4867,1.4908c-0.0014,0-0.0027,0-0.0041,0h-10.1237
		C426.302,56.9523,425.636,56.2864,425.635,55.4645z"/>
	<path fill="#E6E6E6" d="M442.3093,55.4645c0.0009-0.8218,0.667-1.4878,1.4888-1.4888h10.1236
		c0.8222-0.0011,1.4897,0.6645,1.4908,1.4867c0.0011,0.8222-0.6645,1.4897-1.4867,1.4908c-0.0014,0-0.0027,0-0.0041,0H443.798
		C442.9762,56.9523,442.3102,56.2864,442.3093,55.4645z"/>
	<path fill="#E6E6E6" d="M542.3547,55.4645c0.0009-0.8218,0.667-1.4878,1.4888-1.4888h10.1237
		c0.8222,0.0011,1.4879,0.6686,1.4867,1.4908c-0.0011,0.8206-0.6661,1.4856-1.4867,1.4867h-10.1237
		C543.0217,56.9524,542.3557,56.2864,542.3547,55.4645z"/>
	<path fill="#F2F2F2" d="M514.1335,301.2072c0,1.5662-0.0297,3.1264-0.1013,4.6688h-92.1311
		c-3.3624-0.0052-6.0869-2.7297-6.0921-6.0921V185.7202C472.4806,194.8762,514.1345,243.8008,514.1335,301.2072z"/>
	<path fill="#F56539" d="M476.6448,125.3127h34.36c1.5635,0,2.8311,1.2675,2.8311,2.8311v3.5328
		c0,1.5636-1.2676,2.8311-2.8311,2.8311h-34.36c-1.5636,0-2.8311-1.2675-2.8311-2.8311v-3.5328
		C473.8137,126.5802,475.0812,125.3127,476.6448,125.3127z"/>
	<path fill="#E6E6E6" d="M454.8067,143.7027h78.0363c1.5636,0,2.8311,1.2675,2.8311,2.8311v3.5328
		c0,1.5636-1.2675,2.8311-2.8311,2.8311h-78.0363c-1.5636,0-2.8311-1.2675-2.8311-2.8311v-3.5328
		C451.9756,144.9702,453.2431,143.7027,454.8067,143.7027z"/>
	<path fill="#E6E6E6" d="M454.8067,162.0926h78.0363c1.5636,0,2.8311,1.2675,2.8311,2.8311v3.5328
		c0,1.5636-1.2675,2.8311-2.8311,2.8311h-78.0363c-1.5636,0-2.8311-1.2675-2.8311-2.8311v-3.5328
		C451.9756,163.3602,453.2431,162.0926,454.8067,162.0926z"/>
	<path fill="#CCCCCC" d="M519.4804,290.3885c-1.2052,0.0554-2.2271-0.8767-2.2824-2.0818
		c-0.0296-0.6434,0.2263-1.2671,0.6992-1.7043l0.1497-0.595c-0.0197-0.0477-0.0395-0.0953-0.0594-0.1429
		c-1.2631-2.9834-4.7055-4.3781-7.689-3.115c-1.4174,0.6001-2.5422,1.7333-3.1318,3.1552
		c-1.7698,4.2625-4.023,8.5323-4.5779,13.0392c-0.2444,1.9921-0.1413,4.0116,0.3047,5.9684
		c-4.1568-9.0674-6.3152-18.9227-6.3291-28.8976c-0.0009-2.5031,0.1382-5.0042,0.4166-7.4918
		c0.23-2.0393,0.5492-4.064,0.9575-6.0742c2.2279-10.9073,7.0114-21.1305,13.9576-29.8302
		c3.3619-1.8343,6.0808-4.6552,7.7902-8.0824c0.6193-1.2319,1.0569-2.5471,1.2994-3.9044
		c-0.3793,0.0497-0.7647,0.0808-1.1439,0.1057c-0.1182,0.0062-0.2425,0.0124-0.3607,0.0187l-0.0446,0.002
		c-1.1941,0.0536-2.2055-0.871-2.2592-2.0651c-0.0237-0.5295,0.1476-1.0494,0.4817-1.4609c0.1638-0.2015,0.3276-0.403,0.4916-0.6042
		c0.2487-0.3109,0.5036-0.6155,0.7523-0.9263c0.0287-0.0295,0.0557-0.0607,0.0807-0.0933c0.2861-0.3544,0.572-0.7025,0.858-1.0569
		c-0.522-0.8103-1.2242-1.489-2.0517-1.9832c-2.8661-1.6786-6.8203-0.5161-8.8906,2.0765
		c-2.0766,2.5925-2.4682,6.2297-1.7471,9.4688c0.7093,2.7562,1.8824,5.3717,3.4693,7.7342
		c-0.1555,0.199-0.3171,0.3917-0.4725,0.5907c-2.8413,3.6535-5.3177,7.5767-7.3936,11.7133
		c0.5048-4.6342-0.0977-9.3221-1.7581-13.6779c-1.6828-4.0595-4.8369-7.4785-7.6145-10.9879
		c-3.3363-4.2154-10.1778-2.3757-10.7656,2.968c-0.0057,0.0518-0.0112,0.1035-0.0166,0.1552
		c0.4126,0.2328,0.8164,0.4798,1.2115,0.7411c1.3607,0.9091,1.7267,2.7491,0.8176,4.1098
		c-0.4614,0.6906-1.1915,1.1558-2.0123,1.2823l-0.0604,0.0093c0.147,1.4869,0.4067,2.9605,0.7771,4.408
		c2.1696,8.1693,7.647,15.0639,15.114,19.0247c0.2425,0.1243,0.4788,0.2487,0.7213,0.3668
		c-2.0858,5.9108-3.394,12.0677-3.892,18.3159c-0.282,3.6863-0.2654,7.3893,0.0496,11.073l-0.0187-0.1306
		c-0.7959-4.096-2.9809-7.792-6.1862-10.4636c-4.7606-3.9106-11.4864-5.3507-16.6222-8.4941
		c-1.5805-1.0147-3.6844-0.5561-4.6991,1.0244c-0.4347,0.6771-0.6153,1.4864-0.5096,2.284c0.0068,0.0458,0.0139,0.0915,0.021,0.1373
		c0.7656,0.3118,1.511,0.6711,2.232,1.0756c0.4125,0.2328,0.8164,0.4798,1.2115,0.7411c1.3607,0.9091,1.7267,2.7492,0.8176,4.1098
		c-0.4614,0.6906-1.1914,1.1558-2.0122,1.2823l-0.0605,0.0093c-0.0435,0.0063-0.0808,0.0125-0.1243,0.0187
		c1.3082,3.1234,3.1441,5.9984,5.4276,8.4989c5.7012,6.1175,13.6717,9.6147,22.0338,9.6678h0.0063
		c1.1231,4.8806,2.7504,9.6311,4.8557,14.1752h17.346c0.0622-0.1927,0.1182-0.3917,0.1741-0.5844
		c-1.6056,0.101-3.2175,0.0049-4.7997-0.2859c1.287-1.5792,2.5739-3.1708,3.8609-4.75c0.0287-0.0295,0.0557-0.0607,0.0809-0.0932
		c0.6528-0.8082,1.3118-1.6103,1.9646-2.4185l0.0004-0.001c0.0348-2.4775-0.2495-4.9491-0.8459-7.354L519.4804,290.3885z
		 M499.6169,251.3137l0.0091-0.0123l-0.0091,0.0247V251.3137z M495.7747,285.9498l-0.1492-0.3357
		c0.0063-0.2425,0.0063-0.4849,0-0.7336c0-0.0685-0.0124-0.1368-0.0124-0.2052c0.0559,0.429,0.1057,0.858,0.1678,1.287
		L495.7747,285.9498z"/>
	<path fill="#CACACA" d="M559.1162,87.0839H429.1208c-0.5942-0.0131-1.0652-0.5054-1.0521-1.0996
		c0.0127-0.5757,0.4764-1.0394,1.0521-1.0521h129.9954c0.5942,0.0131,1.0652,0.5054,1.0521,1.0996
		C560.1556,86.6075,559.692,87.0713,559.1162,87.0839z"/>
	<ellipse fill="#3F3D56" cx="436.0565" cy="78.5887" rx="3.162" ry="3.2325"/>
	<ellipse fill="#3F3D56" cx="446.9799" cy="78.5887" rx="3.162" ry="3.2325"/>
	<ellipse fill="#3F3D56" cx="457.9034" cy="78.5887" rx="3.162" ry="3.2325"/>
	<path fill="#3F3D56" d="M554.0351,76.6051h-7.0762c-0.2959,0.0059-0.5311,0.2505-0.5251,0.5465
		c0.0057,0.2876,0.2375,0.5194,0.5251,0.5251h7.0762c0.2959-0.0059,0.531-0.2505,0.5251-0.5465
		C554.5544,76.8426,554.3226,76.6108,554.0351,76.6051L554.0351,76.6051z"/>
	<path fill="#3F3D56" d="M554.0351,78.6163h-7.0762c-0.2959,0.0059-0.5311,0.2505-0.5251,0.5465
		c0.0057,0.2876,0.2375,0.5194,0.5251,0.5251h7.0762c0.2959-0.0059,0.531-0.2506,0.5251-0.5465
		C554.5544,78.8538,554.3226,78.6221,554.0351,78.6163L554.0351,78.6163z"/>
	<path fill="#3F3D56" d="M554.0351,80.6249h-7.0762c-0.2959,0.0059-0.5311,0.2506-0.5251,0.5465
		c0.0057,0.2876,0.2375,0.5194,0.5251,0.5251h7.0762c0.2959-0.0059,0.531-0.2506,0.5251-0.5465
		C554.5544,80.8624,554.3226,80.6306,554.0351,80.6249L554.0351,80.6249z"/>
	<path fill="#E6E6E6" d="M343.1183,185.8053h-75.368c-2.2202,0.0034-4.0175,1.8054-4.0152,4.0256V308.89h83.4088V189.8308
		c0.0012-2.2221-1.7993-4.0244-4.0213-4.0256C343.1212,185.8053,343.1198,185.8053,343.1183,185.8053z M305.688,253.4532
		c-4.9057-0.0229-8.8769-3.994-8.8997-8.8997v-13.7324c0-4.9152,3.9845-8.8997,8.8997-8.8997c4.9152,0,8.8997,3.9845,8.8997,8.8997
		v13.7325C314.5648,249.4593,310.5936,253.4305,305.688,253.4532L305.688,253.4532z"/>
	<path fill="#CCCCCC" d="M263.4765,305.0818v11.4868c0.0026,1.2392,1.0065,2.2431,2.2457,2.2456h79.4348
		c1.2377-0.0062,2.2394-1.008,2.2456-2.2456v-11.4868L263.4765,305.0818z"/>
	<path fill="#E6E6E6" d="M467.9209,0H145.7523c-5.7629,0.0092-10.4324,4.6786-10.4416,10.4416v217.4007
		c0.0055,5.7644,4.6772,10.4361,10.4416,10.4416h322.1686c5.7644-0.0055,10.4361-4.6771,10.4416-10.4416V10.4416
		C478.3534,4.6786,473.6839,0.0092,467.9209,0z"/>
	<path fill="#FFFFFF" d="M465.2317,7.5418H148.444c-3.0858,0.0067-5.5839,2.51-5.5842,5.5958v212.0123
		c0.0053,3.0818,2.5023,5.5788,5.5842,5.5841h316.7877c3.0818-0.0053,5.5789-2.5023,5.5842-5.5841V13.1376
		C470.8156,10.0518,468.3175,7.5485,465.2317,7.5418z"/>
	<path fill="#F56539" d="M470.8159,13.1376v212.0123c-0.0053,3.0818-2.5023,5.5788-5.5842,5.5841H353.5253
		c-12.3575-11.4603-22.4956-25.1012-29.9059-40.2384c-0.4876-0.9752-0.952-1.962-1.3931-2.9604
		c-6.7517-14.6513-10.8402-30.3879-12.0739-46.4728c-0.0813-0.9868-0.1509-1.9736-0.1973-2.972
		c-0.1509-2.5541-0.2206-5.143-0.2206-7.7435c-0.0222-17.2954,3.2439-34.4373,9.6242-50.5129
		c0.3831-0.9984,0.7894-1.9852,1.2074-2.972c12.8406-30.1697,36.043-54.7556,65.4193-69.3202h79.2463
		C468.3175,7.5485,470.8156,10.0518,470.8159,13.1376z"/>
	<path fill="#CACACA" d="M449.3073,36.7523h-296.417c-0.651-0.0139-1.1675-0.5529-1.1536-1.204
		c0.0135-0.6314,0.5222-1.1401,1.1536-1.1536h296.417c0.651,0.0139,1.1675,0.5529,1.1535,1.204
		C450.4474,36.2302,449.9388,36.7388,449.3073,36.7523z"/>
	<ellipse fill="#3F3D56" cx="173.0678" cy="21.3142" rx="6.9081" ry="7.0621"/>
	<ellipse fill="#3F3D56" cx="196.9323" cy="21.3142" rx="6.9081" ry="7.0621"/>
	<ellipse fill="#3F3D56" cx="220.7968" cy="21.3142" rx="6.9081" ry="7.0621"/>
	<path fill="#3F3D56" d="M434.9389,16.0025h-16.9521c-0.7089,0.014-1.2722,0.6001-1.2582,1.309
		c0.0137,0.6891,0.5691,1.2445,1.2582,1.2581h16.9521c0.7089-0.014,1.2722-0.6001,1.2581-1.309
		C436.1834,16.5716,435.6281,16.0162,434.9389,16.0025z"/>
	<path fill="#3F3D56" d="M434.9389,20.8207h-16.9521c-0.7089,0.014-1.2722,0.6001-1.2582,1.309
		c0.0137,0.6891,0.5691,1.2445,1.2582,1.2581h16.9521c0.7089-0.014,1.2722-0.6001,1.2581-1.309
		C436.1834,21.3897,435.6281,20.8343,434.9389,20.8207z"/>
	<path fill="#3F3D56" d="M434.9389,25.6325h-16.9521c-0.7089,0.014-1.2722,0.6001-1.2582,1.309
		c0.0137,0.6891,0.5691,1.2445,1.2582,1.2581h16.9521c0.7089-0.014,1.2722-0.6001,1.2581-1.309
		C436.1834,26.2015,435.6281,25.6461,434.9389,25.6325z"/>
	<path fill="#F56539" d="M202.1982,105.6173h41.4513c1.5636,0,2.8311,1.2675,2.8311,2.8311v4.4125
		c0,1.5636-1.2675,2.8311-2.8311,2.8311h-41.4513c-1.5636,0-2.8311-1.2675-2.8311-2.8311v-4.4125
		C199.3671,106.8848,200.6347,105.6173,202.1982,105.6173z"/>
	<path fill="#E6E6E6" d="M178.2709,125.7666h89.3059c1.5636,0,2.8311,1.2675,2.8311,2.8311v4.4125
		c0,1.5636-1.2675,2.8311-2.8311,2.8311h-89.3059c-1.5636,0-2.8311-1.2675-2.8311-2.8311v-4.4125
		C175.4398,127.0341,176.7074,125.7666,178.2709,125.7666z"/>
	<path fill="#E6E6E6" d="M178.2709,145.9159h89.3059c1.5636,0,2.8311,1.2675,2.8311,2.8311v4.4125
		c0,1.5636-1.2675,2.8311-2.8311,2.8311h-89.3059c-1.5636,0-2.8311-1.2675-2.8311-2.8311v-4.4125
		C175.4398,147.1834,176.7074,145.9159,178.2709,145.9159z"/>
	<path fill="#F56539" d="M183.1911,218.5789c0.007,4.1498-0.7323,8.267-2.1826,12.1551H148.444
		c-3.0818-0.0053-5.5789-2.5023-5.5842-5.5841v-40.9582c1.8195-0.2943,3.6597-0.4418,5.5029-0.4412
		c19.234-0.0012,34.8272,15.5901,34.8284,34.8241C183.1911,218.576,183.1911,218.5774,183.1911,218.5789z"/>
	<path opacity="0.2" enable-background="new    " d="M471.1061,79.834v-2.972h-49.8162V42.4167h-2.9605V76.862H361.234V42.4167
		h-2.9604V76.862h-37.7076c-0.418,0.9868-0.8243,1.9736-1.2074,2.972h38.915v58.2563H309.955
		c0.0464,0.9984,0.1161,1.9853,0.1973,2.972h48.1213v46.4727h-36.0474c0.4412,0.9984,0.9055,1.9852,1.3931,2.9604h34.6543v39.0658
		h2.9604v-39.0658h57.0954v39.0658h2.9604v-39.0658h49.8162v-2.9604h-49.8162v0c0-25.6662,20.8065-46.4727,46.4727-46.4727l0,0
		h3.3435v-2.972h-49.8163V79.834H471.1061z M418.3294,187.5351H361.234v-46.4728h57.0954V187.5351z M418.3294,138.0904H361.234
		v-1.161c0-31.5329,25.5624-57.0953,57.0953-57.0953h0.0001V138.0904z"/>
	<path fill="#2F2E41" d="M430.9964,208.7385c-1.7116,0.0787-3.1629-1.2451-3.2415-2.9567c-0.042-0.9138,0.3214-1.7996,0.9931-2.4205
		c0.0782-0.3109,0.1343-0.5342,0.2126-0.8451c-0.028-0.0677-0.0562-0.1353-0.0845-0.2029
		c-2.8562-6.8105-12.536-6.7635-15.3679,0.0571c-2.5135,6.0536-5.7136,12.1177-6.5016,18.5184
		c-0.347,2.8293-0.2007,5.6973,0.4326,8.4765c-5.9035-12.8778-8.9691-26.8744-8.9888-41.0408
		c-0.0013-3.5549,0.1963-7.1071,0.5916-10.6399c0.3267-2.8962,0.78-5.7718,1.3598-8.6268
		c3.1642-15.4907,9.9578-30.0099,19.8229-42.3653c4.7747-2.6052,8.636-6.6114,11.0637-11.4787
		c0.8795-1.7496,1.5011-3.6174,1.8455-5.5451c-0.5386,0.0706-1.0861,0.1148-1.6247,0.1501
		c-0.1678,0.0088-0.3444,0.0176-0.5122,0.0265l-0.0633,0.0028c-1.6959,0.0761-3.1324-1.237-3.2085-2.9328
		c-0.0337-0.752,0.2097-1.4903,0.6841-2.0748c0.2325-0.2862,0.4652-0.5723,0.6981-0.8582c0.3532-0.4415,0.7152-0.8742,1.0684-1.3156
		c0.0407-0.0419,0.0791-0.0862,0.1148-0.1325c0.4062-0.5033,0.8123-0.9978,1.2185-1.5011
		c-0.7414-1.1507-1.7386-2.1147-2.9138-2.8166c-4.0706-2.384-9.6863-0.7329-12.6267,2.9491
		c-2.9491,3.6819-3.5054,8.8475-2.4812,13.4478c0.8743,3.9381,2.7814,7.5495,4.9271,10.9842
		c-0.2208,0.2826-0.4503,0.5563-0.6711,0.8389c-4.0352,5.1888-7.5522,10.7606-10.5006,16.6355
		c0.717-6.5816-0.1387-13.2394-2.4969-19.4257c-2.3899-5.7654-6.8695-10.6211-10.8142-15.6053
		c-4.7383-5.9868-14.4547-3.374-15.2894,4.2152c-0.0081,0.0735-0.0159,0.1469-0.0237,0.2204
		c0.5859,0.3306,1.1595,0.6814,1.7206,1.0525c1.9325,1.2911,2.4523,3.9044,1.1612,5.8368
		c-0.6553,0.9808-1.6921,1.6415-2.8578,1.8212l-0.0858,0.0133c0.2087,2.1117,0.5777,4.2045,1.1037,6.2603
		c3.0812,11.6021,10.8604,21.3941,21.4652,27.0192c0.3444,0.1766,0.68,0.3532,1.0243,0.521
		c-2.9622,8.3946-4.8203,17.1388-5.5275,26.0126c-0.4004,5.2353-0.3767,10.4944,0.0706,15.7259l-0.0265-0.1854
		c-1.1303-5.8173-4.2336-11.0663-8.7857-14.8605c-6.761-5.554-16.3131-7.5992-23.6071-12.0635
		c-3.5111-2.149-8.0103,0.6281-7.3976,4.6988c0.0098,0.065,0.0197,0.1299,0.0298,0.1949c1.0873,0.4428,2.146,0.953,3.1699,1.5275
		c0.5859,0.3306,1.1595,0.6815,1.7206,1.0525c1.9325,1.2912,2.4524,3.9044,1.1612,5.8369
		c-0.6553,0.9807-1.6921,1.6415-2.8578,1.8212l-0.0859,0.0132c-0.0618,0.0089-0.1148,0.0177-0.1765,0.0266
		c1.8578,4.4359,4.4653,8.519,7.7083,12.0703c8.0969,8.6882,19.4168,13.6551,31.2928,13.7303h0.0088
		c1.5951,6.9314,3.9062,13.6783,6.8961,20.1319h24.635c0.0884-0.2737,0.1678-0.5563,0.2473-0.83
		c-2.2803,0.1434-4.5695,0.007-6.8167-0.4061c1.8278-2.2428,3.6555-4.5033,5.4833-6.746c0.0407-0.0419,0.0791-0.0861,0.1148-0.1324
		c0.9271-1.1479,1.8631-2.2869,2.7902-3.4347l0.0005-0.0014c0.0494-3.5186-0.3544-7.0288-1.2014-10.4442L430.9964,208.7385z
		 M402.786,153.2437l0.013-0.0175l-0.013,0.0351V153.2437z M397.3292,202.4345l-0.2119-0.4767c0.0089-0.3444,0.0089-0.6888,0-1.0419
		c0-0.0972-0.0176-0.1943-0.0176-0.2914c0.0794,0.6092,0.1501,1.2186,0.2384,1.8278L397.3292,202.4345z"/>
	<path fill="#E6E6E6" d="M211.6294,151.122L211.6294,151.122v-33.109c0-10.5832-8.5794-19.1626-19.1626-19.1626h-70.146
		c-10.5832,0-19.1626,8.5794-19.1626,19.1626l0,0v181.6386c0,10.5832,8.5794,19.1626,19.1626,19.1626l0,0h70.146
		c10.5832,0,19.1625-8.5794,19.1625-19.1625V174.6896l0,0c0.6675,0,1.2086-0.5411,1.2086-1.2086v-21.1504
		C212.838,151.6632,212.2969,151.1221,211.6294,151.122z"/>
	<path fill="#FFFFFF" d="M207.5512,118.1445v181.3763c0.001,7.841-6.3118,14.2206-14.1523,14.3024
		c-0.052,0.0054-0.1043,0.0076-0.1566,0.0065h-70.4874c-7.9023-0.0008-14.3081-6.4066-14.3089-14.3089V118.1445
		c0.0007-7.9023,6.4066-14.3082,14.3089-14.3089h8.554c-1.4171,3.4801,0.2553,7.4501,3.7354,8.8672
		c0.8132,0.3312,1.6829,0.5017,2.561,0.5024h40.1862c3.7603-0.0104,6.8002-3.0671,6.7899-6.8274
		c-0.0024-0.8716-0.1721-1.7346-0.5-2.5422h9.1608C201.1446,103.8364,207.5505,110.2422,207.5512,118.1445z"/>
	<path fill="#F2F2F2" d="M193.5751,308.2314c0,1.8792-0.0587,3.7431-0.1761,5.5917c-0.052,0.0054-0.1043,0.0076-0.1566,0.0065
		h-70.4874c-7.9023-0.0007-14.3081-6.4066-14.3089-14.3089v-80.8292C156.1434,221.0966,193.5806,260.4734,193.5751,308.2314z"/>
	<path fill="#E6E6E6" d="M103.5459,169.6445c-0.9004-0.0011-1.6301-0.7307-1.6312-1.6312v-11.0921
		c0-0.9009,0.7303-1.6312,1.6312-1.6312c0.9009,0,1.6312,0.7303,1.6312,1.6312v11.0921
		C105.1761,168.9137,104.4464,169.6434,103.5459,169.6445z"/>
	<path fill="#F56539" d="M149.3439,160.7878h17.3095c1.5636,0,2.8311,1.2675,2.8311,2.8311v4.4125
		c0,1.5636-1.2675,2.8311-2.8311,2.8311h-17.3095c-1.5636,0-2.8311-1.2675-2.8311-2.8311v-4.4125
		C146.5128,162.0553,147.7803,160.7878,149.3439,160.7878z"/>
	<path fill="#E6E6E6" d="M125.4165,180.9371h65.1642c1.5636,0,2.8311,1.2675,2.8311,2.8311v4.4125
		c0,1.5636-1.2675,2.8311-2.8311,2.8311h-65.1642c-1.5636,0-2.8311-1.2675-2.8311-2.8311v-4.4125
		C122.5855,182.2047,123.853,180.9371,125.4165,180.9371z"/>
	<path fill="#E6E6E6" d="M125.4165,201.0865h65.1642c1.5636,0,2.8311,1.2675,2.8311,2.8311v4.4125
		c0,1.5636-1.2675,2.8311-2.8311,2.8311h-65.1642c-1.5636,0-2.8311-1.2675-2.8311-2.8311v-4.4125
		C122.5855,202.354,123.853,201.0865,125.4165,201.0865z"/>
	<path fill="#CCCCCC" d="M174.9013,303.508c-0.8032,0.0369-1.4842-0.5843-1.5212-1.3874c-0.0197-0.4288,0.1508-0.8445,0.4661-1.1359
		l0.0998-0.3966c-0.0131-0.0317-0.0264-0.0635-0.0396-0.0952c-0.8418-1.9883-3.1361-2.9178-5.1244-2.076
		c-0.9447,0.3999-1.6943,1.1552-2.0872,2.1028c-1.1795,2.8408-2.6812,5.6864-3.051,8.6901
		c-0.1629,1.3277-0.0942,2.6736,0.203,3.9778c-2.7703-6.0431-4.2089-12.6112-4.2181-19.2591
		c-0.0006-1.6682,0.0921-3.3351,0.2776-4.993c0.1533-1.3591,0.366-2.7085,0.6381-4.0482
		c1.4848-7.2693,4.6728-14.0827,9.3022-19.8806c2.2406-1.2225,4.0526-3.1025,5.1918-5.3866c0.4127-0.821,0.7044-1.6975,0.866-2.6021
		c-0.2527,0.0331-0.5096,0.0539-0.7624,0.0704c-0.0787,0.0042-0.1616,0.0083-0.2403,0.0124l-0.0297,0.0013
		c-0.7958,0.0357-1.4699-0.5805-1.5056-1.3763c-0.0158-0.3529,0.0984-0.6993,0.321-0.9736
		c0.1091-0.1343,0.2183-0.2685,0.3276-0.4027c0.1658-0.2072,0.3356-0.4102,0.5014-0.6174c0.0191-0.0197,0.0371-0.0404,0.0539-0.0622
		c0.1906-0.2362,0.3812-0.4682,0.5718-0.7044c-0.3479-0.54-0.8159-0.9923-1.3674-1.3218c-1.9102-1.1187-4.5455-0.3439-5.9253,1.3839
		c-1.3839,1.7278-1.645,4.1518-1.1644,6.3106c0.4727,1.8369,1.2545,3.58,2.3121,5.1545c-0.1036,0.1326-0.2113,0.261-0.3149,0.3937
		c-1.8936,2.4349-3.544,5.0496-4.9276,7.8065c0.3365-3.0885-0.0651-6.2128-1.1717-9.1158c-1.1215-2.7055-3.2236-4.9841-5.0748-7.323
		c-1.3675-1.7549-3.8987-2.0689-5.6535-0.7014c-0.8421,0.6563-1.3893,1.62-1.5213,2.6794c-0.0038,0.0345-0.0075,0.069-0.0111,0.1034
		c0.275,0.1551,0.5441,0.3198,0.8074,0.494c0.9068,0.6059,1.1508,1.8322,0.5449,2.739c-0.3075,0.4602-0.794,0.7703-1.3411,0.8546
		l-0.0403,0.0062c0.0979,0.991,0.2711,1.9731,0.5179,2.9378c1.4459,5.4445,5.0965,10.0395,10.0729,12.6792
		c0.1616,0.0829,0.3191,0.1658,0.4807,0.2445c-1.3901,3.9393-2.262,8.0427-2.5938,12.2068
		c-0.1879,2.4568-0.1768,4.9247,0.0332,7.3796l-0.0125-0.087c-0.5304-2.7299-1.9867-5.193-4.1228-6.9735
		c-3.1727-2.6063-7.6552-3.566-11.078-5.6609c-1.0534-0.6763-2.4555-0.3707-3.1318,0.6827
		c-0.2897,0.4512-0.4101,0.9907-0.3396,1.5223l0.014,0.0915c0.5102,0.2078,1.007,0.4472,1.4875,0.7168
		c0.2749,0.1552,0.5441,0.3198,0.8074,0.494c0.9068,0.6059,1.1508,1.8322,0.5449,2.739c-0.3075,0.4603-0.794,0.7703-1.3411,0.8546
		l-0.0403,0.0062c-0.029,0.0042-0.0539,0.0083-0.0829,0.0125c0.8718,2.0816,2.0954,3.9976,3.6173,5.6642
		c3.7996,4.0771,9.1117,6.4079,14.6847,6.4432h0.0042c0.7485,3.2527,1.833,6.4188,3.2361,9.4473h11.5604
		c0.0415-0.1284,0.0787-0.261,0.116-0.3895c-1.0701,0.0673-2.1443,0.0033-3.1988-0.1906c0.8577-1.0524,1.7154-2.1132,2.5731-3.1656
		c0.0191-0.0197,0.0371-0.0404,0.0539-0.0622c0.4351-0.5386,0.8743-1.0732,1.3093-1.6118l0.0002-0.0006
		c0.0232-1.6512-0.1663-3.2984-0.5638-4.9012L174.9013,303.508z M161.6631,277.4661l0.0061-0.0082l-0.0061,0.0165V277.4661z
		 M159.1024,300.5497l-0.0995-0.2237c0.0042-0.1616,0.0042-0.3232,0-0.4889c0-0.0457-0.0083-0.0912-0.0083-0.1368
		c0.0373,0.2859,0.0704,0.5718,0.1118,0.8578L159.1024,300.5497z"/>
	<path fill="#E6E6E6" d="M103.2197,148.1127c-0.9005-0.0011-1.6301-0.7308-1.6312-1.6312v-11.0922
		c0-0.9009,0.7303-1.6312,1.6312-1.6312c0.9009,0,1.6312,0.7303,1.6312,1.6312v11.0922
		C104.8498,147.3819,104.1201,148.1116,103.2197,148.1127z"/>
	<path fill="#FFFFFF" d="M146.6096,105.7015c0.0011-0.9004,0.7308-1.6301,1.6312-1.6312h11.0921
		c0.9009,0,1.6312,0.7303,1.6312,1.6312c0,0.9009-0.7303,1.6312-1.6312,1.6312h-11.0921
		C147.3403,107.3316,146.6106,106.6019,146.6096,105.7015z"/>
	<path fill="#E6E6E6" d="M103.5459,188.5664c-0.9004-0.0011-1.6301-0.7308-1.6312-1.6312V175.843
		c0-0.9009,0.7303-1.6312,1.6312-1.6312c0.9009,0,1.6312,0.7303,1.6312,1.6312v11.0922
		C105.1761,187.8356,104.4464,188.5654,103.5459,188.5664z"/>
	<circle fill="#FFFFFF" cx="165.5315" cy="105.7015" r="1.6312"/>
	<path fill="#CACACA" d="M599.8315,318.8099l-559.6646,0.2005c-0.4291-0.0022-0.7751-0.3519-0.7728-0.7809
		c0.0022-0.4259,0.3469-0.7706,0.7728-0.7728l559.6646-0.2005c0.4291,0.0014,0.7758,0.3503,0.7744,0.7794
		C600.6045,318.4626,600.2585,318.8085,599.8315,318.8099z"/>
	<path fill="#2F2E41" d="M278.7023,147.5298l-2.9438,0.6308c-0.0193-1.2314-0.1728-2.457-0.4576-3.6551
		c-0.2678,1.4672-0.8317,2.8645-1.6575,4.1066l-16.8838,3.6056l-16.2097-17.1065c-0.0248-8.5532,4.725-15.0531,13.2411-15.0531
		c0.5133,0,1.0452,0.0247,1.5833,0.0742c9.5631-1.6005,18.6771,4.6568,20.6193,14.1564
		C282.0295,140.232,279.8402,143.7263,278.7023,147.5298z"/>
	<polygon fill="#FFB6B6" points="287.0029,347.5832 293.127,347.5832 296.041,323.9601 287.0016,323.9608 	"/>
	<path fill="#2F2E41" d="M285.4841,344.562l9.6812-0.5779v4.1479l9.2043,6.3568c1.1775,0.813,1.473,2.4266,0.66,3.6042
		c-0.4837,0.7007-1.2808,1.1189-2.1323,1.1189h-11.5259l-1.9867-4.1029l-0.7757,4.1029h-4.3457L285.4841,344.562z"/>
	<polygon fill="#FFB6B6" points="215.2536,340.9168 220.5804,343.9391 234.7719,324.8312 226.9101,320.3708 	"/>
	<path fill="#2F2E41" d="M215.4235,337.5397l8.7054,4.2751l-2.0469,3.6076l4.8684,10.0711
		c0.6229,1.2882,0.0836,2.8375-1.2046,3.4604c-0.7665,0.3706-1.6662,0.341-2.4066-0.0792l-10.0247-5.688l0.2968-4.5489
		l-2.6994,3.1857l-3.7797-2.1446L215.4235,337.5397z"/>
	<path fill="#FFB6B6" d="M309.6405,151.6683c-2.9647,0.4289-5.0203,3.1799-4.5915,6.1446c0.0457,0.3161,0.1193,0.6275,0.2198,0.9306
		l-9.3716,8.1115l3.5404,6.8974l13.0736-11.6409c2.7897-1.135,4.1312-4.3165,2.9962-7.1063
		C314.5578,152.6709,312.1323,151.2914,309.6405,151.6683L309.6405,151.6683z"/>
	<path fill="#2F2E41" d="M300.2032,179.562c-3.1261,4.7346-10.1324,9.3072-20.5305,13.3609
		c-1.1595,0.4648-2.4608,0.4223-3.5875-0.1172c-3.924-1.7859-6.4389-8.4248-6.675-9.0688l-7.6-10.2521
		c-0.1349-0.1494-3.6888-4.1828-3.2823-8.1481c0.1853-1.6815,1.0965-3.198,2.4943-4.151
		c5.7531-4.2649,18.6469,10.5473,20.3201,12.5167l8.4149-5.1271l6.1315-2.7356l4.9497-6.023l6.9693,7.1254l-6.268,9.9719
		C301.2052,177.8485,300.7563,178.7379,300.2032,179.562z"/>
	<path fill="#2F2E41" d="M278.3463,197.7271c0,0,18.0074,28.6834,14.745,31.9458c-3.2624,3.2624-8.3391,4.1191-8.3391,4.1191
		l-11.2353-14.5588L278.3463,197.7271z"/>
	<path fill="#2F2E41" d="M262.4247,158.5526l8.487,5.7412c8.1053,5.483,11.5874,15.679,8.5292,24.9745l-2.3893,7.2624
		L262.4247,158.5526z"/>
	<polygon fill="#2F2E41" points="247.4176,236.8502 246.2829,240.8022 242.4111,288.46 223.0677,324.5095 232.2996,331.1035 
		258.6774,296.8124 269.1106,262.7641 285.495,338.1379 297.8047,337.2584 289.2552,232.7539 273.0326,203.3382 	"/>
	<path fill="#F56539" d="M260.9814,159.9963l11.8122,9.6535c2.5924,2.1187,4.4592,4.9934,5.3401,8.2234l0,0
		c0.4,1.4667,0.5901,2.9827,0.5646,4.5028l-0.352,20.9624l10.8302,28.9444c0,0-29.3616,11.0921-33.2765,1.305
		C251.9851,223.8005,260.9814,159.9963,260.9814,159.9963z"/>
	<path fill="#2F2E41" d="M264.5143,238.6682c-14.6678,0-18.2425,0.1104-18.4741,0.0635l-0.232-0.0469v-8.8221l3.5669-15.8493
		c-0.4168-4.9206-1.3934-11.4088-1.305-16.9645c0.3197-20.0802-0.6674-39.6951-0.6674-39.6951l7.7633-7.1659l3.5268,2.2951
		l6.542,6.5418c7.6043,18.7141,13.6383,36.3324,13.6763,37.4644l0.478,19.4818l-1.9574,7.8297
		C268.5768,230.0514,276.6676,238.6682,264.5143,238.6682z"/>
	<polygon opacity="0.2" enable-background="new    " points="250.693,174.847 248.9098,185.977 260.9813,190.956 	"/>
	<circle fill="#FFB6B6" cx="262.8537" cy="136.2812" r="11.8188"/>
	<path opacity="0.2" enable-background="new    " d="M243.0502,196.2484L243.0502,196.2484
		c6.4699,7.4915,17.1881,9.6579,26.0597,5.2673l2.5723-1.273L243.0502,196.2484z"/>
	<path fill="#FFB6B6" d="M284.1768,193.5278c-1.9916-2.2375-5.42-2.4369-7.6576-0.4453c-0.2386,0.2124-0.4579,0.4454-0.6555,0.6964
		l-11.9332-3.3501l-3.8045,6.7552l16.9184,4.4942c2.4844,1.7024,5.8786,1.0685,7.581-1.416
		C286.05,198.1834,285.8644,195.3993,284.1768,193.5278z"/>
	<path fill="#2F2E41" d="M255.7002,201.0244c-5.6735,0.0005-13.3501-3.326-22.463-9.7688
		c-1.0268-0.7114-1.7084-1.8207-1.8791-3.0582c-0.6722-4.2585,3.4817-10.0157,3.889-10.5676l4.3667-11.9916
		c0.0502-0.1949,1.4575-5.3832,4.9903-7.2292c1.5053-0.772,3.2729-0.8474,4.8384-0.2062
		c6.7293,2.4504,1.4747,21.3724,0.7534,23.8539l8.9156,4.1964l5.6617,3.6089l7.7535,0.8112l-2.1052,9.7423l-11.7752,0.2649
		C257.6822,200.9163,256.6926,201.0318,255.7002,201.0244z"/>
	<path fill="#2F2E41" d="M277.0262,128.5061c-0.9463,1.2307-4.2055,2.3192-8.0771,3.1974c0.0062-0.0804,0.0062-0.1608,0.0062-0.2412
		c-0.0193-1.2314-0.1728-2.457-0.4576-3.6551c-0.2678,1.4672-0.8317,2.8645-1.6575,4.1066
		c-0.0618,0.0928-0.1237,0.1855-0.1917,0.2783c-3.3211,0.6556-6.8339,1.1627-9.586,1.5029
		c1.8925,6.8154,9.147,12.4062,8.3615,16.5499l-21.2563,4.3415c0.1307-1.7218-0.007-3.4536-0.4082-5.1331
		c-0.4066,2.2166-1.4813,4.256-3.0799,5.8444l-1.8059,0.3711l-0.538-2.6532c-4.6631-11.2002,1.8368-22.6663,12.4866-28.5973
		c1.8987-2.8464,4.8471-4.8254,8.2007-5.5043l2.6532-0.5442c7.0376-1.4399,13.91,3.098,15.3499,10.1356
		C277.0261,128.5056,277.0262,128.5058,277.0262,128.5061z"/>
	<path fill="#F2F2F2" d="M327.8038,342.7715l0.3143-7.0676c3.2767-1.7515,6.9314-2.6766,10.6468-2.6951
		c-5.1135,4.1806-4.4745,12.2395-7.9413,17.8615c-2.2175,3.5351-5.9224,5.8698-10.0683,6.3448l-4.2791,2.62
		c-1.1883-6.6246,0.5837-13.4374,4.8493-18.6434c1.1967-1.4314,2.5689-2.7064,4.0843-3.7949
		C326.4346,340.0991,327.8038,342.7715,327.8038,342.7715z"/>
	<path fill="#CACACA" d="M338.178,360H189.1633c-0.4291-0.0022-0.7751-0.3519-0.7729-0.7809
		c0.0022-0.4259,0.347-0.7706,0.7729-0.7728H338.178c0.429-0.0022,0.7787,0.3438,0.7809,0.7728
		c0.0022,0.429-0.3438,0.7787-0.7729,0.7809C338.1834,360,338.1807,360,338.178,360z"/>
</g>
</svg>
