<?xml version="1.0" encoding="utf-8"?>
<!-- Generator: Adobe Illustrator 26.0.1, SVG Export Plug-In . SVG Version: 6.00 Build 0)  -->
<svg version="1.1" id="Layer_1" xmlns="http://www.w3.org/2000/svg" xmlns:xlink="http://www.w3.org/1999/xlink" x="0px" y="0px"
	 viewBox="0 0 285 285" style="enable-background:new 0 0 285 285;" xml:space="preserve">
<style type="text/css">
	.st0{fill:#00A0E3;}
	.st1{fill:#FFFFFF;}
</style>
<circle class="st0" cx="142.5" cy="142.5" r="141.7"/>
<g id="U">
	<circle class="st1" cx="46.1" cy="142.5" r="18.9"/>
	<path class="st1" d="M96.9,210.9c-16.6-11.1-28.9-28-34-47.8c6-4.9,9.8-12.3,9.8-20.6s-3.8-15.7-9.8-20.6
		c5.1-19.8,17.4-36.7,34-47.8l13.8,23.2c-14.2,10-23.5,26.5-23.5,45.2s9.3,35.2,23.5,45.2L96.9,210.9z"/>
</g>
<g transform="rotate(120)">
	<g id="U_00000060017621588471970820000016173416858437670828_">
		<circle class="st1" cx="190.7" cy="59" r="18.9"/>
		<path class="st1" d="M106.1,68.8c17.9-8.8,38.7-11,58.4-5.5c1.2,7.6,5.7,14.6,12.9,18.8c7.2,4.2,15.5,4.6,22.7,1.8
			c14.6,14.3,23.1,33.5,24.4,53.3l-27,0.4c-1.6-17.3-11.2-33.6-27.4-43s-35.1-9.6-50.9-2.3L106.1,68.8z"/>
	</g>
</g>
<g transform="rotate(240)">
	<g id="U_00000164515362835278039010000015864152499727901356_">
		<circle class="st1" cx="190.7" cy="226" r="18.9"/>
		<path class="st1" d="M224.5,147.8c-1.3,19.9-9.8,39-24.4,53.3c-7.2-2.7-15.5-2.3-22.7,1.8c-7.2,4.2-11.7,11.2-12.9,18.8
			c-19.7,5.5-40.5,3.3-58.4-5.5l13.2-23.6c15.8,7.3,34.7,7.1,50.9-2.3c16.2-9.4,25.9-25.7,27.4-43L224.5,147.8z"/>
	</g>
</g>
</svg>
