<?xml version="1.0" encoding="utf-8"?>
<!-- Generator: Adobe Illustrator 26.0.1, SVG Export Plug-In . SVG Version: 6.00 Build 0)  -->
<svg version="1.1" id="Layer_1" xmlns="http://www.w3.org/2000/svg" xmlns:xlink="http://www.w3.org/1999/xlink" x="0px" y="0px"
	 viewBox="0 0 640 360" enable-background="new 0 0 640 360" xml:space="preserve">
<g>
	<ellipse opacity="0.1" fill="#F56539" enable-background="new    " cx="234.7425" cy="352.5999" rx="44.8145" ry="7.1977"/>
	<ellipse opacity="0.1" fill="#F56539" enable-background="new    " cx="478.3478" cy="352.8022" rx="55.9216" ry="7.1977"/>
	<path opacity="0.1" fill="#F56539" enable-background="new    " d="M72.1427,155.5475h46.6772v63.6206h-43.26
		c-0.115,0.6531-0.2254,1.3107-0.3449,1.9685h43.6049v51.3086c-0.0782-0.023-0.1472-0.0506-0.2208-0.0782
		c-1.2326-0.4875-2.456-1.0026-3.6794-1.5545l-0.7819-0.3541c-1.2264-0.5795-2.4529-1.1927-3.6794-1.8397
		c-0.4277-0.2253-0.8554-0.4599-1.2786-0.6991c-6.8087-3.814-12.9941-8.6469-18.3416-14.3311
		c-0.1564-0.1518-0.3036-0.3127-0.4599-0.4599c-0.7451-0.8095-1.4763-1.6281-2.1846-2.4652l-0.7819-0.9198
		c-0.8371-1.0256-1.6465-2.0789-2.433-3.1459c-0.115-0.1564-0.2254-0.3127-0.3449-0.4599
		c-3.1985-4.4349-5.8543-9.2369-7.9106-14.3035c-0.0644-0.1518-0.1196-0.3174-0.1794-0.4599
		c-0.6316-1.625-1.1912-3.2654-1.6787-4.9211c-0.2116-0.6945-0.4139-1.3798-0.5887-2.1018
		c-0.0644-0.2116-0.1196-0.4185-0.1702-0.6255c-2.6123-10.1964-2.9205-20.7883-2.9205-31.3067c0-1.228,0-2.4606,0-3.6794
		c0-4.2543,0.0506-8.5361,0.1242-12.8133c0-1.1084,0.046-2.2122,0.069-3.3252c0.0644-2.8239,0.1564-5.6478,0.276-8.4717
		c0.0276-0.7865,0.0644-1.5683,0.1058-2.3502c0-0.4507,0.023-0.9014,0.069-1.3522C71.9403,158.79,72.0323,157.1665,72.1427,155.5475
		z"/>
	<path opacity="0.1" fill="#F56539" enable-background="new    " d="M118.8199,84.7108H93.2162
		c4.162-6.5144,8.7095-12.7743,13.6182-18.7463c3.8035-4.6728,7.8186-9.226,11.9855-13.6136V84.7108z"/>
	<path opacity="0.1" fill="#F56539" enable-background="new    " d="M118.8199,86.6793v66.8998h-46.53
		c0-0.1932,0.0322-0.3909,0.046-0.5841c0.0414-0.5289,0.0828-1.0578,0.1288-1.5821c0.0506-0.6163,0.1058-1.2372,0.1656-1.8397
		c0.0598-0.6025,0.1242-1.3384,0.1932-2.0052s0.1334-1.343,0.2116-2.0098s0.1472-1.3338,0.23-1.996
		c0.0828-0.6623,0.1564-1.3338,0.2438-1.996c0.069-0.5519,0.1426-1.0992,0.2162-1.6511c0.1058-0.7773,0.2162-1.5591,0.3357-2.3318
		c0-0.115,0.0322-0.2346,0.0506-0.3449c0.8394-5.6563,1.9832-11.2632,3.4264-16.7962c1.5106-5.8042,3.4397-11.4915,5.772-17.017
		c2.4788-5.7804,5.3811-11.3698,8.6833-16.7227L118.8199,86.6793z"/>
	<path opacity="0.1" fill="#F56539" enable-background="new    " d="M129.9637,155.543v63.6252h99.6967V155.543H129.9637z
		 M129.9637,221.132v54.6384c0.5703,0.1196,1.136,0.2346,1.6971,0.3311c0.7635,0.1472,1.5223,0.2805,2.2996,0.3955
		c0.1472,0.023,0.299,0.046,0.4599,0.0598c0.3036,0.0506,0.6163,0.092,0.9198,0.1334c0.7681,0.1058,1.5315,0.1932,2.2996,0.2622
		c0.3633,0.0368,0.7313,0.069,1.0992,0.0966l0.8876,0.069l0,0c0.4829,0.0368,0.9612,0.0644,1.435,0.0782
		c0.2943,0,0.5887,0.0276,0.8922,0.0368c0.2299,0,0.4599,0,0.6991,0c0.2392,0,0.5795,0,0.8692,0c0.3955,0,0.7911,0,1.182,0h0.5289
		c0.3955,0,0.7911,0,1.182-0.0368h0.0276c0.2713,0,0.5473,0,0.8232-0.0368c0.0766,0.0046,0.1534,0.0046,0.23,0
		c0.23,0,0.4599,0,0.6807-0.0322h0.161l1.5407-0.1196c0.5059-0.046,1.0164-0.1058,1.5315-0.1609l1.0486-0.1242
		c4.2661-0.5977,8.4848-1.4953,12.6248-2.6859c9.2996-2.594,18.3968-6.2227,27.6917-8.881
		c12.0177-3.4264,25.2955-5.1097,36.9085-0.9198V221.132H129.9637z M229.6604,84.7108V0.0075
		c-10.9151-0.1183-21.8006,1.1584-32.3921,3.7989c-25.245,6.3423-47.896,20.0985-67.3046,37.6674v43.2324h5.0039v1.9639h-5.0039
		v66.909h99.6967V86.6747h-74.1482v-1.9639H229.6604z M357.7157,56.0993c-6.2457-0.2208-12.4546-2.1984-18.0702-5.2523
		c-10.7391-5.841-19.3166-14.86-28.9013-22.4716C290.8296,12.5219,266.132,2.9556,240.795,0.5824v84.1284H383.117l0.3542-0.3725
		L357.7157,56.0993z M370.6808,53.7997l13.747,15.0853V49.8444c-4.6038,0.5703-8.6373,1.9271-13.7286,3.9369L370.6808,53.7997z
		 M384.4278,289.338v-68.206h-29.2922c-0.0782-0.2897-0.1564-0.5841-0.2484-0.8784c0.0874,0.2944,0.1609,0.5887,0.2438,0.8784
		H240.8134v49.3263c1.0854,0.8048,2.157,1.6511,3.2194,2.5111l0,0c1.1452,0.9199,2.2766,1.8903,3.4126,2.8423l1.1452,0.9474
		c0.5473,0.4599,1.0992,0.9199,1.6557,1.3522c1.1038,0.8953,2.2183,1.7784,3.3436,2.6491c0.5565,0.4599,1.1268,0.8739,1.6925,1.3062
		c8.9809,6.8665,18.4547,13.063,28.3448,18.5393c2.2168,1.2265,4.4536,2.4238,6.7102,3.5919
		c1.5039,0.7681,3.0171,1.5316,4.5348,2.272c2.2812,1.113,4.5808,2.1862,6.8988,3.2195l0,0
		c21.3708,9.5932,43.9688,16.176,67.1482,19.5603c5.148,0.7604,10.316,1.3583,15.5039,1.7937v-41.7101h0.4599L384.4278,289.338z
		 M240.8134,86.6747v66.9044h143.6327V86.6747H240.8134z M240.8134,155.543v63.6252h143.6327V155.543H240.8134z M395.5946,49.7616
		v21.2391l17.5459-19.2522c-5.8134-0.9382-11.662-1.6082-17.5459-2.0098V49.7616z M395.5946,155.5659v63.6022H535.295V155.543
		L395.5946,155.5659z M534.7845,294.3879l0.4921-73.2559h-139.682v110.6427c8.9983,0.378,18.0105,0.2705,26.9973-0.322l0,0h0.1564
		c4.2926-0.2698,8.5652-0.6623,12.8179-1.1774h0.0966c22.6881-2.6405,44.8728-8.56,65.8604-17.5735 M562.2325,166.0199
		c-0.5243-1.2372-1.0716-2.4652-1.6281-3.6794c-1.0394-2.2996-2.1386-4.5348-3.27-6.77h-10.9001v63.5976h27.5584
		c-0.0139-18.0104-4.5717-36.4072-11.7464-53.1712L562.2325,166.0199z M546.4343,221.155v63.0089
		c7.7634-7.4415,14.3219-15.9546,19.0453-25.6865c5.68-11.7187,8.2786-24.4079,8.4901-37.3316L546.4343,221.155z M546.4343,137.0266
		v16.5571h9.8791c-2.9886-5.6997-6.2818-11.2344-9.8653-16.5801L546.4343,137.0266z M451.6909,62.2438
		c-0.7267-0.276-1.4533-0.5565-2.1846-0.8279c-7.7125-2.8481-15.5936-5.2167-23.5984-7.0919l-26.8501,29.467l0,0l-0.5151,0.5473
		l0.3449,0.3771h95.562c-13.3091-9.1614-27.6575-16.7123-42.7449-22.4946L451.6909,62.2438z M497.2505,86.6977h-99.6967
		l-1.9593,1.7937v65.0877h17.1734h0.0276l0,0h122.5179v-31.5274c-11.083-13.404-23.875-25.2976-38.0491-35.377L497.2505,86.6977z"/>
	<path opacity="0.1" fill="#F56539" enable-background="new    " d="M118.8199,120.4235v33.1556h-46.53
		c0-0.1932,0.0322-0.3909,0.046-0.5841c0.0414-0.5289,0.0828-1.0578,0.1288-1.5821c0.0506-0.6163,0.1058-1.2372,0.1656-1.8397
		c0.0598-0.6025,0.1242-1.3384,0.1932-2.0052s0.1334-1.343,0.2116-2.0098s0.1472-1.3338,0.23-1.996
		c0.0828-0.6623,0.1564-1.3338,0.2438-1.996c0.069-0.5519,0.1426-1.0992,0.2162-1.6511c0.1058-0.7773,0.2162-1.5591,0.3357-2.3318
		c0-0.115,0.0322-0.2346,0.0506-0.3449c0.8394-5.6563,1.9832-11.2632,3.4264-16.7962L118.8199,120.4235z"/>
	<path opacity="0.1" fill="#F56539" enable-background="new    " d="M72.1427,155.5475h46.6772v63.6206h-43.26
		c-0.115,0.6531-0.2254,1.3107-0.3449,1.9685h43.6049v51.3086c-0.0782-0.023-0.1472-0.0506-0.2208-0.0782
		c-1.2326-0.4875-2.456-1.0026-3.6794-1.5545l-0.7819-0.3541c-1.2264-0.5795-2.4529-1.1927-3.6794-1.8397
		c-0.4277-0.2253-0.8554-0.4599-1.2786-0.6991c-6.8087-3.814-12.9941-8.6469-18.3416-14.3311
		c-0.1564-0.1518-0.3036-0.3127-0.4599-0.4599c-0.7451-0.8095-1.4763-1.6281-2.1846-2.4652l-0.7819-0.9198
		c-0.8371-1.0256-1.6465-2.0789-2.433-3.1459c-0.115-0.1564-0.2254-0.3127-0.3449-0.4599
		c-3.1985-4.4349-5.8543-9.2369-7.9106-14.3035c-0.0644-0.1518-0.1196-0.3174-0.1794-0.4599
		c-0.6316-1.625-1.1912-3.2654-1.6787-4.9211c-0.2116-0.6945-0.4139-1.3798-0.5887-2.1018
		c-0.0644-0.2116-0.1196-0.4185-0.1702-0.6255c-2.6123-10.1964-2.9205-20.7883-2.9205-31.3067c0-1.228,0-2.4606,0-3.6794
		c0-4.2543,0.0506-8.5361,0.1242-12.8133c0-1.1084,0.046-2.2122,0.069-3.3252c0.0644-2.8239,0.1564-5.6478,0.276-8.4717
		c0.0276-0.7865,0.0644-1.5683,0.1058-2.3502c0-0.4507,0.023-0.9014,0.069-1.3522C71.9403,158.79,72.0323,157.1665,72.1427,155.5475
		z"/>
	<polygon opacity="0.1" fill="#F56539" enable-background="new    " points="165.0602,96.2548 165.0602,153.5791 129.9637,153.5791 
		129.9637,96.2548 134.9677,96.2548 134.9677,76.8462 155.5076,76.8462 155.5076,96.2548 	"/>
	<rect x="129.9683" y="155.543" opacity="0.1" fill="#F56539" enable-background="new    " width="35.0918" height="63.6206"/>
	<path opacity="0.1" fill="#F56539" enable-background="new    " d="M129.9637,221.1366h35.0964v52.8907
		c-4.14,1.1896-8.3587,2.0856-12.6248,2.6813l-1.0486,0.1288c-0.5151,0.0598-1.0256,0.1104-1.5315,0.1609
		c-0.5059,0.0506-1.0302,0.0874-1.5407,0.1196h-0.161c-0.2207,0-0.4599,0.0276-0.6761,0.0322h-0.2346
		c-0.276,0-0.5519,0.0276-0.8279,0.0368l0,0c-0.3909,0.023-0.7819,0.0276-1.182,0.0322c-0.1702,0-0.3311,0-0.5013,0
		c-0.3955,0-0.7865,0-1.182,0h-0.8692c-0.2346,0-0.4599,0-0.7037,0l-0.8876-0.0322c-0.4599,0-0.9566-0.0506-1.435-0.0828l0,0
		l-0.883-0.0644l-1.0992-0.1012c-0.7727-0.069-1.5407-0.1564-2.2996-0.2621l-0.9198-0.1288l-0.4599-0.0644
		c-0.7681-0.1196-1.5269-0.2484-2.2996-0.3955c-0.5657-0.0966-1.1268-0.2162-1.6971-0.3311L129.9637,221.1366z"/>
	<rect x="355.5081" y="89.4848" opacity="0.1" fill="#F56539" enable-background="new    " width="28.9381" height="64.0897"/>
	<polygon opacity="0.1" fill="#F56539" enable-background="new    " points="384.4508,155.543 384.4508,219.1682 240.8134,219.1682 
		240.8134,191.7248 317.321,191.7248 317.321,207.9139 355.5081,207.9139 355.5081,155.543 	"/>
	<path opacity="0.1" fill="#F56539" enable-background="new    " d="M384.9061,289.3518h-0.4599v41.7377
		c-5.1818-0.4385-10.3482-1.0348-15.4993-1.7891c-23.1908-3.3953-45.7983-9.9921-67.1758-19.6017
		c-6.1721-2.778-12.2185-5.8103-18.1392-9.0972c-9.89-5.4791-19.3651-11.6754-28.3494-18.5393
		c-2.2567-1.7293-4.4842-3.4984-6.6826-5.3075c-1.5223-1.2556-3.0355-2.5434-4.567-3.7943c-1.0624-0.86-2.134-1.7063-3.2194-2.5157
		v-49.3079h114.3129c-0.0782-0.2944-0.1564-0.5887-0.2392-0.8784c0.0874,0.2897,0.1702,0.5841,0.2484,0.8784h29.3106v68.1876
		C384.6025,289.3288,384.7543,289.3426,384.9061,289.3518z"/>
	<path opacity="0.1" fill="#F56539" enable-background="new    " d="M459.9189,84.7108h-18.8567v-5.8594h8.4533V61.3975
		c0.7328,0.2668,1.4625,0.5412,2.1892,0.8232v16.6307h8.2141V84.7108z"/>
	<path opacity="0.1" fill="#F56539" enable-background="new    " d="M505.3497,153.5791h-92.5725c0,0,0,0,0.0322,0.023
		l-0.0414-0.023h-17.1734V89.4894h4.866v47.3717h22.2371V108.806h18.3692V86.6793h18.8567v22.1451h18.3692v28.0551h27.057V153.5791z
		"/>
	<path opacity="0.1" fill="#F56539" enable-background="new    " d="M395.5946,155.543v63.6252h109.7551V155.543H395.5946z
		 M535.1432,294.0614l0.1517-50.3611h-29.9453v-22.536H395.5946v110.6105c8.9983,0.378,18.0105,0.2705,26.9973-0.322l0,0h0.1564
		c4.2926-0.2698,8.5652-0.6623,12.8179-1.1774h0.0966c22.6881-2.6405,44.8728-8.56,65.8604-17.5735"/>
	<path opacity="0.1" fill="#F56539" enable-background="new    " d="M548.3843,221.1366h25.6037
		c-0.2253,12.9191-2.8193,25.6083-8.4947,37.327c-4.7233,9.7365-11.2864,18.2496-19.0406,25.6865v-40.4729h1.9316V221.1366z"/>
	<path opacity="0.1" fill="#F56539" enable-background="new    " d="M574.0018,219.1682h-25.6175v-53.1712h13.8619
		C569.421,182.761,573.9788,201.1577,574.0018,219.1682z"/>
	<rect x="368.9469" y="107.302" opacity="0.1" fill="#F56539" enable-background="new    " width="15.5039" height="20.0939"/>
	<rect x="368.9469" y="148.9523" opacity="0.1" fill="#F56539" enable-background="new    " width="15.5039" height="4.6268"/>
	<rect x="368.9469" y="155.543" opacity="0.1" fill="#F56539" enable-background="new    " width="15.5039" height="13.4986"/>
	<rect x="368.9469" y="190.6026" opacity="0.1" fill="#F56539" enable-background="new    " width="15.5039" height="20.0939"/>
	<rect x="368.9469" y="232.2529" opacity="0.1" fill="#F56539" enable-background="new    " width="15.5039" height="20.0939"/>
	<path opacity="0.1" fill="#F56539" enable-background="new    " d="M384.4462,289.3242c0.1564,0,0.3081,0,0.4599,0.0276h-0.4599
		v4.6682h-15.4993v-20.1169h15.4993V289.3242z"/>
	<path opacity="0.1" fill="#F56539" enable-background="new    " d="M384.4462,315.5442v15.5222
		c-5.1818-0.4385-10.3482-1.0348-15.4993-1.7891v-13.7332H384.4462z"/>
	<rect x="240.8134" y="217.6918" opacity="0.1" fill="#F56539" enable-background="new    " width="66.4445" height="1.4763"/>
	<rect x="240.8134" y="221.132" opacity="0.1" fill="#F56539" enable-background="new    " width="66.4445" height="5.657"/>
	<rect x="240.8134" y="245.3329" opacity="0.1" fill="#F56539" enable-background="new    " width="66.4445" height="9.0972"/>
	<path opacity="0.1" fill="#F56539" enable-background="new    " d="M307.2534,272.9741v9.0972h-51.9709
		c-2.2567-1.7231-4.4857-3.4923-6.6872-5.3075c-1.5223-1.2556-3.0309-2.5434-4.567-3.7897L307.2534,272.9741z"/>
	<path opacity="0.1" fill="#F56539" enable-background="new    " d="M307.2534,300.6106v9.088h-5.4869
		c-6.166-2.781-12.2108-5.8149-18.1346-9.1018L307.2534,300.6106z"/>
	<rect x="422.5964" y="161.7105" opacity="0.1" fill="#F56539" enable-background="new    " width="13.0801" height="13.0801"/>
	<rect x="139.3875" y="100.7666" opacity="0.1" fill="#F56539" enable-background="new    " width="13.0801" height="13.0801"/>
	<rect x="139.3875" y="131.1488" opacity="0.1" fill="#F56539" enable-background="new    " width="13.0801" height="13.0801"/>
	<rect x="139.3875" y="161.5311" opacity="0.1" fill="#F56539" enable-background="new    " width="13.0801" height="13.0801"/>
	<rect x="139.3875" y="191.9088" opacity="0.1" fill="#F56539" enable-background="new    " width="13.0801" height="13.0801"/>
	<rect x="139.3875" y="222.291" opacity="0.1" fill="#F56539" enable-background="new    " width="13.0801" height="13.0801"/>
	<rect x="139.3875" y="252.6733" opacity="0.1" fill="#F56539" enable-background="new    " width="13.0801" height="13.0801"/>
	<rect x="472.5299" y="161.7105" opacity="0.1" fill="#F56539" enable-background="new    " width="13.0801" height="13.0801"/>
	<rect x="422.5964" y="193.9738" opacity="0.1" fill="#F56539" enable-background="new    " width="13.0801" height="13.0801"/>
	<rect x="472.5299" y="193.9738" opacity="0.1" fill="#F56539" enable-background="new    " width="13.0801" height="13.0801"/>
	<rect x="422.5964" y="226.2325" opacity="0.1" fill="#F56539" enable-background="new    " width="13.0801" height="13.0801"/>
	<rect x="472.5299" y="226.2325" opacity="0.1" fill="#F56539" enable-background="new    " width="13.0801" height="13.0801"/>
	<rect x="422.5964" y="258.4958" opacity="0.1" fill="#F56539" enable-background="new    " width="13.0801" height="13.0801"/>
	<rect x="472.5299" y="258.4958" opacity="0.1" fill="#F56539" enable-background="new    " width="13.0801" height="13.0801"/>
	<rect x="422.5964" y="290.7592" opacity="0.1" fill="#F56539" enable-background="new    " width="13.0801" height="13.0801"/>
	<rect x="472.5299" y="290.7592" opacity="0.1" fill="#F56539" enable-background="new    " width="13.0801" height="13.0801"/>
	<polygon opacity="0.1" fill="#F56539" enable-background="new    " points="422.5964,331.4528 422.5964,323.0179 
		435.6719,323.0179 435.6719,330.2524 	"/>
	<path opacity="0.1" fill="#F56539" enable-background="new    " d="M74.056,137.229v7.4829h44.7639v-7.4829H74.056z
		 M78.5172,144.2427h-3.6517v-6.5538h3.6794L78.5172,144.2427z M82.9738,144.2427h-3.6794v-6.5538h3.6794V144.2427z
		 M87.4212,144.2427h-3.6794v-6.5538h3.6794V144.2427z M91.8778,144.2427h-3.6748v-6.5538h3.6794L91.8778,144.2427z
		 M96.3298,144.2427h-3.6794v-6.5538h3.6794V144.2427z M100.7865,144.2427h-3.6794v-6.5538h3.6794V144.2427z M105.2431,144.2427
		h-3.6794v-6.5538h3.6794V144.2427z M109.6951,144.2427h-3.6794v-6.5538h3.6794V144.2427z M114.1471,144.2427h-3.6794v-6.5538
		h3.6794V144.2427z M118.5991,144.2427h-3.6794v-6.5538h3.6794V144.2427z"/>
	<path opacity="0.1" fill="#F56539" enable-background="new    " d="M74.056,159.0015v7.4829h44.7639v-7.4829H74.056z
		 M78.5172,166.0107h-3.6517v-6.5354h3.6794L78.5172,166.0107z M82.9738,166.0107h-3.6794v-6.5354h3.6794V166.0107z
		 M87.4212,166.0107h-3.6794v-6.5354h3.6794V166.0107z M91.8778,166.0107h-3.6748v-6.5354h3.6794L91.8778,166.0107z
		 M96.3298,166.0107h-3.6794v-6.5354h3.6794V166.0107z M100.7865,166.0107h-3.6794v-6.5354h3.6794V166.0107z M105.2431,166.0107
		h-3.6794v-6.5354h3.6794V166.0107z M109.6951,166.0107h-3.6794v-6.5354h3.6794V166.0107z M114.1471,166.0107h-3.6794v-6.5354
		h3.6794V166.0107z M118.5991,166.0107h-3.6794v-6.5354h3.6794V166.0107z"/>
	<path opacity="0.1" fill="#F56539" enable-background="new    " d="M74.056,180.7833v7.4967h44.7639v-7.4967H74.056z
		 M78.5172,187.7925h-3.6517v-6.5401h3.6794L78.5172,187.7925z M82.9738,187.7925h-3.6794v-6.5401h3.6794V187.7925z
		 M87.4212,187.7925h-3.6794v-6.5401h3.6794V187.7925z M91.8778,187.7925h-3.6748v-6.5401h3.6794L91.8778,187.7925z
		 M96.3298,187.7925h-3.6794v-6.5401h3.6794V187.7925z M100.7865,187.7925h-3.6794v-6.5401h3.6794V187.7925z M105.2431,187.7925
		h-3.6794v-6.5401h3.6794V187.7925z M109.6951,187.7925h-3.6794v-6.5401h3.6794V187.7925z M114.1471,187.7925h-3.6794v-6.5401
		h3.6794V187.7925z M118.5991,187.7925h-3.6794v-6.5401h3.6794V187.7925z"/>
	<path opacity="0.1" fill="#F56539" enable-background="new    " d="M74.056,202.5651v7.4737h44.7639v-7.4737H74.056z
		 M78.5172,209.5742h-3.6517v-6.5446h3.6794L78.5172,209.5742z M82.9738,209.5742h-3.6794v-6.5446h3.6794V209.5742z
		 M87.4212,209.5742h-3.6794v-6.5446h3.6794V209.5742z M91.8778,209.5742h-3.6748v-6.5446h3.6794L91.8778,209.5742z
		 M96.3298,209.5742h-3.6794v-6.5446h3.6794V209.5742z M100.7865,209.5742h-3.6794v-6.5446h3.6794V209.5742z M105.2431,209.5742
		h-3.6794v-6.5446h3.6794V209.5742z M109.6951,209.5742h-3.6794v-6.5446h3.6794V209.5742z M114.1471,209.5742h-3.6794v-6.5446
		h3.6794V209.5742z M118.5991,209.5742h-3.6794v-6.5446h3.6794V209.5742z"/>
	<path opacity="0.1" fill="#F56539" enable-background="new    " d="M74.2491,224.3422c0.1794,0.7037,0.3817,1.4073,0.5933,2.1018
		v-1.6327h3.6794v6.54h-1.9685c0.0598,0.1518,0.1196,0.3174,0.1794,0.4599h42.0872v-7.4691H74.2491z M82.9876,231.3514h-3.6794
		v-6.54h3.6794V231.3514z M87.435,231.3514h-3.6794v-6.54h3.6794V231.3514z M91.8916,231.3514h-3.6886v-6.54h3.6794
		L91.8916,231.3514z M96.3437,231.3514h-3.6794v-6.54h3.6794V231.3514z M100.8003,231.3514h-3.6794v-6.54h3.6794V231.3514z
		 M105.2569,231.3514h-3.6794v-6.54h3.6794V231.3514z M109.7089,231.3514h-3.6794v-6.54h3.6794V231.3514z M114.1609,231.3514
		h-3.6794v-6.54h3.6794V231.3514z M118.6129,231.3514h-3.6794v-6.54h3.6794V231.3514z"/>
	<path opacity="0.1" fill="#F56539" enable-background="new    " d="M84.6433,246.124c0.115,0.1472,0.2254,0.3127,0.3449,0.4599
		h2.433v3.1413c0.2622,0.3127,0.5197,0.6255,0.7865,0.9198v-4.0795h3.6794v6.563h-1.4901c0.1472,0.1518,0.2897,0.3127,0.4599,0.4599
		h27.9769v-7.4645H84.6433z M96.3298,253.1286h-3.6794v-6.5355h3.6794V253.1286z M100.7865,253.1286h-3.6794v-6.5355h3.6794
		V253.1286z M105.2431,253.1286h-3.6794v-6.5355h3.6794V253.1286z M109.6951,253.1286h-3.6794v-6.5355h3.6794V253.1286z
		 M114.1471,253.1286h-3.6794v-6.5355h3.6794V253.1286z M118.5991,253.1286h-3.6794v-6.5355h3.6794V253.1286z"/>
	<path opacity="0.1" fill="#F56539" enable-background="new    " d="M109.1984,267.9012c0.4185,0.2392,0.8462,0.4599,1.2786,0.6991
		v-0.23h3.6794v2.0696l0.7819,0.3633v-2.433h3.6794v3.9783c0.0706,0.0351,0.1445,0.0628,0.2208,0.0828v-4.5302L109.1984,267.9012z"
		/>
	<path opacity="0.1" fill="#F56539" enable-background="new    " d="M412.7772,153.5791L412.7772,153.5791h0.0276H412.7772z
		 M384.4462,289.3196L384.4462,289.3196h0.4599H384.4462z M354.8871,220.2536c0.0874,0.2944,0.1609,0.5887,0.2438,0.8784l0,0
		C355.0573,220.8423,354.9791,220.5479,354.8871,220.2536z M412.7772,153.5653L412.7772,153.5653h0.0276H412.7772z M134.986,84.697
		v1.9639h20.5446V84.697H134.986z M384.4462,289.3196L384.4462,289.3196h0.4599H384.4462z M354.8871,220.2536
		c0.0874,0.2944,0.1609,0.5887,0.2438,0.8784l0,0C355.0573,220.8423,354.9791,220.5479,354.8871,220.2536z M412.7772,153.5653
		L412.7772,153.5653h0.0276H412.7772z M384.4462,289.3058L384.4462,289.3058h0.4599H384.4462z M354.8871,220.2536
		c0.0874,0.2944,0.1609,0.5887,0.2438,0.8784l0,0C355.0573,220.8423,354.9791,220.5479,354.8871,220.2536z"/>
	
		<linearGradient id="SVGID_1_" gradientUnits="userSpaceOnUse" x1="276.9053" y1="-53.7408" x2="276.9053" y2="229.2567" gradientTransform="matrix(1 0 0 -1 -47.24 302.63)">
		<stop  offset="0" style="stop-color:#808080;stop-opacity:0.25"/>
		<stop  offset="0.54" style="stop-color:#808080;stop-opacity:0.12"/>
		<stop  offset="1" style="stop-color:#808080;stop-opacity:0.1"/>
	</linearGradient>
	<path fill="url(#SVGID_1_)" d="M278.0761,174.6204c0,0-1.8121-0.2529-1.8121-2.8929c0-2.6399-1.297-7.5703-1.297-7.5703l0,0
		c0-0.023-1.1222-8.5867-2.6721-9.948s-3.5414-9.3548-3.5414-9.3548s-0.3403-4.337-1.0348-5.2707
		c-0.6945-0.9336-1.6327-3.2194-3.0171-6.4803c-1.3844-3.2608-7.1563-5.519-7.1563-5.519s-10.4356-6.0525-13.3929-8.0256l0,0
		c-0.2688-0.1621-0.52-0.3517-0.7497-0.5657c-0.5151-0.6761-2.7595-0.6899-2.7595-0.6899
		c-0.2346-1.4809-0.4599-3.1826-0.5335-4.7234c0-0.1656,0-0.3311-0.023-0.4967c3.2976-1.9492,5.7814-5.0225,6.9954-8.6557
		c0.0552-0.1748,0.1012-0.3587,0.1518-0.5335c0.3995-0.1316,0.7251-0.4255,0.8969-0.8095c0.2667-0.5933,0.2713-1.2878,0.6025-1.8397
		c0.3863-0.6531,1.1222-1.0026,1.7017-1.4947c1.4625-1.2418,1.8397-3.3344,1.7707-5.2385c-0.046-1.5407-0.2944-3.0953-0.1978-4.6268
		l0.0276-0.3863c0.0276-0.23,0.0598-0.4599,0.1012-0.6807c0.2254-1.1406,0.7175-2.2168,0.9934-3.3482
		c0.276-1.1314,0.3035-2.4054-0.3403-3.3804c-0.9428-1.4304-2.9067-1.7155-4.6314-1.8627
		c-1.9547-0.1656-3.7023,0.0506-4.9533-1.5729c-0.5855-0.8485-1.2441-1.6442-1.9685-2.3778
		c-0.2576-0.2392-2.7595-1.7661-2.7595-1.8673c-2.4419-1.131-5.2098-1.3433-7.7956-0.5979
		c-1.297,0.3771-2.5204,0.9934-3.8357,1.3016c-2.8377,0.6715-6.1031-0.0552-8.5131,1.5683
		c-1.343,0.9198-2.1478,2.3824-2.9021,3.8081c-0.6132,1.1743-1.2356,2.3471-1.8673,3.5184
		c-1.0164,1.9271-2.0512,3.8863-2.479,6.0203c-0.0899,0.4644-0.1453,0.9348-0.1656,1.4073l0,0v0.023c0,0.1702,0,0.3403,0,0.5105
		v0.2162c0,0.161,0,0.3173,0.0276,0.4599c0.0276,0.1426,0.023,0.1886,0.0368,0.2851c0.0138,0.0966,0.0368,0.3127,0.0644,0.4599
		s0.0828,0.4047,0.138,0.6071c0.023,0.0874,0.0552,0.1702,0.0828,0.253c0.046,0.1564,0.1012,0.3082,0.161,0.4599
		c0.0322,0.0782,0.0644,0.161,0.1012,0.2392c0.069,0.161,0.1518,0.3173,0.2346,0.4599c0.0368,0.0644,0.0644,0.1242,0.1012,0.184
		c0.1283,0.2139,0.2696,0.4197,0.4231,0.6163c0.9842,1.228,2.433,2.0098,3.5046,3.1596c0,0.046,0,0.092,0,0.1334
		c0,0.1288,0,0.253,0,0.3817c0.1154,5.2063,2.7979,10.0187,7.1655,12.8548c0,0.1748,0.023,0.3541,0.0322,0.5289
		c0.0897,1.3652,0.0728,2.7353-0.0506,4.0979c-0.3793-0.4468-0.941-0.6972-1.5269-0.6807
		c-0.1976-0.0097-0.3956,0.0074-0.5887,0.0506l-0.0414-0.0322l0,0v0.0414c-1.0118,0.2484-2.2582,1.3016-3.4494,4.2956
		c0,0-3.6242,4.0841-6.3837,3.9139c-2.7595-0.1702-9.7457,4.2496-9.7457,4.2496s-6.816,4.4244-8.2785,8.9316
		c-0.8175,2.5558-1.7976,5.0567-2.9343,7.4875l-8.4257,17.362l0,0l-1.5545,13.7746c0,0,0.86,6.1261,0.6899,7.0598
		c-0.1702,0.9336,3.5368,9.3548,3.5368,9.3548s12.2477,21.5196,17.2516,22.6234l0.3587-0.2529
		c0.2141,0.1118,0.4412,0.1968,0.6761,0.2529l1.0302-0.7267c0.0618,0.8099,0.0356,1.6241-0.0782,2.4284
		c-0.6899,2.1248,0.2576,15.9914,1.4625,18.7095s0.7773,38.3573,0.7773,38.3573l-0.1702,3.1459c0,0,0,0.1012,0.0414,0.2759
		l-0.0414,0.7451l0.1242,0.0644c0.1289,0.9978,0.0869,2.0103-0.1242,2.9941c-0.4323,1.3798-0.6071,5.2798-0.6071,5.2798
		s-3.4448,22.0209-1.8121,26.4454c1.6327,4.4244,3.0217,9.2719,3.0217,9.2719s1.7247,5.519,0.0828,6.4619
		c-1.6419,0.9428-6.3101,2.525-5.3488,4.8246c0.8738,2.1248,4.1898,7.8186,4.682,8.6511l-0.0414,0.437l-0.6761,7.3265
		c0.1095,0.9673,0.3718,1.9112,0.7773,2.7963c0.7405,1.5959,2.18,3.2516,4.9165,3.0723c0.4599-0.0322,0.9934-0.0874,1.5085-0.1564
		c5.0085-0.6715,11.176-2.9067,11.176-2.9067c-0.3202-0.2034-0.6138-0.446-0.8738-0.7221l0,0
		c-0.4975-0.4819-0.7752-1.147-0.7681-1.8397c0.0736-1.3338-2.4238-7.6898-3.0447-9.2536
		c-0.0966-0.2254-0.1472-0.3542-0.1472-0.3542s5.6938-5.9514,4.7464-11.2266c0,0-6.3009-3.6794-4.2267-5.6984
		c2.0742-2.019,5.7812-7.8186,5.7812-7.8186s0.1702-21.6852,0-24.923c-0.1775-2.2473-0.0709-4.508,0.3173-6.7286
		c0.069-0.3358,0.1518-0.6623,0.2392-0.9843c2.8686,0.4282,5.7645,0.6481,8.6649,0.6577c1.0578,0,2.134,0,3.2194-0.0644
		c0,0.3066,0.0138,0.6378,0.0414,0.9934c0.2392,5.3719,0.6853,14.791,1.0486,18.291c0.5151,5.0177,3.362,18.5393,3.362,18.5393
		s-5.4316,3.4862,0.9474,12.0775c0,0,0,3.1137-0.4231,3.5644l0,0c-0.4517,1.4734-0.8157,2.9724-1.09,4.4888
		c-0.2667,1.6189-0.3771,3.2562,0.0552,4.1071c1.0348,2.0328,7.2437,1.8672,7.2437,1.8672l0,0l0.1518-0.0276
		c2.3677-0.2448,4.7347,0.4691,6.5723,1.9822c2.3594,1.8949,11.314,1.0624,16.1615,0.4599
		c1.8995-0.2392,3.1689-0.4599,3.1689-0.4599c0.0616-0.215,0.0834-0.4395,0.0644-0.6623l0,0
		c-0.0506-1.1912-0.9842-3.8036-7.3127-6.1353c0,0-5.9514-4.0013-5.8686-7.4875h-0.1242h-0.6899c0.5013-0.0276,0.8232,0,0.8232,0
		s-2.3318-8.5085-1.3797-9.1984c0.952-0.6899-1.8995-10.1182-1.8995-10.1182s-1.6327-15.8212-1.7201-16.9296
		c0.0036-0.9511,0.1478-1.8965,0.4277-2.8055l-0.4277-8.6741c0,0-0.0828-2.8837,0-3.8219c-0.0139-0.8144-0.08-1.627-0.1978-2.433
		c-0.0414-0.3219-0.0828-0.6577-0.1288-0.9888c2.2306-0.5657,3.6794-1.09,3.6794-1.09l-0.2576-30.1937
		c1.8949-3.6794,2.2444-11.7509,2.2352-17.4769c0-3.6794-0.1656-6.4021-0.1656-6.4021l2.5894-4.2267
		c0,0,0.5979-5.0591-0.3495-6.1675c-0.4185-0.5013-0.2299-1.021,0.115-1.4488c0.1791-0.142,0.3682-0.2711,0.5657-0.3863
		c0,0-0.0276-0.0414-0.0598-0.1012c0.1808-0.151,0.373-0.2879,0.5749-0.4093c0,0-0.9198-1.4257-0.0966-2.0282
		c0.7726,0.5243,1.4625,0.9198,1.9868,1.2418c-0.0368,0.3357-0.0736,0.5289-0.0736,0.5289l0.2208-0.4599
		c0.5059,0.2851,0.8141,0.4599,0.8141,0.4599s4.0565-8.0808,3.9691-9.272c-0.0874-1.1912,2.7595-6.2089,2.7595-6.2089
		s0.3449-2.6353,1.8994-3.7391c1.5545-1.1038,1.205-9.1018,1.205-9.1018s0.4323-4.1669,1.4672-5.8686
		S278.0761,174.6204,278.0761,174.6204z M200.4601,171.0744l0.0782,1.9271c-0.4599-0.7405-0.7911-1.274-0.7911-1.274
		L200.4601,171.0744z"/>
	<path fill="#FFFFFF" d="M267.9395,209.3167l-0.9934,4.2313c0,0-7.9566-4.0611-9.3915-9.2214s2.4008-7.1196,2.4008-7.1196
		l7.4139,3.1413L267.9395,209.3167z"/>
	<path opacity="0.1" enable-background="new    " d="M267.9395,209.3167l-0.9934,4.2313c0,0-7.9566-4.0611-9.3915-9.2214
		s2.4008-7.1196,2.4008-7.1196l7.4139,3.1413L267.9395,209.3167z"/>
	<path fill="#FFFFFF" d="M223.2859,353.3219c0,0-7.3587,2.7043-12.4178,3.0447c-2.6859,0.1794-4.0979-1.4672-4.8245-3.0539
		c-0.397-0.8821-0.653-1.821-0.7589-2.7825l0.6577-7.2897l0.3495-3.8817l10.7483-2.7917l1.5223,4.6544l0.1426,0.3542
		c0.6117,1.5545,3.0631,7.8784,2.9895,9.1984c-0.0061,0.683,0.2663,1.3389,0.7543,1.8167
		C222.6956,352.869,222.9769,353.1148,223.2859,353.3219z"/>
	<path fill="#FFFFFF" d="M273.5505,349.615c0.0184,0.2213-0.0034,0.4442-0.0644,0.6577c0,0-15.7384,2.6262-18.9579,0
		c-1.8355-1.5513-4.2404-2.2561-6.6228-1.9409c0,0-6.0893,0.1656-7.1058-1.8397c-0.4231-0.8417-0.3127-2.4744-0.0506-4.0841
		c0.2674-1.5083,0.6237-2.9995,1.067-4.4659l0.2438-0.1931l1.4487-1.1636l16.9618-0.5013h0.1288
		c-0.0828,3.4678,5.7582,7.4461,5.7582,7.4461C272.5616,345.8299,273.4769,348.4284,273.5505,349.615z"/>
	<path opacity="0.1" enable-background="new    " d="M273.5505,349.615c0.0161,0.2216-0.0073,0.4442-0.069,0.6577
		c0,0-15.7338,2.6262-18.9532,0c-1.8343-1.5501-4.2373-2.2548-6.6183-1.9409c0,0-6.0939,0.1656-7.1057-1.8397
		c-0.4231-0.8463-0.3174-2.4744-0.0552-4.0841c2.3456,0.2346,6.0479,0.8187,7.5013,2.2122
		c2.1984,2.1202,5.9238,4.2359,8.2095,4.4014C258.249,349.1367,268.9513,349.477,273.5505,349.615z"/>
	<path opacity="0.1" enable-background="new    " d="M223.2859,353.3219c0,0-7.3587,2.7043-12.4178,3.0447
		c-2.6859,0.1794-4.0979-1.4672-4.8199-3.0585c1.8719,0.6301,4.4704,1.2924,5.8364,0.6853
		c1.6189-0.7175,7.3587-1.182,10.5781-1.3798C222.7077,352.8819,222.9841,353.1197,223.2859,353.3219z"/>
	<path fill="#CF6F80" d="M234.2044,135.3893c-6.0709-2.3594-13.8803-10.155-11.9303-13.7976
		c0.4331-0.9192,0.6905-1.9113,0.7589-2.9251c0.1255-1.3763,0.1439-2.7602,0.0552-4.1393
		c-0.1367-2.2586-0.4086-4.5071-0.8141-6.7332c0,0,18.9533,0.4277,17.8495,3.2194c-0.3219,0.8187-0.3725,2.2398-0.2851,3.8311
		s0.3173,3.3896,0.5565,4.9119c0.3311,2.088,0.6623,3.6794,0.6623,3.6794s-1.159,1.6235-1.8397,1.7109
		C238.5368,125.2343,242.9153,138.7513,234.2044,135.3893z"/>
	<path opacity="0.1" enable-background="new    " d="M218.6913,341.5756l-0.1426,0.1564c-5.6662-6.8528-12.519,1.6879-12.519,1.6879
		l-0.1012-0.1794l0.3495-3.8817l10.7483-2.7917l1.5223,4.6544L218.6913,341.5756z"/>
	<path opacity="0.1" enable-background="new    " d="M260.6038,336.5671c0,0-4.1393-0.0874-6.3469,1.8627
		c-2.2076,1.9501-12.8777,0.4231-12.4178,0c0.1363-0.2097,0.2184-0.4499,0.2392-0.6991l1.4487-1.1636l16.9618-0.5013
		C260.5532,336.3739,260.6038,336.5671,260.6038,336.5671z"/>
	<path fill="#F56539" d="M225.7419,282.752c-0.3083,0.7622-0.5424,1.5523-0.6991,2.3594c-0.3835,2.2103-0.4901,4.4597-0.3173,6.6964
		c0.1702,3.2194,0,24.7942,0,24.7942s-3.638,5.7536-5.6662,7.7818s4.1393,5.6708,4.1393,5.6708
		c0.9198,5.2431-4.6544,11.1668-4.6544,11.1668c-5.6662-6.8528-12.519,1.6925-12.519,1.6925s-3.7253-6.4389-4.6544-8.7385
		s3.638-3.8909,5.2431-4.8246s-0.0782-6.4389-0.0782-6.4389s-1.3568-4.8245-2.9665-9.226s1.7753-26.312,1.7753-26.312
		s0.1748-3.8909,0.5933-5.2477c0.2112-0.9791,0.2532-1.987,0.1242-2.9803c-0.0276-0.3357-0.0598-0.6163-0.0828-0.8049
		c-0.023-0.1885-0.0414-0.2759-0.0414-0.2759l0.0644-0.1104l2.2996-4.2864C208.3017,273.6686,226.8457,280.0522,225.7419,282.752z"
		/>
	<path fill="#F56539" d="M260.6038,336.0612c0,0-4.1393-0.0874-6.3469,1.8397c-2.2076,1.9271-12.8777,0.4231-12.4178,0
		c0.4599-0.4231,0.4231-3.5552,0.4231-3.5552c-6.2595-8.5453-0.9198-12.0131-0.9198-12.0131s-2.7963-13.4526-3.3022-18.4427
		c-0.3541-3.4862-0.7911-12.8547-1.0256-18.2036c-0.1012-2.2996-0.161-3.8817-0.161-3.8817l5.1143-1.0302l0.6577-0.1334
		l12.335-2.4744c0,0,0.3403,2.2996,0.5703,4.1807c0.1147,0.8031,0.1792,1.6126,0.1932,2.4238c-0.0828,0.9198,0,3.799,0,3.799
		l0.4185,8.6327c-0.2734,0.9055-0.4144,1.8458-0.4185,2.7917c0.0828,1.0992,1.6879,16.8376,1.6879,16.8376
		s2.7917,9.3915,1.8397,10.0676C258.2996,327.5758,260.6038,336.0612,260.6038,336.0612z"/>
	<path opacity="0.1" enable-background="new    " d="M240.1236,111.0136c-0.3219,0.8187-0.3725,2.2398-0.2851,3.8311
		c-5.1806,3.1196-11.6897,2.9981-16.7502-0.3127c-0.1365-2.2602-0.4084-4.5101-0.8141-6.7378
		C222.2741,107.7942,241.2274,108.2127,240.1236,111.0136z"/>
	<path fill="#CF6F80" d="M247.4501,100.8494c0.0037,1.6573-0.2572,3.3046-0.7727,4.8797
		c-2.6978,8.2628-11.5831,12.7742-19.8459,10.0765c-6.3402-2.07-10.6871-7.9115-10.8491-14.5791c0-0.1288,0-0.2484,0-0.3771
		c-0.1486-8.6908,6.7762-15.8566,15.467-16.0053c8.6908-0.1486,15.8566,6.7762,16.0053,15.467c0.0031,0.1794,0.0031,0.3589,0,0.5383
		L247.4501,100.8494z"/>
	<path opacity="0.1" enable-background="new    " d="M234.2044,135.3893c-6.0709-2.3594-13.8803-10.155-11.9303-13.7976
		c0.4331-0.9192,0.6905-1.9113,0.7589-2.9251l8.3107,6.8298l5.1419,4.2175l3.9093-9.9527c0.3311,2.088,0.6623,3.6794,0.6623,3.6794
		s-1.159,1.6235-1.8397,1.7109S242.9153,138.7513,234.2044,135.3893z"/>
	<polygon fill="#F56539" points="255.6964,165.5738 248.7562,282.1633 239.705,282.7566 216.2675,215.1531 220.1125,134.8926 
		220.9219,117.9354 231.3437,126.4945 236.4902,130.7119 240.5145,120.4695 247.9974,126.9912 	"/>
	<path opacity="0.1" enable-background="new    " d="M225.7419,282.752c-0.3083,0.7622-0.5424,1.5523-0.6991,2.3594
		c-6.5861-1.0169-12.9826-3.0152-18.9763-5.9284l-0.1242-0.0644l0.0414-0.7405l0.023-0.3863l2.2996-4.2865
		C208.3063,273.7053,226.8457,280.0522,225.7419,282.752z"/>
	<path opacity="0.1" enable-background="new    " d="M242.0736,285.1298c-1.6837,0.2863-3.3818,0.4798-5.0867,0.5795
		c-0.1012-2.2996-0.161-3.8817-0.161-3.8817l5.1143-1.0302L242.0736,285.1298z"/>
	<path opacity="0.1" enable-background="new    " d="M255.5033,282.3702c-3.27,0.8508-8.3199,1.8075-12.8409,1.2096l-0.0644-2.9159
		l12.335-2.4744C254.9329,278.1896,255.2733,280.4662,255.5033,282.3702z"/>
	<path opacity="0.1" enable-background="new    " d="M242.5795,284.1133c-18.8567,3.2195-36.1266-6.0111-36.1266-6.0111
		l0.1656-3.1274c0,0,0.4277-35.4551-0.7589-38.1733s-2.111-16.5019-1.4396-18.6175s-2.4514-33.8409-2.4514-33.8409l-0.5059-12.8777
		l-18.5163-7.5013l8.2785-17.2562c1.1181-2.4194,2.0798-4.9081,2.8791-7.4507c1.4395-4.4796,8.1222-8.881,8.1222-8.881
		s6.8528-4.3968,9.5617-4.2313c2.7089,0.1656,6.2595-3.8909,6.2595-3.8909c2.6215-6.6826,4.9947-3.6564,4.9947-3.6564
		c0,0.3173,0,0-0.1288,0.9888c-0.9198,7.3357,14.8738,30.5156,15.0991,30.925l0,0l1.504,36.6372l1.5223,46.3644L242.5795,284.1133z"
		/>
	<path fill="#FFFFFF" d="M242.0736,284.1133c-18.8567,3.2195-36.1312-6.0111-36.1312-6.0111l0.1702-3.1274
		c0,0,0.4277-35.4551-0.7635-38.1733c-1.1912-2.7181-2.111-16.5019-1.4349-18.6175c0.6761-2.1156-2.4514-33.8409-2.4514-33.8409
		l-0.5105-12.8777l-18.5255-7.5289l8.2785-17.2561c1.1157-2.4204,2.0773-4.909,2.8791-7.4507
		c1.435-4.4796,8.1222-8.881,8.1222-8.881s6.8528-4.3968,9.5571-4.2313c2.7043,0.1656,6.2595-3.8909,6.2595-3.8909
		c2.6261-6.6826,5.519-3.6564,5.519-3.6564c0,0.3173-0.2759,0.4599-0.1288,0.9888c2.0236,7.115,14.3679,30.5156,14.5932,30.9249l0,0
		l1.5223,36.6372l1.5223,46.3644L242.0736,284.1133z"/>
	<path opacity="0.1" enable-background="new    " d="M236.9915,151.5279c-2.0282-0.8463-12.7719-13.1123-12.7719-13.1123v-2.7917
		c-0.3909-0.9198-2.7135-0.3587-4.5992,0.2851l0.8095-16.9572l0.9198,0.7635C223.3641,126.8256,236.7569,151.1185,236.9915,151.5279
		z"/>
	<path fill="#FFFFFF" d="M237.502,150.5114c-2.0329-0.8463-12.7766-13.1123-12.7766-13.1123v-2.7917
		c-0.3909-0.9198-2.7135-0.3587-4.5992,0.2851l0.8141-16.9572l0.9198,0.7635C223.8792,125.8092,237.2767,150.1067,237.502,150.5114z
		"/>
	<path opacity="0.1" enable-background="new    " d="M206.4529,211.6853c0.253,0,13.1123-1.3522,13.1123-1.3522
		s7.7864,15.3107,7.2759,19.0361c-0.5105,3.7254-1.435,7.023-4.567,6.4389s-16.856,0.4599-16.856,0.4599L206.4529,211.6853z"/>
	<path fill="#FFFFFF" d="M205.9424,210.6689c0.2529,0,13.1123-1.3522,13.1123-1.3522s7.7818,15.3153,7.2759,19.0361
		c-0.5059,3.7208-1.4395,7.023-4.567,6.4389s-16.856,0.4599-16.856,0.4599L205.9424,210.6689z"/>
	<path fill="#CF6F80" d="M215.6329,203.4803c0,0,11.8015,6.3423,12.0545,8.2785c0.253,1.9363-6.0065-0.8463-7.3587-1.182
		c-0.89-0.2144-1.7959-0.3559-2.7089-0.4231l-9.019,0.2438L215.6329,203.4803z"/>
	<circle opacity="0.1" enable-background="new    " cx="233.6985" cy="151.0771" r="1.2418"/>
	<circle fill="#3F3D56" cx="233.6985" cy="150.5712" r="1.2418"/>
	<circle opacity="0.1" enable-background="new    " cx="235.9843" cy="204.8325" r="1.2418"/>
	<circle fill="#3F3D56" cx="235.9843" cy="204.322" r="1.2418"/>
	<circle opacity="0.1" enable-background="new    " cx="234.9357" cy="177.9548" r="1.2418"/>
	<circle fill="#3F3D56" cx="234.9357" cy="177.4489" r="1.2418"/>
	<path fill="#FFFFFF" d="M263.561,209.8962c0,0,0.8463,1.2694,0,1.8627c-0.8463,0.5933,0.0828,2.0282,0.0828,2.0282
		s-2.111,1.2372-1.182,2.3502c0.929,1.113,0.3403,6.1399,0.3403,6.1399l-2.5388,4.2037c0,0,0.1518,2.7089,0.161,6.3699
		c0,5.7122-0.3358,13.7424-2.1938,17.4034l0.2576,30.0373c0,0-8.8902,3.247-16.3317,2.2582l-1.1038-48.1995
		c0,0,1.6097-27.333,2.203-32.5761c0.3472-2.722,0.4886-5.4663,0.4231-8.2095c0,0-0.2529-8.205-1.1038-12.0131
		c0,0-0.9198-16.4973-1.0118-21.0643c-0.0414-2.1846,0.0736-8.5591,0.2024-14.6208c0.1426-6.6274,0.3035-12.8777,0.3035-12.8777
		l-1.6787-13.2825c0,0,1.6787-0.1702,2.1846,0.5059c0.2266,0.2117,0.473,0.4011,0.7359,0.5657l0,0
		c2.8975,1.9593,13.1353,7.9842,13.1353,7.9842s5.6662,2.2536,7.0229,5.4822s2.2996,5.519,2.9573,6.4389
		c0.6577,0.9198,1.0164,5.2431,1.0164,5.2431s1.95,7.9566,3.4724,9.3042c1.5223,1.3476,2.6353,9.9205,2.6353,9.9205
		l-13.4526,10.5781c0,0-1.182,17.5965-1.4349,18.2772C258.4099,194.6866,263.561,209.8962,263.561,209.8962z"/>
	<path fill="#FFFFFF" d="M264.0715,209.8962c0,0,0.8416,1.2694,0,1.8627c-0.8416,0.5933,0.0782,2.0282,0.0782,2.0282
		s-2.0973,1.251-1.1774,2.364c0.9199,1.113,0.3403,6.1399,0.3403,6.1399l-2.5387,4.2037c0,0,0.1518,2.7089,0.1656,6.3699
		c0,5.7122-0.3358,13.7424-2.1938,17.4034l0.253,30.0373c0,0-8.904,3.2471-16.3363,2.2582l-1.0992-48.1995
		c0,0,1.6097-27.333,2.203-32.5761c0.3476-2.7219,0.4875-5.4664,0.4185-8.2095c0,0-0.2529-8.205-1.0992-12.0131
		c0,0-0.9198-16.4973-1.0164-21.0643c-0.0414-2.1846,0.0782-8.5591,0.2024-14.6208c0.1426-6.6274,0.3036-12.8777,0.3036-12.8777
		l-2.2168-13.4618c0,0,2.2168,0,2.7273,0.6853c0.2245,0.2142,0.4712,0.4038,0.7359,0.5657l0,0
		c2.8975,1.9593,13.1399,7.9842,13.1399,7.9842s5.6616,2.2536,7.0184,5.4822s2.2996,5.519,2.9619,6.4389
		c0.6623,0.9198,1.0118,5.2431,1.0118,5.2431s1.9501,7.9566,3.4724,9.3042c1.5223,1.3476,2.6215,9.9021,2.6215,9.9021
		l-13.4526,10.5781c0,0-1.182,17.5965-1.4395,18.2772C258.8975,194.6821,264.0715,209.8962,264.0715,209.8962z"/>
	<path opacity="0.1" enable-background="new    " d="M247.9606,136.907l1.2142,3.5414l-6.3929,6.4389
		c0.1426-6.6228,0.3035-12.8777,0.3035-12.8777l-2.2168-13.4618c0,0,2.2168,0,2.7273,0.6853
		c0.2238,0.2136,0.4706,0.4018,0.7359,0.5611l0,0l5.4362,15.6833L247.9606,136.907z"/>
	<path fill="#FFFFFF" d="M247.4501,135.8906l1.2188,3.5414l-6.3929,6.4389c0.1426-6.6274,0.3035-12.8777,0.3035-12.8777
		l-2.2214-13.4618c0,0,2.2214,0,2.7273,0.6853c0.2256,0.2129,0.4721,0.4024,0.7359,0.5657l0,0l5.4408,15.6786L247.4501,135.8906z"/>
	<path opacity="0.1" enable-background="new    " d="M247.4501,100.8494c0.0037,1.6573-0.2572,3.3046-0.7727,4.8797
		c-0.1755,0.0274-0.3547-0.0174-0.4967-0.1242c-0.1196-4.1393-2.157-8.0256-4.6636-11.3324
		c-0.7037-0.9984-1.5569-1.8826-2.5296-2.6215c-0.9833-0.7386-2.2065-1.0845-3.431-0.9704
		c-1.3798,0.1886-2.5985,1.1268-3.9921,1.2464c-1.8397,0.1518-3.4862-1.1222-5.3121-1.1866
		c-1.5016,0.0143-2.9244,0.6745-3.9047,1.8121c-0.9592,1.1348-1.6719,2.4567-2.0926,3.8817
		c-0.7231,2.1609-1.1169,4.4183-1.1682,6.6964c-0.023,1.2878-0.1472,2.9021-1.343,3.3712c0.182-1.9148-0.4469-3.8182-1.7339-5.2477
		l-0.0276-0.0276c0-0.1288,0-0.2484,0-0.3771c-0.1486-8.6908,6.7762-15.8566,15.467-16.0053
		c8.6908-0.1486,15.8566,6.7762,16.0053,15.467c0.0031,0.1794,0.0031,0.3589,0,0.5383L247.4501,100.8494z"/>
	<path fill="#512E4E" d="M238.2333,75.862c-2.3899-1.1242-5.1082-1.3368-7.6438-0.5979c-1.274,0.3771-2.4744,0.9888-3.7667,1.297
		c-2.7595,0.6669-5.979-0.0552-8.3475,1.5591c-1.3154,0.9198-2.1064,2.3732-2.8423,3.7851l-1.8397,3.5046
		c-1.0026,1.9179-2.0145,3.8679-2.433,5.979c-0.4185,2.111-0.1656,4.475,1.1728,6.1721c0.975,1.2372,2.4146,2.0145,3.4724,3.178
		c1.2811,1.4308,1.9078,3.3309,1.7293,5.2431c1.2004-0.4599,1.3154-2.0788,1.343-3.3666c0.0513-2.2781,0.4451-4.5355,1.1682-6.6964
		c0.4198-1.4255,1.1325-2.7476,2.0926-3.8817c0.9811-1.1366,2.4034-1.7966,3.9047-1.8121c1.8397,0.0644,3.4908,1.3338,5.3121,1.182
		c1.3797-0.115,2.6031-1.0578,3.9921-1.2418c1.2247-0.1159,2.4485,0.2302,3.431,0.9704c0.9724,0.7378,1.8242,1.6222,2.5249,2.6215
		c2.5112,3.3068,4.5486,7.1839,4.6682,11.3324c0.5197,0.3817,1.2694-0.115,1.5269-0.7037c0.2576-0.5887,0.2667-1.2786,0.5933-1.8397
		c0.3771-0.6485,1.0992-0.9934,1.6649-1.4809c1.4349-1.2372,1.7937-3.3206,1.7385-5.2109
		c-0.0552-1.8903-0.4231-3.8081-0.0644-5.6662c0.2162-1.1406,0.7037-2.2076,0.9704-3.3344c0.2667-1.1268,0.299-2.3916-0.3311-3.362
		c-0.9198-1.4258-2.8561-1.7063-4.544-1.8397c-1.9179-0.1656-3.6333,0.046-4.8567-1.5683c-0.5743-0.8424-1.2206-1.6334-1.9317-2.364
		C240.6938,77.4809,238.2333,75.9632,238.2333,75.862z"/>
	<path opacity="0.1" enable-background="new    " d="M188.2447,172.8497l-4.8062-8.8856l-1.5223,13.7102
		c0,0,0.8463,6.0893,0.6761,7.023s3.4678,9.3042,3.4678,9.3042s12.0177,21.4046,16.925,22.5084l16.5801-11.8475l-4.3968-5.5834
		c0,0-1.5223-0.5933-1.9041,0c0,0-8.1636-14.0459-9.0098-15.0623c-0.8463-1.0164-0.6807-3.0447-0.6807-3.0447
		s-1.2694-1.3522-0.8463-2.6216s-2.4514-5.6708-2.4514-5.6708l2.6216-2.4514L188.2447,172.8497z"/>
	<path fill="#FFFFFF" d="M183.6915,162.9522l-1.2694,1.0118l-1.5223,13.7102c0,0,0.8463,6.0893,0.6761,7.023
		s3.4724,9.3042,3.4724,9.3042s12.0131,21.4046,16.9204,22.5084l16.5847-11.8475l-4.4014-5.5834c0,0-1.5223-0.5933-1.9041,0
		c0,0-8.1636-14.0459-9.0098-15.0623c-0.8463-1.0164-0.6761-3.0447-0.6761-3.0447s-1.2694-1.3522-0.8463-2.6216
		c0.4231-1.2694-2.456-5.6708-2.456-5.6708l2.6215-2.4514L183.6915,162.9522z"/>
	<path opacity="0.1" enable-background="new    " d="M262.4618,216.6616c0.9198,1.1176,0.3403,6.1353,0.3403,6.1353l-2.5387,4.2037
		c0,0,0.1518,2.7135,0.1609,6.3699l-4.268,1.3338c-1.3359,0.4173-2.7572-0.3275-3.1744-1.6635
		c-0.0842-0.2697-0.1228-0.5515-0.114-0.8339l0.7359-23.7364l9.9572,3.8082c-0.8463,0.5887,0.0828,2.0328,0.0828,2.0328
		S261.5328,215.544,262.4618,216.6616z"/>
	<path fill="#FFFFFF" d="M262.9723,216.1511c0.9199,1.1176,0.3403,6.1399,0.3403,6.1399l-2.5387,4.2037
		c0,0,0.1518,2.7089,0.1656,6.3699l-4.3463,1.3568c-1.3098,0.407-2.7016-0.3248-3.1087-1.6347
		c-0.0816-0.2627-0.1191-0.5371-0.1107-0.8121l0.7405-23.81l9.9618,3.8081c-0.8508,0.5887,0.0782,2.0282,0.0782,2.0282
		S262.0525,215.0381,262.9723,216.1511z"/>
	<path fill="#CF6F80" d="M266.27,204.8371c0,0-0.6761,4.3186-2.3686,4.5716s-2.4514,6.9862-4.1393,6.747
		c-1.6879-0.2392-0.5703-6.2595-0.5105-7.4277c0.0598-1.1682-1.8397-6.0065-0.4185-7.1058s5.9192,0,5.9192,0L266.27,204.8371z"/>
	<path opacity="0.1" enable-background="new    " d="M269.8711,171.5803l3.1918-6.4389c0,0,1.2694,4.9073,1.2694,7.5289
		c0,2.6215,1.7753,2.8791,1.7753,2.8791s1.9455,2.2996,0.9199,3.9737c-1.0256,1.6741-1.4395,5.841-1.4395,5.841
		s0.3357,7.952-1.1866,9.0512c-1.5223,1.0992-1.8397,3.7253-1.8397,3.7253s-2.7963,4.9901-2.7089,6.1767
		s-3.8909,9.2214-3.8909,9.2214s1.9455-9.9848-9.3915-14.2989c0,0-0.0874-3.3896,0.7589-4.3186
		c0.8463-0.929,2.1662-1.3522,1.3384-6.0479s-0.2392-10.3068-0.2392-11.4336c0-1.1268,2.5388-8.1544,2.5388-8.1544
		L269.8711,171.5803z"/>
	<path fill="#FFFFFF" d="M271.2509,164.2216l2.7871,0.9198c0,0,1.274,4.9073,1.274,7.5289c0,2.6215,1.7753,2.8791,1.7753,2.8791
		s1.9455,2.2996,0.9199,3.9737c-1.0256,1.6741-1.435,5.841-1.435,5.841s0.3358,7.952-1.1866,9.0512
		c-1.5223,1.0992-1.8626,3.7253-1.8626,3.7253s-2.7917,4.9901-2.7043,6.1767c0.0874,1.1866-3.8955,9.2214-3.8955,9.2214
		s1.95-9.9848-9.3915-14.2989c0,0-0.0828-3.3896,0.7635-4.3186s2.1662-1.3522,1.3383-6.0479s-0.2391-10.3068-0.2391-11.4336
		c0-1.1268,2.5388-8.1544,2.5388-8.1544L271.2509,164.2216z"/>
	<path opacity="0.1" enable-background="new    " d="M209.6907,331.1125c0,0,4.4428-2.7917,7.3587-0.7635
		S209.6907,331.1125,209.6907,331.1125z"/>
	<path opacity="0.1" enable-background="new    " d="M244.2122,322.4798c0,0,3.9323-0.5059,7.2345,3.0493
		C254.749,329.0842,244.2122,322.4798,244.2122,322.4798z"/>
	<g opacity="0.1">
		<path d="M249.9658,100.0583c-0.5657,0.4875-1.2924,0.8371-1.6695,1.4855c-0.3219,0.5565-0.3311,1.2418-0.5887,1.8397
			c-0.2576,0.5979-1.0072,1.0854-1.5269,0.7083c-0.1196-4.1393-2.1616-8.0256-4.6682-11.337
			c-0.7008-0.9993-1.5526-1.8837-2.5249-2.6215c-0.9844-0.7401-2.2095-1.0861-3.4356-0.9704
			c-1.3798,0.1886-2.5939,1.1268-3.9875,1.2418c-1.8397,0.1564-3.4908-1.1176-5.3167-1.182
			c-1.5011,0.0149-2.9228,0.6771-3.9001,1.8167c-0.9601,1.1324-1.6729,2.453-2.0926,3.8771
			c-0.7227,2.161-1.1165,4.4184-1.1682,6.6964c-0.0276,1.2832-0.1472,2.8837-1.3338,3.362c0.0276,0.3398,0.0276,0.6813,0,1.021
			c1.1958-0.4599,1.3154-2.0788,1.343-3.3666c0.0513-2.2781,0.4451-4.5355,1.1682-6.6964c0.4198-1.4255,1.1325-2.7476,2.0926-3.8817
			c0.9793-1.1364,2.4001-1.7965,3.9001-1.8121c1.8397,0.0644,3.4954,1.3338,5.3167,1.182c1.3798-0.115,2.6031-1.0578,3.9875-1.2418
			c1.2261-0.1157,2.4512,0.2304,3.4356,0.9704c0.9723,0.7378,1.8241,1.6222,2.5249,2.6215
			c2.5066,3.3068,4.5486,7.1839,4.6682,11.3324c0.5197,0.3817,1.2694-0.115,1.5269-0.7037
			c0.2576-0.5887,0.2667-1.2786,0.5887-1.8397c0.3771-0.6485,1.1038-0.9934,1.6695-1.4809c1.435-1.2372,1.7937-3.3206,1.7385-5.2109
			c0-0.0598,0-0.1196,0-0.1748C251.6261,97.331,251.1892,99.0005,249.9658,100.0583z"/>
		<path d="M216.0146,99.7318c-1.0578-1.1636-2.502-1.9409-3.4724-3.1734c-0.8171-1.0911-1.2838-2.4046-1.3384-3.7667
			c-0.1447,1.7021,0.3306,3.3992,1.3384,4.7786c0.9704,1.2372,2.4146,2.0145,3.4724,3.178
			c1.0156,1.1382,1.6254,2.5809,1.7339,4.1025C217.8908,102.9796,217.2647,101.1312,216.0146,99.7318z"/>
		<path d="M252.6104,85.8468c-0.2713,1.1268-0.7543,2.1984-0.975,3.3344c-0.1307,0.7591-0.1785,1.5302-0.1426,2.2996
			c0.0154-0.4383,0.063-0.8749,0.1426-1.3062c0.2208-1.1406,0.7037-2.2076,0.975-3.3344c0.1582-0.6215,0.2095-1.2654,0.1518-1.9041
			C252.7336,85.243,252.6828,85.5473,252.6104,85.8468z"/>
	</g>
	<ellipse opacity="0.1" fill="#F56539" enable-background="new    " cx="126.8225" cy="342.6151" rx="44.8145" ry="7.1977"/>
	<rect x="125.3829" y="204.7313" fill="#535461" width="2.8837" height="64.9268"/>
	<path fill="#3F3D56" d="M146.3874,269.4603l-0.1794,2.925l-0.2576,4.1393l-0.1058,1.7201l-0.253,4.1393l-0.1104,1.7201
		l-0.2576,4.1393l-2.9067,46.944c-0.2622,4.1921-3.7379,7.4583-7.9382,7.4599H119.266c-4.1994-0.0017-7.6737-3.2685-7.9336-7.4599
		l-2.8929-46.9761l-0.2576-4.1393l-0.1058-1.7201l-0.2576-4.1393l-0.1058-1.7201l-0.2576-4.1393l-0.184-2.9251
		c-0.1295-2.2824,1.6157-4.2376,3.898-4.3672c0.0803-0.0046,0.1608-0.0068,0.2412-0.0067h30.9112
		c2.2707,0.0196,4.0957,1.8762,4.0761,4.1469C146.3971,269.2877,146.3936,269.3741,146.3874,269.4603z"/>
	<polygon fill="#9D9CB5" points="146.2081,272.3854 145.9505,276.5109 107.6945,276.5109 107.4369,272.3854 	"/>
	<polygon fill="#9D9CB5" points="145.8447,278.231 145.5918,282.361 108.0578,282.361 107.8002,278.231 	"/>
	<polygon fill="#9D9CB5" points="145.4814,284.0857 145.2285,288.2112 108.4211,288.2112 108.1636,284.0857 	"/>
	<path fill="#F56539" d="M103.0355,229.0656c16.7916,12.151,23.8008,31.1549,23.8008,31.1549s-20.2364-0.6945-37.0327-12.8455
		S66.012,216.2247,66.012,216.2247S86.2392,216.9146,103.0355,229.0656z"/>
	<path fill="none" stroke="#535461" stroke-width="2" stroke-miterlimit="10" d="M65.9982,216.2247
		c0,0,21.0091,11.6589,27.7469,21.3127c6.7378,9.6537,33.0912,22.6832,33.0912,22.6832"/>
	<path fill="#F56539" d="M113.8758,204.5887c9.1386,6.6091,12.9605,16.9526,12.9605,16.9526s-11.0151-0.3771-20.1583-6.9862
		c-9.1432-6.609-12.9559-16.9572-12.9559-16.9572S104.7326,197.9751,113.8758,204.5887z"/>
	<path fill="none" stroke="#535461" stroke-width="2" stroke-miterlimit="10" d="M93.7221,197.598
		c0,0,11.4336,6.3469,15.0991,11.5991c3.6656,5.2523,18.015,12.3442,18.015,12.3442"/>
	<path fill="#F56539" d="M140.1049,221.017c-10.5,11.5394-12.7214,26.6201-12.7214,26.6201s14.8048-3.6334,25.2955-15.1773
		c10.4908-11.544,12.7214-26.6201,12.7214-26.6201S150.6049,209.4777,140.1049,221.017z"/>
	<path fill="none" stroke="#535461" stroke-width="2" stroke-miterlimit="10" d="M165.4097,205.8443
		c0,0-13.678,11.8291-17.155,19.9789s-20.8711,21.814-20.8711,21.814"/>
	
		<linearGradient id="SVGID_00000072962995764776112860000000517951938036105902_" gradientUnits="userSpaceOnUse" x1="523.939" y1="-50.1718" x2="523.939" y2="208.3153" gradientTransform="matrix(1 0 0 -1 -47.24 302.63)">
		<stop  offset="0" style="stop-color:#808080;stop-opacity:0.25"/>
		<stop  offset="0.54" style="stop-color:#808080;stop-opacity:0.12"/>
		<stop  offset="1" style="stop-color:#808080;stop-opacity:0.1"/>
	</linearGradient>
	<path fill="url(#SVGID_00000072962995764776112860000000517951938036105902_)" d="M525.5447,216.9559
		c0,0-7.5933-37.7778-4.6865-42.4781c0,0,0.1058-4.3692-0.069-9.9388c0-0.2116,0-0.4231,0-0.6393
		c0.5114,0.341,1.0446,0.6482,1.5959,0.9198c2.6782,1.3759,5.7528,1.7728,8.6925,1.1222l-2.2996-2.5618
		c-0.5519-0.6117-1.1268-1.274-1.2464-2.0834s0.2115-1.5315,0.4967-2.2536c2.1846-5.519,2.2996-12.4592-1.9087-16.6721
		c-3.5552-3.5414-4.4198-8.113-8.2785-11.3462c-2.8193-2.3686-4.3693-5.841-5.8318-9.1984
		c-1.2372-2.8377-2.4836-5.6984-3.1919-8.7063c-0.5519-2.3502-0.7726-4.7832-1.5315-7.0782s-2.18-4.5256-4.4014-5.5512
		c-0.791-0.3633-1.6695-0.5703-2.3916-1.0532c-0.9474-0.6393-1.5177-1.6787-2.203-2.5893
		c-3.4816-4.5992-15.1405-1.8903-20.6596-0.023c-1.5004,0.4702-2.8898,1.24-4.0841,2.2628l0.0506-0.0828
		c0.0414-0.069,0.092-0.138,0.138-0.207c-0.6041,0.4885-1.1258,1.0708-1.5453,1.7247c-0.8048,1.274-1.1406,2.7595-1.8121,4.1393
		c-0.8094,1.6327-5.312,6.1905-3.3758,8.0256c0.1357,0.1233,0.2912,0.2227,0.4599,0.2944c0.7269,0.3025,1.5272,0.3825,2.2996,0.23
		l-0.0828,0.1978c-0.6613,1.6191-1.0003,3.3516-0.998,5.1005c0,7.5565,6.2319,13.6826,13.9264,13.6826
		c1.4465,0.0014,2.8846-0.2204,4.2635-0.6577c0.0322,0.1748,0.0598,0.3495,0.092,0.5243c0,0.069,0.023,0.138,0.0322,0.207l0,0
		l-0.2438,0.3403c-0.0122-0.021-0.0261-0.041-0.0414-0.0598l-7.2207,10.0906c-1.1038,0.7773-7.4599,5.3764-7.8186,8.8258
		c-0.3772,3.7759-0.7543,8.1958-0.7543,8.1958l-0.0506,0.9474c-0.6386,0.5337-1.4791,0.7606-2.2996,0.6209
		c-2.2536-0.3679-2.2536,8.2785-2.2536,8.2785s-1.4993,1.3798-2.5295,0.184c-1.0302-1.1958-3.7529,2.8561-3.7529,2.8561
		l-17.063,0.7359l0,0l-0.3909,0.023l-0.9198-2.8469c-0.2061-0.625-0.8768-0.9676-1.5039-0.7681
		c-0.0713,0.0235-0.1405,0.0527-0.207,0.0874l-0.0644,0.0368l-0.1196,0.0828l-0.0598,0.0552
		c-0.033,0.0299-0.0637,0.0622-0.092,0.0966l-0.0552,0.0644l-0.0276,0.0276l0,0c-0.2154,0.2977-0.2768,0.68-0.1656,1.0302
		l0.791,2.4422c-3.293,0.6623-6.6596,2.5295-3.9139,7.6714l-13.9172-2.5709l4.5026,3.7805l23.2443,4.797
		c-0.3081,0.5519-0.1058,1.3522,0.8554,2.479c4.1393,4.8613,11.6819,6.1813,14.7174,6.5217
		c0.8016,1.7932,1.8029,3.4903,2.9849,5.0591l-0.2621,4.8429c0,0-7.6853,36.9131-9.0926,38.785
		c0.7104-0.805,1.3607-1.6613,1.9455-2.5618c-2.2306,7.5841-5.3489,17.9644-6.1675,19.519
		c-1.3154,2.4836-2.5341,12.5328-1.0348,13.1767c0.4599,0.1978,1.7753,0.1012,3.6518-0.0414v0.8325l-0.0828,31.5459
		c0,0,0.3771,19.3488-0.6577,21.1931c-1.0348,1.8443-1.3108,5.7122-1.3108,5.7122s-4.1393,7.6301-7.4185,10.6977
		c-0.0223,0.0239-0.047,0.0454-0.0736,0.0644l-0.1012-0.7175c0,0-3.9415,4.9763-12.6616,4.6958c0,0-5.2477,3.4126,2.5342,3.5966
		c7.7818,0.184,17.7207-0.2759,17.7207-0.2759s6.9402-10.5782,12.7536-9.1984v8.0164h1.7799v-8.1452
		c1.668-1.0981,2.8133-2.8318,3.1689-4.797c0.3099-2.0394-0.4806-4.0908-2.0789-5.3948c-0.7135-0.645-1.1252-1.5586-1.136-2.5204
		l-0.0644,0.0552c0-0.161-0.0414-0.3266-0.0598-0.4967c-0.5105-4.1393-1.1498-12.68,1.1084-18.9992
		c3.0952-8.6649,4.0335-20.7332,1.7799-27.9171c-0.7272-2.2964-1.3245-4.6319-1.7891-6.9954
		c-0.0552-0.299-0.1058-0.5841-0.1518-0.8509c1.5405,0.2084,3.0659,0.5157,4.567,0.9199
		c5.2201,1.4395,16.6399,1.7063,26.3901,1.6281c0.023,0.2668,0.0506,0.5473,0.0828,0.8279
		c0.1738,1.9501,0.5374,3.8786,1.0854,5.7582c1.2234,3.6794,1.7845,19.9007,1.7845,19.9007s1.5775,13.3376,0.7175,18.7647
		c-0.4599,3.0171-0.9198,6.0479-1.182,9.0926v0.0598c0,0-2.5847,7.3587-4.475,11.3554c-0.046,0.1012-0.0966,0.2024-0.1426,0.299
		c-0.504,0.0459-1,0.1556-1.4763,0.3265c0,0-2.5341,5.0591-5.0591,5.8962c-2.525,0.837-1.6879,3.5919,4.0289,2.5801
		c5.7168-1.0118,14.3495-1.8397,14.3495-1.8397l0.3725-5.1603l1.7569-2.1984l-0.4599,5.1465l1.8719-0.368l-0.2484-6.2595
		l2.8745-3.5966c0,0,3.4724-3.0906-1.6879-9.1708v0.1334c-0.0552-0.0874-0.1058-0.1794-0.1655-0.2668v-0.0276
		c-0.8555-1.3246-1.5361-3.7943-0.2898-8.1774c2.2537-7.9198,3.5644-15.1083,3.5644-15.1083s5.0315-19.2568-1.0164-28.3678h0.2667
		c-0.6198-1.2821-1.0578-2.6443-1.3015-4.0473c-0.0306-0.1656-0.0583-0.3358-0.0828-0.5105c4.475-0.2575,8.8672-1.067,12.45-2.8147
		C529.4862,269.9294,527.3292,224.2319,525.5447,216.9559z M468.7309,185.0835v0.092l-0.9198,0.046L468.7309,185.0835z
		 M465.5759,185.5205c-0.1512,0.0335-0.2928,0.1012-0.4139,0.1978c-0.3954,0.5595-0.6438,1.2096-0.7221,1.8903l-1.435-0.322
		c0,0-1.0072-0.2162-2.456-0.4599l-0.6853-0.6899C461.7494,185.9804,463.7086,185.7504,465.5759,185.5205z"/>
	<polygon fill="#1D2366" points="513.0533,341.9666 512.506,348.4836 514.3411,348.1157 514.0652,341.0467 	"/>
	<path fill="#FFB0B1" d="M471.1869,311.0232c-2.2122,6.3009-1.5867,14.8048-1.09,18.9349c0.184,1.5269,0.3542,2.456,0.3542,2.456
		s-3.3068,7.5335-3.5828,7.8186s-9.7319,6.0571-9.7319,6.0571l-6.609,3.8587c0,0-6.7056-2.9389-3.4908-3.9507
		c0.6568-0.2636,1.2485-0.6669,1.7339-1.182c3.2195-3.0585,7.2621-10.6609,7.2621-10.6609s0.2759-3.8587,1.2878-5.6938
		c1.0118-1.8351,0.6439-21.1195,0.6439-21.1195l0.0782-31.4355v-4.0979l12.5788,0.092c0.0793,1.3912,0.2607,2.7746,0.5427,4.1393
		c0.4515,2.3555,1.0365,4.6833,1.7523,6.9724C475.133,290.382,474.2132,302.3905,471.1869,311.0232z"/>
	<path opacity="0.1" enable-background="new    " d="M470.451,332.414c0,0-3.3068,7.5335-3.5828,7.8186
		s-9.7319,6.0571-9.7319,6.0571l-6.609,3.8587c0,0-6.7056-2.9389-3.4908-3.9507c0.6568-0.2636,1.2485-0.6669,1.7339-1.182
		l0.2852,2.0098l2.203-0.092l18.8567-16.9664C470.2809,331.485,470.451,332.414,470.451,332.414z"/>
	<path fill="#1D2366" d="M470.2211,330.395l-18.9625,17.0814l-2.203,0.092l-0.4599-3.2195c0,0-3.8541,4.9579-12.4178,4.682
		c0,0-5.1419,3.3988,2.479,3.5828c7.6209,0.184,17.3528-0.2759,17.3528-0.2759s6.7976-10.5782,12.4868-9.1984v7.9888h1.7477v-8.0624
		c1.6419-1.1053,2.7616-2.833,3.0999-4.7832c0.3077-2.0219-0.461-4.0579-2.0283-5.3719
		C470.62,332.2586,470.224,331.3485,470.2211,330.395z"/>
	<path fill="#FFB0B1" d="M514.801,320.847c-1.2234,4.3692-0.5565,6.8298,0.2806,8.1498v0.0276
		c1.0736,1.6298,1.8203,3.4526,2.1984,5.3672l0.0736,0.4139l-8.6281,12.5788l-4.682,1.8397c0,0-7.5289-2.571-6.1537-3.3068
		c0.3449-0.1794,0.883-1.136,1.4993-2.456c1.8397-3.9783,4.3784-11.3186,4.3784-11.3186v-0.0598
		c0.2668-3.0309,0.6899-6.0525,1.159-9.0604c0.8417-5.4132-0.7037-18.7003-0.7037-18.7003s-0.5519-16.157-1.7477-19.8317
		c-0.5399-1.8684-0.8987-3.7843-1.0716-5.7214c-0.2484-2.2996-0.3035-4.1945-0.3035-4.1945s4.9579-6.8988,14.046,0.5519
		c0.7267,0.5942,1.3661,1.2878,1.8995,2.0604c6.2779,8.9316,1.2234,28.607,1.2234,28.607S517.004,312.9503,514.801,320.847z"/>
	<path opacity="0.1" enable-background="new    " d="M517.3674,334.8056l-8.6281,12.5788l-4.682,1.8397
		c0,0-7.5289-2.571-6.1537-3.3068c0.3449-0.1794,0.883-1.136,1.4993-2.456c3.1873-0.0276,4.8384,3.0079,4.8384,3.0079l4.0381-0.6439
		c0,0,5.3259-10.4677,6.5216-11.1071c1.1958-0.6393,0.184-4.7786,0.184-4.7786v-1.0532c0.0322,0.0368,0.0598,0.0782,0.0966,0.115
		v0.0276c1.0736,1.6298,1.8203,3.4526,2.1984,5.3672L517.3674,334.8056z"/>
	<path fill="#1D2366" d="M504.5172,346.7405c0,0-2.2996-4.2221-6.7056-2.6629c0,0-2.479,5.0591-4.9579,5.8778
		s-1.6511,3.5782,3.9507,2.571c5.6018-1.0072,14.0459-1.8397,14.0459-1.8397l0.368-5.1465l5.6938-7.2529
		c0,0,3.3942-3.0768-1.6557-9.134v1.0532c0,0,1.0118,4.1393-0.184,4.7786c-1.1958,0.6393-6.5032,11.1116-6.5032,11.1116
		L504.5172,346.7405z"/>
	<path opacity="0.1" enable-background="new    " d="M470.635,272.091c0.0793,1.3912,0.2607,2.7747,0.5427,4.1393
		c-5.1787-0.7589-9.9849-0.3817-13.1353-0.1334v-4.0979L470.635,272.091z"/>
	<path opacity="0.1" enable-background="new    " d="M517.556,278.3322c0,0-7.3587,0.3587-16.134,0.4323
		c-0.2483-2.2996-0.3035-4.1945-0.3035-4.1945s4.9579-6.8988,14.0459,0.5519c0.7268,0.5942,1.3662,1.2878,1.8995,2.0604
		C517.2064,277.5745,517.3707,277.9583,517.556,278.3322z"/>
	<path fill="#1D2366" d="M517.556,277.5043c0,0-32.2311,1.5591-42.055-1.1958c-9.8239-2.7549-19.5603-0.3679-21.0275-1.0072
		c-1.4672-0.6393-0.2759-10.6517,1.0118-13.1307c1.2878-2.4789,8.3521-27.5491,8.3521-27.5491l6.7976-35.4414l7.1609-1.9731
		l0.5059-0.1426l12.4776-3.4402l9.1432-2.5249c0,0,18.1806,70.9793,16.6214,76.2132c-0.5662,2.0042-0.6575,4.1127-0.2667,6.1583
		C516.5156,274.8678,516.9459,276.2252,517.556,277.5043z"/>
	<path fill="#C7DAF5" d="M446.94,174.9423c0,0-6.4389,6.8988-1.5638,10.7437c4.8751,3.8449,8.0808,0.3679,8.0808,0.3679
		L446.94,174.9423z"/>
	<path opacity="0.1" enable-background="new    " d="M446.94,174.9423c0,0-6.4389,6.8988-1.5638,10.7437
		c4.8751,3.8449,8.0808,0.3679,8.0808,0.3679L446.94,174.9423z"/>
	<path fill="#FFB0B1" d="M498.9614,129.5851c0,0-0.7543,0.7175-1.8903,1.7753c-1.6189,1.5131-4.0151,3.7254-6.1399,5.5788
		c-2.9435,2.5618-5.3719,4.4428-4.5026,2.8377c0.8693-1.6051,0.7037-4.4014,0.2714-7.0184
		c-0.0322-0.1748-0.0598-0.3495-0.092-0.5197c-0.358-1.9219-0.8326-3.8203-1.4211-5.6846c0,0,4.7556-6.1445,7.3863-8.5683
		c0.9796-0.9198,1.6649-1.297,1.7063-0.6577c0.046,0.86,0.6899,2.7595,1.4901,4.774c0.023,0.0644,0.046,0.1242,0.0736,0.1886
		c0.5335,1.3798,1.136,2.7963,1.6649,4.0197C498.3175,128.187,498.9614,129.5851,498.9614,129.5851z"/>
	<path opacity="0.1" enable-background="new    " d="M495.8432,122.2908c-0.9103,4.8958-4.4143,8.9074-9.1432,10.4678
		c-0.3657-2.0995-0.8712-4.1722-1.5131-6.2043c0,0,8.9546-11.567,9.0926-9.226
		C494.3116,118.2159,495.0107,120.1844,495.8432,122.2908z"/>
	<path opacity="0.1" enable-background="new    " d="M485.8077,135.8492l1.159-1.6327c0,0,0.768,4.682,3.5919,2.6169
		s2.9619,15.5407,2.9619,15.5407l-3.0309,45.3158l-21.9013-1.3108l0.6209-21.8968l2.479-11.0381l6.1307-16.0466l3.6472-5.3029
		L485.8077,135.8492z"/>
	<path fill="#1D2366" d="M493.5206,152.6547l-2.7595,40.9742l-0.2897,4.3416l-12.2108-0.7313l-0.4599-0.0276l-9.1984-0.5519
		l0.6209-21.9013l2.479-11.0381l6.1307-16.0466l3.6472-5.3029l4.3416-6.2687l1.159-1.6281c0,0,0.7681,4.682,3.592,2.6169
		l0.0598-0.0414l0,0C493.3918,135.3019,493.5206,152.6547,493.5206,152.6547z"/>
	<path fill="#FFFFFF" d="M472.0102,159.8846c0,0-1.0992,2.2996-3.3068,1.9271c-2.2076-0.3725-2.203,8.2785-2.203,8.2785
		s-1.4672,1.3798-2.479,0.184c-1.0118-1.1958-3.6794,2.8469-3.6794,2.8469l-16.7135,0.7359c0,0,7.4369,3.3988,5.9789,13.6826
		c0,0,25.2496-1.5637,26.0774-3.9507C476.5128,181.2018,472.0102,159.8846,472.0102,159.8846z"/>
	<path opacity="0.03" enable-background="new    " d="M472.0102,159.8846c0,0-1.0992,2.2996-3.3068,1.9271
		c-2.2076-0.3725-2.203,8.2785-2.203,8.2785s-1.4672,1.3798-2.479,0.184c-1.0118-1.1958-3.6794,2.8469-3.6794,2.8469
		l-16.7135,0.7359c0,0,7.4369,3.3988,5.9789,13.6826c0,0,25.2496-1.5637,26.0774-3.9507
		C476.5128,181.2018,472.0102,159.8846,472.0102,159.8846z"/>
	<polygon fill="#FFFFFF" points="423.4381,179.261 427.8441,183.0231 464.1133,190.644 459.6153,186.054 	"/>
	<path fill="#FFFFFF" d="M485.8767,137.298c-0.6025,0.9198-2.3272,5.6294-3.7668,9.7411c-1.2004,3.4264-2.203,6.4389-2.203,6.4389
		s-2.341,15.2417-3.5368,17.9966s-0.5473,13.4986-0.5473,13.4986l-4.4566,26.5327c0,0-2.019,13.6826-5.1373,21.8554
		c-3.0769,8.044-6.5033,11.8153-6.609,11.9349c1.3798-1.8673,8.8994-38.6332,8.8994-38.6332l2.4836-46.369
		c0,0,0.3633-4.406,0.7313-8.1728c0.368-3.7667,7.8186-8.9086,7.8186-8.9086l7.1839-10.2148
		C487.4588,133.9635,486.9759,135.6469,485.8767,137.298z"/>
	<path fill="#FFB0B1" d="M467.1442,196.8897c0,0-10.5781-0.4599-15.7016-6.6136c-5.1235-6.1537,11.8429-2.456,11.8429-2.456
		l4.4106,1.0118L467.1442,196.8897z"/>
	<path opacity="0.1" enable-background="new    " d="M516.5441,267.3171c-0.5662,2.0042-0.6575,4.1127-0.2667,6.1583
		c-11.5394,0.8187-23.8836-2.2996-23.8836-2.2996c-2.2996,2.1156-8.3567,5.2339-8.3567,5.2339l-3.3022-40.9328
		c-2.1111-5.519-2.9389-34.4341-2.9389-34.4341s0.1886-1.5131,0.4599-3.7805c0-0.0552,0-0.115,0.023-0.1702
		c0.8232-6.3331,2.456-18.222,3.2563-19.8271c1.1038-2.2076-3.3942-8.0808-3.3942-8.0808l2.0467-17.4539l0.2484-2.1064
		c4.314-1.927,7.6208-8.0808,7.6208-8.0808l2.5388-4.4474l0,0c2.7595-1.7707,2.9021,15.5821,2.9021,15.5821l-2.7595,40.9742
		l9.1432-2.5249C499.8813,191.1269,518.1032,262.0832,516.5441,267.3171z"/>
	<path fill="#FFFFFF" d="M528.387,270.1456c-12.5788,6.2457-35.4414,0.4599-35.4414,0.4599
		c-2.2996,2.1156-8.3567,5.2339-8.3567,5.2339l-3.3068-40.9328c-2.1064-5.519-2.9343-34.4341-2.9343-34.4341
		s2.6584-21.5748,3.7621-23.7778c0.322-0.6439,0.1656-1.6005-0.2162-2.6307c-1.8767-4.9035-2.567-10.1814-2.0144-15.4027
		l0.883-7.5013l0.2438-2.1018c4.3187-1.9317,7.6255-8.0854,7.6255-8.0854l2.2996-4.0289l4.2312-7.4231l2.0052-3.5138l0.3403,0.3082
		l2.5986,2.3548c0,0,1.1038,0.9198,2.7595,2.2996c3.6012,3.0355,9.8239,8.3797,13.0341,11.6497
		c2.8239,2.8791,3.7161,14.0781,3.9737,22.5084c0.1702,5.5512,0.069,9.9021,0.069,9.9021
		c-2.8469,4.6866,4.5992,42.3125,4.5992,42.3125C526.276,224.6136,528.387,270.1456,528.387,270.1456z"/>
	<path opacity="0.03" enable-background="new    " d="M504.2413,140.8807c0,0-8.6327,16.4329-7.6301,22.6786
		c1.0026,6.2457,3.8541,13.3147,2.479,14.9658c-0.9578,1.2681-2.4536,2.0151-4.0427,2.019
		c-1.3798,0.092-5.0591,2.6629-5.0591,2.9389s-3.3988,0.276-6.4389,1.5637c-3.0401,1.2878-7.5289,2.019-7.5289,2.019
		s-8.7385-0.276-9.5525,0.5519c-0.8141,0.8279-1.6511,5.7812,0.092,9.7319s3.6794,6.8988,5.1419,7.4369
		c1.4625,0.5381,10.7437-2.571,18.2726-3.3068s15.7017-6.701,15.7017-6.701s9.0006-3.2194,10.5781-8.6327
		c1.5775-5.4132-1.9271-35.1654-1.9271-35.1654S511.6782,137.114,504.2413,140.8807z"/>
	<path opacity="0.03" enable-background="new    " d="M503.1375,139.501c0,0-8.6327,16.4375-7.6209,22.6786
		c1.0118,6.2411,3.8541,13.3147,2.4744,14.9704c-0.9544,1.2696-2.4497,2.0173-4.0381,2.019
		c-1.3798,0.092-5.0591,2.6629-5.0591,2.9389c0,0.276-3.3988,0.276-6.4389,1.5591c-3.0401,1.2832-7.5289,2.019-7.5289,2.019
		s-8.7385-0.276-9.5479,0.5519c-0.8095,0.8279-1.6557,5.7858,0.092,9.7319c1.7477,3.9461,3.6794,6.8988,5.1419,7.4369
		c1.4626,0.5381,10.7437-2.571,18.2726-3.3022c7.5289-0.7313,15.7017-6.7056,15.7017-6.7056s8.996-3.2194,10.5551-8.6281
		c1.5591-5.4086-1.9271-35.17-1.9271-35.17S510.5743,135.7388,503.1375,139.501z"/>
	<path fill="#FFFFFF" d="M503.9699,140.0529c0,0-8.6327,16.4375-7.6208,22.6786s3.8541,13.3147,2.479,14.9658
		c-0.9544,1.2726-2.4519,2.0222-4.0427,2.0236c-1.3797,0.092-5.0591,2.6629-5.0591,2.9343c0,0.2713-3.3942,0.276-6.4389,1.5637
		c-3.0447,1.2878-7.5289,2.019-7.5289,2.019s-8.7385-0.276-9.5526,0.5519c-0.8141,0.8279-1.6511,5.7858,0.092,9.7319
		c1.7431,3.9461,3.6794,6.8988,5.1419,7.4369c1.4626,0.5381,10.7437-2.571,18.2726-3.3068s15.7016-6.701,15.7016-6.701
		s9.0006-3.2194,10.5781-8.6327c1.5776-5.4133-1.9041-35.1654-1.9041-35.1654S511.4022,136.3091,503.9699,140.0529z"/>
	<path opacity="0.1" enable-background="new    " d="M503.7814,184.1407c0,0-6.8988-1.3797-4.498,0.9198
		c2.4008,2.2996,2.387,4.314,5.3259,4.222C507.5481,189.1906,503.7814,184.1407,503.7814,184.1407z"/>
	<path opacity="0.1" enable-background="new    " d="M515.4403,233.6188c0,0-3.1183,2.111,2.8469,6.977
		C524.2523,245.4617,515.4403,233.6188,515.4403,233.6188z"/>
	<path opacity="0.1" enable-background="new    " d="M509.489,250.9716c0,0.2759-1.1038,10.1182,3.0262,12.5788
		C516.6453,266.0109,509.489,250.9716,509.489,250.9716z"/>
	<path fill="#FFB0B1" d="M443.9137,173.8339c-3.3298,0.115-10.5229,1.1314-6.793,8.09c3.2976,6.1583,8.8396,2.042,11.9579-1.0808
		C448.3179,177.9316,446.4693,175.4228,443.9137,173.8339z"/>
	<path fill="#FFB0B1" d="M449.4189,180.4614L449.4189,180.4614z"/>
	<path fill="#FFB0B1" d="M449.12,180.7879l0.138-0.1426L449.12,180.7879z"/>
	<path opacity="0.1" enable-background="new    " d="M502.8661,131.25c-3.5322,2.4146-6.4941,4.452-7.0736,4.8751
		c-1.5821,1.1728-4.5992,8.0578-6.5446,11.5716c-1.5499,2.8285-6.586,3.5552-8.4855,3.7345l0.2438-2.1018
		c4.3187-1.9317,7.6255-8.0854,7.6255-8.0854l8.5361-14.9658l2.9389,2.6721C500.1066,128.9504,501.2104,129.8703,502.8661,131.25z"
		/>
	<path fill="#DCE7FF" d="M502.8661,130.9741c-3.5322,2.4146-6.4941,4.452-7.0736,4.8797c-1.5821,1.1682-4.5992,8.0532-6.5446,11.567
		c-1.5499,2.8285-6.586,3.5552-8.4855,3.7345l0.2438-2.1018c4.3187-1.9317,7.6255-8.0854,7.6255-8.0854l8.5361-14.9658
		l2.9389,2.6629C500.1066,128.6653,501.2104,129.5759,502.8661,130.9741z"/>
	<path fill="#FFB0B1" d="M496.0685,119.2553c0.002,2.7609-0.8353,5.4571-2.4008,7.7312
		c-4.2685,6.2079-12.7614,7.7801-18.9693,3.5116c-6.2079-4.2685-7.7801-12.7614-3.5116-18.9693
		c4.2685-6.2079,12.7614-7.7801,18.9693-3.5116C493.8567,110.5617,496.0677,114.7645,496.0685,119.2553z"/>
	<path opacity="0.1" enable-background="new    " d="M519.8739,165.1323c-1.8677-1.1489-3.3889-2.7829-4.4014-4.728
		c-0.768-1.5177-1.2786-3.27-2.5893-4.3462c-1.182-0.9658-2.7595-1.2004-4.2313-1.6327c-4.8383-1.4303-8.8948-5.8456-9.0466-10.8863
		c-0.0736-2.3732,0.6669-4.7418,0.3311-7.0919c-0.1909-1.3301-0.7198-2.589-1.5362-3.6564
		c-0.4053-0.5105-0.8497-0.9887-1.3292-1.4303c-0.6439-0.6071-1.32-1.1958-1.9087-1.8397
		c-0.3708-0.3987-0.6949-0.8385-0.9658-1.3108c-0.2188-0.3865-0.396-0.795-0.5289-1.2188
		c-0.9198-2.8147-0.0828-6.1537-1.0946-9.0006l-0.0552-0.1564c-0.3817-1.0118-1.159-2.0236-2.2398-2.1018
		c-1.0808-0.0782-2.0052,0.8187-3.0355,1.2188c-2.157,0.8371-4.4842-0.5887-6.2825-2.042
		c-1.7982-1.4533-3.8265-3.1136-6.1123-2.7917c-1.5131,0.2162-2.7089,1.2464-4.1025,1.7799
		c-0.3146,0.1218-0.6393,0.2157-0.9704,0.2805c2.8029-6.9902,10.7419-10.3847,17.7322-7.5817
		c5.1739,2.0747,8.5642,7.0895,8.5614,12.6638c0.0016,0.9569-0.0987,1.9112-0.299,2.8469c0.023,0.0644,0.046,0.1242,0.0736,0.1886
		c0.5335,1.3798,1.136,2.7963,1.6649,4.0197l2.5986,2.3548c0,0,1.1038,0.9198,2.7595,2.2996
		c3.6012,3.0355,9.8238,8.3797,13.0341,11.6497C518.7241,145.5075,519.6072,156.702,519.8739,165.1323z"/>
	<path fill="#591D4B" d="M470.5844,105.4946c0.6577-1.3384,0.9843-2.8377,1.7707-4.1071c1.1544-1.8397,3.1689-3.0171,5.2385-3.7299
		c5.4041-1.8627,16.8239-4.567,20.2365,0c0.6715,0.9198,1.228,1.9409,2.157,2.5756c0.7083,0.4829,1.5638,0.6899,2.341,1.0532
		c2.1754,1.021,3.5644,3.247,4.3048,5.519c0.7405,2.272,0.9612,4.7096,1.5039,7.0506c0.6945,3.0033,1.9133,5.8502,3.1274,8.6787
		c1.4304,3.339,2.9481,6.8022,5.7076,9.1616c3.7667,3.2194,4.5992,7.7772,8.0945,11.3094
		c4.1393,4.1945,4.0059,11.1163,1.8718,16.6123c-0.2805,0.7221-0.5979,1.4763-0.4875,2.2444
		c0.1104,0.7681,0.6807,1.4671,1.2188,2.0788l2.2628,2.5525c-5.3535,1.2924-11.4106-1.5039-13.9033-6.4113
		c-0.7681-1.5177-1.2786-3.2654-2.5939-4.3462c-1.1774-0.9658-2.7595-1.1958-4.2267-1.6281
		c-4.8383-1.435-8.8948-5.8548-9.0466-10.8955c-0.0736-2.3686,0.6669-4.7372,0.3311-7.0827
		c-0.1868-1.339-0.7177-2.6067-1.5407-3.6794c-1.2648-1.6511-3.1734-2.7595-4.2036-4.5992
		c-1.7431-3.0769-0.4185-7.0736-1.6741-10.3758c-0.3863-1.0118-1.159-2.0236-2.2398-2.1018
		c-1.0808-0.0782-2.0052,0.8187-3.04,1.2188c-2.1524,0.8371-4.4796-0.5841-6.2779-2.042c-1.7983-1.4579-3.8265-3.1136-6.1169-2.7871
		c-1.5131,0.2116-2.7043,1.2418-4.0979,1.7799c-1.0302,0.3955-3.1183,0.7497-4.0197-0.1196
		C465.3781,111.6713,469.7887,107.1319,470.5844,105.4946z"/>
	<path opacity="0.1" enable-background="new    " d="M517.3076,158.5646c-0.7726-1.5177-1.2786-3.2654-2.5939-4.3416
		c-1.1774-0.9658-2.7595-1.2004-4.2313-1.6327c-4.8337-1.4303-8.8902-5.8502-9.0466-10.8909
		c-0.0736-2.3686,0.6669-4.7418,0.3357-7.0874c-0.1926-1.3304-0.7231-2.5893-1.5407-3.6564
		c-1.2694-1.6511-3.178-2.7595-4.2037-4.5992c-1.7431-3.0723-0.4185-7.069-1.6787-10.3758
		c-0.3817-1.0072-1.159-2.0191-2.2352-2.1018c-1.0762-0.0828-2.0098,0.8233-3.04,1.2234c-2.1524,0.8371-4.4842-0.5887-6.2779-2.042
		s-3.8311-3.1136-6.1169-2.7917c-1.5131,0.2162-2.7089,1.2464-4.0979,1.7799c-1.0302,0.3955-3.1228,0.7543-4.0243-0.115
		c-1.8949-1.8397,2.5157-6.3699,3.3068-7.998c0.6577-1.343,0.9842-2.8377,1.7753-4.1071c0.0414-0.069,0.0874-0.138,0.1334-0.207
		c-0.5917,0.4902-1.1024,1.0707-1.5131,1.7201c-0.7865,1.2694-1.113,2.7595-1.7707,4.1071
		c-0.7957,1.6281-5.2063,6.1721-3.3068,7.998c0.9198,0.8738,2.9895,0.5151,4.0197,0.1196c1.3798-0.5381,2.5847-1.5683,4.0979-1.7799
		c2.2996-0.3265,4.3232,1.3338,6.1169,2.7871s4.1393,2.8791,6.2825,2.042c1.0302-0.4001,1.9316-1.3016,3.0354-1.2188
		c1.1038,0.0828,1.8397,1.09,2.2398,2.1018c1.2556,3.3022-0.069,7.2989,1.6741,10.3758c1.0302,1.8075,2.9389,2.9389,4.2036,4.5992
		c0.8231,1.0726,1.3539,2.3403,1.5407,3.6794c0.3357,2.3456-0.4048,4.7142-0.3311,7.0827
		c0.1518,5.0591,4.2083,9.4605,9.0466,10.8955c1.4579,0.4323,3.0493,0.6623,4.2267,1.6281
		c1.3199,1.0808,1.8396,2.8285,2.5939,4.3462c2.4928,4.9073,8.5499,7.7036,13.9034,6.4113l-1.067-1.205
		C524.1235,165.3806,519.4278,162.7407,517.3076,158.5646z"/>
	<path opacity="0.1" enable-background="new    " d="M485.6008,137.5739c-0.6025,0.9198-2.3272,5.6294-3.7668,9.7411
		c-1.3476-0.5243-2.571-3.8679-2.571-3.8679l7.184-10.2194C487.1829,134.2395,486.7,135.9182,485.6008,137.5739z"/>
	<path fill="#DCE7FF" d="M485.8767,137.298c-0.6025,0.9198-2.3272,5.6294-3.7668,9.7411c-1.3476-0.5197-2.571-3.8679-2.571-3.8679
		l7.1839-10.2148C487.4588,133.9635,486.9759,135.6469,485.8767,137.298z"/>
	<path fill="#BE8B87" d="M444.1069,184.2833l-3.9829-12.5604c-0.1978-0.6168,0.142-1.2771,0.7588-1.4748
		c0.0016-0.0005,0.0031-0.001,0.0047-0.0015l0,0c0.617-0.1926,1.2739,0.1481,1.4717,0.7635l3.9829,12.5466l-0.3955,2.6261
		L444.1069,184.2833z"/>
	<path opacity="0.1" fill="#FFFFFF" enable-background="new    " d="M440.5011,170.6191L440.5011,170.6191
		c0.6184-0.1956,1.2785,0.1458,1.4763,0.7635l3.9829,12.5466l-0.299,1.9684l0.2897,0.3035l0.3955-2.6261l-4.0059-12.5466
		c-0.1979-0.6153-0.8548-0.9561-1.4717-0.7635l0,0c-0.2494,0.0809-0.4647,0.2428-0.6117,0.4599
		C440.3355,170.6829,440.4171,170.6475,440.5011,170.6191z"/>
	<polygon fill="#EFC8C4" points="444.1068,184.2833 446.3421,183.575 446.0155,185.7274 445.9465,186.2012 445.2935,185.5205 	"/>
	<path fill="#727A9C" d="M445.2934,185.5205c0.0389-0.0491,0.0874-0.0899,0.1426-0.1196c0.066-0.0417,0.1501-0.0417,0.2162,0
		c0.0313,0.0379,0.0576,0.0796,0.0782,0.1242c0.0616,0.1028,0.1664,0.1722,0.2852,0.1886l-0.069,0.4599L445.2934,185.5205z"/>
	<path fill="#FFB0B1" d="M440.101,176.1841c0,0,7.9888-0.046,6.1078,3.3528c-1.8811,3.3988-4.8199,3.8081-4.8199,3.8081
		L440.101,176.1841z"/>
	<path fill="#F56539" d="M390.4159,23.652h-0.3449c-13.724,0-25.8612,7.2621-32.8428,17.9782
		c-6.9816-10.7161-19.1188-17.9782-32.8428-17.9782h-0.3449c-21.4359,0.2043-38.7089,17.6332-38.7205,39.0701
		c0,12.7903,5.6018,30.9387,16.5249,45.8723c20.8113,28.4552,55.3835,53.3506,55.3835,53.3506s34.5721-24.8908,55.3788-53.3506
		c10.9277-14.9336,16.5249-33.082,16.5249-45.8723C429.1203,41.2869,411.85,23.8587,390.4159,23.652z M385.481,110.7836
		c-3.1992-0.0122-6.062-1.989-7.2069-4.9763h-8.205c-1.1076-0.0069-2.0887-0.7164-2.4422-1.7661l-2.5204-7.5933l-7.975,27.8665
		c-0.319,1.1019-1.3272,1.8609-2.4744,1.8627h-0.161c-1.2008-0.058-2.1977-0.9475-2.3916-2.134l-8.2188-49.4321l-6.0066,29.2509
		c-0.2834,1.1434-1.3101,1.9462-2.4881,1.9455h-11.5578c-1.4186,0.06-2.6173-1.0414-2.6773-2.46
		c-0.06-1.4186,1.0414-2.6173,2.46-2.6773c0.0724-0.0031,0.1449-0.0031,0.2173,0h9.5341l8.5085-39.3277
		c0.3329-1.3856,1.7259-2.239,3.1115-1.9061c1.0191,0.2448,1.7888,1.0817,1.9477,2.1177l8.3935,50.4255l7.1471-24.9322
		c0.3057-1.0784,1.2845-1.8271,2.4054-1.8397h0.0506c1.1087,0.0004,2.0918,0.7127,2.4376,1.7661l4.5578,13.7102h6.2457
		c1.331-4.0437,5.6881-6.2428,9.7318-4.9118c4.0438,1.331,6.2429,5.6881,4.9119,9.7318c-1.0406,3.1617-3.9932,5.2982-7.3217,5.2983
		L385.481,110.7836z"/>
</g>
</svg>
